G04*
G04 #@! TF.GenerationSoftware,Altium Limited,Altium Designer,18.0.7 (293)*
G04*
G04 Layer_Color=16711935*
%FSLAX25Y25*%
%MOIN*%
G70*
G01*
G75*
G04:AMPARAMS|DCode=85|XSize=39.37mil|YSize=133.86mil|CornerRadius=11.81mil|HoleSize=0mil|Usage=FLASHONLY|Rotation=0.000|XOffset=0mil|YOffset=0mil|HoleType=Round|Shape=RoundedRectangle|*
%AMROUNDEDRECTD85*
21,1,0.03937,0.11024,0,0,0.0*
21,1,0.01575,0.13386,0,0,0.0*
1,1,0.02362,0.00787,-0.05512*
1,1,0.02362,-0.00787,-0.05512*
1,1,0.02362,-0.00787,0.05512*
1,1,0.02362,0.00787,0.05512*
%
%ADD85ROUNDEDRECTD85*%
%ADD110C,0.18110*%
G04:AMPARAMS|DCode=111|XSize=7.87mil|YSize=7.87mil|CornerRadius=0mil|HoleSize=0mil|Usage=FLASHONLY|Rotation=0.000|XOffset=0mil|YOffset=0mil|HoleType=Round|Shape=RoundedRectangle|*
%AMROUNDEDRECTD111*
21,1,0.00787,0.00787,0,0,0.0*
21,1,0.00787,0.00787,0,0,0.0*
1,1,0.00000,0.00394,-0.00394*
1,1,0.00000,-0.00394,-0.00394*
1,1,0.00000,-0.00394,0.00394*
1,1,0.00000,0.00394,0.00394*
%
%ADD111ROUNDEDRECTD111*%
%ADD112O,0.07087X0.04331*%
G04:AMPARAMS|DCode=113|XSize=7.87mil|YSize=7.87mil|CornerRadius=0mil|HoleSize=0mil|Usage=FLASHONLY|Rotation=90.000|XOffset=0mil|YOffset=0mil|HoleType=Round|Shape=RoundedRectangle|*
%AMROUNDEDRECTD113*
21,1,0.00787,0.00787,0,0,90.0*
21,1,0.00787,0.00787,0,0,90.0*
1,1,0.00000,0.00394,0.00394*
1,1,0.00000,0.00394,-0.00394*
1,1,0.00000,-0.00394,-0.00394*
1,1,0.00000,-0.00394,0.00394*
%
%ADD113ROUNDEDRECTD113*%
G04:AMPARAMS|DCode=170|XSize=66.93mil|YSize=66.93mil|CornerRadius=9.84mil|HoleSize=0mil|Usage=FLASHONLY|Rotation=270.000|XOffset=0mil|YOffset=0mil|HoleType=Round|Shape=RoundedRectangle|*
%AMROUNDEDRECTD170*
21,1,0.06693,0.04724,0,0,270.0*
21,1,0.04724,0.06693,0,0,270.0*
1,1,0.01968,-0.02362,-0.02362*
1,1,0.01968,-0.02362,0.02362*
1,1,0.01968,0.02362,0.02362*
1,1,0.01968,0.02362,-0.02362*
%
%ADD170ROUNDEDRECTD170*%
%ADD171C,0.06693*%
%ADD172C,0.21654*%
G36*
X224993Y82998D02*
X224993Y84356D01*
X238322Y90723D01*
X233992Y97939D01*
X224993D01*
Y99213D01*
X233228D01*
X224993Y112796D01*
Y114154D01*
X256489Y99043D01*
Y98109D01*
X224993Y82998D01*
D02*
G37*
G36*
X70201Y121862D02*
X60861Y118627D01*
X70201Y115415D01*
Y114321D01*
X59597D01*
Y115142D01*
X64221D01*
X68766Y115073D01*
X59597Y118308D01*
Y118946D01*
X68811Y122203D01*
X64187Y122124D01*
X59597D01*
Y122955D01*
X70201D01*
Y121862D01*
D02*
G37*
G36*
Y109367D02*
Y108592D01*
X59597Y105210D01*
Y106075D01*
X62570Y106986D01*
Y110961D01*
X59597Y111873D01*
Y112750D01*
X70201Y109367D01*
D02*
G37*
G36*
X60212Y103615D02*
X60303Y103603D01*
X60371Y103569D01*
X60440Y103547D01*
X60497Y103512D01*
X60531Y103478D01*
X60554Y103467D01*
X60565Y103455D01*
X60622Y103387D01*
X60668Y103307D01*
X60702Y103228D01*
X60725Y103159D01*
X60736Y103091D01*
X60747Y103034D01*
Y102988D01*
X60736Y102886D01*
X60725Y102795D01*
X60690Y102715D01*
X60656Y102658D01*
X60622Y102601D01*
X60599Y102567D01*
X60576Y102544D01*
X60565Y102533D01*
X60497Y102476D01*
X60417Y102442D01*
X60280Y102396D01*
X60212Y102385D01*
X60166Y102373D01*
X60132D01*
X60121D01*
X60030Y102385D01*
X59950Y102396D01*
X59882Y102419D01*
X59813Y102453D01*
X59768Y102487D01*
X59734Y102510D01*
X59711Y102522D01*
X59699Y102533D01*
X59642Y102601D01*
X59608Y102681D01*
X59563Y102829D01*
X59551Y102886D01*
X59540Y102943D01*
Y102988D01*
X59551Y103091D01*
X59563Y103182D01*
X59585Y103262D01*
X59620Y103330D01*
X59654Y103387D01*
X59677Y103421D01*
X59688Y103444D01*
X59699Y103455D01*
X59768Y103512D01*
X59836Y103558D01*
X59904Y103581D01*
X59973Y103603D01*
X60030Y103615D01*
X60075Y103626D01*
X60109D01*
X60121D01*
X60212Y103615D01*
D02*
G37*
G36*
X62501Y100665D02*
X62752Y100631D01*
X62980Y100585D01*
X63185Y100528D01*
X63344Y100471D01*
X63458Y100426D01*
X63504Y100403D01*
X63538Y100391D01*
X63549Y100380D01*
X63561D01*
X63766Y100255D01*
X63959Y100118D01*
X64130Y99970D01*
X64278Y99822D01*
X64403Y99685D01*
X64483Y99583D01*
X64517Y99537D01*
X64540Y99503D01*
X64563Y99492D01*
Y99480D01*
X64643Y99355D01*
X64722Y99230D01*
X64871Y98934D01*
X65018Y98637D01*
X65144Y98341D01*
X65201Y98205D01*
X65246Y98079D01*
X65292Y97966D01*
X65326Y97863D01*
X65360Y97783D01*
X65372Y97726D01*
X65394Y97681D01*
Y97669D01*
X65474Y97453D01*
X65543Y97259D01*
X65622Y97066D01*
X65702Y96895D01*
X65782Y96747D01*
X65850Y96599D01*
X65930Y96473D01*
X65998Y96359D01*
X66055Y96257D01*
X66112Y96177D01*
X66169Y96097D01*
X66215Y96040D01*
X66249Y95995D01*
X66271Y95961D01*
X66294Y95949D01*
Y95938D01*
X66397Y95847D01*
X66499Y95756D01*
X66716Y95619D01*
X66943Y95528D01*
X67149Y95460D01*
X67331Y95425D01*
X67410Y95403D01*
X67479D01*
X67536Y95391D01*
X67581D01*
X67604D01*
X67615D01*
X67775Y95403D01*
X67923Y95414D01*
X68196Y95482D01*
X68436Y95574D01*
X68641Y95676D01*
X68800Y95779D01*
X68868Y95824D01*
X68914Y95870D01*
X68959Y95904D01*
X68994Y95938D01*
X69005Y95949D01*
X69016Y95961D01*
X69108Y96075D01*
X69199Y96200D01*
X69335Y96451D01*
X69427Y96724D01*
X69495Y96974D01*
X69540Y97202D01*
X69552Y97305D01*
Y97385D01*
X69563Y97453D01*
Y97555D01*
X69552Y97738D01*
X69540Y97920D01*
X69506Y98091D01*
X69461Y98239D01*
X69415Y98387D01*
X69358Y98524D01*
X69290Y98649D01*
X69233Y98751D01*
X69176Y98854D01*
X69108Y98945D01*
X69051Y99013D01*
X69005Y99070D01*
X68959Y99127D01*
X68937Y99161D01*
X68914Y99173D01*
X68902Y99184D01*
X68777Y99287D01*
X68641Y99389D01*
X68493Y99469D01*
X68356Y99537D01*
X68060Y99640D01*
X67786Y99708D01*
X67661Y99742D01*
X67547Y99754D01*
X67445Y99765D01*
X67353Y99777D01*
X67274Y99788D01*
X67217D01*
X67183D01*
X67171D01*
Y100631D01*
X67422Y100619D01*
X67672Y100597D01*
X67900Y100551D01*
X68117Y100494D01*
X68310Y100426D01*
X68504Y100357D01*
X68675Y100278D01*
X68834Y100198D01*
X68971Y100118D01*
X69096Y100038D01*
X69199Y99970D01*
X69290Y99902D01*
X69358Y99845D01*
X69404Y99799D01*
X69438Y99777D01*
X69449Y99765D01*
X69609Y99594D01*
X69745Y99423D01*
X69871Y99241D01*
X69973Y99059D01*
X70053Y98877D01*
X70133Y98694D01*
X70190Y98512D01*
X70235Y98341D01*
X70269Y98182D01*
X70303Y98034D01*
X70326Y97897D01*
X70338Y97783D01*
X70349Y97692D01*
Y97555D01*
X70338Y97316D01*
X70315Y97077D01*
X70281Y96861D01*
X70224Y96656D01*
X70167Y96462D01*
X70110Y96280D01*
X70030Y96120D01*
X69962Y95972D01*
X69893Y95836D01*
X69825Y95722D01*
X69757Y95619D01*
X69700Y95528D01*
X69643Y95471D01*
X69609Y95414D01*
X69586Y95391D01*
X69574Y95380D01*
X69427Y95232D01*
X69267Y95107D01*
X69108Y94993D01*
X68948Y94902D01*
X68777Y94822D01*
X68618Y94753D01*
X68447Y94696D01*
X68299Y94651D01*
X68151Y94617D01*
X68014Y94594D01*
X67900Y94571D01*
X67798Y94560D01*
X67707D01*
X67650Y94548D01*
X67604D01*
X67593D01*
X67365Y94560D01*
X67160Y94583D01*
X66955Y94628D01*
X66761Y94685D01*
X66590Y94742D01*
X66431Y94822D01*
X66271Y94902D01*
X66146Y94981D01*
X66021Y95061D01*
X65918Y95129D01*
X65827Y95209D01*
X65747Y95266D01*
X65690Y95323D01*
X65645Y95368D01*
X65622Y95391D01*
X65611Y95403D01*
X65508Y95528D01*
X65406Y95676D01*
X65212Y95995D01*
X65030Y96325D01*
X64882Y96656D01*
X64814Y96815D01*
X64757Y96963D01*
X64700Y97088D01*
X64654Y97202D01*
X64620Y97293D01*
X64597Y97373D01*
X64586Y97419D01*
X64574Y97430D01*
X64483Y97681D01*
X64403Y97909D01*
X64312Y98125D01*
X64221Y98307D01*
X64141Y98489D01*
X64062Y98637D01*
X63982Y98774D01*
X63914Y98899D01*
X63845Y99002D01*
X63777Y99093D01*
X63731Y99161D01*
X63686Y99218D01*
X63640Y99264D01*
X63618Y99298D01*
X63606Y99321D01*
X63595D01*
X63492Y99412D01*
X63390Y99492D01*
X63162Y99617D01*
X62923Y99708D01*
X62706Y99765D01*
X62501Y99811D01*
X62410Y99822D01*
X62342D01*
X62285Y99833D01*
X62228D01*
X62205D01*
X62194D01*
X62023Y99822D01*
X61875Y99811D01*
X61579Y99742D01*
X61340Y99640D01*
X61134Y99526D01*
X60964Y99412D01*
X60895Y99366D01*
X60850Y99309D01*
X60804Y99275D01*
X60770Y99241D01*
X60759Y99230D01*
X60747Y99218D01*
X60656Y99104D01*
X60576Y98979D01*
X60440Y98717D01*
X60349Y98444D01*
X60280Y98193D01*
X60246Y97966D01*
X60223Y97863D01*
Y97783D01*
X60212Y97715D01*
Y97612D01*
X60223Y97407D01*
X60235Y97202D01*
X60269Y97020D01*
X60315Y96838D01*
X60360Y96678D01*
X60417Y96530D01*
X60474Y96394D01*
X60531Y96268D01*
X60588Y96154D01*
X60645Y96052D01*
X60702Y95972D01*
X60747Y95904D01*
X60793Y95847D01*
X60827Y95813D01*
X60838Y95790D01*
X60850Y95779D01*
X60975Y95665D01*
X61112Y95562D01*
X61260Y95471D01*
X61396Y95391D01*
X61545Y95323D01*
X61693Y95266D01*
X61977Y95186D01*
X62103Y95164D01*
X62228Y95141D01*
X62342Y95129D01*
X62433Y95118D01*
X62513Y95107D01*
X62570D01*
X62604D01*
X62615D01*
Y94275D01*
X62262Y94298D01*
X61943Y94343D01*
X61659Y94412D01*
X61408Y94491D01*
X61305Y94537D01*
X61203Y94571D01*
X61123Y94605D01*
X61055Y94640D01*
X60998Y94674D01*
X60964Y94685D01*
X60941Y94708D01*
X60930D01*
X60679Y94879D01*
X60451Y95072D01*
X60269Y95277D01*
X60109Y95471D01*
X59984Y95642D01*
X59939Y95710D01*
X59893Y95779D01*
X59870Y95836D01*
X59847Y95870D01*
X59825Y95893D01*
Y95904D01*
X59699Y96200D01*
X59608Y96496D01*
X59540Y96781D01*
X59494Y97054D01*
X59483Y97168D01*
X59472Y97282D01*
X59460Y97373D01*
Y97453D01*
X59449Y97521D01*
Y97612D01*
X59460Y97863D01*
X59483Y98102D01*
X59517Y98330D01*
X59563Y98546D01*
X59620Y98740D01*
X59688Y98922D01*
X59756Y99093D01*
X59825Y99241D01*
X59893Y99378D01*
X59961Y99492D01*
X60030Y99594D01*
X60087Y99685D01*
X60132Y99742D01*
X60166Y99799D01*
X60189Y99822D01*
X60201Y99833D01*
X60349Y99981D01*
X60508Y100107D01*
X60668Y100221D01*
X60838Y100323D01*
X61009Y100403D01*
X61169Y100471D01*
X61340Y100528D01*
X61499Y100574D01*
X61647Y100608D01*
X61784Y100631D01*
X61898Y100654D01*
X62012Y100665D01*
X62091Y100676D01*
X62160D01*
X62205D01*
X62217D01*
X62501Y100665D01*
D02*
G37*
G36*
X60360Y88261D02*
X64677D01*
Y92384D01*
X65440D01*
Y88261D01*
X69415D01*
Y92965D01*
X70201D01*
Y87441D01*
X59597D01*
Y92999D01*
X60360D01*
Y88261D01*
D02*
G37*
G36*
X70201Y84878D02*
X62479Y83306D01*
X60884Y83033D01*
X62399Y82726D01*
X70201Y80846D01*
Y80106D01*
X62399Y78204D01*
X60907Y77885D01*
X62479Y77634D01*
X70201Y76051D01*
Y75197D01*
X59597Y77452D01*
Y78238D01*
X67855Y80277D01*
X68846Y80482D01*
X67855Y80687D01*
X59597Y82680D01*
Y83466D01*
X70201Y85721D01*
Y84878D01*
D02*
G37*
%LPC*%
G36*
X239425Y91233D02*
X253433Y97939D01*
X235350D01*
X239425Y91233D01*
D02*
G37*
G36*
X234671Y99213D02*
X253518D01*
X227031Y111777D01*
X234671Y99213D01*
D02*
G37*
G36*
X63344Y110722D02*
Y107226D01*
X69028Y108968D01*
X63344Y110722D01*
D02*
G37*
%LPD*%
D85*
X137480Y88976D02*
D03*
X147480D02*
D03*
X157480D02*
D03*
X167480D02*
D03*
X177480D02*
D03*
Y107874D02*
D03*
X167480D02*
D03*
X157480D02*
D03*
X147480D02*
D03*
X137480D02*
D03*
D110*
X11811Y185039D02*
D03*
X303150D02*
D03*
Y11811D02*
D03*
X11811D02*
D03*
D111*
X132283Y164961D02*
D03*
X182677D02*
D03*
X132283Y31890D02*
D03*
X182677D02*
D03*
X55512Y175591D02*
D03*
X86221D02*
D03*
X298228Y137795D02*
D03*
Y147638D02*
D03*
Y157480D02*
D03*
Y167323D02*
D03*
D112*
X308268Y36220D02*
D03*
Y62205D02*
D03*
D113*
X20866Y156102D02*
D03*
Y135236D02*
D03*
X84252Y128937D02*
D03*
X20866Y108858D02*
D03*
Y87992D02*
D03*
X84252Y81693D02*
D03*
Y34449D02*
D03*
X20866Y40748D02*
D03*
Y61614D02*
D03*
D170*
X297244Y118425D02*
D03*
D171*
Y108425D02*
D03*
Y98425D02*
D03*
Y88425D02*
D03*
Y78425D02*
D03*
D172*
X204724Y15748D02*
D03*
X110236D02*
D03*
X204724Y181102D02*
D03*
X110236D02*
D03*
M02*
