G04*
G04 #@! TF.GenerationSoftware,Altium Limited,Altium Designer,18.0.7 (293)*
G04*
G04 Layer_Color=8388736*
%FSLAX25Y25*%
%MOIN*%
G70*
G01*
G75*
%ADD65R,0.23622X0.23622*%
%ADD66O,0.04134X0.01575*%
%ADD67O,0.01575X0.04134*%
%ADD68R,0.08858X0.08858*%
%ADD69O,0.01890X0.04134*%
%ADD70O,0.04134X0.01890*%
G04:AMPARAMS|DCode=71|XSize=47.24mil|YSize=43.31mil|CornerRadius=12.8mil|HoleSize=0mil|Usage=FLASHONLY|Rotation=180.000|XOffset=0mil|YOffset=0mil|HoleType=Round|Shape=RoundedRectangle|*
%AMROUNDEDRECTD71*
21,1,0.04724,0.01772,0,0,180.0*
21,1,0.02165,0.04331,0,0,180.0*
1,1,0.02559,-0.01083,0.00886*
1,1,0.02559,0.01083,0.00886*
1,1,0.02559,0.01083,-0.00886*
1,1,0.02559,-0.01083,-0.00886*
%
%ADD71ROUNDEDRECTD71*%
G04:AMPARAMS|DCode=72|XSize=47.24mil|YSize=43.31mil|CornerRadius=12.8mil|HoleSize=0mil|Usage=FLASHONLY|Rotation=270.000|XOffset=0mil|YOffset=0mil|HoleType=Round|Shape=RoundedRectangle|*
%AMROUNDEDRECTD72*
21,1,0.04724,0.01772,0,0,270.0*
21,1,0.02165,0.04331,0,0,270.0*
1,1,0.02559,-0.00886,-0.01083*
1,1,0.02559,-0.00886,0.01083*
1,1,0.02559,0.00886,0.01083*
1,1,0.02559,0.00886,-0.01083*
%
%ADD72ROUNDEDRECTD72*%
G04:AMPARAMS|DCode=73|XSize=39.37mil|YSize=39.37mil|CornerRadius=11.81mil|HoleSize=0mil|Usage=FLASHONLY|Rotation=90.000|XOffset=0mil|YOffset=0mil|HoleType=Round|Shape=RoundedRectangle|*
%AMROUNDEDRECTD73*
21,1,0.03937,0.01575,0,0,90.0*
21,1,0.01575,0.03937,0,0,90.0*
1,1,0.02362,0.00787,0.00787*
1,1,0.02362,0.00787,-0.00787*
1,1,0.02362,-0.00787,-0.00787*
1,1,0.02362,-0.00787,0.00787*
%
%ADD73ROUNDEDRECTD73*%
G04:AMPARAMS|DCode=74|XSize=39.37mil|YSize=39.37mil|CornerRadius=11.81mil|HoleSize=0mil|Usage=FLASHONLY|Rotation=0.000|XOffset=0mil|YOffset=0mil|HoleType=Round|Shape=RoundedRectangle|*
%AMROUNDEDRECTD74*
21,1,0.03937,0.01575,0,0,0.0*
21,1,0.01575,0.03937,0,0,0.0*
1,1,0.02362,0.00787,-0.00787*
1,1,0.02362,-0.00787,-0.00787*
1,1,0.02362,-0.00787,0.00787*
1,1,0.02362,0.00787,0.00787*
%
%ADD74ROUNDEDRECTD74*%
G04:AMPARAMS|DCode=75|XSize=39.37mil|YSize=39.37mil|CornerRadius=11.81mil|HoleSize=0mil|Usage=FLASHONLY|Rotation=45.000|XOffset=0mil|YOffset=0mil|HoleType=Round|Shape=RoundedRectangle|*
%AMROUNDEDRECTD75*
21,1,0.03937,0.01575,0,0,45.0*
21,1,0.01575,0.03937,0,0,45.0*
1,1,0.02362,0.01114,0.00000*
1,1,0.02362,0.00000,-0.01114*
1,1,0.02362,-0.01114,0.00000*
1,1,0.02362,0.00000,0.01114*
%
%ADD75ROUNDEDRECTD75*%
G04:AMPARAMS|DCode=76|XSize=114.17mil|YSize=62.99mil|CornerRadius=17.72mil|HoleSize=0mil|Usage=FLASHONLY|Rotation=90.000|XOffset=0mil|YOffset=0mil|HoleType=Round|Shape=RoundedRectangle|*
%AMROUNDEDRECTD76*
21,1,0.11417,0.02756,0,0,90.0*
21,1,0.07874,0.06299,0,0,90.0*
1,1,0.03543,0.01378,0.03937*
1,1,0.03543,0.01378,-0.03937*
1,1,0.03543,-0.01378,-0.03937*
1,1,0.03543,-0.01378,0.03937*
%
%ADD76ROUNDEDRECTD76*%
G04:AMPARAMS|DCode=77|XSize=114.17mil|YSize=62.99mil|CornerRadius=17.72mil|HoleSize=0mil|Usage=FLASHONLY|Rotation=0.000|XOffset=0mil|YOffset=0mil|HoleType=Round|Shape=RoundedRectangle|*
%AMROUNDEDRECTD77*
21,1,0.11417,0.02756,0,0,0.0*
21,1,0.07874,0.06299,0,0,0.0*
1,1,0.03543,0.03937,-0.01378*
1,1,0.03543,-0.03937,-0.01378*
1,1,0.03543,-0.03937,0.01378*
1,1,0.03543,0.03937,0.01378*
%
%ADD77ROUNDEDRECTD77*%
G04:AMPARAMS|DCode=78|XSize=124.02mil|YSize=145.67mil|CornerRadius=12.65mil|HoleSize=0mil|Usage=FLASHONLY|Rotation=0.000|XOffset=0mil|YOffset=0mil|HoleType=Round|Shape=RoundedRectangle|*
%AMROUNDEDRECTD78*
21,1,0.12402,0.12037,0,0,0.0*
21,1,0.09872,0.14567,0,0,0.0*
1,1,0.02530,0.04936,-0.06019*
1,1,0.02530,-0.04936,-0.06019*
1,1,0.02530,-0.04936,0.06019*
1,1,0.02530,0.04936,0.06019*
%
%ADD78ROUNDEDRECTD78*%
%ADD79R,0.03150X0.03937*%
G04:AMPARAMS|DCode=80|XSize=62.99mil|YSize=72.44mil|CornerRadius=9.45mil|HoleSize=0mil|Usage=FLASHONLY|Rotation=0.000|XOffset=0mil|YOffset=0mil|HoleType=Round|Shape=RoundedRectangle|*
%AMROUNDEDRECTD80*
21,1,0.06299,0.05354,0,0,0.0*
21,1,0.04409,0.07244,0,0,0.0*
1,1,0.01890,0.02205,-0.02677*
1,1,0.01890,-0.02205,-0.02677*
1,1,0.01890,-0.02205,0.02677*
1,1,0.01890,0.02205,0.02677*
%
%ADD80ROUNDEDRECTD80*%
%ADD81R,0.10236X0.03780*%
%ADD82R,0.06102X0.02362*%
G04:AMPARAMS|DCode=83|XSize=94.49mil|YSize=228.35mil|CornerRadius=25.59mil|HoleSize=0mil|Usage=FLASHONLY|Rotation=0.000|XOffset=0mil|YOffset=0mil|HoleType=Round|Shape=RoundedRectangle|*
%AMROUNDEDRECTD83*
21,1,0.09449,0.17717,0,0,0.0*
21,1,0.04331,0.22835,0,0,0.0*
1,1,0.05118,0.02165,-0.08858*
1,1,0.05118,-0.02165,-0.08858*
1,1,0.05118,-0.02165,0.08858*
1,1,0.05118,0.02165,0.08858*
%
%ADD83ROUNDEDRECTD83*%
G04:AMPARAMS|DCode=84|XSize=55.12mil|YSize=181.1mil|CornerRadius=15.75mil|HoleSize=0mil|Usage=FLASHONLY|Rotation=0.000|XOffset=0mil|YOffset=0mil|HoleType=Round|Shape=RoundedRectangle|*
%AMROUNDEDRECTD84*
21,1,0.05512,0.14961,0,0,0.0*
21,1,0.02362,0.18110,0,0,0.0*
1,1,0.03150,0.01181,-0.07480*
1,1,0.03150,-0.01181,-0.07480*
1,1,0.03150,-0.01181,0.07480*
1,1,0.03150,0.01181,0.07480*
%
%ADD84ROUNDEDRECTD84*%
G04:AMPARAMS|DCode=85|XSize=39.37mil|YSize=133.86mil|CornerRadius=11.81mil|HoleSize=0mil|Usage=FLASHONLY|Rotation=0.000|XOffset=0mil|YOffset=0mil|HoleType=Round|Shape=RoundedRectangle|*
%AMROUNDEDRECTD85*
21,1,0.03937,0.11024,0,0,0.0*
21,1,0.01575,0.13386,0,0,0.0*
1,1,0.02362,0.00787,-0.05512*
1,1,0.02362,-0.00787,-0.05512*
1,1,0.02362,-0.00787,0.05512*
1,1,0.02362,0.00787,0.05512*
%
%ADD85ROUNDEDRECTD85*%
%ADD86R,0.10827X0.08858*%
G04:AMPARAMS|DCode=87|XSize=25.59mil|YSize=43.31mil|CornerRadius=8.37mil|HoleSize=0mil|Usage=FLASHONLY|Rotation=270.000|XOffset=0mil|YOffset=0mil|HoleType=Round|Shape=RoundedRectangle|*
%AMROUNDEDRECTD87*
21,1,0.02559,0.02657,0,0,270.0*
21,1,0.00886,0.04331,0,0,270.0*
1,1,0.01673,-0.01329,-0.00443*
1,1,0.01673,-0.01329,0.00443*
1,1,0.01673,0.01329,0.00443*
1,1,0.01673,0.01329,-0.00443*
%
%ADD87ROUNDEDRECTD87*%
G04:AMPARAMS|DCode=88|XSize=29.53mil|YSize=51.18mil|CornerRadius=9.35mil|HoleSize=0mil|Usage=FLASHONLY|Rotation=0.000|XOffset=0mil|YOffset=0mil|HoleType=Round|Shape=RoundedRectangle|*
%AMROUNDEDRECTD88*
21,1,0.02953,0.03248,0,0,0.0*
21,1,0.01083,0.05118,0,0,0.0*
1,1,0.01870,0.00541,-0.01624*
1,1,0.01870,-0.00541,-0.01624*
1,1,0.01870,-0.00541,0.01624*
1,1,0.01870,0.00541,0.01624*
%
%ADD88ROUNDEDRECTD88*%
G04:AMPARAMS|DCode=89|XSize=39.37mil|YSize=31.5mil|CornerRadius=9.84mil|HoleSize=0mil|Usage=FLASHONLY|Rotation=180.000|XOffset=0mil|YOffset=0mil|HoleType=Round|Shape=RoundedRectangle|*
%AMROUNDEDRECTD89*
21,1,0.03937,0.01181,0,0,180.0*
21,1,0.01968,0.03150,0,0,180.0*
1,1,0.01968,-0.00984,0.00591*
1,1,0.01968,0.00984,0.00591*
1,1,0.01968,0.00984,-0.00591*
1,1,0.01968,-0.00984,-0.00591*
%
%ADD89ROUNDEDRECTD89*%
%ADD90R,0.06299X0.08268*%
%ADD91R,0.06299X0.07087*%
G04:AMPARAMS|DCode=92|XSize=31.5mil|YSize=51.18mil|CornerRadius=6.3mil|HoleSize=0mil|Usage=FLASHONLY|Rotation=315.000|XOffset=0mil|YOffset=0mil|HoleType=Round|Shape=RoundedRectangle|*
%AMROUNDEDRECTD92*
21,1,0.03150,0.03858,0,0,315.0*
21,1,0.01890,0.05118,0,0,315.0*
1,1,0.01260,-0.00696,-0.02032*
1,1,0.01260,-0.02032,-0.00696*
1,1,0.01260,0.00696,0.02032*
1,1,0.01260,0.02032,0.00696*
%
%ADD92ROUNDEDRECTD92*%
G04:AMPARAMS|DCode=93|XSize=66.93mil|YSize=27.56mil|CornerRadius=8.86mil|HoleSize=0mil|Usage=FLASHONLY|Rotation=270.000|XOffset=0mil|YOffset=0mil|HoleType=Round|Shape=RoundedRectangle|*
%AMROUNDEDRECTD93*
21,1,0.06693,0.00984,0,0,270.0*
21,1,0.04921,0.02756,0,0,270.0*
1,1,0.01772,-0.00492,-0.02461*
1,1,0.01772,-0.00492,0.02461*
1,1,0.01772,0.00492,0.02461*
1,1,0.01772,0.00492,-0.02461*
%
%ADD93ROUNDEDRECTD93*%
%ADD94O,0.02756X0.06693*%
G04:AMPARAMS|DCode=95|XSize=129.92mil|YSize=181.1mil|CornerRadius=10.04mil|HoleSize=0mil|Usage=FLASHONLY|Rotation=90.000|XOffset=0mil|YOffset=0mil|HoleType=Round|Shape=RoundedRectangle|*
%AMROUNDEDRECTD95*
21,1,0.12992,0.16102,0,0,90.0*
21,1,0.10984,0.18110,0,0,90.0*
1,1,0.02008,0.08051,0.05492*
1,1,0.02008,0.08051,-0.05492*
1,1,0.02008,-0.08051,-0.05492*
1,1,0.02008,-0.08051,0.05492*
%
%ADD95ROUNDEDRECTD95*%
G04:AMPARAMS|DCode=96|XSize=68.9mil|YSize=29.53mil|CornerRadius=9.35mil|HoleSize=0mil|Usage=FLASHONLY|Rotation=90.000|XOffset=0mil|YOffset=0mil|HoleType=Round|Shape=RoundedRectangle|*
%AMROUNDEDRECTD96*
21,1,0.06890,0.01083,0,0,90.0*
21,1,0.05020,0.02953,0,0,90.0*
1,1,0.01870,0.00541,0.02510*
1,1,0.01870,0.00541,-0.02510*
1,1,0.01870,-0.00541,-0.02510*
1,1,0.01870,-0.00541,0.02510*
%
%ADD96ROUNDEDRECTD96*%
G04:AMPARAMS|DCode=97|XSize=62.6mil|YSize=62.99mil|CornerRadius=17.62mil|HoleSize=0mil|Usage=FLASHONLY|Rotation=90.000|XOffset=0mil|YOffset=0mil|HoleType=Round|Shape=RoundedRectangle|*
%AMROUNDEDRECTD97*
21,1,0.06260,0.02776,0,0,90.0*
21,1,0.02736,0.06299,0,0,90.0*
1,1,0.03524,0.01388,0.01368*
1,1,0.03524,0.01388,-0.01368*
1,1,0.03524,-0.01388,-0.01368*
1,1,0.03524,-0.01388,0.01368*
%
%ADD97ROUNDEDRECTD97*%
G04:AMPARAMS|DCode=98|XSize=140.16mil|YSize=199.21mil|CornerRadius=10.55mil|HoleSize=0mil|Usage=FLASHONLY|Rotation=0.000|XOffset=0mil|YOffset=0mil|HoleType=Round|Shape=RoundedRectangle|*
%AMROUNDEDRECTD98*
21,1,0.14016,0.17811,0,0,0.0*
21,1,0.11906,0.19921,0,0,0.0*
1,1,0.02110,0.05953,-0.08906*
1,1,0.02110,-0.05953,-0.08906*
1,1,0.02110,-0.05953,0.08906*
1,1,0.02110,0.05953,0.08906*
%
%ADD98ROUNDEDRECTD98*%
%ADD99R,0.01968X0.02165*%
G04:AMPARAMS|DCode=100|XSize=19.68mil|YSize=21.65mil|CornerRadius=5.12mil|HoleSize=0mil|Usage=FLASHONLY|Rotation=0.000|XOffset=0mil|YOffset=0mil|HoleType=Round|Shape=RoundedRectangle|*
%AMROUNDEDRECTD100*
21,1,0.01968,0.01142,0,0,0.0*
21,1,0.00945,0.02165,0,0,0.0*
1,1,0.01024,0.00472,-0.00571*
1,1,0.01024,-0.00472,-0.00571*
1,1,0.01024,-0.00472,0.00571*
1,1,0.01024,0.00472,0.00571*
%
%ADD100ROUNDEDRECTD100*%
%ADD101R,0.04528X0.06693*%
G04:AMPARAMS|DCode=102|XSize=17.13mil|YSize=42.13mil|CornerRadius=4.86mil|HoleSize=0mil|Usage=FLASHONLY|Rotation=0.000|XOffset=0mil|YOffset=0mil|HoleType=Round|Shape=RoundedRectangle|*
%AMROUNDEDRECTD102*
21,1,0.01713,0.03240,0,0,0.0*
21,1,0.00740,0.04213,0,0,0.0*
1,1,0.00972,0.00370,-0.01620*
1,1,0.00972,-0.00370,-0.01620*
1,1,0.00972,-0.00370,0.01620*
1,1,0.00972,0.00370,0.01620*
%
%ADD102ROUNDEDRECTD102*%
G04:AMPARAMS|DCode=103|XSize=101.18mil|YSize=103.54mil|CornerRadius=13.27mil|HoleSize=0mil|Usage=FLASHONLY|Rotation=90.000|XOffset=0mil|YOffset=0mil|HoleType=Round|Shape=RoundedRectangle|*
%AMROUNDEDRECTD103*
21,1,0.10118,0.07701,0,0,90.0*
21,1,0.07465,0.10354,0,0,90.0*
1,1,0.02653,0.03850,0.03732*
1,1,0.02653,0.03850,-0.03732*
1,1,0.02653,-0.03850,-0.03732*
1,1,0.02653,-0.03850,0.03732*
%
%ADD103ROUNDEDRECTD103*%
G04:AMPARAMS|DCode=104|XSize=39.37mil|YSize=31.5mil|CornerRadius=9.84mil|HoleSize=0mil|Usage=FLASHONLY|Rotation=270.000|XOffset=0mil|YOffset=0mil|HoleType=Round|Shape=RoundedRectangle|*
%AMROUNDEDRECTD104*
21,1,0.03937,0.01181,0,0,270.0*
21,1,0.01968,0.03150,0,0,270.0*
1,1,0.01968,-0.00591,-0.00984*
1,1,0.01968,-0.00591,0.00984*
1,1,0.01968,0.00591,0.00984*
1,1,0.01968,0.00591,-0.00984*
%
%ADD104ROUNDEDRECTD104*%
G04:AMPARAMS|DCode=105|XSize=55.12mil|YSize=181.1mil|CornerRadius=15.75mil|HoleSize=0mil|Usage=FLASHONLY|Rotation=90.000|XOffset=0mil|YOffset=0mil|HoleType=Round|Shape=RoundedRectangle|*
%AMROUNDEDRECTD105*
21,1,0.05512,0.14961,0,0,90.0*
21,1,0.02362,0.18110,0,0,90.0*
1,1,0.03150,0.07480,0.01181*
1,1,0.03150,0.07480,-0.01181*
1,1,0.03150,-0.07480,-0.01181*
1,1,0.03150,-0.07480,0.01181*
%
%ADD105ROUNDEDRECTD105*%
G04:AMPARAMS|DCode=106|XSize=94.49mil|YSize=228.35mil|CornerRadius=25.59mil|HoleSize=0mil|Usage=FLASHONLY|Rotation=90.000|XOffset=0mil|YOffset=0mil|HoleType=Round|Shape=RoundedRectangle|*
%AMROUNDEDRECTD106*
21,1,0.09449,0.17717,0,0,90.0*
21,1,0.04331,0.22835,0,0,90.0*
1,1,0.05118,0.08858,0.02165*
1,1,0.05118,0.08858,-0.02165*
1,1,0.05118,-0.08858,-0.02165*
1,1,0.05118,-0.08858,0.02165*
%
%ADD106ROUNDEDRECTD106*%
G04:AMPARAMS|DCode=107|XSize=82.68mil|YSize=62.99mil|CornerRadius=17.72mil|HoleSize=0mil|Usage=FLASHONLY|Rotation=90.000|XOffset=0mil|YOffset=0mil|HoleType=Round|Shape=RoundedRectangle|*
%AMROUNDEDRECTD107*
21,1,0.08268,0.02756,0,0,90.0*
21,1,0.04724,0.06299,0,0,90.0*
1,1,0.03543,0.01378,0.02362*
1,1,0.03543,0.01378,-0.02362*
1,1,0.03543,-0.01378,-0.02362*
1,1,0.03543,-0.01378,0.02362*
%
%ADD107ROUNDEDRECTD107*%
G04:AMPARAMS|DCode=108|XSize=77.95mil|YSize=145.67mil|CornerRadius=21.46mil|HoleSize=0mil|Usage=FLASHONLY|Rotation=270.000|XOffset=0mil|YOffset=0mil|HoleType=Round|Shape=RoundedRectangle|*
%AMROUNDEDRECTD108*
21,1,0.07795,0.10276,0,0,270.0*
21,1,0.03504,0.14567,0,0,270.0*
1,1,0.04291,-0.05138,-0.01752*
1,1,0.04291,-0.05138,0.01752*
1,1,0.04291,0.05138,0.01752*
1,1,0.04291,0.05138,-0.01752*
%
%ADD108ROUNDEDRECTD108*%
%ADD109C,0.00787*%
%ADD110C,0.18110*%
G04:AMPARAMS|DCode=111|XSize=7.87mil|YSize=7.87mil|CornerRadius=0mil|HoleSize=0mil|Usage=FLASHONLY|Rotation=0.000|XOffset=0mil|YOffset=0mil|HoleType=Round|Shape=RoundedRectangle|*
%AMROUNDEDRECTD111*
21,1,0.00787,0.00787,0,0,0.0*
21,1,0.00787,0.00787,0,0,0.0*
1,1,0.00000,0.00394,-0.00394*
1,1,0.00000,-0.00394,-0.00394*
1,1,0.00000,-0.00394,0.00394*
1,1,0.00000,0.00394,0.00394*
%
%ADD111ROUNDEDRECTD111*%
%ADD112O,0.07087X0.04331*%
G04:AMPARAMS|DCode=113|XSize=7.87mil|YSize=7.87mil|CornerRadius=0mil|HoleSize=0mil|Usage=FLASHONLY|Rotation=90.000|XOffset=0mil|YOffset=0mil|HoleType=Round|Shape=RoundedRectangle|*
%AMROUNDEDRECTD113*
21,1,0.00787,0.00787,0,0,90.0*
21,1,0.00787,0.00787,0,0,90.0*
1,1,0.00000,0.00394,0.00394*
1,1,0.00000,0.00394,-0.00394*
1,1,0.00000,-0.00394,-0.00394*
1,1,0.00000,-0.00394,0.00394*
%
%ADD113ROUNDEDRECTD113*%
D65*
X234904Y98425D02*
D03*
D66*
X248979Y109252D02*
D03*
Y107283D02*
D03*
Y105315D02*
D03*
Y103347D02*
D03*
Y101378D02*
D03*
Y99410D02*
D03*
Y97441D02*
D03*
Y95472D02*
D03*
Y93504D02*
D03*
Y91535D02*
D03*
Y89567D02*
D03*
Y87598D02*
D03*
X220829D02*
D03*
Y89567D02*
D03*
Y91535D02*
D03*
Y93504D02*
D03*
Y95472D02*
D03*
Y97441D02*
D03*
Y99410D02*
D03*
Y101378D02*
D03*
Y103347D02*
D03*
Y105315D02*
D03*
Y107283D02*
D03*
Y109252D02*
D03*
D67*
X245731Y84350D02*
D03*
X243762D02*
D03*
X241794D02*
D03*
X239825D02*
D03*
X237857D02*
D03*
X235888D02*
D03*
X233920D02*
D03*
X231951D02*
D03*
X229983D02*
D03*
X228014D02*
D03*
X226046D02*
D03*
X224077D02*
D03*
Y112500D02*
D03*
X226046D02*
D03*
X228014D02*
D03*
X229983D02*
D03*
X231951D02*
D03*
X233920D02*
D03*
X235888D02*
D03*
X237857D02*
D03*
X239825D02*
D03*
X241794D02*
D03*
X243762D02*
D03*
X245731D02*
D03*
D68*
X109252Y51181D02*
D03*
D69*
X112205Y44094D02*
D03*
X106299D02*
D03*
Y58268D02*
D03*
X112205D02*
D03*
X177165Y141634D02*
D03*
X175197D02*
D03*
X173228D02*
D03*
X171260D02*
D03*
X169291D02*
D03*
Y128051D02*
D03*
X171260D02*
D03*
X173228D02*
D03*
X175197D02*
D03*
X177165D02*
D03*
X179134D02*
D03*
Y141634D02*
D03*
X167323Y59153D02*
D03*
X169291D02*
D03*
X171260D02*
D03*
X173228D02*
D03*
X175197D02*
D03*
Y72736D02*
D03*
X173228D02*
D03*
X171260D02*
D03*
X169291D02*
D03*
X167323D02*
D03*
X165354D02*
D03*
Y59153D02*
D03*
D70*
X102165Y47244D02*
D03*
Y49213D02*
D03*
Y51181D02*
D03*
Y53150D02*
D03*
Y55118D02*
D03*
X116339D02*
D03*
Y53150D02*
D03*
Y51181D02*
D03*
Y49213D02*
D03*
Y47244D02*
D03*
X181988Y131890D02*
D03*
Y137795D02*
D03*
X166437D02*
D03*
Y131890D02*
D03*
X162500Y68898D02*
D03*
Y62992D02*
D03*
X178051D02*
D03*
Y68898D02*
D03*
D71*
X148909Y76575D02*
D03*
Y70276D02*
D03*
X143004Y76575D02*
D03*
Y70276D02*
D03*
X200787Y46457D02*
D03*
Y40157D02*
D03*
X84252Y49409D02*
D03*
Y43110D02*
D03*
Y90354D02*
D03*
Y96653D02*
D03*
Y143898D02*
D03*
Y137598D02*
D03*
X274606Y98228D02*
D03*
Y104528D02*
D03*
D72*
X257677Y88583D02*
D03*
X263976D02*
D03*
X231496Y131496D02*
D03*
X237795D02*
D03*
X114567Y155512D02*
D03*
X108268D02*
D03*
X144882Y145669D02*
D03*
X138583D02*
D03*
D73*
X263447Y98425D02*
D03*
X257542D02*
D03*
X231951Y122343D02*
D03*
X237857D02*
D03*
X251636Y76772D02*
D03*
X245731D02*
D03*
X263447Y104331D02*
D03*
X257542D02*
D03*
X205709Y31496D02*
D03*
X199803D02*
D03*
X106299Y38386D02*
D03*
X100394D02*
D03*
X118110D02*
D03*
X112205D02*
D03*
X192913Y138779D02*
D03*
X198819D02*
D03*
X257874Y82677D02*
D03*
X263779D02*
D03*
X198819Y161417D02*
D03*
X204724D02*
D03*
D74*
X114279Y76772D02*
D03*
Y70866D02*
D03*
X136114Y76378D02*
D03*
Y70472D02*
D03*
X211282Y97441D02*
D03*
Y103347D02*
D03*
X269291Y72244D02*
D03*
Y66339D02*
D03*
X184055Y68898D02*
D03*
Y62992D02*
D03*
X160433Y137795D02*
D03*
Y131890D02*
D03*
X151575Y143701D02*
D03*
Y149606D02*
D03*
D75*
X246673Y132818D02*
D03*
X250849Y128642D02*
D03*
X255060Y124430D02*
D03*
X259236Y120255D02*
D03*
D76*
X130028Y92520D02*
D03*
X118004D02*
D03*
Y106299D02*
D03*
X130028D02*
D03*
X138673Y92520D02*
D03*
X150697D02*
D03*
Y106299D02*
D03*
X138673D02*
D03*
X41232Y48228D02*
D03*
X53256D02*
D03*
Y95473D02*
D03*
X41232D02*
D03*
Y142717D02*
D03*
X53256D02*
D03*
D77*
X190945Y39264D02*
D03*
Y51287D02*
D03*
X127953Y157587D02*
D03*
Y145563D02*
D03*
D78*
X125098Y126969D02*
D03*
X146555D02*
D03*
D79*
X281496Y74016D02*
D03*
Y64567D02*
D03*
X159449Y103150D02*
D03*
Y93701D02*
D03*
D80*
X110295Y133858D02*
D03*
X94429D02*
D03*
X62933Y155512D02*
D03*
X78799D02*
D03*
D81*
X290022Y88425D02*
D03*
Y93425D02*
D03*
Y98425D02*
D03*
Y103425D02*
D03*
Y108425D02*
D03*
X305377Y88425D02*
D03*
Y93425D02*
D03*
Y108425D02*
D03*
Y103425D02*
D03*
Y98425D02*
D03*
D82*
X297736Y46654D02*
D03*
Y49213D02*
D03*
Y54331D02*
D03*
Y51772D02*
D03*
Y44094D02*
D03*
D83*
X189764Y173228D02*
D03*
X125197D02*
D03*
X189764Y23622D02*
D03*
X125197D02*
D03*
X93307Y183858D02*
D03*
X48425D02*
D03*
D84*
X137795Y162598D02*
D03*
X147638D02*
D03*
X157480D02*
D03*
X167323D02*
D03*
X177165D02*
D03*
X137795Y34252D02*
D03*
X147638D02*
D03*
X157480D02*
D03*
X167323D02*
D03*
X177165D02*
D03*
X61024Y173228D02*
D03*
X70866D02*
D03*
X80709D02*
D03*
D85*
X225905Y168701D02*
D03*
X235906D02*
D03*
X245905D02*
D03*
X255906D02*
D03*
X265905D02*
D03*
X275905D02*
D03*
X285906D02*
D03*
Y187598D02*
D03*
X275905D02*
D03*
X265905D02*
D03*
X255906D02*
D03*
X245905D02*
D03*
X235906D02*
D03*
X225905D02*
D03*
Y9252D02*
D03*
X235906D02*
D03*
X245905D02*
D03*
X255906D02*
D03*
X265905D02*
D03*
X275905D02*
D03*
X285906D02*
D03*
Y28150D02*
D03*
X275905D02*
D03*
X265905D02*
D03*
X255906D02*
D03*
X245905D02*
D03*
X235906D02*
D03*
X225905D02*
D03*
D86*
X174213Y134843D02*
D03*
X170276Y65945D02*
D03*
D87*
X173819Y116929D02*
D03*
Y113779D02*
D03*
Y110630D02*
D03*
Y107480D02*
D03*
X180512D02*
D03*
Y110630D02*
D03*
Y113779D02*
D03*
Y116929D02*
D03*
X188583D02*
D03*
Y113779D02*
D03*
Y110630D02*
D03*
Y107480D02*
D03*
X195276D02*
D03*
Y110630D02*
D03*
Y113779D02*
D03*
Y116929D02*
D03*
X173819Y99213D02*
D03*
Y96063D02*
D03*
Y92913D02*
D03*
Y89764D02*
D03*
X180512D02*
D03*
Y92913D02*
D03*
Y96063D02*
D03*
Y99213D02*
D03*
X188583D02*
D03*
Y96063D02*
D03*
Y92913D02*
D03*
Y89764D02*
D03*
X195276D02*
D03*
Y92913D02*
D03*
Y96063D02*
D03*
Y99213D02*
D03*
X85630Y10339D02*
D03*
Y13488D02*
D03*
Y16638D02*
D03*
Y19787D02*
D03*
X92323D02*
D03*
Y16638D02*
D03*
Y13488D02*
D03*
Y10339D02*
D03*
X218959Y67520D02*
D03*
Y70669D02*
D03*
Y73819D02*
D03*
Y76968D02*
D03*
X212266D02*
D03*
Y73819D02*
D03*
Y70669D02*
D03*
Y67520D02*
D03*
X85630Y57583D02*
D03*
Y60732D02*
D03*
Y63882D02*
D03*
Y67032D02*
D03*
X92323D02*
D03*
Y63882D02*
D03*
Y60732D02*
D03*
Y57583D02*
D03*
X88976Y104528D02*
D03*
Y107677D02*
D03*
Y110827D02*
D03*
Y113976D02*
D03*
X82284D02*
D03*
Y110827D02*
D03*
Y107677D02*
D03*
Y104528D02*
D03*
X285433Y153937D02*
D03*
Y150787D02*
D03*
Y147638D02*
D03*
Y144488D02*
D03*
X278740D02*
D03*
Y147638D02*
D03*
Y150787D02*
D03*
Y153937D02*
D03*
D88*
X199606Y154331D02*
D03*
X195866D02*
D03*
X192126D02*
D03*
Y144882D02*
D03*
X199606D02*
D03*
D89*
X275197Y66535D02*
D03*
Y72047D02*
D03*
X84252Y131890D02*
D03*
Y125984D02*
D03*
Y84646D02*
D03*
Y78740D02*
D03*
Y37402D02*
D03*
Y31496D02*
D03*
D90*
X308268Y54921D02*
D03*
Y43504D02*
D03*
D91*
X300394Y61811D02*
D03*
Y36614D02*
D03*
D92*
X256319Y133838D02*
D03*
X260216Y129941D02*
D03*
D93*
X127969Y78110D02*
D03*
D94*
X124228D02*
D03*
X120488D02*
D03*
X127969Y68818D02*
D03*
X124228D02*
D03*
X120488D02*
D03*
D95*
X66929Y27531D02*
D03*
Y74776D02*
D03*
Y122020D02*
D03*
D96*
X59055Y15693D02*
D03*
X62205D02*
D03*
X65354D02*
D03*
X68504D02*
D03*
X71653D02*
D03*
X74803D02*
D03*
Y39370D02*
D03*
X71653D02*
D03*
X68504D02*
D03*
X65354D02*
D03*
X62205D02*
D03*
X59055D02*
D03*
Y86614D02*
D03*
X62205D02*
D03*
X65354D02*
D03*
X68504D02*
D03*
X71653D02*
D03*
X74803D02*
D03*
Y62937D02*
D03*
X71653D02*
D03*
X68504D02*
D03*
X65354D02*
D03*
X62205D02*
D03*
X59055D02*
D03*
Y110181D02*
D03*
X62205D02*
D03*
X65354D02*
D03*
X68504D02*
D03*
X71653D02*
D03*
X74803D02*
D03*
Y133858D02*
D03*
X71653D02*
D03*
X68504D02*
D03*
X65354D02*
D03*
X62205D02*
D03*
X59055D02*
D03*
D97*
X48307Y15630D02*
D03*
X41063D02*
D03*
Y62874D02*
D03*
X48307D02*
D03*
Y110118D02*
D03*
X41063D02*
D03*
D98*
X44685Y31307D02*
D03*
Y78551D02*
D03*
Y125795D02*
D03*
D99*
X93898Y163091D02*
D03*
X96457D02*
D03*
X93898Y155807D02*
D03*
X96457D02*
D03*
D100*
X99016Y163091D02*
D03*
Y155807D02*
D03*
D101*
X95177Y159449D02*
D03*
D102*
X99083Y159843D02*
D03*
D103*
X102362Y120551D02*
D03*
Y95984D02*
D03*
D104*
X301181Y137795D02*
D03*
X295276D02*
D03*
X301181Y147638D02*
D03*
X295276D02*
D03*
X301181Y157480D02*
D03*
X295276D02*
D03*
X301181Y167323D02*
D03*
X295276D02*
D03*
D105*
X23228Y150591D02*
D03*
Y140748D02*
D03*
Y103347D02*
D03*
Y93504D02*
D03*
Y46260D02*
D03*
Y56102D02*
D03*
D106*
X12598Y128150D02*
D03*
Y163189D02*
D03*
Y80905D02*
D03*
Y115945D02*
D03*
Y68701D02*
D03*
Y33661D02*
D03*
D107*
X107587Y146063D02*
D03*
X95563D02*
D03*
D108*
X34449Y190413D02*
D03*
Y169823D02*
D03*
D109*
X204724Y15748D02*
D03*
X110236D02*
D03*
X204724Y181102D02*
D03*
X110236D02*
D03*
D110*
X11811Y185039D02*
D03*
X303150D02*
D03*
Y11811D02*
D03*
X11811D02*
D03*
D111*
X132283Y164961D02*
D03*
X182677D02*
D03*
X132283Y31890D02*
D03*
X182677D02*
D03*
X55512Y175591D02*
D03*
X86221D02*
D03*
X298228Y137795D02*
D03*
Y147638D02*
D03*
Y157480D02*
D03*
Y167323D02*
D03*
D112*
X308268Y36220D02*
D03*
Y62205D02*
D03*
D113*
X20866Y156102D02*
D03*
Y135236D02*
D03*
X84252Y128937D02*
D03*
X20866Y108858D02*
D03*
Y87992D02*
D03*
X84252Y81693D02*
D03*
Y34449D02*
D03*
X20866Y40748D02*
D03*
Y61614D02*
D03*
M02*
