G04*
G04 #@! TF.GenerationSoftware,Altium Limited,Altium Designer,18.0.7 (293)*
G04*
G04 Layer_Physical_Order=2*
G04 Layer_Color=16440176*
%FSLAX25Y25*%
%MOIN*%
G70*
G01*
G75*
%ADD164O,0.06299X0.03543*%
%ADD165C,0.02559*%
%ADD166C,0.02362*%
G36*
X305302Y195859D02*
X306696Y195486D01*
X308029Y194934D01*
X309279Y194212D01*
X310423Y193334D01*
X311444Y192313D01*
X312322Y191168D01*
X313044Y189919D01*
X313596Y188585D01*
X313969Y187191D01*
X314158Y185761D01*
X314158Y185039D01*
X314158Y23622D01*
X314158Y11811D01*
X314158Y11089D01*
X313969Y9659D01*
X313596Y8265D01*
X313044Y6932D01*
X312322Y5682D01*
X311444Y4537D01*
X310423Y3517D01*
X309278Y2638D01*
X308029Y1917D01*
X306696Y1365D01*
X305302Y991D01*
X303871Y803D01*
X303150Y803D01*
X200992D01*
X200087Y803D01*
X198310Y1156D01*
X196636Y1850D01*
X195130Y2856D01*
X194489Y3497D01*
X194489Y3497D01*
X191513Y6473D01*
X190504Y7481D01*
X190488Y7492D01*
X190476Y7508D01*
X189749Y8167D01*
X189698Y8198D01*
X189656Y8240D01*
X188026Y9329D01*
X187953Y9359D01*
X187887Y9403D01*
X186076Y10154D01*
X185998Y10169D01*
X185925Y10199D01*
X184002Y10582D01*
X183943D01*
X183885Y10596D01*
X182905Y10644D01*
X182885Y10641D01*
X182866Y10645D01*
X132095Y10645D01*
X132075Y10641D01*
X132055Y10644D01*
X131075Y10596D01*
X131018Y10582D01*
X130958D01*
X129035Y10199D01*
X128962Y10169D01*
X128885Y10154D01*
X127074Y9403D01*
X127008Y9359D01*
X126935Y9329D01*
X125305Y8240D01*
X125263Y8198D01*
X125212Y8167D01*
X124485Y7508D01*
X124473Y7492D01*
X124456Y7481D01*
X120472Y3497D01*
X119831Y2856D01*
X118325Y1850D01*
X116651Y1156D01*
X114874Y803D01*
X113968Y803D01*
X11811Y803D01*
X11090Y803D01*
X9659Y991D01*
X8265Y1365D01*
X6932Y1917D01*
X5682Y2638D01*
X4537Y3517D01*
X3517Y4537D01*
X2638Y5682D01*
X1917Y6932D01*
X1365Y8265D01*
X991Y9659D01*
X803Y11090D01*
X803Y11811D01*
X803Y23622D01*
X803Y181102D01*
X803Y185039D01*
X803Y185761D01*
X991Y187191D01*
X1365Y188585D01*
X1917Y189919D01*
X2638Y191168D01*
X3517Y192313D01*
X4537Y193333D01*
X5682Y194212D01*
X6932Y194933D01*
X8265Y195486D01*
X9659Y195859D01*
X11089Y196048D01*
X11811Y196048D01*
X15748D01*
X102362Y196048D01*
X113968Y196047D01*
X113968Y196047D01*
X113968Y196047D01*
X114874Y196048D01*
X116651Y195694D01*
X118325Y195001D01*
X119831Y193994D01*
X120472Y193354D01*
X120472Y193354D01*
X121480Y192346D01*
X121480Y192346D01*
X124456Y189369D01*
X124473Y189358D01*
X124485Y189342D01*
X125212Y188683D01*
X125263Y188652D01*
X125305Y188610D01*
X126935Y187521D01*
X127008Y187491D01*
X127074Y187447D01*
X128885Y186697D01*
X128962Y186681D01*
X129035Y186651D01*
X130958Y186269D01*
X131018D01*
X131075Y186254D01*
X132055Y186206D01*
X132075Y186209D01*
X132095Y186205D01*
X141732D01*
X177165Y186205D01*
X182866D01*
X182885Y186209D01*
X182905Y186206D01*
X183885Y186254D01*
X183943Y186269D01*
X184002D01*
X185925Y186651D01*
X185998Y186681D01*
X186076Y186697D01*
X187887Y187447D01*
X187953Y187491D01*
X188026Y187521D01*
X189656Y188610D01*
X189698Y188652D01*
X189749Y188683D01*
X190476Y189342D01*
X190488Y189358D01*
X190504Y189369D01*
X191513Y190377D01*
X194489Y193354D01*
X195130Y193994D01*
X196636Y195001D01*
X198310Y195694D01*
X200087Y196048D01*
X200992Y196048D01*
X208661Y196048D01*
X303150Y196048D01*
X303871Y196048D01*
X305302Y195859D01*
D02*
G37*
%LPC*%
G36*
X39370Y187620D02*
X38702Y187532D01*
X38080Y187275D01*
X37545Y186864D01*
X37258D01*
X36724Y187275D01*
X36101Y187532D01*
X35433Y187620D01*
X34765Y187532D01*
X34143Y187275D01*
X33608Y186864D01*
X33321D01*
X32787Y187275D01*
X32164Y187532D01*
X31496Y187620D01*
X30828Y187532D01*
X30206Y187275D01*
X29671Y186864D01*
X29384D01*
X28850Y187275D01*
X28227Y187532D01*
X27559Y187620D01*
X26891Y187532D01*
X26269Y187275D01*
X25734Y186864D01*
X25324Y186330D01*
X25066Y185707D01*
X24978Y185039D01*
X25066Y184371D01*
X25324Y183749D01*
X25568Y183430D01*
X25687Y183071D01*
X25568Y182711D01*
X25324Y182393D01*
X25066Y181770D01*
X24978Y181102D01*
X25066Y180434D01*
X25324Y179812D01*
X25734Y179277D01*
X26269Y178867D01*
X26891Y178609D01*
X27559Y178521D01*
X28227Y178609D01*
X28850Y178867D01*
X29168Y179111D01*
X29528Y179230D01*
X29887Y179111D01*
X30206Y178867D01*
X30828Y178609D01*
X31496Y178521D01*
X32164Y178609D01*
X32787Y178867D01*
X33105Y179111D01*
X33465Y179230D01*
X33824Y179111D01*
X34143Y178867D01*
X34765Y178609D01*
X35433Y178521D01*
X36101Y178609D01*
X36724Y178867D01*
X37042Y179111D01*
X37402Y179230D01*
X37761Y179111D01*
X38080Y178867D01*
X38702Y178609D01*
X39370Y178521D01*
X40038Y178609D01*
X40661Y178867D01*
X41195Y179277D01*
X41605Y179812D01*
X41863Y180434D01*
X41951Y181102D01*
X41863Y181770D01*
X41605Y182393D01*
X41361Y182711D01*
X41243Y183071D01*
X41361Y183430D01*
X41605Y183749D01*
X41863Y184371D01*
X41951Y185039D01*
X41863Y185707D01*
X41605Y186330D01*
X41195Y186864D01*
X40661Y187275D01*
X40038Y187532D01*
X39370Y187620D01*
D02*
G37*
G36*
X221457Y189589D02*
X220789Y189501D01*
X220166Y189243D01*
X219632Y188833D01*
X219221Y188298D01*
X218964Y187676D01*
X218876Y187008D01*
X218964Y186340D01*
X219221Y185717D01*
X219632Y185183D01*
X220166Y184773D01*
X220789Y184515D01*
X221457Y184427D01*
X222125Y184515D01*
X222747Y184773D01*
X223282Y185183D01*
X223692Y185717D01*
X223950Y186340D01*
X224038Y187008D01*
X223950Y187676D01*
X223692Y188298D01*
X223282Y188833D01*
X222747Y189243D01*
X222125Y189501D01*
X221457Y189589D01*
D02*
G37*
G36*
X250000Y185652D02*
X249332Y185564D01*
X248709Y185306D01*
X248175Y184896D01*
X247765Y184361D01*
X247507Y183739D01*
X247419Y183071D01*
X247507Y182403D01*
X247765Y181780D01*
X248175Y181246D01*
X248709Y180835D01*
X249332Y180578D01*
X250000Y180490D01*
X250668Y180578D01*
X251291Y180835D01*
X251825Y181246D01*
X252235Y181780D01*
X252493Y182403D01*
X252581Y183071D01*
X252493Y183739D01*
X252235Y184361D01*
X251825Y184896D01*
X251291Y185306D01*
X250668Y185564D01*
X250000Y185652D01*
D02*
G37*
G36*
X303150Y191963D02*
X301799Y191829D01*
X300500Y191436D01*
X299303Y190796D01*
X298254Y189935D01*
X297393Y188886D01*
X296754Y187689D01*
X296359Y186390D01*
X296227Y185039D01*
X296359Y183689D01*
X296754Y182390D01*
X297393Y181193D01*
X298254Y180144D01*
X299303Y179283D01*
X300500Y178643D01*
X301799Y178249D01*
X303150Y178116D01*
X304500Y178249D01*
X305799Y178643D01*
X306996Y179283D01*
X308045Y180144D01*
X308906Y181193D01*
X309546Y182390D01*
X309940Y183689D01*
X310073Y185039D01*
X309940Y186390D01*
X309546Y187689D01*
X308906Y188886D01*
X308045Y189935D01*
X306996Y190796D01*
X305799Y191436D01*
X304500Y191829D01*
X303150Y191963D01*
D02*
G37*
G36*
X11811D02*
X10460Y191829D01*
X9162Y191436D01*
X7965Y190796D01*
X6916Y189935D01*
X6055Y188886D01*
X5415Y187689D01*
X5021Y186390D01*
X4888Y185039D01*
X5021Y183689D01*
X5415Y182390D01*
X6055Y181193D01*
X6916Y180144D01*
X7965Y179283D01*
X9162Y178643D01*
X10460Y178249D01*
X11811Y178116D01*
X13162Y178249D01*
X14460Y178643D01*
X15657Y179283D01*
X16706Y180144D01*
X17567Y181193D01*
X18207Y182390D01*
X18601Y183689D01*
X18734Y185039D01*
X18601Y186390D01*
X18207Y187689D01*
X17567Y188886D01*
X16706Y189935D01*
X15657Y190796D01*
X14460Y191436D01*
X13162Y191829D01*
X11811Y191963D01*
D02*
G37*
G36*
X241142Y181715D02*
X240474Y181627D01*
X239851Y181369D01*
X239317Y180959D01*
X238906Y180424D01*
X238649Y179802D01*
X238561Y179134D01*
X238649Y178466D01*
X238906Y177843D01*
X239317Y177309D01*
X239851Y176899D01*
X240474Y176641D01*
X241142Y176553D01*
X241810Y176641D01*
X242432Y176899D01*
X242967Y177309D01*
X243377Y177843D01*
X243635Y178466D01*
X243723Y179134D01*
X243635Y179802D01*
X243377Y180424D01*
X242967Y180959D01*
X242432Y181369D01*
X241810Y181627D01*
X241142Y181715D01*
D02*
G37*
G36*
X233268D02*
X232600Y181627D01*
X231977Y181369D01*
X231443Y180959D01*
X231032Y180424D01*
X230774Y179802D01*
X230687Y179134D01*
X230774Y178466D01*
X231032Y177843D01*
X231443Y177309D01*
X231977Y176899D01*
X232600Y176641D01*
X233268Y176553D01*
X233936Y176641D01*
X234558Y176899D01*
X235093Y177309D01*
X235503Y177843D01*
X235761Y178466D01*
X235849Y179134D01*
X235761Y179802D01*
X235503Y180424D01*
X235093Y180959D01*
X234558Y181369D01*
X233936Y181627D01*
X233268Y181715D01*
D02*
G37*
G36*
X86221Y179561D02*
X85193Y179426D01*
X84235Y179030D01*
X83413Y178399D01*
X82781Y177576D01*
X82385Y176618D01*
X82249Y175591D01*
X82385Y174563D01*
X82781Y173605D01*
X83413Y172783D01*
X84235Y172152D01*
X85193Y171755D01*
X86221Y171620D01*
X87248Y171755D01*
X88206Y172152D01*
X89028Y172783D01*
X89659Y173605D01*
X90056Y174563D01*
X90191Y175591D01*
X90056Y176618D01*
X89659Y177576D01*
X89028Y178399D01*
X88206Y179030D01*
X87248Y179426D01*
X86221Y179561D01*
D02*
G37*
G36*
X55512D02*
X54484Y179426D01*
X53526Y179030D01*
X52704Y178399D01*
X52073Y177576D01*
X51676Y176618D01*
X51541Y175591D01*
X51676Y174563D01*
X52073Y173605D01*
X52704Y172783D01*
X53526Y172152D01*
X54484Y171755D01*
X55512Y171620D01*
X56540Y171755D01*
X57497Y172152D01*
X58320Y172783D01*
X58951Y173605D01*
X59347Y174563D01*
X59483Y175591D01*
X59347Y176618D01*
X58951Y177576D01*
X58320Y178399D01*
X57497Y179030D01*
X56540Y179426D01*
X55512Y179561D01*
D02*
G37*
G36*
X115157Y168920D02*
X114489Y168832D01*
X113867Y168574D01*
X113549Y168330D01*
X113189Y168211D01*
X112829Y168330D01*
X112511Y168574D01*
X111889Y168832D01*
X111221Y168920D01*
X110552Y168832D01*
X109930Y168574D01*
X109611Y168330D01*
X109252Y168211D01*
X108892Y168330D01*
X108574Y168574D01*
X107951Y168832D01*
X107283Y168920D01*
X106615Y168832D01*
X105993Y168574D01*
X105458Y168164D01*
X105172D01*
X104637Y168574D01*
X104015Y168832D01*
X103347Y168920D01*
X102678Y168832D01*
X102056Y168574D01*
X101521Y168164D01*
X101111Y167629D01*
X100853Y167007D01*
X100765Y166339D01*
X100853Y165671D01*
X101111Y165048D01*
X101355Y164730D01*
X101474Y164370D01*
X101355Y164011D01*
X101111Y163692D01*
X100853Y163070D01*
X100765Y162402D01*
X100853Y161733D01*
X101111Y161111D01*
X101521Y160576D01*
X102056Y160166D01*
X102678Y159908D01*
X103347Y159820D01*
X104015Y159908D01*
X104637Y160166D01*
X105172Y160576D01*
X105458D01*
X105993Y160166D01*
X106615Y159908D01*
X107283Y159820D01*
X107951Y159908D01*
X108574Y160166D01*
X109109Y160576D01*
X109395D01*
X109930Y160166D01*
X110552Y159908D01*
X111221Y159820D01*
X111889Y159908D01*
X112511Y160166D01*
X113046Y160576D01*
X113332D01*
X113867Y160166D01*
X114489Y159908D01*
X115157Y159820D01*
X115825Y159908D01*
X116448Y160166D01*
X116983Y160576D01*
X117393Y161111D01*
X117651Y161733D01*
X117739Y162402D01*
X117651Y163070D01*
X117393Y163692D01*
X117148Y164011D01*
X117030Y164370D01*
X117148Y164730D01*
X117393Y165048D01*
X117651Y165671D01*
X117739Y166339D01*
X117651Y167007D01*
X117393Y167629D01*
X116983Y168164D01*
X116448Y168574D01*
X115825Y168832D01*
X115157Y168920D01*
D02*
G37*
G36*
X298228Y169129D02*
X297537Y168992D01*
X296951Y168600D01*
X296560Y168014D01*
X296422Y167323D01*
X296560Y166632D01*
X296951Y166045D01*
X297537Y165654D01*
X298228Y165516D01*
X298920Y165654D01*
X299506Y166045D01*
X299897Y166632D01*
X300035Y167323D01*
X299897Y168014D01*
X299506Y168600D01*
X298920Y168992D01*
X298228Y169129D01*
D02*
G37*
G36*
X304134Y169904D02*
X303466Y169816D01*
X302843Y169558D01*
X302309Y169148D01*
X301899Y168613D01*
X301641Y167991D01*
X301553Y167323D01*
X301641Y166655D01*
X301899Y166032D01*
X302309Y165498D01*
X302843Y165087D01*
X303466Y164830D01*
X304134Y164742D01*
X304802Y164830D01*
X305424Y165087D01*
X305959Y165498D01*
X306369Y166032D01*
X306627Y166655D01*
X306715Y167323D01*
X306627Y167991D01*
X306369Y168613D01*
X305959Y169148D01*
X305424Y169558D01*
X304802Y169816D01*
X304134Y169904D01*
D02*
G37*
G36*
X47244Y163998D02*
X46576Y163910D01*
X45954Y163653D01*
X45635Y163408D01*
X45276Y163290D01*
X44916Y163408D01*
X44598Y163653D01*
X43975Y163910D01*
X43307Y163998D01*
X42639Y163910D01*
X42017Y163653D01*
X41698Y163408D01*
X41339Y163290D01*
X40979Y163408D01*
X40661Y163653D01*
X40038Y163910D01*
X39370Y163998D01*
X38702Y163910D01*
X38080Y163653D01*
X37545Y163242D01*
X37135Y162708D01*
X36877Y162085D01*
X36789Y161417D01*
X36877Y160749D01*
X37135Y160127D01*
X37379Y159808D01*
X37498Y159449D01*
X37379Y159089D01*
X37135Y158771D01*
X36877Y158148D01*
X36789Y157480D01*
X36877Y156812D01*
X37135Y156190D01*
X37379Y155871D01*
X37498Y155512D01*
X37379Y155152D01*
X37135Y154834D01*
X36877Y154211D01*
X36789Y153543D01*
X36877Y152875D01*
X37135Y152253D01*
X37545Y151718D01*
X38080Y151308D01*
X38702Y151050D01*
X39370Y150962D01*
X40038Y151050D01*
X40661Y151308D01*
X41195Y151718D01*
X41482D01*
X42017Y151308D01*
X42639Y151050D01*
X43307Y150962D01*
X43975Y151050D01*
X44598Y151308D01*
X44916Y151552D01*
X45276Y151671D01*
X45635Y151552D01*
X45954Y151308D01*
X46576Y151050D01*
X47244Y150962D01*
X47912Y151050D01*
X48535Y151308D01*
X49069Y151718D01*
X49479Y152253D01*
X49737Y152875D01*
X49825Y153543D01*
X49737Y154211D01*
X49479Y154834D01*
X49235Y155152D01*
X49117Y155512D01*
X49235Y155871D01*
X49479Y156190D01*
X49737Y156812D01*
X49825Y157480D01*
X49737Y158148D01*
X49479Y158771D01*
X49069Y159305D01*
Y159592D01*
X49479Y160127D01*
X49737Y160749D01*
X49825Y161417D01*
X49737Y162085D01*
X49479Y162708D01*
X49069Y163242D01*
X48535Y163653D01*
X47912Y163910D01*
X47244Y163998D01*
D02*
G37*
G36*
X203740Y167936D02*
X203072Y167848D01*
X202450Y167590D01*
X201915Y167180D01*
X201505Y166645D01*
X201247Y166022D01*
X201159Y165354D01*
X201247Y164686D01*
X201505Y164064D01*
X201915Y163529D01*
X202450Y163119D01*
X203072Y162861D01*
X203740Y162773D01*
X204408Y162861D01*
X205031Y163119D01*
X205565Y163529D01*
X205976Y164064D01*
X206233Y164686D01*
X206321Y165354D01*
X206233Y166022D01*
X205976Y166645D01*
X205565Y167180D01*
X205031Y167590D01*
X204408Y167848D01*
X203740Y167936D01*
D02*
G37*
G36*
X182677Y168932D02*
X181649Y168796D01*
X180692Y168400D01*
X179869Y167769D01*
X179238Y166946D01*
X178841Y165988D01*
X178706Y164961D01*
X178841Y163933D01*
X179238Y162975D01*
X179869Y162153D01*
X180692Y161522D01*
X181649Y161125D01*
X182677Y160990D01*
X183705Y161125D01*
X184663Y161522D01*
X185485Y162153D01*
X186116Y162975D01*
X186513Y163933D01*
X186648Y164961D01*
X186513Y165988D01*
X186116Y166946D01*
X185485Y167769D01*
X184663Y168400D01*
X183705Y168796D01*
X182677Y168932D01*
D02*
G37*
G36*
X132283D02*
X131256Y168796D01*
X130298Y168400D01*
X129476Y167769D01*
X128844Y166946D01*
X128448Y165988D01*
X128313Y164961D01*
X128448Y163933D01*
X128844Y162975D01*
X129476Y162153D01*
X130298Y161522D01*
X131256Y161125D01*
X132283Y160990D01*
X133311Y161125D01*
X134269Y161522D01*
X135091Y162153D01*
X135722Y162975D01*
X136119Y163933D01*
X136254Y164961D01*
X136119Y165988D01*
X135722Y166946D01*
X135091Y167769D01*
X134269Y168400D01*
X133311Y168796D01*
X132283Y168932D01*
D02*
G37*
G36*
X298228Y159287D02*
X297537Y159149D01*
X296951Y158758D01*
X296560Y158172D01*
X296422Y157480D01*
X296560Y156789D01*
X296951Y156203D01*
X297537Y155811D01*
X298228Y155674D01*
X298920Y155811D01*
X299506Y156203D01*
X299897Y156789D01*
X300035Y157480D01*
X299897Y158172D01*
X299506Y158758D01*
X298920Y159149D01*
X298228Y159287D01*
D02*
G37*
G36*
X304134Y160061D02*
X303466Y159974D01*
X302843Y159716D01*
X302309Y159305D01*
X301899Y158771D01*
X301641Y158148D01*
X301553Y157480D01*
X301641Y156812D01*
X301899Y156190D01*
X302309Y155655D01*
X302843Y155245D01*
X303466Y154987D01*
X304134Y154899D01*
X304802Y154987D01*
X305424Y155245D01*
X305959Y155655D01*
X306369Y156190D01*
X306627Y156812D01*
X306715Y157480D01*
X306627Y158148D01*
X306369Y158771D01*
X305959Y159305D01*
X305424Y159716D01*
X304802Y159974D01*
X304134Y160061D01*
D02*
G37*
G36*
X88583Y163998D02*
X87915Y163910D01*
X87292Y163653D01*
X86758Y163242D01*
X86347Y162708D01*
X86089Y162085D01*
X86001Y161417D01*
X86089Y160749D01*
X86347Y160127D01*
X86592Y159808D01*
X86710Y159449D01*
X86592Y159089D01*
X86347Y158771D01*
X86089Y158148D01*
X86001Y157480D01*
X86089Y156812D01*
X86347Y156190D01*
X86758Y155655D01*
X87292Y155245D01*
X87915Y154987D01*
X88583Y154899D01*
X89251Y154987D01*
X89873Y155245D01*
X90408Y155655D01*
X90818Y156190D01*
X91076Y156812D01*
X91164Y157480D01*
X91076Y158148D01*
X90818Y158771D01*
X90574Y159089D01*
X90455Y159449D01*
X90574Y159808D01*
X90818Y160127D01*
X91076Y160749D01*
X91164Y161417D01*
X91076Y162085D01*
X90818Y162708D01*
X90408Y163242D01*
X89873Y163653D01*
X89251Y163910D01*
X88583Y163998D01*
D02*
G37*
G36*
X213583Y158093D02*
X212915Y158005D01*
X212292Y157747D01*
X211757Y157337D01*
X211347Y156802D01*
X211089Y156180D01*
X211001Y155512D01*
X211089Y154844D01*
X211347Y154221D01*
X211757Y153687D01*
X212292Y153277D01*
X212915Y153019D01*
X213583Y152931D01*
X214251Y153019D01*
X214873Y153277D01*
X215408Y153687D01*
X215818Y154221D01*
X216076Y154844D01*
X216164Y155512D01*
X216076Y156180D01*
X215818Y156802D01*
X215408Y157337D01*
X214873Y157747D01*
X214251Y158005D01*
X213583Y158093D01*
D02*
G37*
G36*
X20866Y160073D02*
X19838Y159938D01*
X18881Y159541D01*
X18058Y158910D01*
X17427Y158088D01*
X17030Y157130D01*
X16895Y156102D01*
X17030Y155075D01*
X17427Y154117D01*
X18058Y153295D01*
X18881Y152663D01*
X19838Y152267D01*
X20866Y152131D01*
X21894Y152267D01*
X22852Y152663D01*
X23674Y153295D01*
X24305Y154117D01*
X24702Y155075D01*
X24837Y156102D01*
X24702Y157130D01*
X24305Y158088D01*
X23674Y158910D01*
X22852Y159541D01*
X21894Y159938D01*
X20866Y160073D01*
D02*
G37*
G36*
X146653Y152187D02*
X145985Y152100D01*
X145363Y151842D01*
X145177Y151699D01*
X144991Y151842D01*
X144369Y152100D01*
X143701Y152187D01*
X143033Y152100D01*
X142410Y151842D01*
X141876Y151431D01*
X141465Y150897D01*
X141208Y150274D01*
X141120Y149606D01*
X141208Y148938D01*
X141465Y148316D01*
X141876Y147781D01*
X142410Y147371D01*
X143033Y147113D01*
X143701Y147025D01*
X144369Y147113D01*
X144991Y147371D01*
X145177Y147514D01*
X145363Y147371D01*
X145985Y147113D01*
X146653Y147025D01*
X147322Y147113D01*
X147944Y147371D01*
X148479Y147781D01*
X148889Y148316D01*
X149147Y148938D01*
X149235Y149606D01*
X149147Y150274D01*
X148889Y150897D01*
X148479Y151431D01*
X147944Y151842D01*
X147322Y152100D01*
X146653Y152187D01*
D02*
G37*
G36*
X273622Y156124D02*
X272954Y156036D01*
X272332Y155779D01*
X271797Y155368D01*
X271387Y154834D01*
X271129Y154211D01*
X271041Y153543D01*
X271129Y152875D01*
X271387Y152253D01*
X271797Y151718D01*
X272332Y151308D01*
X272954Y151050D01*
X273622Y150962D01*
X274290Y151050D01*
X274913Y151308D01*
X275447Y151718D01*
X275857Y152253D01*
X276115Y152875D01*
X276203Y153543D01*
X276115Y154211D01*
X275857Y154834D01*
X275447Y155368D01*
X274913Y155779D01*
X274290Y156036D01*
X273622Y156124D01*
D02*
G37*
G36*
X36417Y150219D02*
X35749Y150131D01*
X35127Y149873D01*
X34941Y149731D01*
X34755Y149873D01*
X34133Y150131D01*
X33465Y150219D01*
X32796Y150131D01*
X32174Y149873D01*
X31639Y149463D01*
X31229Y148928D01*
X30971Y148306D01*
X30883Y147638D01*
X30971Y146970D01*
X31229Y146347D01*
X31372Y146161D01*
X31229Y145976D01*
X30971Y145353D01*
X30883Y144685D01*
X30971Y144017D01*
X31229Y143394D01*
X31639Y142860D01*
X32174Y142450D01*
X32796Y142192D01*
X33465Y142104D01*
X34133Y142192D01*
X34755Y142450D01*
X34941Y142592D01*
X35127Y142450D01*
X35749Y142192D01*
X36417Y142104D01*
X37085Y142192D01*
X37708Y142450D01*
X38243Y142860D01*
X38653Y143394D01*
X38910Y144017D01*
X38998Y144685D01*
X38910Y145353D01*
X38653Y145976D01*
X38510Y146161D01*
X38653Y146347D01*
X38910Y146970D01*
X38998Y147638D01*
X38910Y148306D01*
X38653Y148928D01*
X38243Y149463D01*
X37708Y149873D01*
X37085Y150131D01*
X36417Y150219D01*
D02*
G37*
G36*
X185827Y154451D02*
X185159Y154363D01*
X184536Y154105D01*
X184002Y153695D01*
X183591Y153161D01*
X183334Y152538D01*
X183246Y151870D01*
X183334Y151202D01*
X183591Y150580D01*
X184002Y150045D01*
X184536Y149635D01*
X185159Y149377D01*
X185827Y149289D01*
X186495Y149377D01*
X187117Y149635D01*
X187652Y150045D01*
X188062Y150580D01*
X188320Y151202D01*
X188408Y151870D01*
X188320Y152538D01*
X188062Y153161D01*
X187652Y153695D01*
X187117Y154105D01*
X186495Y154363D01*
X185827Y154451D01*
D02*
G37*
G36*
X235236Y151203D02*
X234568Y151115D01*
X233946Y150857D01*
X233411Y150447D01*
X233001Y149913D01*
X232743Y149290D01*
X232655Y148622D01*
X232743Y147954D01*
X233001Y147332D01*
X233411Y146797D01*
X233946Y146387D01*
X234568Y146129D01*
X235236Y146041D01*
X235904Y146129D01*
X236527Y146387D01*
X237061Y146797D01*
X237472Y147332D01*
X237729Y147954D01*
X237817Y148622D01*
X237729Y149290D01*
X237472Y149913D01*
X237061Y150447D01*
X236527Y150857D01*
X235904Y151115D01*
X235236Y151203D01*
D02*
G37*
G36*
X298228Y149444D02*
X297537Y149307D01*
X296951Y148915D01*
X296560Y148329D01*
X296422Y147638D01*
X296560Y146947D01*
X296951Y146361D01*
X297537Y145969D01*
X298228Y145831D01*
X298920Y145969D01*
X299506Y146361D01*
X299897Y146947D01*
X300035Y147638D01*
X299897Y148329D01*
X299506Y148915D01*
X298920Y149307D01*
X298228Y149444D01*
D02*
G37*
G36*
X304134Y150219D02*
X303466Y150131D01*
X302843Y149873D01*
X302309Y149463D01*
X301899Y148928D01*
X301641Y148306D01*
X301553Y147638D01*
X301641Y146970D01*
X301899Y146347D01*
X302309Y145813D01*
X302843Y145403D01*
X303466Y145145D01*
X304134Y145057D01*
X304802Y145145D01*
X305424Y145403D01*
X305959Y145813D01*
X306369Y146347D01*
X306627Y146970D01*
X306715Y147638D01*
X306627Y148306D01*
X306369Y148928D01*
X305959Y149463D01*
X305424Y149873D01*
X304802Y150131D01*
X304134Y150219D01*
D02*
G37*
G36*
X175197Y149235D02*
X174529Y149147D01*
X173906Y148889D01*
X173372Y148479D01*
X172961Y147944D01*
X172704Y147322D01*
X172616Y146653D01*
X172704Y145985D01*
X172961Y145363D01*
X173372Y144828D01*
X173906Y144418D01*
X174529Y144160D01*
X175197Y144072D01*
X175865Y144160D01*
X176362Y144366D01*
X176606Y144372D01*
X177032Y144205D01*
X177309Y143844D01*
X177843Y143434D01*
X178466Y143176D01*
X179134Y143088D01*
X179802Y143176D01*
X180424Y143434D01*
X180959Y143844D01*
X181369Y144379D01*
X181627Y145001D01*
X181715Y145669D01*
X181627Y146337D01*
X181369Y146960D01*
X180959Y147494D01*
X180424Y147905D01*
X179802Y148162D01*
X179134Y148250D01*
X178466Y148162D01*
X177843Y147905D01*
X177354Y148046D01*
X177022Y148479D01*
X176487Y148889D01*
X175865Y149147D01*
X175197Y149235D01*
D02*
G37*
G36*
X167323Y148250D02*
X166655Y148162D01*
X166032Y147905D01*
X165498Y147494D01*
X165087Y146960D01*
X164830Y146337D01*
X164742Y145669D01*
X164830Y145001D01*
X165087Y144379D01*
X165498Y143844D01*
X166032Y143434D01*
X166655Y143176D01*
X167323Y143088D01*
X167991Y143176D01*
X168613Y143434D01*
X169148Y143844D01*
X169558Y144379D01*
X169816Y145001D01*
X169904Y145669D01*
X169816Y146337D01*
X169558Y146960D01*
X169148Y147494D01*
X168613Y147905D01*
X167991Y148162D01*
X167323Y148250D01*
D02*
G37*
G36*
X154528Y147266D02*
X153859Y147178D01*
X153237Y146920D01*
X152702Y146510D01*
X152292Y145976D01*
X152034Y145353D01*
X151946Y144685D01*
X152034Y144017D01*
X152292Y143394D01*
X152702Y142860D01*
X153237Y142450D01*
X153859Y142192D01*
X154528Y142104D01*
X155196Y142192D01*
X155818Y142450D01*
X156353Y142860D01*
X156763Y143394D01*
X157021Y144017D01*
X157109Y144685D01*
X157021Y145353D01*
X156763Y145976D01*
X156353Y146510D01*
X155818Y146920D01*
X155196Y147178D01*
X154528Y147266D01*
D02*
G37*
G36*
X151575Y142345D02*
X150907Y142257D01*
X150284Y141999D01*
X149750Y141589D01*
X149463D01*
X148928Y141999D01*
X148306Y142257D01*
X147638Y142345D01*
X146970Y142257D01*
X146347Y141999D01*
X145813Y141589D01*
X145403Y141054D01*
X145145Y140432D01*
X145057Y139764D01*
X145145Y139096D01*
X145403Y138473D01*
X145813Y137939D01*
X146347Y137529D01*
X146970Y137271D01*
X147638Y137183D01*
X148306Y137271D01*
X148928Y137529D01*
X149463Y137939D01*
X149750D01*
X150284Y137529D01*
X150907Y137271D01*
X151575Y137183D01*
X152243Y137271D01*
X152865Y137529D01*
X153400Y137939D01*
X153810Y138473D01*
X154068Y139096D01*
X154156Y139764D01*
X154068Y140432D01*
X153810Y141054D01*
X153400Y141589D01*
X152865Y141999D01*
X152243Y142257D01*
X151575Y142345D01*
D02*
G37*
G36*
X228346Y146282D02*
X227678Y146194D01*
X227056Y145936D01*
X226521Y145526D01*
X226111Y144991D01*
X225853Y144369D01*
X225765Y143701D01*
X225853Y143033D01*
X226111Y142410D01*
X226521Y141876D01*
X227056Y141465D01*
X227678Y141208D01*
X228346Y141120D01*
X229014Y141208D01*
X229637Y141465D01*
X230172Y141876D01*
X230582Y142410D01*
X230840Y143033D01*
X230928Y143701D01*
X230840Y144369D01*
X230582Y144991D01*
X230172Y145526D01*
X229637Y145936D01*
X229014Y146194D01*
X228346Y146282D01*
D02*
G37*
G36*
X80709D02*
X80041Y146194D01*
X79418Y145936D01*
X78883Y145526D01*
X78473Y144991D01*
X78215Y144369D01*
X78127Y143701D01*
X78215Y143033D01*
X78473Y142410D01*
X78883Y141876D01*
X79418Y141465D01*
X80041Y141208D01*
X80709Y141120D01*
X81377Y141208D01*
X81999Y141465D01*
X82534Y141876D01*
X82944Y142410D01*
X83202Y143033D01*
X83290Y143701D01*
X83202Y144369D01*
X82944Y144991D01*
X82534Y145526D01*
X81999Y145936D01*
X81377Y146194D01*
X80709Y146282D01*
D02*
G37*
G36*
X100394Y152187D02*
X99726Y152100D01*
X99103Y151842D01*
X98569Y151431D01*
X98158Y150897D01*
X97900Y150274D01*
X97813Y149606D01*
X97900Y148938D01*
X98158Y148316D01*
X98301Y148130D01*
X98158Y147944D01*
X97900Y147322D01*
X97813Y146653D01*
X97900Y145985D01*
X98158Y145363D01*
X98301Y145177D01*
X98158Y144991D01*
X97900Y144369D01*
X97813Y143701D01*
X97900Y143033D01*
X98158Y142410D01*
X98569Y141876D01*
X99103Y141465D01*
X99726Y141208D01*
X100394Y141120D01*
X101062Y141208D01*
X101684Y141465D01*
X102219Y141876D01*
X102629Y142410D01*
X102887Y143033D01*
X102975Y143701D01*
X102887Y144369D01*
X102629Y144991D01*
X102486Y145177D01*
X102629Y145363D01*
X102887Y145985D01*
X102975Y146653D01*
X102887Y147322D01*
X102629Y147944D01*
X102486Y148130D01*
X102629Y148316D01*
X102887Y148938D01*
X102975Y149606D01*
X102887Y150274D01*
X102629Y150897D01*
X102219Y151431D01*
X101684Y151842D01*
X101062Y152100D01*
X100394Y152187D01*
D02*
G37*
G36*
X222441Y143329D02*
X221773Y143241D01*
X221150Y142983D01*
X220616Y142573D01*
X220206Y142039D01*
X219948Y141416D01*
X219860Y140748D01*
X219948Y140080D01*
X220055Y139822D01*
X219739Y139410D01*
X219237D01*
X218922Y139822D01*
X219029Y140080D01*
X219117Y140748D01*
X219029Y141416D01*
X218771Y142039D01*
X218361Y142573D01*
X217826Y142983D01*
X217203Y143241D01*
X216535Y143329D01*
X215867Y143241D01*
X215245Y142983D01*
X214710Y142573D01*
X214300Y142039D01*
X214042Y141416D01*
X213954Y140748D01*
X214042Y140080D01*
X214149Y139822D01*
X213833Y139410D01*
X213332D01*
X213016Y139822D01*
X213123Y140080D01*
X213211Y140748D01*
X213123Y141416D01*
X212865Y142039D01*
X212455Y142573D01*
X211920Y142983D01*
X211298Y143241D01*
X210630Y143329D01*
X209962Y143241D01*
X209339Y142983D01*
X208805Y142573D01*
X208518D01*
X207983Y142983D01*
X207361Y143241D01*
X206693Y143329D01*
X206025Y143241D01*
X205402Y142983D01*
X204868Y142573D01*
X204458Y142039D01*
X204200Y141416D01*
X204112Y140748D01*
X204200Y140080D01*
X204458Y139457D01*
X204868Y138923D01*
X205402Y138513D01*
X205390Y137977D01*
X205184Y137479D01*
X205096Y136811D01*
X205184Y136143D01*
X205442Y135521D01*
X205852Y134986D01*
X206387Y134576D01*
X207009Y134318D01*
X207677Y134230D01*
X208345Y134318D01*
X208968Y134576D01*
X209502Y134986D01*
X209912Y135521D01*
X210170Y136143D01*
X210258Y136811D01*
X210170Y137479D01*
X210063Y137737D01*
X210379Y138149D01*
X210881D01*
X211196Y137737D01*
X211089Y137479D01*
X211001Y136811D01*
X211089Y136143D01*
X211347Y135521D01*
X211757Y134986D01*
X212292Y134576D01*
X212915Y134318D01*
X213583Y134230D01*
X214251Y134318D01*
X214873Y134576D01*
X215408Y134986D01*
X215818Y135521D01*
X216076Y136143D01*
X216164Y136811D01*
X216076Y137479D01*
X215969Y137737D01*
X216285Y138149D01*
X216786D01*
X217102Y137737D01*
X216995Y137479D01*
X216907Y136811D01*
X216995Y136143D01*
X217253Y135521D01*
X217663Y134986D01*
X218198Y134576D01*
X218820Y134318D01*
X219488Y134230D01*
X220156Y134318D01*
X220779Y134576D01*
X221313Y134986D01*
X221724Y135521D01*
X221981Y136143D01*
X222069Y136811D01*
X221981Y137479D01*
X221874Y137737D01*
X222226Y138195D01*
X222441Y138167D01*
X223109Y138255D01*
X223731Y138513D01*
X224266Y138923D01*
X224676Y139457D01*
X224934Y140080D01*
X225022Y140748D01*
X224934Y141416D01*
X224676Y142039D01*
X224266Y142573D01*
X223731Y142983D01*
X223109Y143241D01*
X222441Y143329D01*
D02*
G37*
G36*
X244094D02*
X243426Y143241D01*
X242804Y142983D01*
X242269Y142573D01*
X241859Y142039D01*
X241601Y141416D01*
X241513Y140748D01*
X241601Y140080D01*
X241859Y139457D01*
X242269Y138923D01*
X242804Y138513D01*
X243426Y138255D01*
X244094Y138167D01*
X244762Y138255D01*
X245385Y138513D01*
X245920Y138923D01*
X246330Y139457D01*
X246588Y140080D01*
X246676Y140748D01*
X246588Y141416D01*
X246330Y142039D01*
X245920Y142573D01*
X245385Y142983D01*
X244762Y143241D01*
X244094Y143329D01*
D02*
G37*
G36*
X45866Y150219D02*
X45198Y150131D01*
X44576Y149873D01*
X44041Y149463D01*
X43631Y148928D01*
X43373Y148306D01*
X43285Y147638D01*
X43373Y146970D01*
X43631Y146347D01*
X43773Y146161D01*
X43631Y145976D01*
X43373Y145353D01*
X43285Y144685D01*
X43373Y144017D01*
X43631Y143394D01*
X43773Y143209D01*
X43631Y143023D01*
X43373Y142400D01*
X43285Y141732D01*
X43373Y141064D01*
X43631Y140442D01*
X43773Y140256D01*
X43631Y140070D01*
X43373Y139448D01*
X43285Y138779D01*
X43373Y138111D01*
X43631Y137489D01*
X44041Y136954D01*
X44576Y136544D01*
X45198Y136286D01*
X45866Y136198D01*
X46534Y136286D01*
X47157Y136544D01*
X47691Y136954D01*
X48101Y137489D01*
X48359Y138111D01*
X48447Y138779D01*
X48359Y139448D01*
X48101Y140070D01*
X47959Y140256D01*
X48101Y140442D01*
X48359Y141064D01*
X48447Y141732D01*
X48359Y142400D01*
X48101Y143023D01*
X47959Y143209D01*
X48101Y143394D01*
X48359Y144017D01*
X48447Y144685D01*
X48359Y145353D01*
X48101Y145976D01*
X47959Y146161D01*
X48101Y146347D01*
X48359Y146970D01*
X48447Y147638D01*
X48359Y148306D01*
X48101Y148928D01*
X47691Y149463D01*
X47157Y149873D01*
X46534Y150131D01*
X45866Y150219D01*
D02*
G37*
G36*
X298228Y139602D02*
X297537Y139464D01*
X296951Y139073D01*
X296560Y138487D01*
X296422Y137795D01*
X296560Y137104D01*
X296951Y136518D01*
X297537Y136126D01*
X298228Y135989D01*
X298920Y136126D01*
X299506Y136518D01*
X299897Y137104D01*
X300035Y137795D01*
X299897Y138487D01*
X299506Y139073D01*
X298920Y139464D01*
X298228Y139602D01*
D02*
G37*
G36*
X304134Y140376D02*
X303466Y140288D01*
X302843Y140031D01*
X302309Y139620D01*
X301899Y139086D01*
X301641Y138463D01*
X301553Y137795D01*
X301641Y137127D01*
X301899Y136505D01*
X302309Y135970D01*
X302843Y135560D01*
X303466Y135302D01*
X304134Y135214D01*
X304802Y135302D01*
X305424Y135560D01*
X305959Y135970D01*
X306369Y136505D01*
X306627Y137127D01*
X306715Y137795D01*
X306627Y138463D01*
X306369Y139086D01*
X305959Y139620D01*
X305424Y140031D01*
X304802Y140288D01*
X304134Y140376D01*
D02*
G37*
G36*
X194882Y134471D02*
X194214Y134383D01*
X193591Y134125D01*
X193405Y133983D01*
X193220Y134125D01*
X192597Y134383D01*
X191929Y134471D01*
X191261Y134383D01*
X190639Y134125D01*
X190104Y133715D01*
X189694Y133180D01*
X189436Y132558D01*
X189348Y131890D01*
X189436Y131222D01*
X189694Y130599D01*
X190104Y130065D01*
X190239Y129961D01*
X190252Y129795D01*
X190141Y129406D01*
X189654Y129204D01*
X189120Y128794D01*
X188710Y128259D01*
X188452Y127637D01*
X188364Y126969D01*
X188452Y126301D01*
X188710Y125678D01*
X189120Y125143D01*
X189654Y124733D01*
X190277Y124475D01*
X190945Y124387D01*
X191613Y124475D01*
X192235Y124733D01*
X192770Y125143D01*
X193180Y125678D01*
X193438Y126301D01*
X193526Y126969D01*
X193438Y127637D01*
X193180Y128259D01*
X192770Y128794D01*
X192635Y128897D01*
X192622Y129063D01*
X192733Y129453D01*
X193220Y129654D01*
X193405Y129797D01*
X193591Y129654D01*
X194214Y129397D01*
X194882Y129309D01*
X195550Y129397D01*
X196172Y129654D01*
X196707Y130065D01*
X197117Y130599D01*
X197375Y131222D01*
X197463Y131890D01*
X197375Y132558D01*
X197117Y133180D01*
X196707Y133715D01*
X196172Y134125D01*
X195550Y134383D01*
X194882Y134471D01*
D02*
G37*
G36*
X268701Y138408D02*
X268033Y138320D01*
X267410Y138062D01*
X266876Y137652D01*
X266465Y137117D01*
X266208Y136495D01*
X266120Y135827D01*
X266208Y135159D01*
X266465Y134536D01*
X266876Y134002D01*
X267410Y133591D01*
X268033Y133334D01*
X268701Y133246D01*
X269369Y133334D01*
X269991Y133591D01*
X270526Y134002D01*
X270936Y134536D01*
X271194Y135159D01*
X271282Y135827D01*
X271194Y136495D01*
X270936Y137117D01*
X270526Y137652D01*
X269991Y138062D01*
X269369Y138320D01*
X268701Y138408D01*
D02*
G37*
G36*
X237795Y138014D02*
X237127Y137926D01*
X236505Y137668D01*
X235970Y137258D01*
X235560Y136724D01*
X235302Y136101D01*
X235214Y135433D01*
X235302Y134765D01*
X235560Y134142D01*
X235970Y133608D01*
X236505Y133198D01*
X237127Y132940D01*
X237795Y132852D01*
X238463Y132940D01*
X239086Y133198D01*
X239620Y133608D01*
X240031Y134142D01*
X240288Y134765D01*
X240376Y135433D01*
X240288Y136101D01*
X240031Y136724D01*
X239620Y137258D01*
X239086Y137668D01*
X238463Y137926D01*
X237795Y138014D01*
D02*
G37*
G36*
X201772Y136439D02*
X201104Y136351D01*
X200481Y136094D01*
X199946Y135683D01*
X199536Y135149D01*
X199278Y134526D01*
X199190Y133858D01*
X199278Y133190D01*
X199536Y132568D01*
X199946Y132033D01*
X200481Y131623D01*
X201104Y131365D01*
X201772Y131277D01*
X202440Y131365D01*
X203062Y131623D01*
X203597Y132033D01*
X204007Y132568D01*
X204265Y133190D01*
X204353Y133858D01*
X204265Y134526D01*
X204007Y135149D01*
X203597Y135683D01*
X203062Y136094D01*
X202440Y136351D01*
X201772Y136439D01*
D02*
G37*
G36*
X20866Y139207D02*
X19838Y139072D01*
X18881Y138675D01*
X18058Y138044D01*
X17427Y137222D01*
X17030Y136264D01*
X16895Y135236D01*
X17030Y134209D01*
X17427Y133251D01*
X18058Y132428D01*
X18881Y131797D01*
X19838Y131401D01*
X20866Y131265D01*
X21894Y131401D01*
X22852Y131797D01*
X23674Y132428D01*
X24305Y133251D01*
X24702Y134209D01*
X24837Y135236D01*
X24702Y136264D01*
X24305Y137222D01*
X23674Y138044D01*
X22852Y138675D01*
X21894Y139072D01*
X20866Y139207D01*
D02*
G37*
G36*
X226378Y134471D02*
X225710Y134383D01*
X225087Y134125D01*
X224553Y133715D01*
X224143Y133180D01*
X223885Y132558D01*
X223797Y131890D01*
X223885Y131222D01*
X224143Y130599D01*
X224553Y130065D01*
X225087Y129654D01*
X225710Y129397D01*
X226378Y129309D01*
X227046Y129397D01*
X227668Y129654D01*
X228203Y130065D01*
X228613Y130599D01*
X228871Y131222D01*
X228959Y131890D01*
X228871Y132558D01*
X228613Y133180D01*
X228203Y133715D01*
X227668Y134125D01*
X227046Y134383D01*
X226378Y134471D01*
D02*
G37*
G36*
X185039Y138408D02*
X184371Y138320D01*
X183749Y138062D01*
X183214Y137652D01*
X182804Y137117D01*
X182546Y136495D01*
X182458Y135827D01*
X182546Y135159D01*
X182804Y134536D01*
X183214Y134002D01*
Y133715D01*
X182804Y133180D01*
X182546Y132558D01*
X182458Y131890D01*
X182546Y131222D01*
X182804Y130599D01*
X183214Y130065D01*
X183749Y129654D01*
X184371Y129397D01*
X185039Y129309D01*
X185707Y129397D01*
X186330Y129654D01*
X186864Y130065D01*
X187275Y130599D01*
X187532Y131222D01*
X187620Y131890D01*
X187532Y132558D01*
X187275Y133180D01*
X186864Y133715D01*
Y134002D01*
X187275Y134536D01*
X187532Y135159D01*
X187620Y135827D01*
X187532Y136495D01*
X187275Y137117D01*
X186864Y137652D01*
X186330Y138062D01*
X185707Y138320D01*
X185039Y138408D01*
D02*
G37*
G36*
X84252Y130743D02*
X83561Y130606D01*
X82975Y130214D01*
X82583Y129628D01*
X82446Y128937D01*
X82583Y128246D01*
X82975Y127660D01*
X83561Y127268D01*
X84252Y127131D01*
X84943Y127268D01*
X85529Y127660D01*
X85921Y128246D01*
X86058Y128937D01*
X85921Y129628D01*
X85529Y130214D01*
X84943Y130606D01*
X84252Y130743D01*
D02*
G37*
G36*
X165107Y126785D02*
X164439Y126697D01*
X163817Y126439D01*
X163282Y126029D01*
X163013Y125678D01*
X162490Y125626D01*
X162399Y125658D01*
X162258Y125841D01*
X161724Y126251D01*
X161101Y126509D01*
X160433Y126597D01*
X159765Y126509D01*
X159142Y126251D01*
X158608Y125841D01*
X158198Y125306D01*
X157940Y124684D01*
X157852Y124016D01*
X157940Y123348D01*
X158198Y122725D01*
X158608Y122191D01*
X159142Y121780D01*
X159765Y121523D01*
X160433Y121435D01*
X161101Y121523D01*
X161724Y121780D01*
X162258Y122191D01*
X162527Y122541D01*
X163050Y122593D01*
X163142Y122562D01*
X163282Y122379D01*
X163817Y121969D01*
X164439Y121711D01*
X165107Y121623D01*
X165341Y121654D01*
X165787Y121208D01*
X165768Y121063D01*
X165856Y120395D01*
X166113Y119772D01*
X166342Y119474D01*
X166453Y119060D01*
X166332Y118755D01*
X166072Y118417D01*
X165814Y117794D01*
X165726Y117126D01*
X165814Y116458D01*
X166072Y115835D01*
X166482Y115301D01*
X167016Y114891D01*
X167639Y114633D01*
X168307Y114545D01*
X168975Y114633D01*
X169598Y114891D01*
X170132Y115301D01*
X170542Y115835D01*
X170800Y116458D01*
X170888Y117126D01*
X170800Y117794D01*
X170542Y118417D01*
X170314Y118715D01*
X170174Y119238D01*
X170584Y119772D01*
X170842Y120395D01*
X170930Y121063D01*
X170842Y121731D01*
X170584Y122354D01*
X170174Y122888D01*
X169639Y123298D01*
X169017Y123556D01*
X168349Y123644D01*
X168115Y123613D01*
X167669Y124059D01*
X167689Y124204D01*
X167601Y124872D01*
X167343Y125495D01*
X166933Y126029D01*
X166398Y126439D01*
X165776Y126697D01*
X165107Y126785D01*
D02*
G37*
G36*
X124228Y121101D02*
X123560Y121013D01*
X122938Y120755D01*
X122478Y120403D01*
X122019Y120755D01*
X121396Y121013D01*
X120728Y121101D01*
X120060Y121013D01*
X119438Y120755D01*
X118903Y120345D01*
X118493Y119810D01*
X118235Y119188D01*
X118147Y118520D01*
X118235Y117852D01*
X118493Y117229D01*
X118654Y117020D01*
X118493Y116810D01*
X118235Y116188D01*
X118147Y115520D01*
X118235Y114852D01*
X118493Y114229D01*
X118903Y113695D01*
X119438Y113284D01*
X120060Y113026D01*
X120728Y112939D01*
X121396Y113026D01*
X122019Y113284D01*
X122478Y113637D01*
X122938Y113284D01*
X123560Y113026D01*
X124228Y112939D01*
X124896Y113026D01*
X125519Y113284D01*
X126054Y113695D01*
X126464Y114229D01*
X126722Y114852D01*
X126810Y115520D01*
X126722Y116188D01*
X126464Y116810D01*
X126303Y117020D01*
X126464Y117229D01*
X126722Y117852D01*
X126810Y118520D01*
X126722Y119188D01*
X126464Y119810D01*
X126054Y120345D01*
X125519Y120755D01*
X124896Y121013D01*
X124228Y121101D01*
D02*
G37*
G36*
X181102Y123644D02*
X180434Y123556D01*
X179812Y123298D01*
X179277Y122888D01*
X178867Y122354D01*
X178609Y121731D01*
X178521Y121063D01*
X178609Y120395D01*
X178867Y119772D01*
X179277Y119238D01*
X179812Y118828D01*
X180434Y118570D01*
X181102Y118482D01*
X181770Y118570D01*
X182393Y118828D01*
X182882Y118686D01*
X183214Y118254D01*
X183749Y117843D01*
X184371Y117586D01*
X185039Y117498D01*
X185707Y117586D01*
X186330Y117843D01*
X186864Y118254D01*
X187275Y118788D01*
X187532Y119411D01*
X187620Y120079D01*
X187532Y120747D01*
X187275Y121369D01*
X186864Y121904D01*
X186330Y122314D01*
X185707Y122572D01*
X185039Y122660D01*
X184371Y122572D01*
X183874Y122366D01*
X183631Y122360D01*
X183205Y122527D01*
X182928Y122888D01*
X182393Y123298D01*
X181770Y123556D01*
X181102Y123644D01*
D02*
G37*
G36*
X78740Y128565D02*
X78072Y128477D01*
X77450Y128220D01*
X76915Y127809D01*
X76505Y127275D01*
X76247Y126652D01*
X76159Y125984D01*
X76247Y125316D01*
X76505Y124694D01*
X76749Y124375D01*
X76868Y124016D01*
X76749Y123656D01*
X76505Y123338D01*
X76247Y122715D01*
X76159Y122047D01*
X76247Y121379D01*
X76505Y120757D01*
X76915Y120222D01*
Y119935D01*
X76505Y119401D01*
X76247Y118778D01*
X76159Y118110D01*
X76247Y117442D01*
X76505Y116820D01*
X76915Y116285D01*
X77450Y115875D01*
X78072Y115617D01*
X78740Y115529D01*
X79408Y115617D01*
X80031Y115875D01*
X80565Y116285D01*
X80976Y116820D01*
X81233Y117442D01*
X81321Y118110D01*
X81233Y118778D01*
X80976Y119401D01*
X80565Y119935D01*
Y120222D01*
X80976Y120757D01*
X81233Y121379D01*
X81321Y122047D01*
X81233Y122715D01*
X80976Y123338D01*
X80731Y123656D01*
X80613Y124016D01*
X80731Y124375D01*
X80976Y124694D01*
X81233Y125316D01*
X81321Y125984D01*
X81233Y126652D01*
X80976Y127275D01*
X80565Y127809D01*
X80031Y128220D01*
X79408Y128477D01*
X78740Y128565D01*
D02*
G37*
G36*
X55118D02*
X54450Y128477D01*
X53828Y128220D01*
X53293Y127809D01*
X52883Y127275D01*
X52625Y126652D01*
X52537Y125984D01*
X52625Y125316D01*
X52883Y124694D01*
X53127Y124375D01*
X53246Y124016D01*
X53127Y123656D01*
X52883Y123338D01*
X52625Y122715D01*
X52537Y122047D01*
X52625Y121379D01*
X52883Y120757D01*
X53127Y120438D01*
X53246Y120079D01*
X53127Y119719D01*
X52883Y119401D01*
X52625Y118778D01*
X52537Y118110D01*
X52625Y117442D01*
X52883Y116820D01*
X53293Y116285D01*
X53828Y115875D01*
X54450Y115617D01*
X55118Y115529D01*
X55786Y115617D01*
X56409Y115875D01*
X56943Y116285D01*
X57353Y116820D01*
X57611Y117442D01*
X57699Y118110D01*
X57611Y118778D01*
X57353Y119401D01*
X57109Y119719D01*
X56990Y120079D01*
X57109Y120438D01*
X57353Y120757D01*
X57611Y121379D01*
X57699Y122047D01*
X57611Y122715D01*
X57353Y123338D01*
X57109Y123656D01*
X56990Y124016D01*
X57109Y124375D01*
X57353Y124694D01*
X57611Y125316D01*
X57699Y125984D01*
X57611Y126652D01*
X57353Y127275D01*
X56943Y127809D01*
X56409Y128220D01*
X55786Y128477D01*
X55118Y128565D01*
D02*
G37*
G36*
X241338Y119904D02*
X240670Y119816D01*
X240048Y119558D01*
X239513Y119148D01*
X239103Y118613D01*
X238845Y117991D01*
X238757Y117323D01*
X238845Y116655D01*
X239103Y116032D01*
X239513Y115498D01*
X240048Y115087D01*
X240670Y114829D01*
X241338Y114742D01*
X242006Y114829D01*
X242629Y115087D01*
X243163Y115498D01*
X243573Y116032D01*
X243831Y116655D01*
X243919Y117323D01*
X243831Y117991D01*
X243573Y118613D01*
X243163Y119148D01*
X242629Y119558D01*
X242006Y119816D01*
X241338Y119904D01*
D02*
G37*
G36*
X220866Y123447D02*
X220198Y123359D01*
X219576Y123101D01*
X219041Y122691D01*
X218631Y122157D01*
X218373Y121534D01*
X218285Y120866D01*
X218373Y120198D01*
X218374Y120194D01*
X218059Y119649D01*
X217836Y119619D01*
X217213Y119361D01*
X216679Y118951D01*
X216269Y118417D01*
X216011Y117794D01*
X215923Y117126D01*
X216011Y116458D01*
X216269Y115835D01*
X216679Y115301D01*
X217213Y114891D01*
X217305Y114548D01*
X217253Y114479D01*
X217154Y114240D01*
X216873Y113889D01*
X216531Y113978D01*
X216219Y114107D01*
X215551Y114195D01*
X215447Y114182D01*
X215112Y114642D01*
X215180Y115157D01*
X215092Y115825D01*
X214834Y116448D01*
X214424Y116983D01*
X213889Y117393D01*
X213266Y117651D01*
X212598Y117739D01*
X211930Y117651D01*
X211308Y117393D01*
X210773Y116983D01*
X210363Y116448D01*
X210105Y115825D01*
X210017Y115157D01*
X210105Y114489D01*
X210363Y113867D01*
X210773Y113332D01*
X211308Y112922D01*
X211930Y112664D01*
X212598Y112576D01*
X212702Y112590D01*
X213038Y112130D01*
X212970Y111614D01*
X213058Y110946D01*
X213316Y110324D01*
X213726Y109789D01*
X214261Y109379D01*
X214883Y109121D01*
X215551Y109033D01*
X216219Y109121D01*
X216842Y109379D01*
X217376Y109789D01*
X217787Y110324D01*
X217886Y110563D01*
X218166Y110914D01*
X218508Y110825D01*
X218820Y110696D01*
X219488Y110608D01*
X220156Y110696D01*
X220779Y110954D01*
X221313Y111364D01*
X221724Y111898D01*
X221981Y112521D01*
X222069Y113189D01*
X221981Y113857D01*
X221724Y114479D01*
X221313Y115014D01*
X220779Y115424D01*
X220791Y115960D01*
X220997Y116458D01*
X221085Y117126D01*
X220997Y117794D01*
X220996Y117798D01*
X221311Y118343D01*
X221534Y118373D01*
X222157Y118631D01*
X222691Y119041D01*
X223101Y119576D01*
X223359Y120198D01*
X223447Y120866D01*
X223359Y121534D01*
X223101Y122157D01*
X222691Y122691D01*
X222157Y123101D01*
X221534Y123359D01*
X220866Y123447D01*
D02*
G37*
G36*
X268701Y117739D02*
X268033Y117651D01*
X267410Y117393D01*
X266876Y116983D01*
X266465Y116448D01*
X266208Y115825D01*
X266120Y115157D01*
X266208Y114489D01*
X266465Y113867D01*
X266876Y113332D01*
X267410Y112922D01*
X268033Y112664D01*
X268701Y112576D01*
X269369Y112664D01*
X269991Y112922D01*
X270526Y113332D01*
X270936Y113867D01*
X271194Y114489D01*
X271282Y115157D01*
X271194Y115825D01*
X270936Y116448D01*
X270526Y116983D01*
X269991Y117393D01*
X269369Y117651D01*
X268701Y117739D01*
D02*
G37*
G36*
X305118Y115770D02*
X304450Y115682D01*
X303828Y115424D01*
X303293Y115014D01*
X302883Y114479D01*
X302625Y113857D01*
X302537Y113189D01*
X302625Y112521D01*
X302883Y111898D01*
X303293Y111364D01*
X303828Y110954D01*
X304450Y110696D01*
X305118Y110608D01*
X305786Y110696D01*
X306409Y110954D01*
X306943Y111364D01*
X307353Y111898D01*
X307611Y112521D01*
X307699Y113189D01*
X307611Y113857D01*
X307353Y114479D01*
X306943Y115014D01*
X306409Y115424D01*
X305786Y115682D01*
X305118Y115770D01*
D02*
G37*
G36*
X283465Y110849D02*
X282797Y110761D01*
X282174Y110503D01*
X281639Y110093D01*
X281229Y109558D01*
X280971Y108936D01*
X280883Y108268D01*
X280971Y107600D01*
X281229Y106977D01*
X281639Y106443D01*
X282174Y106032D01*
X282797Y105774D01*
X283465Y105687D01*
X284133Y105774D01*
X284755Y106032D01*
X285290Y106443D01*
X285700Y106977D01*
X285958Y107600D01*
X286046Y108268D01*
X285958Y108936D01*
X285700Y109558D01*
X285290Y110093D01*
X284755Y110503D01*
X284133Y110761D01*
X283465Y110849D01*
D02*
G37*
G36*
X210630D02*
X209962Y110761D01*
X209339Y110503D01*
X208805Y110093D01*
X208395Y109558D01*
X208137Y108936D01*
X208049Y108268D01*
X208137Y107600D01*
X208395Y106977D01*
X208805Y106443D01*
X209339Y106032D01*
X209962Y105774D01*
X210630Y105687D01*
X211298Y105774D01*
X211920Y106032D01*
X212455Y106443D01*
X212865Y106977D01*
X213123Y107600D01*
X213211Y108268D01*
X213123Y108936D01*
X212865Y109558D01*
X212455Y110093D01*
X211920Y110503D01*
X211298Y110761D01*
X210630Y110849D01*
D02*
G37*
G36*
X20866Y112829D02*
X19838Y112694D01*
X18881Y112297D01*
X18058Y111666D01*
X17427Y110844D01*
X17030Y109886D01*
X16895Y108858D01*
X17030Y107831D01*
X17427Y106873D01*
X18058Y106050D01*
X18881Y105419D01*
X19838Y105023D01*
X20866Y104887D01*
X21894Y105023D01*
X22852Y105419D01*
X23674Y106050D01*
X24305Y106873D01*
X24702Y107831D01*
X24837Y108858D01*
X24702Y109886D01*
X24305Y110844D01*
X23674Y111666D01*
X22852Y112297D01*
X21894Y112694D01*
X20866Y112829D01*
D02*
G37*
G36*
X259842Y109865D02*
X259174Y109777D01*
X258552Y109519D01*
X258017Y109109D01*
X257607Y108574D01*
X257349Y107951D01*
X257261Y107283D01*
X257349Y106615D01*
X257607Y105993D01*
X258017Y105458D01*
X258552Y105048D01*
X259174Y104790D01*
X259842Y104702D01*
X260511Y104790D01*
X261133Y105048D01*
X261668Y105458D01*
X262078Y105993D01*
X262336Y106615D01*
X262424Y107283D01*
X262336Y107951D01*
X262078Y108574D01*
X261668Y109109D01*
X261133Y109519D01*
X260511Y109777D01*
X259842Y109865D01*
D02*
G37*
G36*
X36417Y102975D02*
X35749Y102887D01*
X35127Y102629D01*
X34941Y102486D01*
X34755Y102629D01*
X34133Y102887D01*
X33465Y102975D01*
X32796Y102887D01*
X32174Y102629D01*
X31639Y102219D01*
X31229Y101684D01*
X30971Y101062D01*
X30883Y100394D01*
X30971Y99726D01*
X31229Y99103D01*
X31372Y98917D01*
X31229Y98731D01*
X30971Y98109D01*
X30883Y97441D01*
X30971Y96773D01*
X31229Y96150D01*
X31639Y95616D01*
X32174Y95206D01*
X32796Y94948D01*
X33465Y94860D01*
X34133Y94948D01*
X34755Y95206D01*
X34941Y95348D01*
X35127Y95206D01*
X35749Y94948D01*
X36417Y94860D01*
X37085Y94948D01*
X37708Y95206D01*
X38243Y95616D01*
X38653Y96150D01*
X38910Y96773D01*
X38998Y97441D01*
X38910Y98109D01*
X38653Y98731D01*
X38510Y98917D01*
X38653Y99103D01*
X38910Y99726D01*
X38998Y100394D01*
X38910Y101062D01*
X38653Y101684D01*
X38243Y102219D01*
X37708Y102629D01*
X37085Y102887D01*
X36417Y102975D01*
D02*
G37*
G36*
X185039Y106912D02*
X184371Y106824D01*
X183749Y106566D01*
X183214Y106156D01*
X182804Y105621D01*
X182546Y104999D01*
X182458Y104331D01*
X182546Y103663D01*
X182804Y103040D01*
X183214Y102506D01*
X183749Y102095D01*
X184371Y101838D01*
X185039Y101750D01*
X185707Y101838D01*
X186330Y102095D01*
X186864Y102506D01*
X187275Y103040D01*
X187532Y103663D01*
X187620Y104331D01*
X187532Y104999D01*
X187275Y105621D01*
X186864Y106156D01*
X186330Y106566D01*
X185707Y106824D01*
X185039Y106912D01*
D02*
G37*
G36*
X207480Y105337D02*
X206812Y105249D01*
X206190Y104991D01*
X205655Y104581D01*
X205245Y104046D01*
X204987Y103424D01*
X204899Y102756D01*
X204987Y102088D01*
X205245Y101465D01*
X205655Y100931D01*
X206190Y100521D01*
X206812Y100263D01*
X207480Y100175D01*
X208148Y100263D01*
X208771Y100521D01*
X209305Y100931D01*
X209716Y101465D01*
X209974Y102088D01*
X210061Y102756D01*
X209974Y103424D01*
X209716Y104046D01*
X209305Y104581D01*
X208771Y104991D01*
X208148Y105249D01*
X207480Y105337D01*
D02*
G37*
G36*
X89370Y104156D02*
X88702Y104068D01*
X88080Y103810D01*
X87545Y103400D01*
X87135Y102865D01*
X86877Y102243D01*
X86789Y101575D01*
X86877Y100907D01*
X87135Y100284D01*
X87545Y99750D01*
X88080Y99339D01*
X88702Y99082D01*
X89370Y98994D01*
X90038Y99082D01*
X90661Y99339D01*
X91195Y99750D01*
X91605Y100284D01*
X91863Y100907D01*
X91951Y101575D01*
X91863Y102243D01*
X91605Y102865D01*
X91195Y103400D01*
X90661Y103810D01*
X90038Y104068D01*
X89370Y104156D01*
D02*
G37*
G36*
X168307Y101006D02*
X167639Y100918D01*
X167016Y100661D01*
X166482Y100250D01*
X166072Y99716D01*
X165814Y99093D01*
X165726Y98425D01*
X165814Y97757D01*
X166072Y97135D01*
X166482Y96600D01*
X167016Y96190D01*
X167639Y95932D01*
X168307Y95844D01*
X168975Y95932D01*
X169598Y96190D01*
X170132Y96600D01*
X170542Y97135D01*
X170800Y97757D01*
X170888Y98425D01*
X170800Y99093D01*
X170542Y99716D01*
X170132Y100250D01*
X169598Y100661D01*
X168975Y100918D01*
X168307Y101006D01*
D02*
G37*
G36*
X79724Y99038D02*
X79056Y98950D01*
X78434Y98692D01*
X77899Y98282D01*
X77489Y97747D01*
X77231Y97125D01*
X77143Y96457D01*
X77231Y95789D01*
X77489Y95166D01*
X77899Y94632D01*
X78434Y94221D01*
X79056Y93963D01*
X79724Y93876D01*
X80392Y93963D01*
X81015Y94221D01*
X81550Y94632D01*
X81960Y95166D01*
X82218Y95789D01*
X82306Y96457D01*
X82218Y97125D01*
X81960Y97747D01*
X81550Y98282D01*
X81015Y98692D01*
X80392Y98950D01*
X79724Y99038D01*
D02*
G37*
G36*
X274606Y97069D02*
X273938Y96981D01*
X273316Y96724D01*
X272781Y96313D01*
X272371Y95779D01*
X272113Y95156D01*
X272025Y94488D01*
X272113Y93820D01*
X272371Y93198D01*
X272781Y92663D01*
X273316Y92253D01*
X273938Y91995D01*
X274606Y91907D01*
X275274Y91995D01*
X275897Y92253D01*
X276431Y92663D01*
X276842Y93198D01*
X277099Y93820D01*
X277187Y94488D01*
X277099Y95156D01*
X276842Y95779D01*
X276431Y96313D01*
X275897Y96724D01*
X275274Y96981D01*
X274606Y97069D01*
D02*
G37*
G36*
X297244Y96085D02*
X296576Y95997D01*
X295953Y95739D01*
X295419Y95329D01*
X295009Y94794D01*
X294751Y94172D01*
X294663Y93504D01*
X294751Y92836D01*
X295009Y92213D01*
X295419Y91679D01*
X295953Y91269D01*
X296576Y91011D01*
X297244Y90923D01*
X297912Y91011D01*
X298535Y91269D01*
X299069Y91679D01*
X299479Y92213D01*
X299737Y92836D01*
X299825Y93504D01*
X299737Y94172D01*
X299479Y94794D01*
X299069Y95329D01*
X298535Y95739D01*
X297912Y95997D01*
X297244Y96085D01*
D02*
G37*
G36*
X260827Y95101D02*
X260159Y95013D01*
X259536Y94755D01*
X259002Y94345D01*
X258591Y93810D01*
X258334Y93188D01*
X258246Y92520D01*
X258334Y91852D01*
X258591Y91229D01*
X259002Y90695D01*
X259536Y90284D01*
X260159Y90026D01*
X260827Y89939D01*
X261495Y90026D01*
X262117Y90284D01*
X262652Y90695D01*
X263062Y91229D01*
X263320Y91852D01*
X263408Y92520D01*
X263320Y93188D01*
X263062Y93810D01*
X262652Y94345D01*
X262117Y94755D01*
X261495Y95013D01*
X260827Y95101D01*
D02*
G37*
G36*
X45866Y102975D02*
X45198Y102887D01*
X44576Y102629D01*
X44041Y102219D01*
X43631Y101684D01*
X43373Y101062D01*
X43285Y100394D01*
X43373Y99726D01*
X43631Y99103D01*
X43773Y98917D01*
X43631Y98731D01*
X43373Y98109D01*
X43285Y97441D01*
X43373Y96773D01*
X43631Y96150D01*
X43773Y95965D01*
X43631Y95779D01*
X43373Y95156D01*
X43285Y94488D01*
X43373Y93820D01*
X43631Y93198D01*
X43773Y93012D01*
X43631Y92826D01*
X43373Y92203D01*
X43285Y91535D01*
X43373Y90867D01*
X43631Y90245D01*
X44041Y89710D01*
X44576Y89300D01*
X45198Y89042D01*
X45866Y88954D01*
X46534Y89042D01*
X47157Y89300D01*
X47691Y89710D01*
X48101Y90245D01*
X48359Y90867D01*
X48447Y91535D01*
X48359Y92203D01*
X48101Y92826D01*
X47959Y93012D01*
X48101Y93198D01*
X48359Y93820D01*
X48447Y94488D01*
X48359Y95156D01*
X48101Y95779D01*
X47959Y95965D01*
X48101Y96150D01*
X48359Y96773D01*
X48447Y97441D01*
X48359Y98109D01*
X48101Y98731D01*
X47959Y98917D01*
X48101Y99103D01*
X48359Y99726D01*
X48447Y100394D01*
X48359Y101062D01*
X48101Y101684D01*
X47691Y102219D01*
X47157Y102629D01*
X46534Y102887D01*
X45866Y102975D01*
D02*
G37*
G36*
X125224Y87778D02*
X124556Y87690D01*
X123934Y87432D01*
X123846Y87365D01*
X123759Y87432D01*
X123137Y87690D01*
X122468Y87778D01*
X121800Y87690D01*
X121178Y87432D01*
X120643Y87022D01*
X120233Y86487D01*
X119975Y85865D01*
X119887Y85197D01*
X119975Y84529D01*
X120233Y83906D01*
X120300Y83819D01*
X120233Y83732D01*
X119975Y83109D01*
X119887Y82441D01*
X119975Y81773D01*
X120233Y81150D01*
X120643Y80616D01*
X121178Y80206D01*
X121800Y79948D01*
X122468Y79860D01*
X123137Y79948D01*
X123759Y80206D01*
X123846Y80273D01*
X123934Y80206D01*
X124556Y79948D01*
X125224Y79860D01*
X125892Y79948D01*
X126515Y80206D01*
X127050Y80616D01*
X127460Y81150D01*
X127718Y81773D01*
X127805Y82441D01*
X127718Y83109D01*
X127460Y83732D01*
X127393Y83819D01*
X127460Y83906D01*
X127718Y84529D01*
X127805Y85197D01*
X127718Y85865D01*
X127460Y86487D01*
X127050Y87022D01*
X126515Y87432D01*
X125892Y87690D01*
X125224Y87778D01*
D02*
G37*
G36*
X106299Y91164D02*
X105631Y91076D01*
X105009Y90818D01*
X104474Y90408D01*
X104064Y89873D01*
X103806Y89251D01*
X103718Y88583D01*
X103806Y87915D01*
X104064Y87292D01*
X104474Y86758D01*
X105009Y86347D01*
X105631Y86089D01*
X106299Y86001D01*
X106967Y86089D01*
X107590Y86347D01*
X108124Y86758D01*
X108535Y87292D01*
X108792Y87915D01*
X108880Y88583D01*
X108792Y89251D01*
X108535Y89873D01*
X108124Y90408D01*
X107590Y90818D01*
X106967Y91076D01*
X106299Y91164D01*
D02*
G37*
G36*
X100394D02*
X99726Y91076D01*
X99103Y90818D01*
X98569Y90408D01*
X98158Y89873D01*
X97900Y89251D01*
X97813Y88583D01*
X97900Y87915D01*
X98158Y87292D01*
X98569Y86758D01*
X99103Y86347D01*
X99726Y86089D01*
X100394Y86001D01*
X101062Y86089D01*
X101684Y86347D01*
X102219Y86758D01*
X102629Y87292D01*
X102887Y87915D01*
X102975Y88583D01*
X102887Y89251D01*
X102629Y89873D01*
X102219Y90408D01*
X101684Y90818D01*
X101062Y91076D01*
X100394Y91164D01*
D02*
G37*
G36*
X94488D02*
X93820Y91076D01*
X93198Y90818D01*
X92663Y90408D01*
X92253Y89873D01*
X91995Y89251D01*
X91907Y88583D01*
X91995Y87915D01*
X92253Y87292D01*
X92663Y86758D01*
X93198Y86347D01*
X93820Y86089D01*
X94488Y86001D01*
X95156Y86089D01*
X95779Y86347D01*
X96313Y86758D01*
X96724Y87292D01*
X96981Y87915D01*
X97069Y88583D01*
X96981Y89251D01*
X96724Y89873D01*
X96313Y90408D01*
X95779Y90818D01*
X95156Y91076D01*
X94488Y91164D01*
D02*
G37*
G36*
X20866Y91963D02*
X19838Y91828D01*
X18881Y91431D01*
X18058Y90800D01*
X17427Y89978D01*
X17030Y89020D01*
X16895Y87992D01*
X17030Y86964D01*
X17427Y86007D01*
X18058Y85184D01*
X18881Y84553D01*
X19838Y84157D01*
X20866Y84021D01*
X21894Y84157D01*
X22852Y84553D01*
X23674Y85184D01*
X24305Y86007D01*
X24702Y86964D01*
X24837Y87992D01*
X24702Y89020D01*
X24305Y89978D01*
X23674Y90800D01*
X22852Y91431D01*
X21894Y91828D01*
X20866Y91963D01*
D02*
G37*
G36*
X162402Y88211D02*
X161733Y88123D01*
X161111Y87865D01*
X160576Y87455D01*
X160166Y86920D01*
X159908Y86298D01*
X159820Y85630D01*
X159908Y84962D01*
X160166Y84339D01*
X160576Y83805D01*
X161111Y83395D01*
X161733Y83137D01*
X162402Y83049D01*
X163070Y83137D01*
X163692Y83395D01*
X164227Y83805D01*
X164637Y84339D01*
X164895Y84962D01*
X164983Y85630D01*
X164895Y86298D01*
X164637Y86920D01*
X164227Y87455D01*
X163692Y87865D01*
X163070Y88123D01*
X162402Y88211D01*
D02*
G37*
G36*
X138189Y82502D02*
X137521Y82414D01*
X136898Y82157D01*
X136614Y81938D01*
X136330Y82157D01*
X135707Y82414D01*
X135039Y82502D01*
X134371Y82414D01*
X133749Y82157D01*
X133214Y81746D01*
X132804Y81212D01*
X132546Y80589D01*
X132458Y79921D01*
X132546Y79253D01*
X132804Y78631D01*
X133214Y78096D01*
X133749Y77686D01*
X134371Y77428D01*
X135039Y77340D01*
X135707Y77428D01*
X136330Y77686D01*
X136614Y77904D01*
X136898Y77686D01*
X137521Y77428D01*
X138189Y77340D01*
X138857Y77428D01*
X139479Y77686D01*
X140014Y78096D01*
X140424Y78631D01*
X140682Y79253D01*
X140770Y79921D01*
X140682Y80589D01*
X140424Y81212D01*
X140014Y81746D01*
X139479Y82157D01*
X138857Y82414D01*
X138189Y82502D01*
D02*
G37*
G36*
X182087Y86243D02*
X181419Y86155D01*
X180796Y85897D01*
X180262Y85487D01*
X179851Y84952D01*
X179593Y84329D01*
X179506Y83661D01*
X179593Y82993D01*
X179851Y82371D01*
X180262Y81836D01*
X180796Y81426D01*
X181419Y81168D01*
X182087Y81080D01*
X182755Y81168D01*
X183377Y81426D01*
X183912Y81836D01*
X184322Y82371D01*
X184580Y82993D01*
X184668Y83661D01*
X184580Y84329D01*
X184322Y84952D01*
X183912Y85487D01*
X183377Y85897D01*
X182755Y86155D01*
X182087Y86243D01*
D02*
G37*
G36*
X172244Y87614D02*
X171576Y87526D01*
X170954Y87268D01*
X170419Y86858D01*
X170009Y86323D01*
X169751Y85701D01*
X169663Y85033D01*
X169751Y84365D01*
X170009Y83742D01*
X170419Y83208D01*
X170954Y82798D01*
X171576Y82540D01*
X172244Y82452D01*
X172912Y82540D01*
X172934Y82549D01*
X173040Y82292D01*
X173451Y81757D01*
Y81652D01*
X173372Y81591D01*
X173074Y81204D01*
X172550Y80976D01*
X171928Y81233D01*
X171260Y81321D01*
X170592Y81233D01*
X169969Y80976D01*
X169435Y80565D01*
X169025Y80031D01*
X168767Y79408D01*
X168679Y78740D01*
X168767Y78072D01*
X169025Y77450D01*
X169435Y76915D01*
X169969Y76505D01*
X170592Y76247D01*
X171260Y76159D01*
X171928Y76247D01*
X172550Y76505D01*
X173085Y76915D01*
X173382Y77303D01*
X173906Y77531D01*
X174529Y77273D01*
X175197Y77185D01*
X175865Y77273D01*
X176487Y77531D01*
X177022Y77941D01*
X177432Y78476D01*
X177690Y79098D01*
X177778Y79766D01*
X177690Y80434D01*
X177432Y81057D01*
X177022Y81591D01*
Y81697D01*
X177101Y81757D01*
X177511Y82292D01*
X177769Y82914D01*
X177857Y83583D01*
X177769Y84250D01*
X177511Y84873D01*
X177101Y85408D01*
X176566Y85818D01*
X175944Y86076D01*
X175276Y86164D01*
X174608Y86076D01*
X174586Y86067D01*
X174479Y86323D01*
X174069Y86858D01*
X173535Y87268D01*
X172912Y87526D01*
X172244Y87614D01*
D02*
G37*
G36*
X250000Y85258D02*
X249332Y85170D01*
X248709Y84913D01*
X248175Y84502D01*
X247765Y83968D01*
X247507Y83345D01*
X247419Y82677D01*
X247507Y82009D01*
X247765Y81387D01*
X248175Y80852D01*
X248709Y80442D01*
X249332Y80184D01*
X250000Y80096D01*
X250668Y80184D01*
X251291Y80442D01*
X251825Y80852D01*
X252235Y81387D01*
X252493Y82009D01*
X252581Y82677D01*
X252493Y83345D01*
X252235Y83968D01*
X251825Y84502D01*
X251291Y84913D01*
X250668Y85170D01*
X250000Y85258D01*
D02*
G37*
G36*
X106299D02*
X105631Y85170D01*
X105009Y84913D01*
X104474Y84502D01*
X104064Y83968D01*
X103806Y83345D01*
X103718Y82677D01*
X103806Y82009D01*
X104064Y81387D01*
X104474Y80852D01*
X105009Y80442D01*
X105631Y80184D01*
X106299Y80096D01*
X106967Y80184D01*
X107590Y80442D01*
X108124Y80852D01*
X108535Y81387D01*
X108792Y82009D01*
X108880Y82677D01*
X108792Y83345D01*
X108535Y83968D01*
X108124Y84502D01*
X107590Y84913D01*
X106967Y85170D01*
X106299Y85258D01*
D02*
G37*
G36*
X100394D02*
X99726Y85170D01*
X99103Y84913D01*
X98569Y84502D01*
X98158Y83968D01*
X97900Y83345D01*
X97813Y82677D01*
X97900Y82009D01*
X98158Y81387D01*
X98569Y80852D01*
X99103Y80442D01*
X99726Y80184D01*
X100394Y80096D01*
X101062Y80184D01*
X101684Y80442D01*
X102219Y80852D01*
X102629Y81387D01*
X102887Y82009D01*
X102975Y82677D01*
X102887Y83345D01*
X102629Y83968D01*
X102219Y84502D01*
X101684Y84913D01*
X101062Y85170D01*
X100394Y85258D01*
D02*
G37*
G36*
X94488D02*
X93820Y85170D01*
X93198Y84913D01*
X92663Y84502D01*
X92253Y83968D01*
X91995Y83345D01*
X91907Y82677D01*
X91995Y82009D01*
X92253Y81387D01*
X92663Y80852D01*
X93198Y80442D01*
X93820Y80184D01*
X94488Y80096D01*
X95156Y80184D01*
X95779Y80442D01*
X96313Y80852D01*
X96724Y81387D01*
X96981Y82009D01*
X97069Y82677D01*
X96981Y83345D01*
X96724Y83968D01*
X96313Y84502D01*
X95779Y84913D01*
X95156Y85170D01*
X94488Y85258D01*
D02*
G37*
G36*
X84252Y83499D02*
X83561Y83362D01*
X82975Y82970D01*
X82583Y82384D01*
X82446Y81693D01*
X82583Y81002D01*
X82975Y80416D01*
X83561Y80024D01*
X84252Y79887D01*
X84943Y80024D01*
X85529Y80416D01*
X85921Y81002D01*
X86058Y81693D01*
X85921Y82384D01*
X85529Y82970D01*
X84943Y83362D01*
X84252Y83499D01*
D02*
G37*
G36*
X205512Y95888D02*
X204844Y95800D01*
X204221Y95542D01*
X203687Y95132D01*
X203276Y94598D01*
X203019Y93975D01*
X202931Y93307D01*
X203019Y92639D01*
X203276Y92017D01*
X203687Y91482D01*
X204221Y91072D01*
X204844Y90814D01*
X205512Y90726D01*
X206180Y90814D01*
X206631Y91001D01*
X207010Y90904D01*
X207202Y90748D01*
X207410Y90245D01*
X207821Y89710D01*
X208355Y89300D01*
X208978Y89042D01*
X209646Y88954D01*
X210090Y89013D01*
X210105Y88899D01*
X210363Y88276D01*
X210221Y87787D01*
X209789Y87455D01*
X209378Y86920D01*
X209121Y86298D01*
X209033Y85630D01*
X209121Y84962D01*
X209378Y84339D01*
X209789Y83805D01*
X210323Y83394D01*
X210946Y83137D01*
X211614Y83049D01*
X212282Y83137D01*
X212904Y83394D01*
X213439Y83805D01*
X213738Y84194D01*
X214210Y84182D01*
X214300Y84143D01*
X214710Y83608D01*
X215245Y83198D01*
X215867Y82940D01*
X216535Y82852D01*
X217203Y82940D01*
X217778Y83178D01*
X217921Y83099D01*
X218176Y82836D01*
X217979Y82361D01*
X217891Y81693D01*
X217979Y81025D01*
X218237Y80402D01*
X218647Y79868D01*
X219182Y79458D01*
X219804Y79200D01*
X220472Y79112D01*
X221141Y79200D01*
X221763Y79458D01*
X222298Y79868D01*
X222708Y80402D01*
X222966Y81025D01*
X223054Y81693D01*
X222966Y82361D01*
X222708Y82983D01*
X222298Y83518D01*
X221763Y83928D01*
X221141Y84186D01*
X220472Y84274D01*
X219804Y84186D01*
X219230Y83948D01*
X219086Y84027D01*
X218832Y84290D01*
X219029Y84765D01*
X219117Y85433D01*
X219029Y86101D01*
X218771Y86724D01*
X218361Y87258D01*
X217826Y87668D01*
X217203Y87926D01*
X216535Y88014D01*
X215867Y87926D01*
X215245Y87668D01*
X214710Y87258D01*
X214663Y87197D01*
X214210Y87185D01*
X214258Y87615D01*
X214424Y87742D01*
X214834Y88276D01*
X215092Y88899D01*
X215180Y89567D01*
X215092Y90235D01*
X214834Y90857D01*
X214424Y91392D01*
X213889Y91802D01*
X213266Y92060D01*
X212598Y92148D01*
X212154Y92089D01*
X212139Y92203D01*
X211881Y92826D01*
X211471Y93361D01*
X210936Y93771D01*
X210314Y94029D01*
X209646Y94117D01*
X208978Y94029D01*
X208527Y93842D01*
X208148Y93939D01*
X207956Y94094D01*
X207747Y94598D01*
X207337Y95132D01*
X206802Y95542D01*
X206180Y95800D01*
X205512Y95888D01*
D02*
G37*
G36*
X151575Y82306D02*
X150907Y82218D01*
X150284Y81960D01*
X149750Y81550D01*
X149339Y81015D01*
X149082Y80392D01*
X148994Y79724D01*
X149082Y79056D01*
X149339Y78434D01*
X149750Y77899D01*
X150284Y77489D01*
X150907Y77231D01*
X151575Y77143D01*
X152243Y77231D01*
X152865Y77489D01*
X153400Y77899D01*
X153810Y78434D01*
X154068Y79056D01*
X154156Y79724D01*
X154068Y80392D01*
X153810Y81015D01*
X153400Y81550D01*
X152865Y81960D01*
X152243Y82218D01*
X151575Y82306D01*
D02*
G37*
G36*
X291339Y81321D02*
X290670Y81233D01*
X290048Y80976D01*
X289513Y80565D01*
X289103Y80031D01*
X288845Y79408D01*
X288757Y78740D01*
X288845Y78072D01*
X289103Y77450D01*
X289513Y76915D01*
X290048Y76505D01*
X290670Y76247D01*
X291339Y76159D01*
X292007Y76247D01*
X292629Y76505D01*
X293164Y76915D01*
X293574Y77450D01*
X293832Y78072D01*
X293920Y78740D01*
X293832Y79408D01*
X293574Y80031D01*
X293164Y80565D01*
X292629Y80976D01*
X292007Y81233D01*
X291339Y81321D01*
D02*
G37*
G36*
X229921Y81715D02*
X229253Y81627D01*
X228631Y81369D01*
X228096Y80959D01*
X227686Y80424D01*
X227428Y79802D01*
X227340Y79134D01*
X227428Y78466D01*
X227686Y77843D01*
X228096Y77309D01*
X228631Y76898D01*
X228762Y76844D01*
X229005Y76202D01*
X228970Y76130D01*
X228859Y76115D01*
X228237Y75857D01*
X227702Y75447D01*
X227416D01*
X226881Y75857D01*
X226259Y76115D01*
X225590Y76203D01*
X224922Y76115D01*
X224300Y75857D01*
X223765Y75447D01*
X223355Y74913D01*
X223097Y74290D01*
X223009Y73622D01*
X223097Y72954D01*
X223355Y72332D01*
X223765Y71797D01*
X224300Y71387D01*
X224922Y71129D01*
X225590Y71041D01*
X226259Y71129D01*
X226881Y71387D01*
X227416Y71797D01*
X227702D01*
X228237Y71387D01*
X228859Y71129D01*
X229528Y71041D01*
X230196Y71129D01*
X230818Y71387D01*
X231353Y71797D01*
X231763Y72332D01*
X232021Y72954D01*
X232091Y73484D01*
X232448Y73701D01*
X232598Y73736D01*
X233190Y73491D01*
X233858Y73403D01*
X234526Y73491D01*
X235148Y73749D01*
X235683Y74159D01*
X236093Y74694D01*
X236351Y75316D01*
X236439Y75984D01*
X236351Y76652D01*
X236093Y77275D01*
X235683Y77809D01*
X235148Y78219D01*
X234526Y78477D01*
X233858Y78565D01*
X233190Y78477D01*
X232880Y78349D01*
X232447Y78711D01*
X232502Y79134D01*
X232414Y79802D01*
X232157Y80424D01*
X231746Y80959D01*
X231212Y81369D01*
X230589Y81627D01*
X229921Y81715D01*
D02*
G37*
G36*
X267717Y80337D02*
X267049Y80249D01*
X266426Y79991D01*
X265891Y79581D01*
X265481Y79046D01*
X265223Y78424D01*
X265135Y77756D01*
X265223Y77088D01*
X265481Y76465D01*
X265891Y75931D01*
X266426Y75521D01*
X267049Y75263D01*
X267717Y75175D01*
X268385Y75263D01*
X269007Y75521D01*
X269542Y75931D01*
X269952Y76465D01*
X270210Y77088D01*
X270298Y77756D01*
X270210Y78424D01*
X269952Y79046D01*
X269542Y79581D01*
X269007Y79991D01*
X268385Y80249D01*
X267717Y80337D01*
D02*
G37*
G36*
X197835Y84274D02*
X197167Y84186D01*
X196544Y83928D01*
X196010Y83518D01*
X195599Y82983D01*
X195342Y82361D01*
X195254Y81693D01*
X195342Y81025D01*
X195599Y80402D01*
X195844Y80084D01*
X195962Y79724D01*
X195844Y79365D01*
X195599Y79046D01*
X195342Y78424D01*
X195254Y77756D01*
X195342Y77088D01*
X195599Y76465D01*
X196010Y75931D01*
X196544Y75521D01*
X197167Y75263D01*
X197835Y75175D01*
X198503Y75263D01*
X199125Y75521D01*
X199660Y75931D01*
X200070Y76465D01*
X200328Y77088D01*
X200416Y77756D01*
X200328Y78424D01*
X200070Y79046D01*
X199826Y79365D01*
X199707Y79724D01*
X199826Y80084D01*
X200070Y80402D01*
X200328Y81025D01*
X200416Y81693D01*
X200328Y82361D01*
X200070Y82983D01*
X199660Y83518D01*
X199125Y83928D01*
X198503Y84186D01*
X197835Y84274D01*
D02*
G37*
G36*
X160433Y80337D02*
X159765Y80249D01*
X159142Y79991D01*
X158608Y79581D01*
X158198Y79046D01*
X157940Y78424D01*
X157852Y77756D01*
X157940Y77088D01*
X158198Y76465D01*
X158608Y75931D01*
X159142Y75521D01*
X159765Y75263D01*
X160433Y75175D01*
X161101Y75263D01*
X161724Y75521D01*
X162258Y75931D01*
X162668Y76465D01*
X162926Y77088D01*
X163014Y77756D01*
X162926Y78424D01*
X162668Y79046D01*
X162258Y79581D01*
X161724Y79991D01*
X161101Y80249D01*
X160433Y80337D01*
D02*
G37*
G36*
X106299Y79353D02*
X105631Y79265D01*
X105009Y79007D01*
X104474Y78597D01*
X104064Y78062D01*
X103806Y77440D01*
X103718Y76772D01*
X103806Y76104D01*
X104064Y75481D01*
X104474Y74946D01*
X105009Y74536D01*
X105631Y74278D01*
X106299Y74190D01*
X106967Y74278D01*
X107590Y74536D01*
X108124Y74946D01*
X108535Y75481D01*
X108792Y76104D01*
X108880Y76772D01*
X108792Y77440D01*
X108535Y78062D01*
X108124Y78597D01*
X107590Y79007D01*
X106967Y79265D01*
X106299Y79353D01*
D02*
G37*
G36*
X100394D02*
X99726Y79265D01*
X99103Y79007D01*
X98569Y78597D01*
X98158Y78062D01*
X97900Y77440D01*
X97813Y76772D01*
X97900Y76104D01*
X98158Y75481D01*
X98569Y74946D01*
X99103Y74536D01*
X99726Y74278D01*
X100394Y74190D01*
X101062Y74278D01*
X101684Y74536D01*
X102219Y74946D01*
X102629Y75481D01*
X102887Y76104D01*
X102975Y76772D01*
X102887Y77440D01*
X102629Y78062D01*
X102219Y78597D01*
X101684Y79007D01*
X101062Y79265D01*
X100394Y79353D01*
D02*
G37*
G36*
X94488D02*
X93820Y79265D01*
X93198Y79007D01*
X92663Y78597D01*
X92253Y78062D01*
X91995Y77440D01*
X91907Y76772D01*
X91995Y76104D01*
X92253Y75481D01*
X92663Y74946D01*
X93198Y74536D01*
X93820Y74278D01*
X94488Y74190D01*
X95156Y74278D01*
X95779Y74536D01*
X96313Y74946D01*
X96724Y75481D01*
X96981Y76104D01*
X97069Y76772D01*
X96981Y77440D01*
X96724Y78062D01*
X96313Y78597D01*
X95779Y79007D01*
X95156Y79265D01*
X94488Y79353D01*
D02*
G37*
G36*
X251636Y75711D02*
X250968Y75623D01*
X250346Y75365D01*
X249811Y74955D01*
X249401Y74420D01*
X249143Y73798D01*
X249055Y73130D01*
X249143Y72462D01*
X249401Y71839D01*
X249811Y71305D01*
X250253Y70965D01*
X250106Y70481D01*
X250000Y70495D01*
X249332Y70407D01*
X248709Y70149D01*
X248175Y69739D01*
X247765Y69204D01*
X247507Y68581D01*
X247419Y67913D01*
X247507Y67245D01*
X247765Y66623D01*
X248175Y66088D01*
X248709Y65678D01*
X249332Y65420D01*
X250000Y65332D01*
X250668Y65420D01*
X251291Y65678D01*
X251825Y66088D01*
X252235Y66623D01*
X252493Y67245D01*
X252581Y67913D01*
X252493Y68581D01*
X252235Y69204D01*
X251825Y69739D01*
X251383Y70078D01*
X251530Y70563D01*
X251636Y70549D01*
X252304Y70637D01*
X252927Y70895D01*
X253461Y71305D01*
X253872Y71839D01*
X254130Y72462D01*
X254217Y73130D01*
X254130Y73798D01*
X253872Y74420D01*
X253461Y74955D01*
X252927Y75365D01*
X252304Y75623D01*
X251636Y75711D01*
D02*
G37*
G36*
X184055Y74432D02*
X183387Y74344D01*
X182765Y74086D01*
X182230Y73676D01*
X181820Y73141D01*
X181562Y72518D01*
X181474Y71850D01*
X181562Y71182D01*
X181820Y70560D01*
X182230Y70025D01*
X182765Y69615D01*
X183387Y69357D01*
X184055Y69269D01*
X184723Y69357D01*
X185346Y69615D01*
X185880Y70025D01*
X186290Y70560D01*
X186548Y71182D01*
X186636Y71850D01*
X186548Y72518D01*
X186290Y73141D01*
X185880Y73676D01*
X185346Y74086D01*
X184723Y74344D01*
X184055Y74432D01*
D02*
G37*
G36*
X161417D02*
X160749Y74344D01*
X160127Y74086D01*
X159592Y73676D01*
X159182Y73141D01*
X158924Y72518D01*
X158836Y71850D01*
X158924Y71182D01*
X159182Y70560D01*
X159592Y70025D01*
X160127Y69615D01*
X160749Y69357D01*
X161417Y69269D01*
X162085Y69357D01*
X162708Y69615D01*
X163242Y70025D01*
X163653Y70560D01*
X163910Y71182D01*
X163998Y71850D01*
X163910Y72518D01*
X163653Y73141D01*
X163242Y73676D01*
X162708Y74086D01*
X162085Y74344D01*
X161417Y74432D01*
D02*
G37*
G36*
X78740Y81321D02*
X78072Y81233D01*
X77450Y80976D01*
X76915Y80565D01*
X76505Y80031D01*
X76247Y79408D01*
X76159Y78740D01*
X76247Y78072D01*
X76505Y77450D01*
X76915Y76915D01*
Y76628D01*
X76505Y76094D01*
X76247Y75471D01*
X76159Y74803D01*
X76247Y74135D01*
X76505Y73513D01*
X76915Y72978D01*
Y72691D01*
X76505Y72157D01*
X76247Y71534D01*
X76159Y70866D01*
X76247Y70198D01*
X76505Y69576D01*
X76915Y69041D01*
X77450Y68631D01*
X78072Y68373D01*
X78740Y68285D01*
X79408Y68373D01*
X80031Y68631D01*
X80565Y69041D01*
X80976Y69576D01*
X81233Y70198D01*
X81321Y70866D01*
X81233Y71534D01*
X80976Y72157D01*
X80565Y72691D01*
Y72978D01*
X80976Y73513D01*
X81233Y74135D01*
X81321Y74803D01*
X81233Y75471D01*
X80976Y76094D01*
X80565Y76628D01*
Y76915D01*
X80976Y77450D01*
X81233Y78072D01*
X81321Y78740D01*
X81233Y79408D01*
X80976Y80031D01*
X80565Y80565D01*
X80031Y80976D01*
X79408Y81233D01*
X78740Y81321D01*
D02*
G37*
G36*
X55118Y81321D02*
X54450Y81233D01*
X53828Y80976D01*
X53293Y80565D01*
X52883Y80031D01*
X52625Y79408D01*
X52537Y78740D01*
X52625Y78072D01*
X52883Y77450D01*
X53293Y76915D01*
Y76628D01*
X52883Y76094D01*
X52625Y75471D01*
X52537Y74803D01*
X52625Y74135D01*
X52883Y73513D01*
X53127Y73194D01*
X53246Y72835D01*
X53127Y72475D01*
X52883Y72157D01*
X52625Y71534D01*
X52537Y70866D01*
X52625Y70198D01*
X52883Y69576D01*
X53293Y69041D01*
X53828Y68631D01*
X54450Y68373D01*
X55118Y68285D01*
X55786Y68373D01*
X56409Y68631D01*
X56943Y69041D01*
X57353Y69576D01*
X57611Y70198D01*
X57699Y70866D01*
X57611Y71534D01*
X57353Y72157D01*
X57109Y72475D01*
X56990Y72835D01*
X57109Y73194D01*
X57353Y73513D01*
X57611Y74135D01*
X57699Y74803D01*
X57611Y75471D01*
X57353Y76094D01*
X56943Y76628D01*
Y76915D01*
X57353Y77450D01*
X57611Y78072D01*
X57699Y78740D01*
X57611Y79408D01*
X57353Y80031D01*
X56943Y80565D01*
X56409Y80976D01*
X55786Y81233D01*
X55118Y81321D01*
D02*
G37*
G36*
X149606Y67542D02*
X148938Y67454D01*
X148316Y67196D01*
X147781Y66786D01*
X147494D01*
X146960Y67196D01*
X146337Y67454D01*
X145669Y67542D01*
X145001Y67454D01*
X144379Y67196D01*
X143844Y66786D01*
X143434Y66251D01*
X143176Y65629D01*
X143088Y64961D01*
X143176Y64293D01*
X143434Y63670D01*
X143614Y63436D01*
X143257Y63079D01*
X143023Y63259D01*
X142400Y63517D01*
X141732Y63605D01*
X141064Y63517D01*
X140442Y63259D01*
X139907Y62849D01*
X139497Y62314D01*
X139239Y61692D01*
X139151Y61024D01*
X139239Y60356D01*
X139497Y59733D01*
X139677Y59499D01*
X139320Y59142D01*
X139086Y59322D01*
X138463Y59580D01*
X137795Y59668D01*
X137127Y59580D01*
X136505Y59322D01*
X135970Y58912D01*
X135560Y58377D01*
X135302Y57755D01*
X135214Y57087D01*
X135302Y56419D01*
X135560Y55796D01*
X135970Y55261D01*
X136505Y54851D01*
X137127Y54593D01*
X137795Y54505D01*
X138463Y54593D01*
X139086Y54851D01*
X139620Y55261D01*
X139907D01*
X140442Y54851D01*
X141064Y54593D01*
X141732Y54505D01*
X142400Y54593D01*
X143023Y54851D01*
X143557Y55261D01*
X143968Y55796D01*
X144226Y56419D01*
X144313Y57087D01*
X144226Y57755D01*
X143968Y58377D01*
X143788Y58612D01*
X144144Y58968D01*
X144379Y58788D01*
X145001Y58530D01*
X145669Y58442D01*
X146337Y58530D01*
X146960Y58788D01*
X147494Y59198D01*
X147905Y59733D01*
X148162Y60356D01*
X148250Y61024D01*
X148162Y61692D01*
X147905Y62314D01*
X147725Y62549D01*
X148081Y62905D01*
X148316Y62725D01*
X148938Y62467D01*
X149606Y62379D01*
X150274Y62467D01*
X150897Y62725D01*
X151431Y63135D01*
X151842Y63670D01*
X152100Y64293D01*
X152187Y64961D01*
X152100Y65629D01*
X151842Y66251D01*
X151431Y66786D01*
X150897Y67196D01*
X150274Y67454D01*
X149606Y67542D01*
D02*
G37*
G36*
X264961Y69117D02*
X264293Y69029D01*
X263670Y68771D01*
X263136Y68361D01*
X262725Y67826D01*
X262468Y67203D01*
X262380Y66535D01*
X262468Y65867D01*
X262725Y65245D01*
X263136Y64710D01*
X263670Y64300D01*
X264293Y64042D01*
X264961Y63954D01*
X265629Y64042D01*
X266251Y64300D01*
X266786Y64710D01*
X267196Y65245D01*
X267454Y65867D01*
X267542Y66535D01*
X267454Y67203D01*
X267196Y67826D01*
X266786Y68361D01*
X266251Y68771D01*
X265629Y69029D01*
X264961Y69117D01*
D02*
G37*
G36*
X210630Y67542D02*
X209962Y67454D01*
X209339Y67196D01*
X208805Y66786D01*
X208395Y66251D01*
X208137Y65629D01*
X208049Y64961D01*
X208137Y64293D01*
X208395Y63670D01*
X208805Y63135D01*
X209339Y62725D01*
X209962Y62467D01*
X210630Y62379D01*
X211298Y62467D01*
X211920Y62725D01*
X212455Y63135D01*
X212865Y63670D01*
X213123Y64293D01*
X213211Y64961D01*
X213123Y65629D01*
X212865Y66251D01*
X212455Y66786D01*
X211920Y67196D01*
X211298Y67454D01*
X210630Y67542D01*
D02*
G37*
G36*
X20866Y65585D02*
X19838Y65450D01*
X18881Y65053D01*
X18058Y64422D01*
X17427Y63600D01*
X17030Y62642D01*
X16895Y61614D01*
X17030Y60586D01*
X17427Y59629D01*
X18058Y58806D01*
X18881Y58175D01*
X19838Y57779D01*
X20866Y57643D01*
X21894Y57779D01*
X22852Y58175D01*
X23674Y58806D01*
X24305Y59629D01*
X24702Y60586D01*
X24837Y61614D01*
X24702Y62642D01*
X24305Y63600D01*
X23674Y64422D01*
X22852Y65053D01*
X21894Y65450D01*
X20866Y65585D01*
D02*
G37*
G36*
X214567Y59668D02*
X213899Y59580D01*
X213276Y59322D01*
X212742Y58912D01*
X212332Y58377D01*
X212074Y57755D01*
X211987Y57092D01*
X211971Y57081D01*
X211507Y56897D01*
X211471Y56943D01*
X210936Y57353D01*
X210314Y57611D01*
X209646Y57699D01*
X208978Y57611D01*
X208355Y57353D01*
X208036Y57109D01*
X207677Y56990D01*
X207317Y57109D01*
X206999Y57353D01*
X206376Y57611D01*
X205708Y57699D01*
X205040Y57611D01*
X204418Y57353D01*
X204100Y57109D01*
X203740Y56990D01*
X203380Y57109D01*
X203062Y57353D01*
X202440Y57611D01*
X201772Y57699D01*
X201104Y57611D01*
X200481Y57353D01*
X199946Y56943D01*
X199536Y56409D01*
X199278Y55786D01*
X199190Y55118D01*
X199278Y54450D01*
X199536Y53828D01*
X199946Y53293D01*
X200481Y52883D01*
X201104Y52625D01*
X201772Y52537D01*
X202440Y52625D01*
X203062Y52883D01*
X203380Y53127D01*
X203740Y53246D01*
X204099Y53127D01*
X204418Y52883D01*
X205040Y52625D01*
X205708Y52537D01*
X206376Y52625D01*
X206999Y52883D01*
X207317Y53127D01*
X207677Y53246D01*
X208036Y53127D01*
X208355Y52883D01*
X208978Y52625D01*
X209646Y52537D01*
X210314Y52625D01*
X210936Y52883D01*
X211471Y53293D01*
X211881Y53828D01*
X212139Y54450D01*
X212226Y55112D01*
X212242Y55124D01*
X212706Y55308D01*
X212742Y55261D01*
X213276Y54851D01*
X213899Y54593D01*
X214567Y54505D01*
X215235Y54593D01*
X215858Y54851D01*
X216392Y55261D01*
X216802Y55796D01*
X217060Y56419D01*
X217148Y57087D01*
X217060Y57755D01*
X216802Y58377D01*
X216392Y58912D01*
X215858Y59322D01*
X215235Y59580D01*
X214567Y59668D01*
D02*
G37*
G36*
X164370Y56715D02*
X163702Y56627D01*
X163080Y56369D01*
X162545Y55959D01*
X162042Y56125D01*
X161724Y56369D01*
X161101Y56627D01*
X160433Y56715D01*
X159765Y56627D01*
X159142Y56369D01*
X158608Y55959D01*
X158198Y55424D01*
X157940Y54802D01*
X157852Y54134D01*
X157940Y53466D01*
X158198Y52843D01*
X158608Y52309D01*
X159142Y51898D01*
X159765Y51641D01*
X160433Y51553D01*
X161101Y51641D01*
X161724Y51898D01*
X162042Y52143D01*
X162545Y52309D01*
X163080Y51898D01*
X163702Y51641D01*
X164370Y51553D01*
X165038Y51641D01*
X165661Y51898D01*
X166195Y52309D01*
X166605Y52843D01*
X166863Y53466D01*
X166951Y54134D01*
X166863Y54802D01*
X166605Y55424D01*
X166195Y55959D01*
X165661Y56369D01*
X165038Y56627D01*
X164370Y56715D01*
D02*
G37*
G36*
X36417Y55731D02*
X35749Y55643D01*
X35127Y55385D01*
X34941Y55242D01*
X34755Y55385D01*
X34133Y55643D01*
X33465Y55731D01*
X32796Y55643D01*
X32174Y55385D01*
X31639Y54975D01*
X31229Y54440D01*
X30971Y53818D01*
X30883Y53150D01*
X30971Y52482D01*
X31229Y51859D01*
X31372Y51673D01*
X31229Y51487D01*
X30971Y50865D01*
X30883Y50197D01*
X30971Y49529D01*
X31229Y48906D01*
X31639Y48372D01*
X32174Y47962D01*
X32796Y47704D01*
X33465Y47616D01*
X34133Y47704D01*
X34755Y47962D01*
X34941Y48104D01*
X35127Y47962D01*
X35749Y47704D01*
X36417Y47616D01*
X37085Y47704D01*
X37708Y47962D01*
X38243Y48372D01*
X38653Y48906D01*
X38910Y49529D01*
X38998Y50197D01*
X38910Y50865D01*
X38653Y51487D01*
X38510Y51673D01*
X38653Y51859D01*
X38910Y52482D01*
X38998Y53150D01*
X38910Y53818D01*
X38653Y54440D01*
X38243Y54975D01*
X37708Y55385D01*
X37085Y55643D01*
X36417Y55731D01*
D02*
G37*
G36*
X172244Y57699D02*
X171576Y57611D01*
X170954Y57353D01*
X170419Y56943D01*
X170009Y56409D01*
X169751Y55786D01*
X169663Y55118D01*
X169751Y54450D01*
X170009Y53828D01*
X170419Y53293D01*
X170954Y52883D01*
X171576Y52625D01*
X172244Y52537D01*
X172912Y52625D01*
X173535Y52883D01*
X174069Y53293D01*
X174479Y53828D01*
X174737Y54450D01*
X174825Y55118D01*
X174737Y55786D01*
X174479Y56409D01*
X174069Y56943D01*
X173535Y57353D01*
X172912Y57611D01*
X172244Y57699D01*
D02*
G37*
G36*
X92126Y56715D02*
X91458Y56627D01*
X90835Y56369D01*
X90301Y55959D01*
X89891Y55424D01*
X89633Y54802D01*
X89545Y54134D01*
X89633Y53466D01*
X89891Y52843D01*
X90301Y52309D01*
X90835Y51898D01*
X91458Y51641D01*
X92126Y51553D01*
X92794Y51641D01*
X93417Y51898D01*
X93951Y52309D01*
X94361Y52843D01*
X94619Y53466D01*
X94707Y54134D01*
X94619Y54802D01*
X94361Y55424D01*
X93951Y55959D01*
X93417Y56369D01*
X92794Y56627D01*
X92126Y56715D01*
D02*
G37*
G36*
X79724Y51794D02*
X79056Y51706D01*
X78434Y51448D01*
X77899Y51038D01*
X77489Y50503D01*
X77231Y49881D01*
X77143Y49213D01*
X77231Y48544D01*
X77489Y47922D01*
X77899Y47387D01*
X78434Y46977D01*
X79056Y46719D01*
X79724Y46632D01*
X80392Y46719D01*
X81015Y46977D01*
X81550Y47387D01*
X81960Y47922D01*
X82218Y48544D01*
X82306Y49213D01*
X82218Y49881D01*
X81960Y50503D01*
X81550Y51038D01*
X81015Y51448D01*
X80392Y51706D01*
X79724Y51794D01*
D02*
G37*
G36*
X125591Y56912D02*
X124923Y56824D01*
X124300Y56566D01*
X123765Y56156D01*
X123355Y55621D01*
X123097Y54999D01*
X123009Y54331D01*
X123097Y53663D01*
X123355Y53040D01*
X123600Y52722D01*
X123765Y52219D01*
X123355Y51684D01*
X123097Y51062D01*
X123009Y50394D01*
X123097Y49725D01*
X123355Y49103D01*
X123724Y48622D01*
X123355Y48141D01*
X123097Y47518D01*
X123009Y46850D01*
X123097Y46182D01*
X123355Y45560D01*
X123765Y45025D01*
X124300Y44615D01*
X124923Y44357D01*
X125591Y44269D01*
X126259Y44357D01*
X126881Y44615D01*
X127416Y45025D01*
X127826Y45560D01*
X128084Y46182D01*
X128172Y46850D01*
X128084Y47518D01*
X127826Y48141D01*
X127457Y48622D01*
X127826Y49103D01*
X128084Y49725D01*
X128171Y50394D01*
X128084Y51062D01*
X127826Y51684D01*
X127415Y52219D01*
X127581Y52722D01*
X127826Y53040D01*
X128084Y53663D01*
X128172Y54331D01*
X128084Y54999D01*
X127826Y55621D01*
X127416Y56156D01*
X126881Y56566D01*
X126259Y56824D01*
X125591Y56912D01*
D02*
G37*
G36*
X45866Y55731D02*
X45198Y55643D01*
X44576Y55385D01*
X44041Y54975D01*
X43631Y54440D01*
X43373Y53818D01*
X43285Y53150D01*
X43373Y52482D01*
X43631Y51859D01*
X43773Y51673D01*
X43631Y51487D01*
X43373Y50865D01*
X43285Y50197D01*
X43373Y49529D01*
X43631Y48906D01*
X43773Y48720D01*
X43631Y48535D01*
X43373Y47912D01*
X43285Y47244D01*
X43373Y46576D01*
X43631Y45954D01*
X43773Y45768D01*
X43631Y45582D01*
X43373Y44959D01*
X43285Y44291D01*
X43373Y43623D01*
X43631Y43001D01*
X44041Y42466D01*
X44576Y42056D01*
X45198Y41798D01*
X45866Y41710D01*
X46534Y41798D01*
X47157Y42056D01*
X47691Y42466D01*
X48101Y43001D01*
X48359Y43623D01*
X48447Y44291D01*
X48359Y44959D01*
X48101Y45582D01*
X47959Y45768D01*
X48101Y45954D01*
X48359Y46576D01*
X48447Y47244D01*
X48359Y47912D01*
X48101Y48535D01*
X47959Y48720D01*
X48101Y48906D01*
X48359Y49529D01*
X48447Y50197D01*
X48359Y50865D01*
X48101Y51487D01*
X47959Y51673D01*
X48101Y51859D01*
X48359Y52482D01*
X48447Y53150D01*
X48359Y53818D01*
X48101Y54440D01*
X47691Y54975D01*
X47157Y55385D01*
X46534Y55643D01*
X45866Y55731D01*
D02*
G37*
G36*
X20866Y44719D02*
X19838Y44584D01*
X18881Y44187D01*
X18058Y43556D01*
X17427Y42733D01*
X17030Y41776D01*
X16895Y40748D01*
X17030Y39720D01*
X17427Y38763D01*
X18058Y37940D01*
X18881Y37309D01*
X19838Y36912D01*
X20866Y36777D01*
X21894Y36912D01*
X22852Y37309D01*
X23674Y37940D01*
X24305Y38763D01*
X24702Y39720D01*
X24837Y40748D01*
X24702Y41776D01*
X24305Y42733D01*
X23674Y43556D01*
X22852Y44187D01*
X21894Y44584D01*
X20866Y44719D01*
D02*
G37*
G36*
X84252Y36255D02*
X83561Y36118D01*
X82975Y35726D01*
X82583Y35140D01*
X82446Y34449D01*
X82583Y33758D01*
X82975Y33171D01*
X83561Y32780D01*
X84252Y32642D01*
X84943Y32780D01*
X85529Y33171D01*
X85921Y33758D01*
X86058Y34449D01*
X85921Y35140D01*
X85529Y35726D01*
X84943Y36118D01*
X84252Y36255D01*
D02*
G37*
G36*
X118110Y37030D02*
X117442Y36942D01*
X116820Y36684D01*
X116285Y36274D01*
X115875Y35739D01*
X115617Y35117D01*
X115529Y34449D01*
X115617Y33781D01*
X115875Y33158D01*
X116285Y32624D01*
X116820Y32214D01*
X117442Y31956D01*
X118110Y31868D01*
X118778Y31956D01*
X119401Y32214D01*
X119935Y32624D01*
X120346Y33158D01*
X120603Y33781D01*
X120691Y34449D01*
X120603Y35117D01*
X120346Y35739D01*
X119935Y36274D01*
X119401Y36684D01*
X118778Y36942D01*
X118110Y37030D01*
D02*
G37*
G36*
X100394D02*
X99726Y36942D01*
X99103Y36684D01*
X98569Y36274D01*
X98158Y35739D01*
X97900Y35117D01*
X97813Y34449D01*
X97900Y33781D01*
X98158Y33158D01*
X98569Y32624D01*
X99103Y32214D01*
X99726Y31956D01*
X100394Y31868D01*
X101062Y31956D01*
X101684Y32214D01*
X102219Y32624D01*
X102629Y33158D01*
X102887Y33781D01*
X102975Y34449D01*
X102887Y35117D01*
X102629Y35739D01*
X102219Y36274D01*
X101684Y36684D01*
X101062Y36942D01*
X100394Y37030D01*
D02*
G37*
G36*
X205709Y41951D02*
X205041Y41863D01*
X204418Y41605D01*
X203884Y41195D01*
X203473Y40661D01*
X203216Y40038D01*
X203128Y39370D01*
X203216Y38702D01*
X203473Y38080D01*
X203718Y37761D01*
X203836Y37402D01*
X203718Y37042D01*
X203473Y36724D01*
X203216Y36101D01*
X203128Y35433D01*
X203216Y34765D01*
X203473Y34143D01*
X203884Y33608D01*
X204418Y33198D01*
X205041Y32940D01*
X205709Y32852D01*
X206377Y32940D01*
X206999Y33198D01*
X207234Y33378D01*
X207590Y33021D01*
X207410Y32787D01*
X207153Y32164D01*
X207065Y31496D01*
X207153Y30828D01*
X207410Y30206D01*
X207821Y29671D01*
X208355Y29261D01*
X208978Y29003D01*
X209646Y28915D01*
X210314Y29003D01*
X210936Y29261D01*
X211471Y29671D01*
X211881Y30206D01*
X212139Y30828D01*
X212227Y31496D01*
X212139Y32164D01*
X211881Y32787D01*
X211471Y33321D01*
Y33608D01*
X211881Y34143D01*
X212139Y34765D01*
X212227Y35433D01*
X212139Y36101D01*
X211881Y36724D01*
X211471Y37258D01*
X210936Y37668D01*
X210314Y37926D01*
X209646Y38014D01*
X208978Y37926D01*
X208355Y37668D01*
X208121Y37489D01*
X207764Y37845D01*
X207944Y38080D01*
X208202Y38702D01*
X208290Y39370D01*
X208202Y40038D01*
X207944Y40661D01*
X207534Y41195D01*
X206999Y41605D01*
X206377Y41863D01*
X205709Y41951D01*
D02*
G37*
G36*
X182677Y35861D02*
X181649Y35725D01*
X180692Y35329D01*
X179869Y34698D01*
X179238Y33875D01*
X178841Y32917D01*
X178706Y31890D01*
X178841Y30862D01*
X179238Y29904D01*
X179869Y29082D01*
X180692Y28451D01*
X181649Y28054D01*
X182677Y27919D01*
X183705Y28054D01*
X184663Y28451D01*
X185485Y29082D01*
X186116Y29904D01*
X186513Y30862D01*
X186648Y31890D01*
X186513Y32917D01*
X186116Y33875D01*
X185485Y34698D01*
X184663Y35329D01*
X183705Y35725D01*
X182677Y35861D01*
D02*
G37*
G36*
X132283D02*
X131256Y35725D01*
X130298Y35329D01*
X129476Y34698D01*
X128844Y33875D01*
X128448Y32917D01*
X128313Y31890D01*
X128448Y30862D01*
X128844Y29904D01*
X129476Y29082D01*
X130298Y28451D01*
X131256Y28054D01*
X132283Y27919D01*
X133311Y28054D01*
X134269Y28451D01*
X135091Y29082D01*
X135722Y29904D01*
X136119Y30862D01*
X136254Y31890D01*
X136119Y32917D01*
X135722Y33875D01*
X135091Y34698D01*
X134269Y35329D01*
X133311Y35725D01*
X132283Y35861D01*
D02*
G37*
G36*
X221457Y30140D02*
X220789Y30052D01*
X220166Y29794D01*
X219632Y29384D01*
X219221Y28850D01*
X218964Y28227D01*
X218876Y27559D01*
X218964Y26891D01*
X219221Y26269D01*
X219632Y25734D01*
X220166Y25324D01*
X220789Y25066D01*
X221457Y24978D01*
X222125Y25066D01*
X222747Y25324D01*
X223282Y25734D01*
X223692Y26269D01*
X223950Y26891D01*
X224038Y27559D01*
X223950Y28227D01*
X223692Y28850D01*
X223282Y29384D01*
X222747Y29794D01*
X222125Y30052D01*
X221457Y30140D01*
D02*
G37*
G36*
X78740Y34077D02*
X78072Y33989D01*
X77450Y33731D01*
X76915Y33321D01*
X76505Y32787D01*
X76247Y32164D01*
X76159Y31496D01*
X76247Y30828D01*
X76505Y30206D01*
X76915Y29671D01*
Y29384D01*
X76505Y28850D01*
X76247Y28227D01*
X76159Y27559D01*
X76247Y26891D01*
X76505Y26269D01*
X76915Y25734D01*
Y25447D01*
X76505Y24913D01*
X76247Y24290D01*
X76159Y23622D01*
X76247Y22954D01*
X76505Y22332D01*
X76915Y21797D01*
X77450Y21387D01*
X78072Y21129D01*
X78740Y21041D01*
X79408Y21129D01*
X80031Y21387D01*
X80565Y21797D01*
X80976Y22332D01*
X81233Y22954D01*
X81321Y23622D01*
X81233Y24290D01*
X80976Y24913D01*
X80565Y25447D01*
Y25734D01*
X80976Y26269D01*
X81233Y26891D01*
X81321Y27559D01*
X81233Y28227D01*
X80976Y28850D01*
X80565Y29384D01*
Y29671D01*
X80976Y30206D01*
X81233Y30828D01*
X81321Y31496D01*
X81233Y32164D01*
X80976Y32787D01*
X80565Y33321D01*
X80031Y33731D01*
X79408Y33989D01*
X78740Y34077D01*
D02*
G37*
G36*
X55118D02*
X54450Y33989D01*
X53828Y33731D01*
X53293Y33321D01*
X52883Y32787D01*
X52625Y32164D01*
X52537Y31496D01*
X52625Y30828D01*
X52883Y30206D01*
X53293Y29671D01*
Y29384D01*
X52883Y28850D01*
X52625Y28227D01*
X52537Y27559D01*
X52625Y26891D01*
X52883Y26269D01*
X53127Y25950D01*
X53246Y25591D01*
X53127Y25231D01*
X52883Y24913D01*
X52625Y24290D01*
X52537Y23622D01*
X52625Y22954D01*
X52883Y22332D01*
X53293Y21797D01*
X53828Y21387D01*
X54450Y21129D01*
X55118Y21041D01*
X55786Y21129D01*
X56409Y21387D01*
X56943Y21797D01*
X57353Y22332D01*
X57611Y22954D01*
X57699Y23622D01*
X57611Y24290D01*
X57353Y24913D01*
X57109Y25231D01*
X56990Y25591D01*
X57109Y25950D01*
X57353Y26269D01*
X57611Y26891D01*
X57699Y27559D01*
X57611Y28227D01*
X57353Y28850D01*
X56943Y29384D01*
Y29671D01*
X57353Y30206D01*
X57611Y30828D01*
X57699Y31496D01*
X57611Y32164D01*
X57353Y32787D01*
X56943Y33321D01*
X56409Y33731D01*
X55786Y33989D01*
X55118Y34077D01*
D02*
G37*
G36*
X254921Y21282D02*
X254253Y21194D01*
X253631Y20936D01*
X253096Y20526D01*
X252686Y19991D01*
X252428Y19369D01*
X252340Y18701D01*
X252428Y18033D01*
X252686Y17410D01*
X253096Y16876D01*
X253631Y16465D01*
X254253Y16208D01*
X254921Y16120D01*
X255589Y16208D01*
X256212Y16465D01*
X256746Y16876D01*
X257157Y17410D01*
X257414Y18033D01*
X257502Y18701D01*
X257414Y19369D01*
X257157Y19991D01*
X256746Y20526D01*
X256212Y20936D01*
X255589Y21194D01*
X254921Y21282D01*
D02*
G37*
G36*
X246801D02*
X246133Y21194D01*
X245511Y20936D01*
X244976Y20526D01*
X244566Y19991D01*
X244308Y19369D01*
X244220Y18701D01*
X244308Y18033D01*
X244566Y17410D01*
X244976Y16876D01*
X245511Y16465D01*
X246133Y16208D01*
X246801Y16120D01*
X247469Y16208D01*
X248092Y16465D01*
X248626Y16876D01*
X249037Y17410D01*
X249294Y18033D01*
X249382Y18701D01*
X249294Y19369D01*
X249037Y19991D01*
X248626Y20526D01*
X248092Y20936D01*
X247469Y21194D01*
X246801Y21282D01*
D02*
G37*
G36*
X240158D02*
X239489Y21194D01*
X238867Y20936D01*
X238332Y20526D01*
X237922Y19991D01*
X237664Y19369D01*
X237576Y18701D01*
X237664Y18033D01*
X237922Y17410D01*
X238332Y16876D01*
X238867Y16465D01*
X239489Y16208D01*
X240158Y16120D01*
X240826Y16208D01*
X241448Y16465D01*
X241983Y16876D01*
X242393Y17410D01*
X242651Y18033D01*
X242739Y18701D01*
X242651Y19369D01*
X242393Y19991D01*
X241983Y20526D01*
X241448Y20936D01*
X240826Y21194D01*
X240158Y21282D01*
D02*
G37*
G36*
X270669Y16361D02*
X270001Y16273D01*
X269379Y16015D01*
X268844Y15605D01*
X268434Y15070D01*
X268176Y14448D01*
X268088Y13780D01*
X268176Y13112D01*
X268434Y12489D01*
X268844Y11954D01*
X269379Y11544D01*
X270001Y11286D01*
X270669Y11198D01*
X271337Y11286D01*
X271960Y11544D01*
X272494Y11954D01*
X272905Y12489D01*
X273163Y13112D01*
X273250Y13780D01*
X273163Y14448D01*
X272905Y15070D01*
X272494Y15605D01*
X271960Y16015D01*
X271337Y16273D01*
X270669Y16361D01*
D02*
G37*
G36*
X260827D02*
X260159Y16273D01*
X259536Y16015D01*
X259002Y15605D01*
X258591Y15070D01*
X258334Y14448D01*
X258246Y13780D01*
X258334Y13112D01*
X258591Y12489D01*
X259002Y11954D01*
X259536Y11544D01*
X260159Y11286D01*
X260827Y11198D01*
X261495Y11286D01*
X262117Y11544D01*
X262652Y11954D01*
X263062Y12489D01*
X263320Y13112D01*
X263408Y13780D01*
X263320Y14448D01*
X263062Y15070D01*
X262652Y15605D01*
X262117Y16015D01*
X261495Y16273D01*
X260827Y16361D01*
D02*
G37*
G36*
X303150Y18734D02*
X301799Y18601D01*
X300500Y18207D01*
X299303Y17567D01*
X298254Y16706D01*
X297393Y15657D01*
X296754Y14460D01*
X296359Y13162D01*
X296227Y11811D01*
X296359Y10460D01*
X296754Y9162D01*
X297393Y7965D01*
X298254Y6916D01*
X299303Y6055D01*
X300500Y5415D01*
X301799Y5021D01*
X303150Y4888D01*
X304500Y5021D01*
X305799Y5415D01*
X306996Y6055D01*
X308045Y6916D01*
X308906Y7965D01*
X309546Y9162D01*
X309940Y10460D01*
X310073Y11811D01*
X309940Y13162D01*
X309546Y14460D01*
X308906Y15657D01*
X308045Y16706D01*
X306996Y17567D01*
X305799Y18207D01*
X304500Y18601D01*
X303150Y18734D01*
D02*
G37*
G36*
X11811D02*
X10460Y18601D01*
X9162Y18207D01*
X7965Y17567D01*
X6916Y16706D01*
X6055Y15657D01*
X5415Y14460D01*
X5021Y13162D01*
X4888Y11811D01*
X5021Y10460D01*
X5415Y9162D01*
X6055Y7965D01*
X6916Y6916D01*
X7965Y6055D01*
X9162Y5415D01*
X10460Y5021D01*
X11811Y4888D01*
X13162Y5021D01*
X14460Y5415D01*
X15657Y6055D01*
X16706Y6916D01*
X17567Y7965D01*
X18207Y9162D01*
X18601Y10460D01*
X18734Y11811D01*
X18601Y13162D01*
X18207Y14460D01*
X17567Y15657D01*
X16706Y16706D01*
X15657Y17567D01*
X14460Y18207D01*
X13162Y18601D01*
X11811Y18734D01*
D02*
G37*
G36*
X92126Y9471D02*
X91458Y9383D01*
X90835Y9125D01*
X90301Y8715D01*
X89891Y8180D01*
X89633Y7558D01*
X89545Y6890D01*
X89633Y6222D01*
X89891Y5599D01*
X90301Y5065D01*
X90835Y4654D01*
X91458Y4397D01*
X92126Y4309D01*
X92794Y4397D01*
X93417Y4654D01*
X93951Y5065D01*
X94361Y5599D01*
X94619Y6222D01*
X94707Y6890D01*
X94619Y7558D01*
X94361Y8180D01*
X93951Y8715D01*
X93417Y9125D01*
X92794Y9383D01*
X92126Y9471D01*
D02*
G37*
%LPD*%
D164*
X308268Y36220D02*
D03*
Y62205D02*
D03*
D165*
X250000Y183071D02*
D03*
X185827Y151870D02*
D03*
X235039Y106299D02*
D03*
X151575Y79724D02*
D03*
X207480Y102756D02*
D03*
Y98032D02*
D03*
X201772Y133858D02*
D03*
X245731Y73130D02*
D03*
X250000Y67913D02*
D03*
X251636Y73130D02*
D03*
X117126Y151575D02*
D03*
X154528Y144685D02*
D03*
X156496Y148622D02*
D03*
X147638Y139764D02*
D03*
X151575D02*
D03*
X209646Y35433D02*
D03*
Y31496D02*
D03*
X161417Y71850D02*
D03*
X184055Y60039D02*
D03*
Y71850D02*
D03*
X241142Y179134D02*
D03*
X233268D02*
D03*
X203740Y165354D02*
D03*
X199803D02*
D03*
X206693Y140748D02*
D03*
X207677Y136811D02*
D03*
X228346Y143701D02*
D03*
X235236Y148622D02*
D03*
X222441Y140748D02*
D03*
X244094D02*
D03*
X185039Y131890D02*
D03*
X160433Y124016D02*
D03*
Y140748D02*
D03*
X167323Y145669D02*
D03*
X213583Y155512D02*
D03*
X216535Y140748D02*
D03*
X210630D02*
D03*
X213583Y136811D02*
D03*
X219488D02*
D03*
X196850Y118504D02*
D03*
X219488Y113189D02*
D03*
X221457Y27559D02*
D03*
Y9843D02*
D03*
Y187008D02*
D03*
Y168307D02*
D03*
X270669Y13780D02*
D03*
X260827D02*
D03*
X240158Y18701D02*
D03*
X246801D02*
D03*
X210630Y64961D02*
D03*
X214567Y57087D02*
D03*
X254921Y18701D02*
D03*
X197835Y77756D02*
D03*
X195866Y101378D02*
D03*
X197835Y81693D02*
D03*
X165107Y124204D02*
D03*
X168349Y121063D02*
D03*
X168307Y117126D02*
D03*
X185039Y135827D02*
D03*
X179134Y145669D02*
D03*
X175276Y83583D02*
D03*
X162402Y85630D02*
D03*
X168307Y98425D02*
D03*
X160433Y54134D02*
D03*
X172244Y55118D02*
D03*
X160433Y77756D02*
D03*
X171260Y78740D02*
D03*
X172244Y85033D02*
D03*
X175197Y79766D02*
D03*
X182087Y83661D02*
D03*
X211614Y85630D02*
D03*
X190945Y126969D02*
D03*
X175197Y146653D02*
D03*
X181102Y121063D02*
D03*
X185039Y120079D02*
D03*
Y104331D02*
D03*
X226378Y131890D02*
D03*
X237795Y135433D02*
D03*
X268701Y135827D02*
D03*
Y115157D02*
D03*
X164370Y54134D02*
D03*
X241338Y117323D02*
D03*
X264961Y66535D02*
D03*
Y72441D02*
D03*
X291339Y78740D02*
D03*
X297244Y93504D02*
D03*
X305118Y113189D02*
D03*
X274606Y94488D02*
D03*
X128728Y84909D02*
D03*
X131228D02*
D03*
Y82410D02*
D03*
X128728D02*
D03*
X131130Y73779D02*
D03*
X138189Y79921D02*
D03*
X78740Y27559D02*
D03*
X55118D02*
D03*
X78740Y74803D02*
D03*
X55118D02*
D03*
X273622Y153543D02*
D03*
X304134Y137795D02*
D03*
Y147638D02*
D03*
Y157480D02*
D03*
Y167323D02*
D03*
X274606Y143701D02*
D03*
X80709D02*
D03*
X79724Y96457D02*
D03*
Y49213D02*
D03*
X39370Y153543D02*
D03*
Y161417D02*
D03*
X43307D02*
D03*
X47244D02*
D03*
X43307Y153543D02*
D03*
X47244D02*
D03*
X39370Y157480D02*
D03*
X43307D02*
D03*
X47244D02*
D03*
X27559Y181102D02*
D03*
X31496D02*
D03*
X35433D02*
D03*
X39370D02*
D03*
X27559Y185039D02*
D03*
X31496D02*
D03*
X35433D02*
D03*
X39370D02*
D03*
X100394Y143701D02*
D03*
Y149606D02*
D03*
Y146653D02*
D03*
X115157Y162402D02*
D03*
Y166339D02*
D03*
X103347Y162402D02*
D03*
X107283D02*
D03*
X111221D02*
D03*
Y166339D02*
D03*
X107283D02*
D03*
X103347D02*
D03*
X74803Y147638D02*
D03*
X59055D02*
D03*
X62992D02*
D03*
X66929D02*
D03*
X89370Y101575D02*
D03*
X283465Y108268D02*
D03*
Y103347D02*
D03*
Y98425D02*
D03*
Y88583D02*
D03*
X250000Y82677D02*
D03*
X215551Y111614D02*
D03*
X210630Y108268D02*
D03*
X212598Y115157D02*
D03*
X218504Y117126D02*
D03*
X259842Y107283D02*
D03*
X212598Y89567D02*
D03*
X220472Y81693D02*
D03*
X260827Y92520D02*
D03*
X267717Y77756D02*
D03*
Y83661D02*
D03*
X209646Y55118D02*
D03*
X205708Y55118D02*
D03*
X220866Y120866D02*
D03*
X205512Y93307D02*
D03*
X216535Y85433D02*
D03*
X201772Y55118D02*
D03*
X209646Y91535D02*
D03*
X225590Y73622D02*
D03*
X233858Y75984D02*
D03*
X229921Y79134D02*
D03*
X125591Y54331D02*
D03*
X125590Y50394D02*
D03*
X125591Y46850D02*
D03*
X229528Y73622D02*
D03*
X78740Y78740D02*
D03*
X45866Y100394D02*
D03*
Y94488D02*
D03*
Y91535D02*
D03*
Y97441D02*
D03*
X59055Y96457D02*
D03*
Y92520D02*
D03*
Y143701D02*
D03*
Y139764D02*
D03*
X74803Y143701D02*
D03*
X66929D02*
D03*
X74803Y139764D02*
D03*
X66929D02*
D03*
X70866Y143701D02*
D03*
X62992D02*
D03*
X78740Y122047D02*
D03*
Y118110D02*
D03*
X70866Y139764D02*
D03*
X62992D02*
D03*
X55118Y122047D02*
D03*
Y125984D02*
D03*
Y118110D02*
D03*
X45866Y144685D02*
D03*
Y138779D02*
D03*
Y141732D02*
D03*
X78740Y125984D02*
D03*
X45866Y147638D02*
D03*
X74803Y92520D02*
D03*
X66929D02*
D03*
X74803Y96457D02*
D03*
X66929D02*
D03*
X70866Y92520D02*
D03*
X62992D02*
D03*
X78740Y70866D02*
D03*
X70866Y96457D02*
D03*
X62992D02*
D03*
X55118Y78740D02*
D03*
Y70866D02*
D03*
X92126Y54134D02*
D03*
X78740Y31496D02*
D03*
X92126Y6890D02*
D03*
X45866Y53150D02*
D03*
X78740Y23622D02*
D03*
X55118D02*
D03*
Y31496D02*
D03*
X45866Y44291D02*
D03*
Y47244D02*
D03*
Y50197D02*
D03*
X109252Y34449D02*
D03*
Y41339D02*
D03*
X118110Y34449D02*
D03*
X100394D02*
D03*
X59055Y49213D02*
D03*
X62992D02*
D03*
X66929D02*
D03*
X70866D02*
D03*
X74803D02*
D03*
X261024Y134646D02*
D03*
X249274Y138878D02*
D03*
X265022Y122736D02*
D03*
X243369Y123130D02*
D03*
X250455Y116437D02*
D03*
X255118Y128740D02*
D03*
X249668Y123524D02*
D03*
X237857Y126279D02*
D03*
X267384Y96752D02*
D03*
Y104626D02*
D03*
Y100689D02*
D03*
X74803Y45276D02*
D03*
X70866D02*
D03*
X66929D02*
D03*
X62992D02*
D03*
X59055D02*
D03*
X128374Y73779D02*
D03*
X125224Y85197D02*
D03*
X122468D02*
D03*
Y82441D02*
D03*
X135039Y79921D02*
D03*
X124228Y118520D02*
D03*
X120728Y115520D02*
D03*
Y118520D02*
D03*
X124228Y115520D02*
D03*
X134228Y90004D02*
D03*
Y97004D02*
D03*
Y110504D02*
D03*
Y107004D02*
D03*
X131228Y76410D02*
D03*
Y79409D02*
D03*
X125224Y82441D02*
D03*
X134228Y93504D02*
D03*
Y103504D02*
D03*
D166*
X239173Y60039D02*
D03*
X232283Y95669D02*
D03*
X237402Y100787D02*
D03*
X235039Y90551D02*
D03*
X195866Y135827D02*
D03*
X231299Y31496D02*
D03*
X260827Y30512D02*
D03*
Y168307D02*
D03*
X230315Y189961D02*
D03*
X260827D02*
D03*
X280512D02*
D03*
X252953Y147638D02*
D03*
X277559Y119095D02*
D03*
Y79724D02*
D03*
X268701Y46260D02*
D03*
X259842Y63976D02*
D03*
X236221Y65945D02*
D03*
X254921Y54134D02*
D03*
X251969Y63976D02*
D03*
X267717Y61024D02*
D03*
X274606Y54134D02*
D03*
X283465D02*
D03*
X276575Y43307D02*
D03*
X283465D02*
D03*
X261811Y52165D02*
D03*
X232283Y56102D02*
D03*
X192913Y66929D02*
D03*
X106299D02*
D03*
X173228Y181102D02*
D03*
X157480D02*
D03*
X141732D02*
D03*
X102362Y192913D02*
D03*
X55118Y153543D02*
D03*
X23622Y192913D02*
D03*
Y19685D02*
D03*
X27559Y3937D02*
D03*
X43307D02*
D03*
X59055D02*
D03*
X90551Y27559D02*
D03*
X98425Y3937D02*
D03*
X141732Y15748D02*
D03*
X157480D02*
D03*
X173228D02*
D03*
X216535Y3937D02*
D03*
X251969D02*
D03*
X271654D02*
D03*
X291339Y19685D02*
D03*
X307087Y27559D02*
D03*
X311024Y82677D02*
D03*
Y125984D02*
D03*
Y141732D02*
D03*
Y157480D02*
D03*
Y173228D02*
D03*
X205709Y39370D02*
D03*
Y35433D02*
D03*
X192913Y175197D02*
D03*
Y170276D02*
D03*
X122047D02*
D03*
X126969D02*
D03*
X187992D02*
D03*
X131890D02*
D03*
X126969Y175197D02*
D03*
X122047D02*
D03*
X131890D02*
D03*
Y180118D02*
D03*
X187992Y175197D02*
D03*
X183071Y170276D02*
D03*
Y175197D02*
D03*
Y180118D02*
D03*
X187992D02*
D03*
X121063Y160433D02*
D03*
X124016Y152559D02*
D03*
X126969Y180118D02*
D03*
X143701Y149606D02*
D03*
X146653D02*
D03*
X137795Y57087D02*
D03*
X141732D02*
D03*
Y61024D02*
D03*
X145669D02*
D03*
X149606Y64961D02*
D03*
X145669D02*
D03*
X183071Y27559D02*
D03*
Y21654D02*
D03*
Y15748D02*
D03*
X190945D02*
D03*
Y21654D02*
D03*
Y27559D02*
D03*
X124016Y21654D02*
D03*
Y27559D02*
D03*
Y15748D02*
D03*
X131890D02*
D03*
Y21654D02*
D03*
Y27559D02*
D03*
X190945Y159449D02*
D03*
X206693Y152559D02*
D03*
X190945Y135827D02*
D03*
X194882Y131890D02*
D03*
X191929D02*
D03*
X292323Y42323D02*
D03*
Y54134D02*
D03*
X295276Y34449D02*
D03*
Y38386D02*
D03*
Y60039D02*
D03*
Y63976D02*
D03*
X297244Y118110D02*
D03*
X244094Y107480D02*
D03*
X225984Y107087D02*
D03*
Y89370D02*
D03*
X244094Y89764D02*
D03*
X116142Y66929D02*
D03*
X112205D02*
D03*
X94488Y76772D02*
D03*
X100394D02*
D03*
X106299D02*
D03*
X94488Y82677D02*
D03*
Y88583D02*
D03*
X100394Y82677D02*
D03*
X106299D02*
D03*
X100394Y88583D02*
D03*
X106299D02*
D03*
X90551Y127953D02*
D03*
Y124016D02*
D03*
Y120079D02*
D03*
X94488D02*
D03*
Y124016D02*
D03*
Y127953D02*
D03*
X98425D02*
D03*
Y131890D02*
D03*
Y135827D02*
D03*
X88583Y157480D02*
D03*
Y161417D02*
D03*
X82677Y192913D02*
D03*
X59055D02*
D03*
X70866D02*
D03*
X53150Y167323D02*
D03*
X49213Y171260D02*
D03*
X3937Y153543D02*
D03*
Y137795D02*
D03*
Y106299D02*
D03*
Y90551D02*
D03*
Y43307D02*
D03*
Y59055D02*
D03*
Y51181D02*
D03*
Y98425D02*
D03*
Y145669D02*
D03*
Y27559D02*
D03*
X11811D02*
D03*
X19685D02*
D03*
X3937Y74803D02*
D03*
X11811D02*
D03*
X19685D02*
D03*
X3937Y122047D02*
D03*
X11811D02*
D03*
X19685D02*
D03*
X3937Y169291D02*
D03*
X11811D02*
D03*
X19685D02*
D03*
X70866Y147638D02*
D03*
X33465Y144685D02*
D03*
Y147638D02*
D03*
X36417D02*
D03*
Y144685D02*
D03*
X33465Y97441D02*
D03*
Y100394D02*
D03*
X36417D02*
D03*
Y97441D02*
D03*
X33465Y50197D02*
D03*
Y53150D02*
D03*
X36417D02*
D03*
Y50197D02*
D03*
M02*
