M48
;Layer_Color=9474304
;FILE_FORMAT=2:5
INCH,TZ
;TYPE=PLATED
T1F00S00C0.01181
T2F00S00C0.01968
T4F00S00C0.03937
T5F00S00C0.12205
;TYPE=NON_PLATED
T6F00S00C0.09843
%
T01
X27559Y3937
X43307
X55118Y23622
Y27559
Y31496
X45866Y44291
X3937Y43307
Y27559
X11811
X19685
X23622Y19685
X59055Y3937
X92126Y6890
X98425Y3937
X90551Y27559
X78740
Y31496
Y23622
X74803Y45276
X70866
X66929
X62992
X59055
X100394Y34449
X109252
Y41339
X118110Y34449
X124016Y27559
Y21654
Y15748
X131890
Y21654
Y27559
X141732Y15748
X157480
X173228
X183071
Y21654
Y27559
X190945
Y21654
Y15748
X205709Y35433
Y39370
X209646Y35433
Y31496
X221457Y27559
X231299Y31496
X240158Y18701
X246801
X254921
X260827Y13780
X270669
X271654Y3937
X251969
X260827Y30512
X268701Y46260
X276575Y43307
X283465
X292323Y42323
X295276Y38386
Y34449
X307087Y27559
X291339Y19685
X221457Y9843
X216535Y3937
X214567Y57087
X232283Y56102
X239173Y60039
X236221Y65945
X233858Y75984
X229528Y73622
X225590
X229921Y79134
X220472Y81693
X216535Y85433
X212598Y89567
X225984Y89370
X235039Y90551
X232283Y95669
X237402Y100787
X235039Y106299
X225984Y107087
X219488Y113189
X218504Y117126
X220866Y120866
X212598Y115157
X215551Y111614
X213583Y136811
X219488
X222441Y140748
X216535
X228346Y143701
X235236Y148622
X237795Y135433
X237857Y126279
X243369Y123130
X249668Y123524
X250455Y116437
X241338Y117323
X244094Y107480
X259842Y107283
X267384Y104626
Y100689
Y96752
X274606Y94488
X283465Y98425
Y103347
Y108268
X277559Y119095
X268701Y115157
X265022Y122736
X261024Y134646
X268701Y135827
X274606Y143701
X273622Y153543
X252953Y147638
X249274Y138878
X244094Y140748
X255118Y128740
X226378Y131890
X213583Y155512
X221457Y168307
Y187008
X230315Y189961
X233268Y179134
X241142
X250000Y183071
X260827Y189961
X280512
X260827Y168307
X304134Y167323
Y157480
X311024
Y141732
X304134Y137795
Y147638
X311024Y125984
X305118Y113189
X297244Y118110
Y93504
X283465Y88583
X277559Y79724
X267717Y77756
Y83661
X264961Y72441
Y66535
X259842Y63976
X251969
X250000Y67913
X251636Y73130
X245731
X250000Y82677
X244094Y89764
X260827Y92520
X267717Y61024
X274606Y54134
X283465
X292323
X295276Y60039
Y63976
X291339Y78740
X311024Y82677
X261811Y52165
X254921Y54134
X311024Y173228
X203740Y165354
X199803
X192913Y170276
Y175197
X187992
Y170276
X183071
Y175197
Y180118
X187992
X173228Y181102
X157480
X141732
X131890Y180118
Y175197
Y170276
X126969
X122047
Y175197
X126969
Y180118
X121063Y160433
X115157Y162402
Y166339
X111221
Y162402
X107283
X103347
Y166339
X107283
X88583Y161417
Y157480
X100394Y149606
Y146653
Y143701
X98425Y135827
Y131890
Y127953
X94488
X90551
Y124016
Y120079
X94488
Y124016
X78740Y122047
Y125984
Y118110
X79724Y96457
X74803Y96457
Y92520
X70866
X66929
Y96457
X70866
X62992
X59055
Y92520
X62992
X78740Y78740
Y74803
Y70866
X94488Y76772
X100394
X106299
Y82677
X100394
X94488
Y88583
X100394
X106299
X122468Y85197
X125224
Y82441
X122468
X128728Y82410
Y84909
X131228
Y82410
Y79409
Y76410
X131130Y73779
X128374
X135039Y79921
X138189
X151575Y79724
X160433Y77756
X161417Y71850
X162402Y85630
X172244Y85033
X175276Y83583
X175197Y79766
X171260Y78740
X182087Y83661
X184055Y71850
Y60039
X192913Y66929
X197835Y77756
Y81693
X211614Y85630
X209646Y91535
X205512Y93307
X207480Y98032
Y102756
X210630Y108268
X195866Y101378
X185039Y104331
Y120079
X181102Y121063
X168349
X168307Y117126
X165107Y124204
X160433Y124016
Y140748
X154528Y144685
X156496Y148622
X146653Y149606
X143701
X147638Y139764
X151575
X167323Y145669
X175197Y146653
X179134Y145669
X185827Y151870
X190945Y159449
X206693Y152559
Y140748
X210630
X207677Y136811
X201772Y133858
X195866Y135827
X190945
X191929Y131890
X194882
X190945Y126969
X185039Y131890
Y135827
X196850Y118504
X168307Y98425
X134228Y97004
Y93504
Y90004
Y103504
Y107004
Y110504
X124228Y115520
Y118520
X120728
Y115520
X117126Y151575
X124016Y152559
X80709Y143701
X74803
Y139764
X70866
X66929
Y143701
X70866
X70866Y147638
X74803
X66929
X62992
X59055
X59055Y143701
X62992
Y139764
X59055
X59055Y192913
X70866
X82677
X102362
X89370Y101575
X92126Y54134
X79724Y49213
X74803
X70866
X66929
X62992
X59055
X106299Y66929
X112205
X116142
X125591Y54331
X125590Y50394
X125591Y46850
X137795Y57087
X141732
Y61024
X145669
Y64961
X149606
X160433Y54134
X164370
X172244Y55118
X201772
X205708Y55118
X209646Y55118
X210630Y64961
X55118Y70866
Y74803
Y78740
X45866Y91535
Y94488
Y97441
Y100394
X36417
X33465
Y97441
X36417
X3937Y98425
Y106299
Y90551
Y74803
X11811
X19685
X3937Y59055
Y51181
X33465Y50197
X36417
Y53150
X33465
X45866
Y50197
Y47244
X55118Y118110
Y122047
Y125984
X45866Y138779
Y141732
Y144685
Y147638
X47244Y153543
X43307
Y157480
X47244
Y161417
X43307
X39370
Y157480
Y153543
X36417Y147638
X33465
Y144685
X36417
X55118Y153543
X53150Y167323
X49213Y171260
X39370Y181102
X35433
X31496
X27559
Y185039
X31496
X35433
X39370
X23622Y192913
X19685Y169291
X11811
X3937
Y153543
Y145669
Y137795
Y122047
X11811
X19685
T02
X84252Y34449
X298228Y137795
Y147638
Y157480
Y167323
X84252Y128937
Y81693
T04
X20866Y40748
X132283Y31890
X182677
Y164961
X132283
X86221Y175591
X55512
X20866Y156102
Y135236
Y108858
Y87992
Y61614
T05
X110236Y15748
X204724
Y181102
X110236
T06
X11811Y11811
X303150
Y185039
X11811
M30
