G04*
G04 #@! TF.GenerationSoftware,Altium Limited,Altium Designer,18.0.7 (293)*
G04*
G04 Layer_Color=16711935*
%FSLAX25Y25*%
%MOIN*%
G70*
G01*
G75*
%ADD173C,0.00197*%
D173*
X11811Y196850D02*
G03*
X0Y185039I0J-11811D01*
G01*
X121646Y193315D02*
G03*
X113110Y196850I-8535J-8535D01*
G01*
X124417Y190543D02*
G03*
X132953Y187008I8535J8535D01*
G01*
X182008D02*
G03*
X190543Y190543I0J12071D01*
G01*
X201850Y196850D02*
G03*
X193315Y193315I0J-12071D01*
G01*
X314961Y185039D02*
G03*
X303150Y196850I-11811J0D01*
G01*
Y0D02*
G03*
X314961Y11811I0J11811D01*
G01*
X193315Y3536D02*
G03*
X201850Y0I8535J8535D01*
G01*
X190543Y6307D02*
G03*
X182008Y9843I-8535J-8535D01*
G01*
X132953D02*
G03*
X124417Y6307I0J-12071D01*
G01*
X113110Y0D02*
G03*
X121646Y3536I0J12071D01*
G01*
X0Y11811D02*
G03*
X11811Y0I11811J0D01*
G01*
X0Y19685D02*
Y177165D01*
Y185039D01*
X11811Y196850D02*
X110236D01*
X113110D01*
X121646Y193315D02*
X124016Y190945D01*
X124417Y190543D01*
X132953Y187008D02*
X177165D01*
X182008D01*
X190543Y190543D02*
X192913Y192913D01*
X193315Y193315D01*
X201850Y196850D02*
X285433D01*
X303150D01*
X314961Y19685D02*
Y185039D01*
Y11811D02*
Y19685D01*
X216535Y0D02*
X303150D01*
X201850D02*
X216535D01*
X190945Y5906D02*
X193315Y3536D01*
X190543Y6307D02*
X190945Y5906D01*
X139764Y9843D02*
X182008D01*
X132953D02*
X139764D01*
X122047Y3937D02*
X124417Y6307D01*
X121646Y3536D02*
X122047Y3937D01*
X108268Y0D02*
X113110D01*
X11811D02*
X108268D01*
X0Y11811D02*
Y19685D01*
M02*
