G04*
G04 #@! TF.GenerationSoftware,Altium Limited,Altium Designer,18.0.7 (293)*
G04*
G04 Layer_Color=12040119*
%FSLAX25Y25*%
%MOIN*%
G70*
G01*
G75*
%ADD10C,0.00591*%
%ADD11C,0.00787*%
%ADD12R,0.01575X0.11811*%
%ADD13R,0.09843X0.01575*%
G36*
X97638Y101575D02*
X107087D01*
Y103543D01*
X97638D01*
Y101575D01*
D02*
G37*
G36*
X201969Y151181D02*
X189764D01*
Y148031D01*
X201969D01*
Y151181D01*
D02*
G37*
G36*
X222562Y152133D02*
X222610D01*
X222665Y152126D01*
X222733Y152119D01*
X222801Y152105D01*
X222959Y152078D01*
X223123Y152030D01*
X223293Y151969D01*
X223464Y151887D01*
X223471D01*
X223484Y151873D01*
X223505Y151860D01*
X223539Y151839D01*
X223614Y151785D01*
X223710Y151709D01*
X223819Y151614D01*
X223928Y151491D01*
X224038Y151354D01*
X224133Y151197D01*
Y151190D01*
X224147Y151177D01*
X224154Y151156D01*
X224174Y151122D01*
X224188Y151081D01*
X224208Y151026D01*
X224229Y150972D01*
X224256Y150910D01*
X224297Y150760D01*
X224338Y150596D01*
X224365Y150412D01*
X224372Y150214D01*
X223566D01*
Y150220D01*
Y150241D01*
Y150268D01*
X223560Y150309D01*
Y150364D01*
X223553Y150418D01*
X223532Y150548D01*
X223498Y150698D01*
X223444Y150849D01*
X223375Y150999D01*
X223280Y151129D01*
Y151136D01*
X223266Y151143D01*
X223225Y151183D01*
X223164Y151231D01*
X223075Y151293D01*
X222959Y151354D01*
X222822Y151409D01*
X222658Y151443D01*
X222562Y151450D01*
X222467Y151457D01*
X222419D01*
X222385Y151450D01*
X222344D01*
X222303Y151443D01*
X222194Y151423D01*
X222071Y151388D01*
X221948Y151340D01*
X221825Y151272D01*
X221715Y151183D01*
X221702Y151170D01*
X221674Y151136D01*
X221634Y151074D01*
X221586Y150985D01*
X221531Y150876D01*
X221490Y150746D01*
X221463Y150596D01*
X221449Y150418D01*
Y150412D01*
Y150398D01*
Y150378D01*
X221456Y150350D01*
X221463Y150275D01*
X221483Y150186D01*
X221517Y150077D01*
X221572Y149961D01*
X221640Y149852D01*
X221736Y149742D01*
X221750Y149729D01*
X221763Y149715D01*
X221791Y149695D01*
X221818Y149674D01*
X221859Y149647D01*
X221900Y149613D01*
X221955Y149585D01*
X222016Y149544D01*
X222077Y149510D01*
X222153Y149469D01*
X222235Y149428D01*
X222317Y149380D01*
X222412Y149339D01*
X222515Y149298D01*
X222624Y149257D01*
X222638D01*
X222665Y149244D01*
X222713Y149223D01*
X222781Y149203D01*
X222856Y149175D01*
X222945Y149134D01*
X223041Y149093D01*
X223143Y149046D01*
X223368Y148936D01*
X223587Y148807D01*
X223696Y148732D01*
X223799Y148656D01*
X223887Y148574D01*
X223969Y148492D01*
X223976Y148486D01*
X223990Y148472D01*
X224004Y148445D01*
X224031Y148410D01*
X224065Y148363D01*
X224099Y148308D01*
X224133Y148247D01*
X224174Y148171D01*
X224208Y148090D01*
X224243Y148001D01*
X224277Y147905D01*
X224311Y147796D01*
X224338Y147687D01*
X224352Y147564D01*
X224365Y147441D01*
X224372Y147304D01*
Y147297D01*
Y147270D01*
Y147229D01*
X224365Y147174D01*
X224359Y147113D01*
X224345Y147038D01*
X224331Y146949D01*
X224311Y146860D01*
X224284Y146764D01*
X224249Y146662D01*
X224208Y146560D01*
X224161Y146457D01*
X224099Y146355D01*
X224031Y146252D01*
X223956Y146157D01*
X223867Y146068D01*
X223860Y146061D01*
X223847Y146047D01*
X223812Y146027D01*
X223778Y145993D01*
X223724Y145958D01*
X223662Y145924D01*
X223594Y145877D01*
X223512Y145836D01*
X223416Y145795D01*
X223314Y145754D01*
X223204Y145713D01*
X223081Y145678D01*
X222952Y145644D01*
X222808Y145624D01*
X222658Y145610D01*
X222501Y145603D01*
X222446D01*
X222405Y145610D01*
X222358D01*
X222303Y145617D01*
X222235Y145624D01*
X222166Y145631D01*
X222009Y145665D01*
X221838Y145706D01*
X221654Y145760D01*
X221477Y145842D01*
X221470D01*
X221456Y145856D01*
X221429Y145870D01*
X221401Y145890D01*
X221360Y145911D01*
X221312Y145938D01*
X221210Y146020D01*
X221094Y146116D01*
X220971Y146232D01*
X220848Y146361D01*
X220739Y146519D01*
Y146525D01*
X220725Y146539D01*
X220711Y146566D01*
X220698Y146594D01*
X220677Y146642D01*
X220657Y146689D01*
X220630Y146744D01*
X220609Y146812D01*
X220554Y146962D01*
X220513Y147133D01*
X220486Y147325D01*
X220472Y147529D01*
X221278D01*
Y147523D01*
Y147502D01*
Y147475D01*
X221285Y147434D01*
Y147379D01*
X221299Y147325D01*
X221319Y147195D01*
X221360Y147045D01*
X221415Y146887D01*
X221497Y146744D01*
X221552Y146669D01*
X221606Y146607D01*
X221613D01*
X221620Y146594D01*
X221640Y146580D01*
X221668Y146560D01*
X221702Y146532D01*
X221743Y146505D01*
X221791Y146478D01*
X221838Y146450D01*
X221968Y146389D01*
X222125Y146334D01*
X222303Y146300D01*
X222398Y146293D01*
X222501Y146286D01*
X222549D01*
X222590Y146293D01*
X222631D01*
X222685Y146300D01*
X222801Y146320D01*
X222931Y146355D01*
X223061Y146396D01*
X223191Y146464D01*
X223300Y146553D01*
X223314Y146566D01*
X223341Y146600D01*
X223382Y146662D01*
X223437Y146751D01*
X223484Y146853D01*
X223526Y146976D01*
X223553Y147126D01*
X223566Y147290D01*
Y147297D01*
Y147311D01*
Y147338D01*
X223560Y147372D01*
Y147406D01*
X223553Y147454D01*
X223532Y147564D01*
X223505Y147680D01*
X223457Y147803D01*
X223396Y147919D01*
X223307Y148021D01*
X223293Y148035D01*
X223280Y148048D01*
X223259Y148069D01*
X223225Y148090D01*
X223191Y148117D01*
X223143Y148144D01*
X223095Y148178D01*
X223034Y148219D01*
X222965Y148260D01*
X222890Y148301D01*
X222801Y148342D01*
X222706Y148383D01*
X222603Y148431D01*
X222494Y148472D01*
X222371Y148520D01*
X222364D01*
X222344Y148533D01*
X222310Y148547D01*
X222262Y148561D01*
X222207Y148581D01*
X222139Y148609D01*
X222071Y148636D01*
X221995Y148670D01*
X221825Y148745D01*
X221654Y148834D01*
X221490Y148923D01*
X221415Y148970D01*
X221347Y149018D01*
X221340D01*
X221333Y149032D01*
X221292Y149066D01*
X221224Y149121D01*
X221149Y149196D01*
X221060Y149285D01*
X220971Y149387D01*
X220889Y149503D01*
X220814Y149626D01*
Y149633D01*
X220807Y149640D01*
X220800Y149660D01*
X220787Y149688D01*
X220759Y149756D01*
X220725Y149852D01*
X220691Y149968D01*
X220664Y150098D01*
X220643Y150248D01*
X220636Y150405D01*
Y150412D01*
Y150439D01*
X220643Y150480D01*
Y150528D01*
X220650Y150596D01*
X220664Y150671D01*
X220677Y150753D01*
X220698Y150842D01*
X220725Y150938D01*
X220759Y151040D01*
X220800Y151143D01*
X220848Y151245D01*
X220910Y151347D01*
X220978Y151457D01*
X221053Y151552D01*
X221142Y151648D01*
X221149Y151655D01*
X221162Y151668D01*
X221196Y151696D01*
X221231Y151723D01*
X221285Y151764D01*
X221347Y151805D01*
X221415Y151846D01*
X221497Y151894D01*
X221586Y151942D01*
X221688Y151983D01*
X221797Y152023D01*
X221914Y152065D01*
X222043Y152092D01*
X222173Y152119D01*
X222317Y152133D01*
X222467Y152140D01*
X222521D01*
X222562Y152133D01*
D02*
G37*
G36*
X233873Y147529D02*
Y147523D01*
Y147488D01*
X233866Y147441D01*
Y147379D01*
X233852Y147304D01*
X233846Y147215D01*
X233825Y147120D01*
X233805Y147010D01*
X233777Y146901D01*
X233743Y146785D01*
X233702Y146669D01*
X233647Y146546D01*
X233586Y146430D01*
X233518Y146320D01*
X233436Y146211D01*
X233347Y146109D01*
X233340Y146102D01*
X233327Y146088D01*
X233292Y146061D01*
X233251Y146027D01*
X233204Y145993D01*
X233135Y145952D01*
X233060Y145904D01*
X232978Y145856D01*
X232882Y145808D01*
X232773Y145760D01*
X232657Y145720D01*
X232527Y145685D01*
X232391Y145651D01*
X232241Y145624D01*
X232083Y145610D01*
X231913Y145603D01*
X231872D01*
X231824Y145610D01*
X231756D01*
X231680Y145617D01*
X231592Y145631D01*
X231489Y145644D01*
X231380Y145665D01*
X231264Y145692D01*
X231148Y145726D01*
X231025Y145767D01*
X230909Y145815D01*
X230793Y145870D01*
X230677Y145938D01*
X230567Y146013D01*
X230472Y146102D01*
X230465Y146109D01*
X230451Y146122D01*
X230424Y146157D01*
X230396Y146198D01*
X230356Y146245D01*
X230314Y146307D01*
X230267Y146382D01*
X230219Y146471D01*
X230178Y146566D01*
X230130Y146669D01*
X230089Y146785D01*
X230048Y146915D01*
X230014Y147051D01*
X229987Y147202D01*
X229973Y147359D01*
X229966Y147529D01*
Y152051D01*
X230758D01*
Y147557D01*
Y147550D01*
Y147529D01*
Y147495D01*
X230765Y147454D01*
Y147400D01*
X230772Y147338D01*
X230793Y147195D01*
X230827Y147045D01*
X230874Y146880D01*
X230943Y146730D01*
X230984Y146662D01*
X231032Y146600D01*
X231038D01*
X231045Y146587D01*
X231086Y146553D01*
X231114Y146525D01*
X231148Y146498D01*
X231195Y146471D01*
X231243Y146443D01*
X231305Y146416D01*
X231366Y146389D01*
X231441Y146361D01*
X231517Y146334D01*
X231605Y146314D01*
X231701Y146300D01*
X231803Y146293D01*
X231913Y146286D01*
X231974D01*
X232015Y146293D01*
X232063D01*
X232124Y146300D01*
X232254Y146327D01*
X232398Y146361D01*
X232548Y146416D01*
X232684Y146498D01*
X232746Y146546D01*
X232801Y146600D01*
Y146607D01*
X232814Y146614D01*
X232828Y146635D01*
X232842Y146662D01*
X232862Y146696D01*
X232889Y146737D01*
X232910Y146785D01*
X232937Y146840D01*
X232964Y146901D01*
X232985Y146969D01*
X233012Y147051D01*
X233033Y147140D01*
X233047Y147229D01*
X233060Y147331D01*
X233074Y147441D01*
Y147557D01*
Y152051D01*
X233873D01*
Y147529D01*
D02*
G37*
G36*
X241051Y145692D02*
X240252D01*
Y152051D01*
X241051D01*
Y145692D01*
D02*
G37*
G36*
X236735Y152044D02*
X236810Y152037D01*
X236905Y152030D01*
X237008Y152017D01*
X237131Y151989D01*
X237261Y151962D01*
X237397Y151928D01*
X237534Y151880D01*
X237677Y151825D01*
X237827Y151757D01*
X237964Y151675D01*
X238101Y151586D01*
X238230Y151477D01*
X238353Y151354D01*
X238360Y151347D01*
X238381Y151320D01*
X238408Y151279D01*
X238449Y151224D01*
X238497Y151156D01*
X238551Y151067D01*
X238606Y150965D01*
X238661Y150849D01*
X238715Y150719D01*
X238777Y150569D01*
X238825Y150412D01*
X238873Y150234D01*
X238913Y150043D01*
X238941Y149838D01*
X238961Y149626D01*
X238968Y149394D01*
Y148328D01*
Y148322D01*
Y148315D01*
Y148274D01*
X238961Y148206D01*
Y148124D01*
X238948Y148014D01*
X238934Y147891D01*
X238913Y147755D01*
X238893Y147611D01*
X238859Y147454D01*
X238818Y147297D01*
X238763Y147133D01*
X238708Y146969D01*
X238633Y146812D01*
X238551Y146655D01*
X238456Y146512D01*
X238347Y146375D01*
X238340Y146368D01*
X238319Y146348D01*
X238278Y146314D01*
X238230Y146266D01*
X238169Y146218D01*
X238087Y146157D01*
X237991Y146095D01*
X237889Y146034D01*
X237766Y145972D01*
X237629Y145911D01*
X237486Y145849D01*
X237322Y145801D01*
X237144Y145754D01*
X236953Y145720D01*
X236755Y145699D01*
X236537Y145692D01*
X235109D01*
Y152051D01*
X236673D01*
X236735Y152044D01*
D02*
G37*
G36*
X229140Y151368D02*
X227466D01*
Y145692D01*
X226667D01*
Y151368D01*
X225001D01*
Y152051D01*
X229140D01*
Y151368D01*
D02*
G37*
G36*
X244548Y152133D02*
X244617Y152126D01*
X244705Y152119D01*
X244801Y152105D01*
X244910Y152078D01*
X245026Y152051D01*
X245149Y152017D01*
X245279Y151969D01*
X245409Y151914D01*
X245538Y151846D01*
X245661Y151764D01*
X245791Y151675D01*
X245907Y151566D01*
X246017Y151443D01*
X246024Y151436D01*
X246044Y151409D01*
X246071Y151368D01*
X246105Y151313D01*
X246146Y151245D01*
X246194Y151156D01*
X246249Y151054D01*
X246304Y150938D01*
X246358Y150808D01*
X246406Y150657D01*
X246454Y150494D01*
X246502Y150323D01*
X246536Y150132D01*
X246570Y149920D01*
X246590Y149701D01*
X246597Y149469D01*
Y148308D01*
Y148301D01*
Y148294D01*
Y148274D01*
Y148253D01*
X246590Y148185D01*
Y148096D01*
X246584Y147987D01*
X246570Y147857D01*
X246549Y147721D01*
X246529Y147570D01*
X246495Y147406D01*
X246461Y147242D01*
X246413Y147079D01*
X246358Y146908D01*
X246297Y146744D01*
X246221Y146587D01*
X246133Y146437D01*
X246037Y146300D01*
X246030Y146293D01*
X246010Y146273D01*
X245983Y146239D01*
X245935Y146191D01*
X245880Y146136D01*
X245812Y146081D01*
X245730Y146020D01*
X245634Y145952D01*
X245525Y145890D01*
X245409Y145822D01*
X245279Y145767D01*
X245142Y145713D01*
X244992Y145665D01*
X244828Y145631D01*
X244651Y145610D01*
X244466Y145603D01*
X244425D01*
X244371Y145610D01*
X244302Y145617D01*
X244220Y145624D01*
X244125Y145638D01*
X244016Y145658D01*
X243906Y145692D01*
X243783Y145726D01*
X243653Y145767D01*
X243524Y145829D01*
X243394Y145890D01*
X243264Y145972D01*
X243141Y146061D01*
X243018Y146163D01*
X242909Y146286D01*
X242902Y146293D01*
X242882Y146320D01*
X242854Y146355D01*
X242820Y146416D01*
X242779Y146484D01*
X242731Y146566D01*
X242677Y146669D01*
X242622Y146785D01*
X242567Y146915D01*
X242520Y147058D01*
X242465Y147215D01*
X242424Y147393D01*
X242383Y147577D01*
X242356Y147775D01*
X242328Y147994D01*
X242322Y148219D01*
Y149415D01*
Y149421D01*
Y149428D01*
Y149469D01*
X242328Y149537D01*
Y149626D01*
X242342Y149735D01*
X242349Y149858D01*
X242369Y149995D01*
X242390Y150145D01*
X242424Y150302D01*
X242458Y150466D01*
X242506Y150630D01*
X242561Y150801D01*
X242622Y150965D01*
X242697Y151122D01*
X242786Y151272D01*
X242882Y151416D01*
X242888Y151423D01*
X242909Y151450D01*
X242943Y151484D01*
X242984Y151532D01*
X243046Y151586D01*
X243114Y151648D01*
X243196Y151709D01*
X243291Y151778D01*
X243394Y151846D01*
X243517Y151907D01*
X243647Y151969D01*
X243783Y152023D01*
X243934Y152071D01*
X244097Y152105D01*
X244268Y152133D01*
X244453Y152140D01*
X244500D01*
X244548Y152133D01*
D02*
G37*
G36*
X247690Y144325D02*
X247738D01*
X247792Y144318D01*
X247861Y144311D01*
X247929Y144297D01*
X248086Y144270D01*
X248250Y144222D01*
X248421Y144161D01*
X248592Y144079D01*
X248598D01*
X248612Y144065D01*
X248633Y144052D01*
X248667Y144031D01*
X248742Y143976D01*
X248837Y143901D01*
X248947Y143806D01*
X249056Y143683D01*
X249165Y143546D01*
X249261Y143389D01*
Y143382D01*
X249274Y143369D01*
X249281Y143348D01*
X249302Y143314D01*
X249316Y143273D01*
X249336Y143218D01*
X249357Y143164D01*
X249384Y143102D01*
X249425Y142952D01*
X249466Y142788D01*
X249493Y142604D01*
X249500Y142405D01*
X248694Y142405D01*
Y142412D01*
Y142433D01*
Y142460D01*
X248687Y142501D01*
Y142556D01*
X248680Y142610D01*
X248660Y142740D01*
X248626Y142891D01*
X248571Y143041D01*
X248503Y143191D01*
X248407Y143321D01*
Y143328D01*
X248394Y143334D01*
X248353Y143375D01*
X248291Y143423D01*
X248202Y143485D01*
X248086Y143546D01*
X247950Y143601D01*
X247786Y143635D01*
X247690Y143642D01*
X247594Y143649D01*
X247547D01*
X247512Y143642D01*
X247471D01*
X247430Y143635D01*
X247321Y143614D01*
X247198Y143580D01*
X247075Y143533D01*
X246952Y143464D01*
X246843Y143375D01*
X246829Y143362D01*
X246802Y143328D01*
X246761Y143266D01*
X246713Y143177D01*
X246659Y143068D01*
X246618Y142938D01*
X246590Y142788D01*
X246577Y142610D01*
Y142604D01*
Y142590D01*
Y142569D01*
X246584Y142542D01*
X246590Y142467D01*
X246611Y142378D01*
X246645Y142269D01*
X246700Y142153D01*
X246768Y142043D01*
X246864Y141934D01*
X246877Y141921D01*
X246891Y141907D01*
X246918Y141886D01*
X246946Y141866D01*
X246987Y141839D01*
X247027Y141805D01*
X247082Y141777D01*
X247144Y141736D01*
X247205Y141702D01*
X247280Y141661D01*
X247362Y141620D01*
X247444Y141572D01*
X247540Y141531D01*
X247642Y141490D01*
X247751Y141449D01*
X247765D01*
X247792Y141436D01*
X247840Y141415D01*
X247909Y141395D01*
X247984Y141367D01*
X248073Y141326D01*
X248168Y141285D01*
X248271Y141238D01*
X248496Y141128D01*
X248714Y140999D01*
X248824Y140923D01*
X248926Y140848D01*
X249015Y140766D01*
X249097Y140684D01*
X249104Y140677D01*
X249117Y140664D01*
X249131Y140637D01*
X249158Y140602D01*
X249193Y140555D01*
X249227Y140500D01*
X249261Y140438D01*
X249302Y140363D01*
X249336Y140281D01*
X249370Y140193D01*
X249404Y140097D01*
X249439Y139988D01*
X249466Y139878D01*
X249479Y139755D01*
X249493Y139633D01*
X249500Y139496D01*
Y139489D01*
Y139462D01*
Y139421D01*
X249493Y139366D01*
X249486Y139305D01*
X249473Y139230D01*
X249459Y139141D01*
X249439Y139052D01*
X249411Y138956D01*
X249377Y138854D01*
X249336Y138751D01*
X249288Y138649D01*
X249227Y138547D01*
X249158Y138444D01*
X249083Y138348D01*
X248994Y138260D01*
X248988Y138253D01*
X248974Y138239D01*
X248940Y138219D01*
X248906Y138185D01*
X248851Y138150D01*
X248790Y138116D01*
X248721Y138068D01*
X248639Y138028D01*
X248544Y137987D01*
X248441Y137945D01*
X248332Y137905D01*
X248209Y137870D01*
X248079Y137836D01*
X247936Y137816D01*
X247786Y137802D01*
X247628Y137795D01*
X247574D01*
X247533Y137802D01*
X247485D01*
X247430Y137809D01*
X247362Y137816D01*
X247294Y137823D01*
X247137Y137857D01*
X246966Y137898D01*
X246782Y137952D01*
X246604Y138034D01*
X246597D01*
X246584Y138048D01*
X246556Y138062D01*
X246529Y138082D01*
X246488Y138103D01*
X246440Y138130D01*
X246338Y138212D01*
X246221Y138307D01*
X246099Y138424D01*
X245976Y138553D01*
X245866Y138710D01*
Y138717D01*
X245853Y138731D01*
X245839Y138758D01*
X245825Y138786D01*
X245805Y138833D01*
X245784Y138881D01*
X245757Y138936D01*
X245737Y139004D01*
X245682Y139154D01*
X245641Y139325D01*
X245614Y139516D01*
X245600Y139721D01*
X246406D01*
Y139715D01*
Y139694D01*
Y139667D01*
X246413Y139626D01*
Y139571D01*
X246426Y139516D01*
X246447Y139387D01*
X246488Y139236D01*
X246543Y139079D01*
X246624Y138936D01*
X246679Y138861D01*
X246734Y138799D01*
X246741D01*
X246747Y138786D01*
X246768Y138772D01*
X246795Y138751D01*
X246829Y138724D01*
X246870Y138697D01*
X246918Y138670D01*
X246966Y138642D01*
X247096Y138581D01*
X247253Y138526D01*
X247430Y138492D01*
X247526Y138485D01*
X247628Y138478D01*
X247676D01*
X247717Y138485D01*
X247758D01*
X247813Y138492D01*
X247929Y138512D01*
X248059Y138547D01*
X248189Y138588D01*
X248318Y138656D01*
X248428Y138745D01*
X248441Y138758D01*
X248469Y138793D01*
X248510Y138854D01*
X248564Y138943D01*
X248612Y139045D01*
X248653Y139168D01*
X248680Y139318D01*
X248694Y139482D01*
Y139489D01*
Y139503D01*
Y139530D01*
X248687Y139564D01*
Y139598D01*
X248680Y139646D01*
X248660Y139755D01*
X248633Y139872D01*
X248585Y139995D01*
X248523Y140111D01*
X248434Y140213D01*
X248421Y140227D01*
X248407Y140240D01*
X248387Y140261D01*
X248353Y140281D01*
X248318Y140309D01*
X248271Y140336D01*
X248223Y140370D01*
X248161Y140411D01*
X248093Y140452D01*
X248018Y140493D01*
X247929Y140534D01*
X247833Y140575D01*
X247731Y140623D01*
X247622Y140664D01*
X247499Y140712D01*
X247492D01*
X247471Y140725D01*
X247437Y140739D01*
X247390Y140753D01*
X247335Y140773D01*
X247267Y140800D01*
X247198Y140828D01*
X247123Y140862D01*
X246952Y140937D01*
X246782Y141026D01*
X246618Y141115D01*
X246543Y141163D01*
X246474Y141210D01*
X246467D01*
X246461Y141224D01*
X246420Y141258D01*
X246351Y141313D01*
X246276Y141388D01*
X246187Y141477D01*
X246099Y141579D01*
X246017Y141695D01*
X245941Y141818D01*
Y141825D01*
X245935Y141832D01*
X245928Y141852D01*
X245914Y141880D01*
X245887Y141948D01*
X245853Y142043D01*
X245819Y142160D01*
X245791Y142289D01*
X245771Y142440D01*
X245764Y142597D01*
Y142604D01*
Y142631D01*
X245771Y142672D01*
Y142720D01*
X245778Y142788D01*
X245791Y142863D01*
X245805Y142945D01*
X245825Y143034D01*
X245853Y143130D01*
X245887Y143232D01*
X245928Y143334D01*
X245976Y143437D01*
X246037Y143539D01*
X246105Y143649D01*
X246181Y143744D01*
X246269Y143840D01*
X246276Y143847D01*
X246290Y143860D01*
X246324Y143888D01*
X246358Y143915D01*
X246413Y143956D01*
X246474Y143997D01*
X246543Y144038D01*
X246624Y144086D01*
X246713Y144133D01*
X246816Y144175D01*
X246925Y144216D01*
X247041Y144256D01*
X247171Y144284D01*
X247301Y144311D01*
X247444Y144325D01*
X247594Y144332D01*
X247649D01*
X247690Y144325D01*
D02*
G37*
G36*
X229591Y137884D02*
X228791D01*
Y140828D01*
X226230D01*
Y137884D01*
X225431D01*
Y144243D01*
X226230D01*
Y141511D01*
X228791D01*
Y144243D01*
X229591D01*
Y137884D01*
D02*
G37*
G36*
X244678Y139721D02*
Y139715D01*
Y139680D01*
X244671Y139632D01*
Y139571D01*
X244657Y139496D01*
X244651Y139407D01*
X244630Y139312D01*
X244610Y139202D01*
X244582Y139093D01*
X244548Y138977D01*
X244507Y138861D01*
X244453Y138738D01*
X244391Y138622D01*
X244323Y138512D01*
X244241Y138403D01*
X244152Y138301D01*
X244145Y138294D01*
X244132Y138280D01*
X244097Y138253D01*
X244056Y138219D01*
X244009Y138185D01*
X243940Y138144D01*
X243865Y138096D01*
X243783Y138048D01*
X243688Y138000D01*
X243578Y137952D01*
X243462Y137911D01*
X243333Y137877D01*
X243196Y137843D01*
X243046Y137816D01*
X242888Y137802D01*
X242718Y137795D01*
X242677D01*
X242629Y137802D01*
X242561D01*
X242485Y137809D01*
X242397Y137823D01*
X242294Y137836D01*
X242185Y137857D01*
X242069Y137884D01*
X241953Y137918D01*
X241830Y137959D01*
X241714Y138007D01*
X241598Y138062D01*
X241481Y138130D01*
X241372Y138205D01*
X241277Y138294D01*
X241270Y138301D01*
X241256Y138314D01*
X241229Y138348D01*
X241201Y138390D01*
X241160Y138437D01*
X241120Y138499D01*
X241072Y138574D01*
X241024Y138663D01*
X240983Y138758D01*
X240935Y138861D01*
X240894Y138977D01*
X240853Y139107D01*
X240819Y139243D01*
X240792Y139393D01*
X240778Y139551D01*
X240771Y139721D01*
Y144243D01*
X241564D01*
Y139749D01*
Y139742D01*
Y139721D01*
Y139687D01*
X241570Y139646D01*
Y139592D01*
X241577Y139530D01*
X241598Y139387D01*
X241632Y139236D01*
X241680Y139073D01*
X241748Y138922D01*
X241789Y138854D01*
X241837Y138793D01*
X241844D01*
X241850Y138779D01*
X241891Y138745D01*
X241919Y138717D01*
X241953Y138690D01*
X242001Y138663D01*
X242048Y138635D01*
X242110Y138608D01*
X242171Y138581D01*
X242247Y138553D01*
X242322Y138526D01*
X242410Y138506D01*
X242506Y138492D01*
X242608Y138485D01*
X242718Y138478D01*
X242779D01*
X242820Y138485D01*
X242868D01*
X242930Y138492D01*
X243059Y138519D01*
X243203Y138553D01*
X243353Y138608D01*
X243490Y138690D01*
X243551Y138738D01*
X243606Y138793D01*
Y138799D01*
X243619Y138806D01*
X243633Y138827D01*
X243647Y138854D01*
X243667Y138888D01*
X243694Y138929D01*
X243715Y138977D01*
X243742Y139032D01*
X243770Y139093D01*
X243790Y139161D01*
X243817Y139243D01*
X243838Y139332D01*
X243851Y139421D01*
X243865Y139523D01*
X243879Y139632D01*
Y139749D01*
Y144243D01*
X244678D01*
Y139721D01*
D02*
G37*
G36*
X238080Y144236D02*
X238155Y144229D01*
X238244Y144216D01*
X238347Y144202D01*
X238449Y144181D01*
X238565Y144154D01*
X238681Y144120D01*
X238797Y144086D01*
X238913Y144038D01*
X239030Y143976D01*
X239139Y143915D01*
X239241Y143840D01*
X239337Y143751D01*
X239344Y143744D01*
X239357Y143730D01*
X239378Y143703D01*
X239412Y143662D01*
X239446Y143608D01*
X239487Y143546D01*
X239535Y143478D01*
X239576Y143389D01*
X239624Y143300D01*
X239665Y143191D01*
X239706Y143075D01*
X239740Y142945D01*
X239774Y142808D01*
X239794Y142658D01*
X239808Y142501D01*
X239815Y142330D01*
Y142324D01*
Y142303D01*
Y142276D01*
X239808Y142228D01*
Y142180D01*
X239801Y142119D01*
X239794Y142050D01*
X239781Y141982D01*
X239754Y141818D01*
X239706Y141647D01*
X239644Y141470D01*
X239556Y141299D01*
Y141292D01*
X239542Y141279D01*
X239528Y141258D01*
X239508Y141231D01*
X239446Y141149D01*
X239364Y141053D01*
X239262Y140944D01*
X239139Y140835D01*
X238989Y140732D01*
X238825Y140637D01*
X240054Y137932D01*
Y137884D01*
X239194D01*
X238060Y140459D01*
X236940D01*
Y137884D01*
X236140D01*
Y144243D01*
X238012D01*
X238080Y144236D01*
D02*
G37*
G36*
X235273Y137884D02*
X234454D01*
X233948Y139551D01*
X231803D01*
X231305Y137884D01*
X230485D01*
X232534Y144243D01*
X233224D01*
X235273Y137884D01*
D02*
G37*
G36*
X222651Y144236D02*
X222720Y144229D01*
X222808Y144216D01*
X222904Y144195D01*
X223006Y144175D01*
X223116Y144147D01*
X223232Y144113D01*
X223348Y144072D01*
X223464Y144017D01*
X223580Y143956D01*
X223689Y143888D01*
X223799Y143806D01*
X223894Y143710D01*
X223901Y143703D01*
X223915Y143683D01*
X223942Y143655D01*
X223976Y143614D01*
X224010Y143560D01*
X224051Y143498D01*
X224099Y143423D01*
X224147Y143334D01*
X224195Y143239D01*
X224243Y143130D01*
X224284Y143013D01*
X224318Y142891D01*
X224352Y142754D01*
X224379Y142610D01*
X224393Y142460D01*
X224400Y142296D01*
Y142289D01*
Y142255D01*
Y142208D01*
X224393Y142146D01*
X224386Y142071D01*
X224372Y141982D01*
X224359Y141880D01*
X224338Y141777D01*
X224311Y141668D01*
X224284Y141552D01*
X224243Y141429D01*
X224195Y141313D01*
X224140Y141197D01*
X224072Y141087D01*
X224004Y140978D01*
X223915Y140882D01*
X223908Y140876D01*
X223894Y140862D01*
X223867Y140835D01*
X223826Y140807D01*
X223778Y140766D01*
X223717Y140725D01*
X223648Y140684D01*
X223566Y140637D01*
X223478Y140589D01*
X223375Y140541D01*
X223259Y140500D01*
X223143Y140459D01*
X223006Y140432D01*
X222870Y140404D01*
X222720Y140384D01*
X222556Y140377D01*
X221271D01*
Y137884D01*
X220472D01*
Y144243D01*
X222590D01*
X222651Y144236D01*
D02*
G37*
G36*
X233887Y57467D02*
X233934D01*
X233989Y57460D01*
X234057Y57453D01*
X234126Y57440D01*
X234283Y57412D01*
X234447Y57365D01*
X234617Y57303D01*
X234788Y57221D01*
X234795D01*
X234809Y57208D01*
X234829Y57194D01*
X234863Y57173D01*
X234938Y57119D01*
X235034Y57044D01*
X235143Y56948D01*
X235253Y56825D01*
X235362Y56688D01*
X235457Y56531D01*
Y56524D01*
X235471Y56511D01*
X235478Y56490D01*
X235498Y56456D01*
X235512Y56415D01*
X235533Y56361D01*
X235553Y56306D01*
X235580Y56244D01*
X235621Y56094D01*
X235662Y55930D01*
X235690Y55746D01*
X235697Y55548D01*
X234891D01*
Y55555D01*
Y55575D01*
Y55603D01*
X234884Y55643D01*
Y55698D01*
X234877Y55753D01*
X234856Y55883D01*
X234822Y56033D01*
X234768Y56183D01*
X234699Y56333D01*
X234604Y56463D01*
Y56470D01*
X234590Y56477D01*
X234549Y56518D01*
X234488Y56565D01*
X234399Y56627D01*
X234283Y56688D01*
X234146Y56743D01*
X233982Y56777D01*
X233887Y56784D01*
X233791Y56791D01*
X233743D01*
X233709Y56784D01*
X233668D01*
X233627Y56777D01*
X233518Y56757D01*
X233395Y56723D01*
X233272Y56675D01*
X233149Y56607D01*
X233040Y56518D01*
X233026Y56504D01*
X232999Y56470D01*
X232958Y56408D01*
X232910Y56320D01*
X232855Y56210D01*
X232814Y56081D01*
X232787Y55930D01*
X232773Y55753D01*
Y55746D01*
Y55732D01*
Y55712D01*
X232780Y55684D01*
X232787Y55609D01*
X232807Y55520D01*
X232842Y55411D01*
X232896Y55295D01*
X232964Y55186D01*
X233060Y55076D01*
X233074Y55063D01*
X233087Y55049D01*
X233115Y55029D01*
X233142Y55008D01*
X233183Y54981D01*
X233224Y54947D01*
X233279Y54919D01*
X233340Y54878D01*
X233402Y54844D01*
X233477Y54803D01*
X233559Y54762D01*
X233641Y54715D01*
X233736Y54674D01*
X233839Y54633D01*
X233948Y54592D01*
X233962D01*
X233989Y54578D01*
X234037Y54558D01*
X234105Y54537D01*
X234180Y54510D01*
X234269Y54469D01*
X234365Y54428D01*
X234467Y54380D01*
X234693Y54271D01*
X234911Y54141D01*
X235020Y54066D01*
X235123Y53991D01*
X235212Y53909D01*
X235294Y53827D01*
X235300Y53820D01*
X235314Y53806D01*
X235328Y53779D01*
X235355Y53745D01*
X235389Y53697D01*
X235423Y53642D01*
X235457Y53581D01*
X235498Y53506D01*
X235533Y53424D01*
X235567Y53335D01*
X235601Y53239D01*
X235635Y53130D01*
X235662Y53021D01*
X235676Y52898D01*
X235690Y52775D01*
X235697Y52638D01*
Y52631D01*
Y52604D01*
Y52563D01*
X235690Y52508D01*
X235683Y52447D01*
X235669Y52372D01*
X235655Y52283D01*
X235635Y52194D01*
X235608Y52099D01*
X235574Y51996D01*
X235533Y51894D01*
X235485Y51791D01*
X235423Y51689D01*
X235355Y51586D01*
X235280Y51491D01*
X235191Y51402D01*
X235184Y51395D01*
X235171Y51381D01*
X235137Y51361D01*
X235102Y51327D01*
X235048Y51293D01*
X234986Y51259D01*
X234918Y51211D01*
X234836Y51170D01*
X234740Y51129D01*
X234638Y51088D01*
X234529Y51047D01*
X234406Y51013D01*
X234276Y50979D01*
X234132Y50958D01*
X233982Y50944D01*
X233825Y50938D01*
X233770D01*
X233730Y50944D01*
X233682D01*
X233627Y50951D01*
X233559Y50958D01*
X233490Y50965D01*
X233333Y50999D01*
X233163Y51040D01*
X232978Y51095D01*
X232801Y51177D01*
X232794D01*
X232780Y51190D01*
X232753Y51204D01*
X232726Y51224D01*
X232684Y51245D01*
X232637Y51272D01*
X232534Y51354D01*
X232418Y51450D01*
X232295Y51566D01*
X232172Y51696D01*
X232063Y51853D01*
Y51860D01*
X232049Y51873D01*
X232036Y51901D01*
X232022Y51928D01*
X232001Y51976D01*
X231981Y52024D01*
X231954Y52078D01*
X231933Y52147D01*
X231878Y52297D01*
X231838Y52468D01*
X231810Y52659D01*
X231797Y52864D01*
X232603D01*
Y52857D01*
Y52836D01*
Y52809D01*
X232609Y52768D01*
Y52713D01*
X232623Y52659D01*
X232644Y52529D01*
X232684Y52379D01*
X232739Y52222D01*
X232821Y52078D01*
X232876Y52003D01*
X232930Y51942D01*
X232937D01*
X232944Y51928D01*
X232964Y51914D01*
X232992Y51894D01*
X233026Y51866D01*
X233067Y51839D01*
X233115Y51812D01*
X233163Y51784D01*
X233292Y51723D01*
X233449Y51668D01*
X233627Y51634D01*
X233723Y51627D01*
X233825Y51621D01*
X233873D01*
X233914Y51627D01*
X233955D01*
X234010Y51634D01*
X234126Y51655D01*
X234255Y51689D01*
X234385Y51730D01*
X234515Y51798D01*
X234624Y51887D01*
X234638Y51901D01*
X234665Y51935D01*
X234706Y51996D01*
X234761Y52085D01*
X234809Y52188D01*
X234850Y52310D01*
X234877Y52461D01*
X234891Y52625D01*
Y52631D01*
Y52645D01*
Y52672D01*
X234884Y52706D01*
Y52741D01*
X234877Y52789D01*
X234856Y52898D01*
X234829Y53014D01*
X234781Y53137D01*
X234720Y53253D01*
X234631Y53355D01*
X234617Y53369D01*
X234604Y53383D01*
X234583Y53403D01*
X234549Y53424D01*
X234515Y53451D01*
X234467Y53478D01*
X234419Y53513D01*
X234358Y53553D01*
X234290Y53594D01*
X234214Y53635D01*
X234126Y53676D01*
X234030Y53717D01*
X233927Y53765D01*
X233818Y53806D01*
X233695Y53854D01*
X233688D01*
X233668Y53868D01*
X233634Y53881D01*
X233586Y53895D01*
X233531Y53915D01*
X233463Y53943D01*
X233395Y53970D01*
X233320Y54004D01*
X233149Y54079D01*
X232978Y54168D01*
X232814Y54257D01*
X232739Y54305D01*
X232671Y54353D01*
X232664D01*
X232657Y54366D01*
X232616Y54400D01*
X232548Y54455D01*
X232473Y54530D01*
X232384Y54619D01*
X232295Y54721D01*
X232213Y54838D01*
X232138Y54960D01*
Y54967D01*
X232131Y54974D01*
X232124Y54995D01*
X232111Y55022D01*
X232083Y55090D01*
X232049Y55186D01*
X232015Y55302D01*
X231988Y55432D01*
X231967Y55582D01*
X231961Y55739D01*
Y55746D01*
Y55773D01*
X231967Y55814D01*
Y55862D01*
X231974Y55930D01*
X231988Y56005D01*
X232001Y56087D01*
X232022Y56176D01*
X232049Y56272D01*
X232083Y56374D01*
X232124Y56477D01*
X232172Y56579D01*
X232234Y56682D01*
X232302Y56791D01*
X232377Y56887D01*
X232466Y56982D01*
X232473Y56989D01*
X232486Y57003D01*
X232521Y57030D01*
X232555Y57057D01*
X232609Y57098D01*
X232671Y57139D01*
X232739Y57180D01*
X232821Y57228D01*
X232910Y57276D01*
X233012Y57317D01*
X233122Y57358D01*
X233238Y57399D01*
X233367Y57426D01*
X233497Y57453D01*
X233641Y57467D01*
X233791Y57474D01*
X233846D01*
X233887Y57467D01*
D02*
G37*
G36*
X247499Y53396D02*
Y51026D01*
X246700D01*
Y53396D01*
X244890Y57385D01*
X245798D01*
X247096Y54189D01*
X248400Y57385D01*
X249302Y57385D01*
X247499Y53396D01*
D02*
G37*
G36*
X225472Y51026D02*
X224755D01*
X223689Y55657D01*
X223628Y56033D01*
X223560Y55657D01*
X222460Y51026D01*
X221736D01*
X220472Y57385D01*
X221271D01*
X222064Y53027D01*
X222146Y52317D01*
X222269Y52946D01*
X223286Y57385D01*
X223956D01*
X224946Y52946D01*
X225069Y52297D01*
X225165Y53034D01*
X225943Y57385D01*
X226742D01*
X225472Y51026D01*
D02*
G37*
G36*
X264253Y56702D02*
X261678D01*
Y54653D01*
X263925D01*
Y53970D01*
X261678D01*
Y51709D01*
X264301D01*
Y51026D01*
X260879D01*
Y57385D01*
X264253D01*
Y56702D01*
D02*
G37*
G36*
X259806D02*
X257231D01*
Y54653D01*
X259479D01*
Y53970D01*
X257231D01*
Y51709D01*
X259854D01*
Y51026D01*
X256432D01*
Y57385D01*
X259806D01*
Y56702D01*
D02*
G37*
G36*
X252990Y51709D02*
X255483D01*
Y51026D01*
X252184D01*
Y57385D01*
X252990D01*
Y51709D01*
D02*
G37*
G36*
X244371Y56702D02*
X241796D01*
Y54653D01*
X244043D01*
Y53970D01*
X241796D01*
Y51709D01*
X244418D01*
Y51026D01*
X240997D01*
Y57385D01*
X244371D01*
Y56702D01*
D02*
G37*
G36*
X237554Y51709D02*
X240047D01*
Y51026D01*
X236748D01*
Y57385D01*
X237554D01*
Y51709D01*
D02*
G37*
G36*
X231038Y56702D02*
X228464D01*
Y54653D01*
X230711D01*
Y53970D01*
X228464D01*
Y51709D01*
X231086D01*
Y51026D01*
X227664D01*
Y57385D01*
X231038D01*
Y56702D01*
D02*
G37*
G36*
X225854Y43307D02*
X225055D01*
Y45780D01*
X225131Y48259D01*
X223464Y43307D01*
X222856D01*
X221196Y48245D01*
X221271Y45780D01*
Y43307D01*
X220472D01*
Y49666D01*
X221504D01*
X223164Y44475D01*
X224823Y49666D01*
X225854D01*
Y43307D01*
D02*
G37*
G36*
X234331Y49659D02*
X234406Y49652D01*
X234494Y49639D01*
X234597Y49625D01*
X234699Y49604D01*
X234815Y49577D01*
X234932Y49543D01*
X235048Y49509D01*
X235164Y49461D01*
X235280Y49400D01*
X235389Y49338D01*
X235492Y49263D01*
X235587Y49174D01*
X235594Y49167D01*
X235608Y49154D01*
X235628Y49126D01*
X235662Y49085D01*
X235697Y49031D01*
X235737Y48969D01*
X235785Y48901D01*
X235826Y48812D01*
X235874Y48723D01*
X235915Y48614D01*
X235956Y48498D01*
X235990Y48368D01*
X236024Y48232D01*
X236045Y48081D01*
X236058Y47924D01*
X236065Y47753D01*
Y47747D01*
Y47726D01*
Y47699D01*
X236058Y47651D01*
Y47603D01*
X236052Y47542D01*
X236045Y47473D01*
X236031Y47405D01*
X236004Y47241D01*
X235956Y47070D01*
X235895Y46893D01*
X235806Y46722D01*
Y46715D01*
X235792Y46702D01*
X235778Y46681D01*
X235758Y46654D01*
X235697Y46572D01*
X235615Y46476D01*
X235512Y46367D01*
X235389Y46258D01*
X235239Y46155D01*
X235075Y46060D01*
X236304Y43355D01*
Y43307D01*
X235444D01*
X234310Y45882D01*
X233190D01*
Y43307D01*
X232391D01*
Y49666D01*
X234262D01*
X234331Y49659D01*
D02*
G37*
G36*
X231523Y43307D02*
X230704D01*
X230198Y44974D01*
X228054D01*
X227555Y43307D01*
X226736D01*
X228784Y49666D01*
X229474D01*
X231523Y43307D01*
D02*
G37*
G36*
X249082D02*
X247839D01*
Y48163D01*
X246630Y47699D01*
Y48730D01*
X248952Y49679D01*
X249082D01*
Y43307D01*
D02*
G37*
G36*
X239261Y49748D02*
X239329Y49741D01*
X239411Y49727D01*
X239506Y49714D01*
X239602Y49693D01*
X239704Y49673D01*
X239814Y49639D01*
X239923Y49604D01*
X240032Y49556D01*
X240142Y49502D01*
X240244Y49440D01*
X240347Y49365D01*
X240435Y49283D01*
X240442Y49277D01*
X240456Y49263D01*
X240476Y49235D01*
X240510Y49194D01*
X240545Y49147D01*
X240586Y49092D01*
X240627Y49017D01*
X240674Y48942D01*
X240715Y48846D01*
X240756Y48751D01*
X240797Y48641D01*
X240831Y48518D01*
X240866Y48389D01*
X240886Y48252D01*
X240900Y48102D01*
X240907Y47945D01*
Y47938D01*
Y47924D01*
Y47890D01*
X240900Y47856D01*
Y47801D01*
X240893Y47747D01*
X240886Y47685D01*
X240872Y47610D01*
X240845Y47446D01*
X240797Y47262D01*
X240736Y47064D01*
X240647Y46859D01*
Y46852D01*
X240633Y46831D01*
X240620Y46804D01*
X240599Y46763D01*
X240565Y46708D01*
X240531Y46640D01*
X240483Y46565D01*
X240435Y46483D01*
X240374Y46387D01*
X240305Y46285D01*
X240224Y46169D01*
X240142Y46046D01*
X240046Y45923D01*
X239944Y45786D01*
X239827Y45643D01*
X239704Y45493D01*
X238892Y44332D01*
X241050D01*
Y43307D01*
X237300D01*
Y44175D01*
X239021Y46367D01*
X239028Y46374D01*
X239035Y46387D01*
X239056Y46408D01*
X239076Y46442D01*
X239104Y46483D01*
X239131Y46531D01*
X239206Y46633D01*
X239281Y46756D01*
X239363Y46893D01*
X239438Y47029D01*
X239506Y47159D01*
Y47166D01*
X239513Y47173D01*
X239520Y47193D01*
X239534Y47221D01*
X239554Y47289D01*
X239588Y47371D01*
X239616Y47473D01*
X239636Y47583D01*
X239657Y47706D01*
X239664Y47822D01*
Y47829D01*
Y47842D01*
Y47863D01*
Y47890D01*
X239657Y47965D01*
X239643Y48061D01*
X239629Y48170D01*
X239602Y48279D01*
X239561Y48389D01*
X239513Y48484D01*
X239506Y48498D01*
X239486Y48525D01*
X239452Y48559D01*
X239411Y48607D01*
X239349Y48655D01*
X239274Y48689D01*
X239192Y48716D01*
X239097Y48730D01*
X239083D01*
X239049Y48723D01*
X238994Y48716D01*
X238926Y48696D01*
X238851Y48662D01*
X238769Y48607D01*
X238694Y48539D01*
X238618Y48443D01*
X238612Y48430D01*
X238591Y48389D01*
X238564Y48327D01*
X238530Y48238D01*
X238496Y48129D01*
X238468Y47993D01*
X238448Y47835D01*
X238441Y47658D01*
X237198D01*
Y47665D01*
Y47685D01*
Y47712D01*
X237205Y47760D01*
Y47808D01*
X237211Y47870D01*
X237218Y47938D01*
X237225Y48013D01*
X237259Y48177D01*
X237300Y48361D01*
X237355Y48546D01*
X237437Y48730D01*
Y48737D01*
X237451Y48751D01*
X237464Y48778D01*
X237485Y48812D01*
X237505Y48853D01*
X237539Y48901D01*
X237614Y49003D01*
X237710Y49126D01*
X237826Y49249D01*
X237963Y49372D01*
X238120Y49481D01*
X238127D01*
X238140Y49495D01*
X238168Y49509D01*
X238195Y49522D01*
X238243Y49543D01*
X238291Y49570D01*
X238345Y49591D01*
X238414Y49618D01*
X238557Y49666D01*
X238728Y49714D01*
X238919Y49741D01*
X239117Y49755D01*
X239199D01*
X239261Y49748D01*
D02*
G37*
G36*
X252859D02*
X252927Y49741D01*
X253009Y49727D01*
X253091Y49714D01*
X253187Y49693D01*
X253282Y49673D01*
X253385Y49639D01*
X253494Y49597D01*
X253597Y49556D01*
X253699Y49495D01*
X253802Y49434D01*
X253897Y49358D01*
X253986Y49277D01*
X253993Y49270D01*
X254007Y49256D01*
X254027Y49229D01*
X254061Y49188D01*
X254095Y49140D01*
X254136Y49085D01*
X254177Y49010D01*
X254218Y48935D01*
X254259Y48846D01*
X254307Y48751D01*
X254341Y48641D01*
X254375Y48525D01*
X254410Y48402D01*
X254430Y48266D01*
X254444Y48122D01*
X254450Y47972D01*
Y47965D01*
Y47951D01*
Y47924D01*
Y47897D01*
X254444Y47856D01*
Y47808D01*
X254423Y47699D01*
X254403Y47569D01*
X254368Y47432D01*
X254321Y47289D01*
X254252Y47152D01*
Y47146D01*
X254246Y47139D01*
X254232Y47118D01*
X254218Y47091D01*
X254170Y47029D01*
X254116Y46948D01*
X254034Y46859D01*
X253945Y46763D01*
X253836Y46668D01*
X253713Y46579D01*
X253720D01*
X253733Y46572D01*
X253754Y46558D01*
X253781Y46538D01*
X253849Y46490D01*
X253938Y46422D01*
X254041Y46333D01*
X254143Y46230D01*
X254246Y46107D01*
X254334Y45964D01*
Y45957D01*
X254341Y45943D01*
X254355Y45923D01*
X254368Y45896D01*
X254389Y45855D01*
X254403Y45814D01*
X254423Y45759D01*
X254450Y45704D01*
X254491Y45568D01*
X254526Y45411D01*
X254553Y45240D01*
X254560Y45049D01*
Y45042D01*
Y45015D01*
Y44967D01*
X254553Y44912D01*
X254546Y44837D01*
X254532Y44755D01*
X254519Y44666D01*
X254498Y44564D01*
X254471Y44461D01*
X254437Y44352D01*
X254403Y44236D01*
X254355Y44127D01*
X254293Y44017D01*
X254232Y43908D01*
X254157Y43806D01*
X254068Y43710D01*
X254061Y43703D01*
X254047Y43690D01*
X254020Y43662D01*
X253979Y43635D01*
X253931Y43594D01*
X253870Y43553D01*
X253802Y43512D01*
X253720Y43464D01*
X253631Y43416D01*
X253528Y43375D01*
X253419Y43334D01*
X253303Y43293D01*
X253173Y43266D01*
X253037Y43239D01*
X252893Y43225D01*
X252736Y43218D01*
X252702D01*
X252654Y43225D01*
X252600D01*
X252524Y43232D01*
X252443Y43246D01*
X252354Y43259D01*
X252251Y43280D01*
X252149Y43307D01*
X252040Y43341D01*
X251930Y43375D01*
X251814Y43423D01*
X251705Y43485D01*
X251595Y43546D01*
X251493Y43621D01*
X251397Y43710D01*
X251391Y43717D01*
X251377Y43731D01*
X251350Y43758D01*
X251322Y43799D01*
X251281Y43854D01*
X251240Y43908D01*
X251193Y43983D01*
X251152Y44065D01*
X251104Y44154D01*
X251056Y44256D01*
X251015Y44366D01*
X250974Y44482D01*
X250947Y44612D01*
X250919Y44748D01*
X250906Y44892D01*
X250899Y45049D01*
Y45056D01*
Y45069D01*
Y45103D01*
X250906Y45138D01*
Y45185D01*
X250912Y45233D01*
X250926Y45363D01*
X250954Y45506D01*
X250994Y45657D01*
X251049Y45814D01*
X251124Y45964D01*
Y45971D01*
X251138Y45984D01*
X251152Y46005D01*
X251165Y46032D01*
X251220Y46101D01*
X251288Y46189D01*
X251377Y46285D01*
X251486Y46387D01*
X251609Y46490D01*
X251753Y46579D01*
X251746D01*
X251739Y46592D01*
X251698Y46620D01*
X251630Y46668D01*
X251555Y46736D01*
X251466Y46818D01*
X251377Y46913D01*
X251288Y47023D01*
X251206Y47152D01*
Y47159D01*
X251199Y47166D01*
X251186Y47186D01*
X251179Y47214D01*
X251158Y47248D01*
X251145Y47289D01*
X251111Y47391D01*
X251070Y47514D01*
X251042Y47651D01*
X251015Y47808D01*
X251008Y47972D01*
Y47979D01*
Y48006D01*
Y48054D01*
X251015Y48109D01*
X251022Y48177D01*
X251035Y48259D01*
X251049Y48348D01*
X251070Y48450D01*
X251124Y48655D01*
X251158Y48764D01*
X251206Y48873D01*
X251261Y48983D01*
X251322Y49085D01*
X251391Y49188D01*
X251473Y49277D01*
X251479Y49283D01*
X251493Y49297D01*
X251520Y49317D01*
X251561Y49352D01*
X251609Y49386D01*
X251664Y49427D01*
X251732Y49475D01*
X251807Y49516D01*
X251889Y49563D01*
X251985Y49604D01*
X252087Y49645D01*
X252203Y49679D01*
X252320Y49714D01*
X252449Y49734D01*
X252586Y49748D01*
X252729Y49755D01*
X252804D01*
X252859Y49748D01*
D02*
G37*
G36*
X243761D02*
X243823Y49741D01*
X243898Y49734D01*
X243980Y49720D01*
X244076Y49693D01*
X244178Y49666D01*
X244287Y49632D01*
X244397Y49584D01*
X244513Y49529D01*
X244629Y49461D01*
X244738Y49379D01*
X244847Y49290D01*
X244943Y49181D01*
X245039Y49058D01*
X245046Y49051D01*
X245059Y49024D01*
X245087Y48983D01*
X245114Y48928D01*
X245148Y48860D01*
X245189Y48771D01*
X245237Y48669D01*
X245278Y48553D01*
X245326Y48423D01*
X245367Y48272D01*
X245408Y48115D01*
X245448Y47938D01*
X245483Y47747D01*
X245503Y47542D01*
X245524Y47323D01*
X245531Y47091D01*
Y45930D01*
Y45923D01*
Y45916D01*
Y45896D01*
Y45875D01*
Y45807D01*
X245524Y45711D01*
X245517Y45602D01*
X245503Y45479D01*
X245490Y45336D01*
X245469Y45185D01*
X245442Y45021D01*
X245414Y44857D01*
X245373Y44694D01*
X245326Y44523D01*
X245271Y44359D01*
X245203Y44202D01*
X245134Y44052D01*
X245046Y43915D01*
X245039Y43908D01*
X245025Y43888D01*
X244998Y43854D01*
X244957Y43806D01*
X244909Y43751D01*
X244847Y43696D01*
X244779Y43635D01*
X244697Y43567D01*
X244608Y43505D01*
X244506Y43437D01*
X244390Y43382D01*
X244274Y43328D01*
X244137Y43280D01*
X244001Y43246D01*
X243850Y43225D01*
X243686Y43218D01*
X243645D01*
X243604Y43225D01*
X243543Y43232D01*
X243468Y43239D01*
X243386Y43252D01*
X243290Y43273D01*
X243188Y43300D01*
X243078Y43341D01*
X242969Y43382D01*
X242853Y43437D01*
X242744Y43505D01*
X242628Y43580D01*
X242525Y43669D01*
X242423Y43778D01*
X242327Y43894D01*
X242320Y43901D01*
X242307Y43929D01*
X242286Y43963D01*
X242252Y44017D01*
X242218Y44093D01*
X242177Y44175D01*
X242129Y44277D01*
X242088Y44393D01*
X242040Y44523D01*
X241992Y44666D01*
X241952Y44830D01*
X241917Y45001D01*
X241883Y45192D01*
X241856Y45390D01*
X241835Y45609D01*
X241829Y45841D01*
Y47043D01*
Y47050D01*
Y47057D01*
Y47077D01*
Y47098D01*
Y47166D01*
X241835Y47262D01*
X241842Y47371D01*
X241856Y47494D01*
X241870Y47637D01*
X241890Y47788D01*
X241911Y47945D01*
X241945Y48109D01*
X241986Y48279D01*
X242034Y48443D01*
X242088Y48607D01*
X242150Y48764D01*
X242225Y48915D01*
X242307Y49051D01*
X242314Y49058D01*
X242327Y49078D01*
X242354Y49119D01*
X242395Y49160D01*
X242443Y49215D01*
X242505Y49277D01*
X242573Y49338D01*
X242655Y49406D01*
X242751Y49468D01*
X242853Y49529D01*
X242962Y49591D01*
X243085Y49645D01*
X243215Y49693D01*
X243359Y49727D01*
X243509Y49748D01*
X243673Y49755D01*
X243714D01*
X243761Y49748D01*
D02*
G37*
%LPC*%
G36*
X236625Y151368D02*
X235908D01*
Y146375D01*
X236632D01*
X236687Y146382D01*
X236762Y146389D01*
X236837Y146402D01*
X236926Y146416D01*
X237021Y146437D01*
X237124Y146457D01*
X237220Y146491D01*
X237322Y146532D01*
X237424Y146580D01*
X237527Y146635D01*
X237616Y146696D01*
X237704Y146771D01*
X237780Y146853D01*
X237787Y146860D01*
X237793Y146874D01*
X237814Y146901D01*
X237841Y146942D01*
X237868Y146997D01*
X237903Y147058D01*
X237937Y147133D01*
X237978Y147215D01*
X238012Y147311D01*
X238046Y147420D01*
X238080Y147536D01*
X238114Y147666D01*
X238142Y147803D01*
X238162Y147953D01*
X238176Y148117D01*
X238183Y148287D01*
Y149415D01*
Y149428D01*
Y149462D01*
Y149510D01*
X238176Y149578D01*
X238169Y149660D01*
X238162Y149756D01*
X238148Y149865D01*
X238135Y149981D01*
X238087Y150220D01*
X238060Y150343D01*
X238019Y150466D01*
X237971Y150582D01*
X237923Y150698D01*
X237862Y150801D01*
X237793Y150897D01*
X237787Y150903D01*
X237773Y150917D01*
X237752Y150938D01*
X237718Y150972D01*
X237677Y151006D01*
X237629Y151047D01*
X237568Y151088D01*
X237500Y151136D01*
X237424Y151177D01*
X237336Y151218D01*
X237240Y151259D01*
X237138Y151293D01*
X237021Y151327D01*
X236899Y151347D01*
X236769Y151361D01*
X236625Y151368D01*
D02*
G37*
G36*
X244453Y151416D02*
X244391D01*
X244343Y151409D01*
X244289Y151402D01*
X244227Y151388D01*
X244159Y151375D01*
X244084Y151354D01*
X244002Y151327D01*
X243920Y151293D01*
X243838Y151252D01*
X243756Y151204D01*
X243674Y151149D01*
X243599Y151081D01*
X243524Y151006D01*
X243455Y150917D01*
X243449Y150910D01*
X243442Y150897D01*
X243428Y150862D01*
X243401Y150821D01*
X243380Y150774D01*
X243346Y150705D01*
X243319Y150630D01*
X243285Y150548D01*
X243257Y150446D01*
X243223Y150337D01*
X243196Y150220D01*
X243168Y150091D01*
X243148Y149947D01*
X243128Y149790D01*
X243121Y149626D01*
X243114Y149449D01*
Y148308D01*
Y148294D01*
Y148267D01*
Y148212D01*
X243121Y148151D01*
X243128Y148069D01*
X243134Y147973D01*
X243141Y147871D01*
X243155Y147755D01*
X243196Y147516D01*
X243257Y147270D01*
X243291Y147147D01*
X243339Y147031D01*
X243387Y146922D01*
X243449Y146819D01*
X243455Y146812D01*
X243462Y146799D01*
X243483Y146771D01*
X243510Y146737D01*
X243551Y146703D01*
X243592Y146662D01*
X243647Y146614D01*
X243701Y146566D01*
X243770Y146519D01*
X243845Y146471D01*
X243927Y146430D01*
X244022Y146396D01*
X244118Y146361D01*
X244227Y146334D01*
X244337Y146320D01*
X244459Y146314D01*
X244521D01*
X244569Y146320D01*
X244623Y146327D01*
X244692Y146341D01*
X244835Y146375D01*
X244917Y146396D01*
X244999Y146430D01*
X245081Y146464D01*
X245163Y146512D01*
X245245Y146566D01*
X245320Y146628D01*
X245395Y146703D01*
X245457Y146785D01*
X245463Y146792D01*
X245470Y146805D01*
X245484Y146833D01*
X245511Y146874D01*
X245532Y146922D01*
X245559Y146983D01*
X245593Y147058D01*
X245620Y147140D01*
X245655Y147236D01*
X245682Y147345D01*
X245716Y147461D01*
X245737Y147591D01*
X245764Y147734D01*
X245778Y147885D01*
X245791Y148048D01*
X245798Y148226D01*
Y149421D01*
Y149435D01*
Y149469D01*
Y149517D01*
X245791Y149585D01*
Y149674D01*
X245778Y149770D01*
X245771Y149872D01*
X245757Y149988D01*
X245716Y150234D01*
X245655Y150480D01*
X245620Y150603D01*
X245573Y150719D01*
X245525Y150828D01*
X245463Y150924D01*
X245457Y150931D01*
X245450Y150944D01*
X245429Y150972D01*
X245402Y150999D01*
X245368Y151040D01*
X245327Y151081D01*
X245272Y151122D01*
X245217Y151170D01*
X245149Y151218D01*
X245074Y151259D01*
X244992Y151300D01*
X244897Y151340D01*
X244801Y151368D01*
X244692Y151395D01*
X244576Y151409D01*
X244453Y151416D01*
D02*
G37*
G36*
X238005Y143560D02*
X236940D01*
Y141142D01*
X237957D01*
X237991Y141149D01*
X238039D01*
X238087Y141163D01*
X238203Y141183D01*
X238326Y141224D01*
X238463Y141279D01*
X238592Y141360D01*
X238654Y141408D01*
X238715Y141463D01*
X238722Y141470D01*
X238729Y141477D01*
X238743Y141497D01*
X238763Y141525D01*
X238784Y141552D01*
X238811Y141593D01*
X238866Y141695D01*
X238920Y141818D01*
X238968Y141962D01*
X239002Y142139D01*
X239016Y142228D01*
Y142330D01*
Y142337D01*
Y142344D01*
Y142385D01*
X239009Y142446D01*
X238995Y142522D01*
X238982Y142617D01*
X238954Y142720D01*
X238920Y142829D01*
X238879Y142945D01*
X238818Y143061D01*
X238743Y143170D01*
X238654Y143273D01*
X238545Y143369D01*
X238422Y143444D01*
X238271Y143505D01*
X238101Y143546D01*
X238005Y143560D01*
D02*
G37*
G36*
X232876Y143123D02*
X232008Y140234D01*
X233743D01*
X232876Y143123D01*
D02*
G37*
G36*
X222501Y143560D02*
X221271D01*
Y141060D01*
X222549D01*
X222590Y141067D01*
X222631D01*
X222685Y141074D01*
X222801Y141101D01*
X222931Y141135D01*
X223068Y141190D01*
X223198Y141272D01*
X223259Y141320D01*
X223314Y141374D01*
X223321Y141381D01*
X223327Y141388D01*
X223341Y141408D01*
X223361Y141436D01*
X223382Y141470D01*
X223403Y141504D01*
X223430Y141552D01*
X223457Y141606D01*
X223484Y141668D01*
X223512Y141736D01*
X223553Y141893D01*
X223587Y142078D01*
X223601Y142289D01*
Y142296D01*
Y142317D01*
Y142344D01*
X223594Y142385D01*
Y142433D01*
X223587Y142488D01*
X223566Y142617D01*
X223532Y142768D01*
X223478Y142918D01*
X223403Y143075D01*
X223361Y143143D01*
X223307Y143211D01*
Y143218D01*
X223293Y143225D01*
X223252Y143266D01*
X223184Y143321D01*
X223095Y143389D01*
X222979Y143450D01*
X222843Y143505D01*
X222685Y143546D01*
X222597Y143553D01*
X222501Y143560D01*
D02*
G37*
G36*
X234255Y48983D02*
X233190D01*
Y46565D01*
X234208D01*
X234242Y46572D01*
X234290D01*
X234337Y46586D01*
X234454Y46606D01*
X234576Y46647D01*
X234713Y46702D01*
X234843Y46784D01*
X234904Y46831D01*
X234966Y46886D01*
X234973Y46893D01*
X234979Y46900D01*
X234993Y46920D01*
X235014Y46948D01*
X235034Y46975D01*
X235061Y47016D01*
X235116Y47118D01*
X235171Y47241D01*
X235218Y47385D01*
X235253Y47562D01*
X235266Y47651D01*
Y47753D01*
Y47760D01*
Y47767D01*
Y47808D01*
X235259Y47870D01*
X235246Y47945D01*
X235232Y48040D01*
X235205Y48143D01*
X235171Y48252D01*
X235130Y48368D01*
X235068Y48484D01*
X234993Y48594D01*
X234904Y48696D01*
X234795Y48792D01*
X234672Y48867D01*
X234522Y48928D01*
X234351Y48969D01*
X234255Y48983D01*
D02*
G37*
G36*
X229126Y48546D02*
X228259Y45657D01*
X229994D01*
X229126Y48546D01*
D02*
G37*
G36*
X252729Y48730D02*
X252688D01*
X252647Y48716D01*
X252600Y48703D01*
X252538Y48676D01*
X252483Y48641D01*
X252422Y48587D01*
X252374Y48511D01*
X252367Y48505D01*
X252354Y48471D01*
X252333Y48423D01*
X252313Y48355D01*
X252292Y48266D01*
X252272Y48163D01*
X252258Y48047D01*
X252251Y47910D01*
Y47904D01*
Y47897D01*
Y47876D01*
Y47849D01*
X252258Y47781D01*
X252265Y47692D01*
X252278Y47596D01*
X252306Y47494D01*
X252333Y47398D01*
X252374Y47303D01*
X252381Y47296D01*
X252395Y47269D01*
X252429Y47234D01*
X252463Y47193D01*
X252518Y47146D01*
X252579Y47111D01*
X252654Y47084D01*
X252736Y47077D01*
X252750D01*
X252777Y47084D01*
X252818Y47091D01*
X252873Y47105D01*
X252934Y47132D01*
X252996Y47173D01*
X253050Y47227D01*
X253098Y47303D01*
X253105Y47316D01*
X253119Y47344D01*
X253139Y47398D01*
X253160Y47467D01*
X253180Y47555D01*
X253201Y47658D01*
X253214Y47774D01*
X253221Y47910D01*
Y47917D01*
Y47924D01*
Y47945D01*
Y47972D01*
X253214Y48040D01*
X253207Y48122D01*
X253194Y48218D01*
X253166Y48320D01*
X253139Y48416D01*
X253098Y48505D01*
X253091Y48511D01*
X253078Y48539D01*
X253050Y48573D01*
X253009Y48621D01*
X252955Y48662D01*
X252893Y48696D01*
X252818Y48723D01*
X252729Y48730D01*
D02*
G37*
G36*
Y46053D02*
X252716D01*
X252681Y46046D01*
X252634Y46039D01*
X252572Y46025D01*
X252504Y45991D01*
X252429Y45950D01*
X252361Y45889D01*
X252292Y45807D01*
X252285Y45793D01*
X252265Y45766D01*
X252244Y45711D01*
X252217Y45636D01*
X252183Y45540D01*
X252162Y45424D01*
X252142Y45288D01*
X252135Y45138D01*
Y45131D01*
Y45117D01*
Y45097D01*
Y45069D01*
X252142Y44994D01*
X252156Y44899D01*
X252176Y44789D01*
X252203Y44680D01*
X252238Y44571D01*
X252292Y44475D01*
X252299Y44468D01*
X252320Y44441D01*
X252361Y44400D01*
X252408Y44359D01*
X252477Y44318D01*
X252552Y44277D01*
X252641Y44250D01*
X252743Y44243D01*
X252757D01*
X252791Y44250D01*
X252839Y44256D01*
X252900Y44270D01*
X252968Y44297D01*
X253044Y44338D01*
X253112Y44400D01*
X253173Y44475D01*
X253180Y44489D01*
X253194Y44516D01*
X253221Y44571D01*
X253248Y44646D01*
X253276Y44741D01*
X253303Y44857D01*
X253317Y44987D01*
X253324Y45138D01*
Y45144D01*
Y45158D01*
Y45178D01*
Y45206D01*
X253317Y45288D01*
X253303Y45383D01*
X253282Y45493D01*
X253255Y45602D01*
X253221Y45711D01*
X253166Y45807D01*
X253160Y45821D01*
X253139Y45848D01*
X253105Y45882D01*
X253050Y45930D01*
X252989Y45978D01*
X252914Y46012D01*
X252832Y46039D01*
X252729Y46053D01*
D02*
G37*
G36*
X243673Y48730D02*
X243645D01*
X243618Y48723D01*
X243584Y48710D01*
X243536Y48689D01*
X243488Y48655D01*
X243434Y48614D01*
X243379Y48559D01*
X243318Y48484D01*
X243270Y48395D01*
X243215Y48279D01*
X243167Y48150D01*
X243126Y47993D01*
X243113Y47904D01*
X243099Y47808D01*
X243085Y47706D01*
X243078Y47596D01*
X243072Y47473D01*
X243065Y47350D01*
Y45759D01*
Y45752D01*
Y45725D01*
Y45684D01*
Y45636D01*
X243072Y45568D01*
Y45500D01*
X243078Y45418D01*
X243085Y45329D01*
X243099Y45144D01*
X243126Y44953D01*
X243167Y44776D01*
X243188Y44694D01*
X243215Y44618D01*
Y44612D01*
X243222Y44605D01*
X243242Y44557D01*
X243277Y44502D01*
X243331Y44434D01*
X243400Y44359D01*
X243475Y44304D01*
X243577Y44256D01*
X243632Y44250D01*
X243686Y44243D01*
X243700D01*
X243734Y44250D01*
X243789Y44263D01*
X243857Y44284D01*
X243925Y44325D01*
X244001Y44393D01*
X244035Y44427D01*
X244069Y44475D01*
X244103Y44530D01*
X244130Y44591D01*
Y44598D01*
X244137Y44605D01*
X244144Y44632D01*
X244151Y44659D01*
X244164Y44694D01*
X244178Y44741D01*
X244192Y44796D01*
X244205Y44857D01*
X244219Y44933D01*
X244233Y45008D01*
X244247Y45097D01*
X244260Y45199D01*
X244274Y45301D01*
X244281Y45418D01*
X244287Y45540D01*
Y45670D01*
Y47221D01*
Y47227D01*
Y47255D01*
Y47296D01*
Y47344D01*
X244281Y47405D01*
Y47480D01*
X244274Y47555D01*
X244267Y47644D01*
X244253Y47829D01*
X244226Y48013D01*
X244185Y48191D01*
X244164Y48272D01*
X244137Y48348D01*
Y48355D01*
X244130Y48361D01*
X244110Y48409D01*
X244076Y48471D01*
X244021Y48539D01*
X243960Y48607D01*
X243878Y48669D01*
X243782Y48716D01*
X243727Y48723D01*
X243673Y48730D01*
D02*
G37*
%LPD*%
D10*
X245928Y115354D02*
Y117323D01*
X220731Y84252D02*
Y85925D01*
Y84252D02*
X222404D01*
X220731Y112598D02*
X222404D01*
X220731Y110925D02*
Y112598D01*
X247404Y84252D02*
X249077D01*
Y85925D01*
Y110925D02*
Y112598D01*
X247404D02*
X249077D01*
X112205Y39370D02*
Y41339D01*
X114764Y44094D02*
X116339D01*
Y45669D01*
X102165Y44094D02*
X103740D01*
X102165D02*
Y45669D01*
Y56693D02*
Y58268D01*
X103740D01*
X114764D02*
X116339D01*
Y56693D02*
Y58268D01*
X150091Y73032D02*
Y73819D01*
X147728Y73032D02*
Y73819D01*
X144185Y73032D02*
Y73819D01*
X141823Y73032D02*
Y73819D01*
X260433Y89764D02*
X261221D01*
X260433Y87402D02*
X261221D01*
X201969Y42913D02*
Y43701D01*
X199606Y42913D02*
Y43701D01*
X85433Y45866D02*
Y46654D01*
X83071Y45866D02*
Y46654D01*
Y93110D02*
Y93898D01*
X85433Y93110D02*
Y93898D01*
Y140354D02*
Y141142D01*
X83071Y140354D02*
Y141142D01*
X234252Y132677D02*
X235039D01*
X234252Y130315D02*
X235039D01*
X273425Y100984D02*
Y101772D01*
X275787Y100984D02*
Y101772D01*
X111024Y154331D02*
X111811D01*
X111024Y156693D02*
X111811D01*
X141339Y144488D02*
X142126D01*
X141339Y146850D02*
X142126D01*
X259707Y96850D02*
X261282D01*
X259707Y100000D02*
X261282D01*
X115854Y73032D02*
Y74606D01*
X112705Y73032D02*
Y74606D01*
X137689Y72638D02*
Y74213D01*
X134539Y72638D02*
Y74213D01*
X234117Y123917D02*
X235691D01*
X234117Y120768D02*
X235691D01*
X209707Y99606D02*
Y101181D01*
X212857Y99606D02*
Y101181D01*
X247896Y75197D02*
X249471D01*
X247896Y78347D02*
X249471D01*
X259707Y102756D02*
X261282D01*
X259707Y105905D02*
X261282D01*
X249318Y132400D02*
X250431Y131286D01*
X247091Y130173D02*
X248204Y129059D01*
X257705Y124013D02*
X258818Y122899D01*
X255478Y121786D02*
X256591Y120672D01*
X201969Y29921D02*
X203543D01*
X201969Y33071D02*
X203543D01*
X102559Y36811D02*
X104134D01*
X102559Y39961D02*
X104134D01*
X114370Y36811D02*
X115945D01*
X114370Y39961D02*
X115945D01*
X195079Y140354D02*
X196653D01*
X195079Y137205D02*
X196653D01*
X260039Y84252D02*
X261614D01*
X260039Y81102D02*
X261614D01*
X270866Y68504D02*
Y70079D01*
X267717Y68504D02*
Y70079D01*
X185630Y65158D02*
Y66732D01*
X182480Y65158D02*
Y66732D01*
X162008Y134055D02*
Y135630D01*
X158858Y134055D02*
Y135630D01*
X150000Y145866D02*
Y147441D01*
X153150Y145866D02*
Y147441D01*
X200984Y162992D02*
X202559D01*
X200984Y159843D02*
X202559D01*
X122835Y87795D02*
X125197D01*
X122835Y97244D02*
X125197D01*
X122835Y111024D02*
X125197D01*
X122835Y101575D02*
X125197D01*
X143504Y97244D02*
X145866D01*
X143504Y87795D02*
X145866D01*
X143504Y101575D02*
X145866D01*
X143504Y111024D02*
X145866D01*
X186221Y44094D02*
Y46457D01*
X195669Y44094D02*
Y46457D01*
X46063Y52953D02*
X48425D01*
X46063Y43504D02*
X48425D01*
X46063Y90748D02*
X48425D01*
X46063Y100197D02*
X48425D01*
X46063Y147441D02*
X48425D01*
X46063Y137992D02*
X48425D01*
X132677Y150394D02*
Y152756D01*
X123228Y150394D02*
Y152756D01*
X123622Y137598D02*
Y139173D01*
X125197D01*
X123622Y114764D02*
Y116339D01*
Y114764D02*
X125197D01*
X148031D02*
Y116339D01*
X146457Y114764D02*
X148031D01*
X146457Y139173D02*
X148031D01*
Y137598D02*
Y139173D01*
X279528Y71653D02*
X283465D01*
X157480Y96063D02*
X161417D01*
X283920Y96457D02*
Y100394D01*
X287069Y73622D02*
Y75197D01*
Y73622D02*
X288644D01*
X306754D02*
X308329D01*
Y75197D01*
X287069Y121260D02*
Y122835D01*
X288644D01*
X306754D02*
X308329D01*
Y121260D02*
Y122835D01*
X129921Y157480D02*
X133858D01*
X181102Y39370D02*
X185039D01*
X220905Y163150D02*
X222874D01*
X220905Y3701D02*
X222874D01*
X185039Y137795D02*
X187008D01*
X166339Y127953D02*
X167323D01*
X166339D02*
Y128937D01*
Y140748D02*
Y141732D01*
X167323D01*
X181102D02*
X182087D01*
Y140748D02*
Y141732D01*
X181102Y127953D02*
X182087D01*
Y128937D01*
X157480Y62992D02*
X159449D01*
X177165Y72835D02*
X178150D01*
Y71850D02*
Y72835D01*
Y59055D02*
Y60039D01*
X177165Y59055D02*
X178150D01*
X162402D02*
X163386D01*
X162402D02*
Y60039D01*
Y72835D02*
X163386D01*
X162402Y71850D02*
Y72835D01*
X199803Y157480D02*
Y159449D01*
X313976Y48228D02*
Y50197D01*
X53150Y168110D02*
X57087D01*
X293110Y136221D02*
Y139370D01*
Y146063D02*
Y149213D01*
Y155905D02*
Y159055D01*
Y165748D02*
Y168898D01*
X28346Y131890D02*
Y135827D01*
X82677Y123819D02*
X85827D01*
X28346Y84646D02*
Y88583D01*
X82677Y76575D02*
X85827D01*
X82677Y29331D02*
X85827D01*
X40354Y175197D02*
Y185039D01*
X28543Y175197D02*
X40354D01*
X28543D02*
Y185039D01*
X40354D01*
X28346Y37402D02*
Y41339D01*
D11*
X106299Y131890D02*
Y135827D01*
X74803Y153543D02*
Y157480D01*
X54134Y15721D02*
X56102D01*
X54134Y62965D02*
X56102D01*
X54134Y110209D02*
X56102D01*
X100394Y142717D02*
X102756D01*
X100394Y149409D02*
X102756D01*
D12*
X177165Y112205D02*
D03*
X191929Y112205D02*
D03*
X177164Y94488D02*
D03*
X191929Y94488D02*
D03*
X88976Y15062D02*
D03*
X215613Y72244D02*
D03*
X88976Y62306D02*
D03*
X85630Y109252D02*
D03*
X282087Y149213D02*
D03*
D13*
X124228Y73384D02*
D03*
M02*
