G04*
G04 #@! TF.GenerationSoftware,Altium Limited,Altium Designer,18.0.7 (293)*
G04*
G04 Layer_Physical_Order=1*
G04 Layer_Color=255*
%FSLAX25Y25*%
%MOIN*%
G70*
G01*
G75*
%ADD11C,0.00787*%
%ADD114C,0.01800*%
%ADD115C,0.00610*%
%ADD116R,0.22835X0.22835*%
%ADD117O,0.03347X0.00787*%
%ADD118O,0.00787X0.03347*%
%ADD119R,0.08071X0.08071*%
%ADD120O,0.01102X0.03347*%
%ADD121O,0.03347X0.01102*%
G04:AMPARAMS|DCode=122|XSize=39.37mil|YSize=35.43mil|CornerRadius=8.86mil|HoleSize=0mil|Usage=FLASHONLY|Rotation=180.000|XOffset=0mil|YOffset=0mil|HoleType=Round|Shape=RoundedRectangle|*
%AMROUNDEDRECTD122*
21,1,0.03937,0.01772,0,0,180.0*
21,1,0.02165,0.03543,0,0,180.0*
1,1,0.01772,-0.01083,0.00886*
1,1,0.01772,0.01083,0.00886*
1,1,0.01772,0.01083,-0.00886*
1,1,0.01772,-0.01083,-0.00886*
%
%ADD122ROUNDEDRECTD122*%
G04:AMPARAMS|DCode=123|XSize=39.37mil|YSize=35.43mil|CornerRadius=8.86mil|HoleSize=0mil|Usage=FLASHONLY|Rotation=270.000|XOffset=0mil|YOffset=0mil|HoleType=Round|Shape=RoundedRectangle|*
%AMROUNDEDRECTD123*
21,1,0.03937,0.01772,0,0,270.0*
21,1,0.02165,0.03543,0,0,270.0*
1,1,0.01772,-0.00886,-0.01083*
1,1,0.01772,-0.00886,0.01083*
1,1,0.01772,0.00886,0.01083*
1,1,0.01772,0.00886,-0.01083*
%
%ADD123ROUNDEDRECTD123*%
G04:AMPARAMS|DCode=124|XSize=31.5mil|YSize=31.5mil|CornerRadius=7.87mil|HoleSize=0mil|Usage=FLASHONLY|Rotation=90.000|XOffset=0mil|YOffset=0mil|HoleType=Round|Shape=RoundedRectangle|*
%AMROUNDEDRECTD124*
21,1,0.03150,0.01575,0,0,90.0*
21,1,0.01575,0.03150,0,0,90.0*
1,1,0.01575,0.00787,0.00787*
1,1,0.01575,0.00787,-0.00787*
1,1,0.01575,-0.00787,-0.00787*
1,1,0.01575,-0.00787,0.00787*
%
%ADD124ROUNDEDRECTD124*%
G04:AMPARAMS|DCode=125|XSize=31.5mil|YSize=31.5mil|CornerRadius=7.87mil|HoleSize=0mil|Usage=FLASHONLY|Rotation=0.000|XOffset=0mil|YOffset=0mil|HoleType=Round|Shape=RoundedRectangle|*
%AMROUNDEDRECTD125*
21,1,0.03150,0.01575,0,0,0.0*
21,1,0.01575,0.03150,0,0,0.0*
1,1,0.01575,0.00787,-0.00787*
1,1,0.01575,-0.00787,-0.00787*
1,1,0.01575,-0.00787,0.00787*
1,1,0.01575,0.00787,0.00787*
%
%ADD125ROUNDEDRECTD125*%
G04:AMPARAMS|DCode=126|XSize=31.5mil|YSize=31.5mil|CornerRadius=7.87mil|HoleSize=0mil|Usage=FLASHONLY|Rotation=45.000|XOffset=0mil|YOffset=0mil|HoleType=Round|Shape=RoundedRectangle|*
%AMROUNDEDRECTD126*
21,1,0.03150,0.01575,0,0,45.0*
21,1,0.01575,0.03150,0,0,45.0*
1,1,0.01575,0.01114,0.00000*
1,1,0.01575,0.00000,-0.01114*
1,1,0.01575,-0.01114,0.00000*
1,1,0.01575,0.00000,0.01114*
%
%ADD126ROUNDEDRECTD126*%
G04:AMPARAMS|DCode=127|XSize=106.3mil|YSize=55.12mil|CornerRadius=13.78mil|HoleSize=0mil|Usage=FLASHONLY|Rotation=90.000|XOffset=0mil|YOffset=0mil|HoleType=Round|Shape=RoundedRectangle|*
%AMROUNDEDRECTD127*
21,1,0.10630,0.02756,0,0,90.0*
21,1,0.07874,0.05512,0,0,90.0*
1,1,0.02756,0.01378,0.03937*
1,1,0.02756,0.01378,-0.03937*
1,1,0.02756,-0.01378,-0.03937*
1,1,0.02756,-0.01378,0.03937*
%
%ADD127ROUNDEDRECTD127*%
G04:AMPARAMS|DCode=128|XSize=106.3mil|YSize=55.12mil|CornerRadius=13.78mil|HoleSize=0mil|Usage=FLASHONLY|Rotation=0.000|XOffset=0mil|YOffset=0mil|HoleType=Round|Shape=RoundedRectangle|*
%AMROUNDEDRECTD128*
21,1,0.10630,0.02756,0,0,0.0*
21,1,0.07874,0.05512,0,0,0.0*
1,1,0.02756,0.03937,-0.01378*
1,1,0.02756,-0.03937,-0.01378*
1,1,0.02756,-0.03937,0.01378*
1,1,0.02756,0.03937,0.01378*
%
%ADD128ROUNDEDRECTD128*%
G04:AMPARAMS|DCode=129|XSize=116.14mil|YSize=137.8mil|CornerRadius=8.71mil|HoleSize=0mil|Usage=FLASHONLY|Rotation=0.000|XOffset=0mil|YOffset=0mil|HoleType=Round|Shape=RoundedRectangle|*
%AMROUNDEDRECTD129*
21,1,0.11614,0.12037,0,0,0.0*
21,1,0.09872,0.13780,0,0,0.0*
1,1,0.01742,0.04936,-0.06019*
1,1,0.01742,-0.04936,-0.06019*
1,1,0.01742,-0.04936,0.06019*
1,1,0.01742,0.04936,0.06019*
%
%ADD129ROUNDEDRECTD129*%
%ADD130R,0.02362X0.03150*%
G04:AMPARAMS|DCode=131|XSize=55.12mil|YSize=64.57mil|CornerRadius=5.51mil|HoleSize=0mil|Usage=FLASHONLY|Rotation=0.000|XOffset=0mil|YOffset=0mil|HoleType=Round|Shape=RoundedRectangle|*
%AMROUNDEDRECTD131*
21,1,0.05512,0.05354,0,0,0.0*
21,1,0.04409,0.06457,0,0,0.0*
1,1,0.01102,0.02205,-0.02677*
1,1,0.01102,-0.02205,-0.02677*
1,1,0.01102,-0.02205,0.02677*
1,1,0.01102,0.02205,0.02677*
%
%ADD131ROUNDEDRECTD131*%
%ADD132R,0.09449X0.02992*%
%ADD133R,0.05315X0.01575*%
G04:AMPARAMS|DCode=134|XSize=86.61mil|YSize=220.47mil|CornerRadius=21.65mil|HoleSize=0mil|Usage=FLASHONLY|Rotation=0.000|XOffset=0mil|YOffset=0mil|HoleType=Round|Shape=RoundedRectangle|*
%AMROUNDEDRECTD134*
21,1,0.08661,0.17717,0,0,0.0*
21,1,0.04331,0.22047,0,0,0.0*
1,1,0.04331,0.02165,-0.08858*
1,1,0.04331,-0.02165,-0.08858*
1,1,0.04331,-0.02165,0.08858*
1,1,0.04331,0.02165,0.08858*
%
%ADD134ROUNDEDRECTD134*%
G04:AMPARAMS|DCode=135|XSize=47.24mil|YSize=173.23mil|CornerRadius=11.81mil|HoleSize=0mil|Usage=FLASHONLY|Rotation=0.000|XOffset=0mil|YOffset=0mil|HoleType=Round|Shape=RoundedRectangle|*
%AMROUNDEDRECTD135*
21,1,0.04724,0.14961,0,0,0.0*
21,1,0.02362,0.17323,0,0,0.0*
1,1,0.02362,0.01181,-0.07480*
1,1,0.02362,-0.01181,-0.07480*
1,1,0.02362,-0.01181,0.07480*
1,1,0.02362,0.01181,0.07480*
%
%ADD135ROUNDEDRECTD135*%
G04:AMPARAMS|DCode=136|XSize=31.5mil|YSize=125.98mil|CornerRadius=7.87mil|HoleSize=0mil|Usage=FLASHONLY|Rotation=0.000|XOffset=0mil|YOffset=0mil|HoleType=Round|Shape=RoundedRectangle|*
%AMROUNDEDRECTD136*
21,1,0.03150,0.11024,0,0,0.0*
21,1,0.01575,0.12598,0,0,0.0*
1,1,0.01575,0.00787,-0.05512*
1,1,0.01575,-0.00787,-0.05512*
1,1,0.01575,-0.00787,0.05512*
1,1,0.01575,0.00787,0.05512*
%
%ADD136ROUNDEDRECTD136*%
%ADD137R,0.10039X0.08071*%
G04:AMPARAMS|DCode=138|XSize=17.72mil|YSize=35.43mil|CornerRadius=4.43mil|HoleSize=0mil|Usage=FLASHONLY|Rotation=270.000|XOffset=0mil|YOffset=0mil|HoleType=Round|Shape=RoundedRectangle|*
%AMROUNDEDRECTD138*
21,1,0.01772,0.02657,0,0,270.0*
21,1,0.00886,0.03543,0,0,270.0*
1,1,0.00886,-0.01329,-0.00443*
1,1,0.00886,-0.01329,0.00443*
1,1,0.00886,0.01329,0.00443*
1,1,0.00886,0.01329,-0.00443*
%
%ADD138ROUNDEDRECTD138*%
G04:AMPARAMS|DCode=139|XSize=21.65mil|YSize=43.31mil|CornerRadius=5.41mil|HoleSize=0mil|Usage=FLASHONLY|Rotation=0.000|XOffset=0mil|YOffset=0mil|HoleType=Round|Shape=RoundedRectangle|*
%AMROUNDEDRECTD139*
21,1,0.02165,0.03248,0,0,0.0*
21,1,0.01083,0.04331,0,0,0.0*
1,1,0.01083,0.00541,-0.01624*
1,1,0.01083,-0.00541,-0.01624*
1,1,0.01083,-0.00541,0.01624*
1,1,0.01083,0.00541,0.01624*
%
%ADD139ROUNDEDRECTD139*%
G04:AMPARAMS|DCode=140|XSize=31.5mil|YSize=23.62mil|CornerRadius=5.91mil|HoleSize=0mil|Usage=FLASHONLY|Rotation=180.000|XOffset=0mil|YOffset=0mil|HoleType=Round|Shape=RoundedRectangle|*
%AMROUNDEDRECTD140*
21,1,0.03150,0.01181,0,0,180.0*
21,1,0.01968,0.02362,0,0,180.0*
1,1,0.01181,-0.00984,0.00591*
1,1,0.01181,0.00984,0.00591*
1,1,0.01181,0.00984,-0.00591*
1,1,0.01181,-0.00984,-0.00591*
%
%ADD140ROUNDEDRECTD140*%
%ADD141R,0.05512X0.07480*%
%ADD142R,0.05512X0.06299*%
G04:AMPARAMS|DCode=143|XSize=23.62mil|YSize=43.31mil|CornerRadius=2.36mil|HoleSize=0mil|Usage=FLASHONLY|Rotation=315.000|XOffset=0mil|YOffset=0mil|HoleType=Round|Shape=RoundedRectangle|*
%AMROUNDEDRECTD143*
21,1,0.02362,0.03858,0,0,315.0*
21,1,0.01890,0.04331,0,0,315.0*
1,1,0.00472,-0.00696,-0.02032*
1,1,0.00472,-0.02032,-0.00696*
1,1,0.00472,0.00696,0.02032*
1,1,0.00472,0.02032,0.00696*
%
%ADD143ROUNDEDRECTD143*%
G04:AMPARAMS|DCode=144|XSize=59.06mil|YSize=19.68mil|CornerRadius=4.92mil|HoleSize=0mil|Usage=FLASHONLY|Rotation=270.000|XOffset=0mil|YOffset=0mil|HoleType=Round|Shape=RoundedRectangle|*
%AMROUNDEDRECTD144*
21,1,0.05906,0.00984,0,0,270.0*
21,1,0.04921,0.01968,0,0,270.0*
1,1,0.00984,-0.00492,-0.02461*
1,1,0.00984,-0.00492,0.02461*
1,1,0.00984,0.00492,0.02461*
1,1,0.00984,0.00492,-0.02461*
%
%ADD144ROUNDEDRECTD144*%
%ADD145O,0.01968X0.05906*%
G04:AMPARAMS|DCode=146|XSize=122.05mil|YSize=173.23mil|CornerRadius=6.1mil|HoleSize=0mil|Usage=FLASHONLY|Rotation=90.000|XOffset=0mil|YOffset=0mil|HoleType=Round|Shape=RoundedRectangle|*
%AMROUNDEDRECTD146*
21,1,0.12205,0.16102,0,0,90.0*
21,1,0.10984,0.17323,0,0,90.0*
1,1,0.01221,0.08051,0.05492*
1,1,0.01221,0.08051,-0.05492*
1,1,0.01221,-0.08051,-0.05492*
1,1,0.01221,-0.08051,0.05492*
%
%ADD146ROUNDEDRECTD146*%
G04:AMPARAMS|DCode=147|XSize=61.02mil|YSize=21.65mil|CornerRadius=5.41mil|HoleSize=0mil|Usage=FLASHONLY|Rotation=90.000|XOffset=0mil|YOffset=0mil|HoleType=Round|Shape=RoundedRectangle|*
%AMROUNDEDRECTD147*
21,1,0.06102,0.01083,0,0,90.0*
21,1,0.05020,0.02165,0,0,90.0*
1,1,0.01083,0.00541,0.02510*
1,1,0.01083,0.00541,-0.02510*
1,1,0.01083,-0.00541,-0.02510*
1,1,0.01083,-0.00541,0.02510*
%
%ADD147ROUNDEDRECTD147*%
G04:AMPARAMS|DCode=148|XSize=54.72mil|YSize=55.12mil|CornerRadius=13.68mil|HoleSize=0mil|Usage=FLASHONLY|Rotation=90.000|XOffset=0mil|YOffset=0mil|HoleType=Round|Shape=RoundedRectangle|*
%AMROUNDEDRECTD148*
21,1,0.05472,0.02776,0,0,90.0*
21,1,0.02736,0.05512,0,0,90.0*
1,1,0.02736,0.01388,0.01368*
1,1,0.02736,0.01388,-0.01368*
1,1,0.02736,-0.01388,-0.01368*
1,1,0.02736,-0.01388,0.01368*
%
%ADD148ROUNDEDRECTD148*%
G04:AMPARAMS|DCode=149|XSize=132.28mil|YSize=191.34mil|CornerRadius=6.61mil|HoleSize=0mil|Usage=FLASHONLY|Rotation=0.000|XOffset=0mil|YOffset=0mil|HoleType=Round|Shape=RoundedRectangle|*
%AMROUNDEDRECTD149*
21,1,0.13228,0.17811,0,0,0.0*
21,1,0.11906,0.19134,0,0,0.0*
1,1,0.01323,0.05953,-0.08906*
1,1,0.01323,-0.05953,-0.08906*
1,1,0.01323,-0.05953,0.08906*
1,1,0.01323,0.05953,0.08906*
%
%ADD149ROUNDEDRECTD149*%
%ADD150R,0.01181X0.01378*%
G04:AMPARAMS|DCode=151|XSize=11.81mil|YSize=13.78mil|CornerRadius=1.18mil|HoleSize=0mil|Usage=FLASHONLY|Rotation=0.000|XOffset=0mil|YOffset=0mil|HoleType=Round|Shape=RoundedRectangle|*
%AMROUNDEDRECTD151*
21,1,0.01181,0.01142,0,0,0.0*
21,1,0.00945,0.01378,0,0,0.0*
1,1,0.00236,0.00472,-0.00571*
1,1,0.00236,-0.00472,-0.00571*
1,1,0.00236,-0.00472,0.00571*
1,1,0.00236,0.00472,0.00571*
%
%ADD151ROUNDEDRECTD151*%
%ADD152R,0.03740X0.05906*%
G04:AMPARAMS|DCode=153|XSize=9.25mil|YSize=34.25mil|CornerRadius=0.93mil|HoleSize=0mil|Usage=FLASHONLY|Rotation=0.000|XOffset=0mil|YOffset=0mil|HoleType=Round|Shape=RoundedRectangle|*
%AMROUNDEDRECTD153*
21,1,0.00925,0.03240,0,0,0.0*
21,1,0.00740,0.03425,0,0,0.0*
1,1,0.00185,0.00370,-0.01620*
1,1,0.00185,-0.00370,-0.01620*
1,1,0.00185,-0.00370,0.01620*
1,1,0.00185,0.00370,0.01620*
%
%ADD153ROUNDEDRECTD153*%
G04:AMPARAMS|DCode=154|XSize=93.31mil|YSize=95.67mil|CornerRadius=9.33mil|HoleSize=0mil|Usage=FLASHONLY|Rotation=90.000|XOffset=0mil|YOffset=0mil|HoleType=Round|Shape=RoundedRectangle|*
%AMROUNDEDRECTD154*
21,1,0.09331,0.07701,0,0,90.0*
21,1,0.07465,0.09567,0,0,90.0*
1,1,0.01866,0.03850,0.03732*
1,1,0.01866,0.03850,-0.03732*
1,1,0.01866,-0.03850,-0.03732*
1,1,0.01866,-0.03850,0.03732*
%
%ADD154ROUNDEDRECTD154*%
G04:AMPARAMS|DCode=155|XSize=31.5mil|YSize=23.62mil|CornerRadius=5.91mil|HoleSize=0mil|Usage=FLASHONLY|Rotation=270.000|XOffset=0mil|YOffset=0mil|HoleType=Round|Shape=RoundedRectangle|*
%AMROUNDEDRECTD155*
21,1,0.03150,0.01181,0,0,270.0*
21,1,0.01968,0.02362,0,0,270.0*
1,1,0.01181,-0.00591,-0.00984*
1,1,0.01181,-0.00591,0.00984*
1,1,0.01181,0.00591,0.00984*
1,1,0.01181,0.00591,-0.00984*
%
%ADD155ROUNDEDRECTD155*%
G04:AMPARAMS|DCode=156|XSize=47.24mil|YSize=173.23mil|CornerRadius=11.81mil|HoleSize=0mil|Usage=FLASHONLY|Rotation=90.000|XOffset=0mil|YOffset=0mil|HoleType=Round|Shape=RoundedRectangle|*
%AMROUNDEDRECTD156*
21,1,0.04724,0.14961,0,0,90.0*
21,1,0.02362,0.17323,0,0,90.0*
1,1,0.02362,0.07480,0.01181*
1,1,0.02362,0.07480,-0.01181*
1,1,0.02362,-0.07480,-0.01181*
1,1,0.02362,-0.07480,0.01181*
%
%ADD156ROUNDEDRECTD156*%
G04:AMPARAMS|DCode=157|XSize=86.61mil|YSize=220.47mil|CornerRadius=21.65mil|HoleSize=0mil|Usage=FLASHONLY|Rotation=90.000|XOffset=0mil|YOffset=0mil|HoleType=Round|Shape=RoundedRectangle|*
%AMROUNDEDRECTD157*
21,1,0.08661,0.17717,0,0,90.0*
21,1,0.04331,0.22047,0,0,90.0*
1,1,0.04331,0.08858,0.02165*
1,1,0.04331,0.08858,-0.02165*
1,1,0.04331,-0.08858,-0.02165*
1,1,0.04331,-0.08858,0.02165*
%
%ADD157ROUNDEDRECTD157*%
G04:AMPARAMS|DCode=158|XSize=74.8mil|YSize=55.12mil|CornerRadius=13.78mil|HoleSize=0mil|Usage=FLASHONLY|Rotation=90.000|XOffset=0mil|YOffset=0mil|HoleType=Round|Shape=RoundedRectangle|*
%AMROUNDEDRECTD158*
21,1,0.07480,0.02756,0,0,90.0*
21,1,0.04724,0.05512,0,0,90.0*
1,1,0.02756,0.01378,0.02362*
1,1,0.02756,0.01378,-0.02362*
1,1,0.02756,-0.01378,-0.02362*
1,1,0.02756,-0.01378,0.02362*
%
%ADD158ROUNDEDRECTD158*%
G04:AMPARAMS|DCode=159|XSize=70.08mil|YSize=137.8mil|CornerRadius=17.52mil|HoleSize=0mil|Usage=FLASHONLY|Rotation=270.000|XOffset=0mil|YOffset=0mil|HoleType=Round|Shape=RoundedRectangle|*
%AMROUNDEDRECTD159*
21,1,0.07008,0.10276,0,0,270.0*
21,1,0.03504,0.13780,0,0,270.0*
1,1,0.03504,-0.05138,-0.01752*
1,1,0.03504,-0.05138,0.01752*
1,1,0.03504,0.05138,0.01752*
1,1,0.03504,0.05138,-0.01752*
%
%ADD159ROUNDEDRECTD159*%
%ADD160C,0.01968*%
%ADD161C,0.00984*%
%ADD162C,0.03937*%
%ADD163C,0.01181*%
%ADD164O,0.06299X0.03543*%
%ADD165C,0.02559*%
%ADD166C,0.02362*%
G36*
X41339Y179134D02*
X39370Y177165D01*
X25591D01*
Y181102D01*
Y192719D01*
X25629Y192913D01*
X41339D01*
Y179134D01*
D02*
G37*
G36*
X98425Y171260D02*
X86614D01*
Y172863D01*
X86940Y172906D01*
X87610Y173183D01*
X88186Y173625D01*
X88628Y174201D01*
X88905Y174871D01*
X89000Y175591D01*
X88905Y176310D01*
X88628Y176980D01*
X88186Y177556D01*
X87610Y177998D01*
X86940Y178276D01*
X86614Y178318D01*
Y188976D01*
X55118D01*
Y178318D01*
X54792Y178276D01*
X54122Y177998D01*
X53546Y177556D01*
X53105Y176980D01*
X52827Y176310D01*
X52732Y175591D01*
X52827Y174871D01*
X53105Y174201D01*
X53546Y173625D01*
X54122Y173183D01*
X54792Y172906D01*
X55118Y172863D01*
Y161417D01*
X51181D01*
Y165354D01*
X43307Y173228D01*
Y194882D01*
X98425D01*
Y171260D01*
D02*
G37*
G36*
X132874Y168042D02*
X132498Y167712D01*
X132283Y167740D01*
X131564Y167646D01*
X130894Y167368D01*
X130318Y166926D01*
X129876Y166350D01*
X129598Y165680D01*
X129504Y164961D01*
X129598Y164241D01*
X129876Y163571D01*
X130318Y162995D01*
X130894Y162553D01*
X131564Y162276D01*
X132283Y162181D01*
X132498Y162209D01*
X132874Y161880D01*
Y151575D01*
X120079D01*
Y179134D01*
X124016Y183071D01*
X132874D01*
Y168042D01*
D02*
G37*
G36*
X84646Y177856D02*
X84255Y177556D01*
X83813Y176980D01*
X83535Y176310D01*
X83441Y175591D01*
X83535Y174871D01*
X83813Y174201D01*
X84255Y173625D01*
X84646Y173325D01*
Y161417D01*
X72835D01*
Y163907D01*
X73466Y164329D01*
X73901Y164980D01*
X74054Y165748D01*
Y180709D01*
X73901Y181477D01*
X73466Y182128D01*
X72835Y182550D01*
Y187008D01*
X84646D01*
Y177856D01*
D02*
G37*
G36*
X68898Y182550D02*
X68266Y182128D01*
X67831Y181477D01*
X67678Y180709D01*
Y165748D01*
X67831Y164980D01*
X68266Y164329D01*
X68898Y163907D01*
Y161417D01*
X57087D01*
Y173325D01*
X57477Y173625D01*
X57919Y174201D01*
X58197Y174871D01*
X58292Y175591D01*
X58197Y176310D01*
X57919Y176980D01*
X57477Y177556D01*
X57087Y177856D01*
Y187008D01*
X68898D01*
Y182550D01*
D02*
G37*
G36*
X117126Y167323D02*
Y161417D01*
X115157Y159449D01*
X105315Y159449D01*
X104331Y158465D01*
X98819D01*
X98819Y163732D01*
X99433Y164346D01*
Y166315D01*
X102280Y169291D01*
X115157D01*
X117126Y167323D01*
D02*
G37*
G36*
X24788Y165354D02*
X24788Y165354D01*
X24849Y165047D01*
X25023Y164787D01*
X25591Y164219D01*
Y158283D01*
X23728D01*
X23651Y158268D01*
X23572D01*
X23499Y158238D01*
X23421Y158222D01*
X23355Y158178D01*
X23282Y158148D01*
X23047Y158106D01*
X22256Y158510D01*
X21586Y158787D01*
X20866Y158882D01*
X20147Y158787D01*
X19476Y158510D01*
X18685Y158106D01*
X18450Y158148D01*
X18377Y158178D01*
X18311Y158222D01*
X18234Y158238D01*
X18161Y158268D01*
X18081D01*
X18004Y158283D01*
X7874D01*
X7567Y158222D01*
X7306Y158048D01*
X7132Y157788D01*
X7071Y157480D01*
Y147487D01*
X7071Y146653D01*
X7071Y146653D01*
X7132Y146346D01*
X7306Y145978D01*
Y145361D01*
X7132Y144992D01*
X7071Y144685D01*
X7071Y134691D01*
X7071Y133858D01*
X7071Y133858D01*
X7132Y133551D01*
X7306Y133291D01*
X7567Y133116D01*
X7874Y133055D01*
X7874Y133055D01*
X8707Y133055D01*
X18004Y133055D01*
X18081Y133071D01*
X18161D01*
X18234Y133101D01*
X18311Y133117D01*
X18377Y133160D01*
X18450Y133191D01*
X18685Y133232D01*
X19476Y132829D01*
X20147Y132551D01*
X20866Y132457D01*
X21586Y132551D01*
X22256Y132829D01*
X22909Y133206D01*
X24317Y132028D01*
X25591Y130754D01*
Y111039D01*
X23728D01*
X23651Y111024D01*
X23572D01*
X23499Y110993D01*
X23421Y110978D01*
X23355Y110934D01*
X23282Y110904D01*
X23047Y110862D01*
X22256Y111266D01*
X21586Y111543D01*
X20866Y111638D01*
X20147Y111543D01*
X19476Y111266D01*
X18685Y110862D01*
X18450Y110904D01*
X18377Y110934D01*
X18311Y110978D01*
X18234Y110993D01*
X18161Y111024D01*
X18081D01*
X18004Y111039D01*
X7874D01*
X7567Y110978D01*
X7306Y110804D01*
X7132Y110544D01*
X7071Y110236D01*
Y100243D01*
X7071Y99409D01*
X7071Y99409D01*
X7132Y99102D01*
X7306Y98734D01*
Y98116D01*
X7132Y97748D01*
X7071Y97441D01*
X7071Y87447D01*
X7071Y86614D01*
X7071Y86614D01*
X7132Y86307D01*
X7306Y86046D01*
X7567Y85873D01*
X7874Y85811D01*
X7874Y85811D01*
X8707Y85811D01*
X18004Y85811D01*
X18081Y85827D01*
X18161D01*
X18234Y85857D01*
X18311Y85873D01*
X18377Y85916D01*
X18450Y85947D01*
X18685Y85988D01*
X19476Y85585D01*
X20147Y85307D01*
X20866Y85212D01*
X21586Y85307D01*
X22256Y85585D01*
X22909Y85962D01*
X24317Y84784D01*
X25591Y83510D01*
Y63795D01*
X23728D01*
X23651Y63779D01*
X23572D01*
X23499Y63749D01*
X23421Y63734D01*
X23355Y63690D01*
X23282Y63660D01*
X23047Y63618D01*
X22256Y64021D01*
X21586Y64299D01*
X20866Y64394D01*
X20147Y64299D01*
X19476Y64021D01*
X18685Y63618D01*
X18450Y63660D01*
X18377Y63690D01*
X18311Y63734D01*
X18234Y63749D01*
X18161Y63779D01*
X18081D01*
X18004Y63795D01*
X7874D01*
X7567Y63734D01*
X7306Y63560D01*
X7132Y63299D01*
X7071Y62992D01*
Y52999D01*
X7071Y52165D01*
X7071Y52165D01*
X7132Y51858D01*
X7306Y51490D01*
Y50872D01*
X7132Y50504D01*
X7071Y50197D01*
X7071Y40203D01*
X7071Y39370D01*
X7071Y39370D01*
X7132Y39063D01*
X7306Y38802D01*
X7567Y38628D01*
X7874Y38567D01*
X7874Y38567D01*
X8707Y38567D01*
X18004Y38567D01*
X18081Y38583D01*
X18161D01*
X18234Y38613D01*
X18311Y38628D01*
X18377Y38672D01*
X18450Y38703D01*
X18685Y38744D01*
X19476Y38341D01*
X20147Y38063D01*
X20866Y37968D01*
X21586Y38063D01*
X22256Y38341D01*
X22909Y38718D01*
X24317Y37540D01*
X25591Y36266D01*
Y23622D01*
X803D01*
X803Y173228D01*
X24788D01*
X24788Y165354D01*
D02*
G37*
G36*
X65748Y151181D02*
X73228D01*
X74803Y149606D01*
X80709D01*
X80709Y145808D01*
X79902Y145648D01*
X79219Y145191D01*
X78762Y144507D01*
X78601Y143701D01*
X78762Y142894D01*
X79219Y142211D01*
X79902Y141754D01*
X80709Y141593D01*
X80709Y129921D01*
X52165Y129921D01*
Y135827D01*
X50197Y137795D01*
Y149606D01*
X57480D01*
X61811Y153937D01*
X62101D01*
X62242Y153843D01*
X62933Y153705D01*
X63624Y153843D01*
X63765Y153937D01*
X65748Y153937D01*
Y151181D01*
D02*
G37*
G36*
X190945Y168307D02*
X208661D01*
X208661Y150591D01*
X205709Y147638D01*
X200845D01*
X200666Y147757D01*
X200148Y147861D01*
X199065D01*
X198547Y147757D01*
X198367Y147638D01*
X197835D01*
Y147056D01*
X197813Y147024D01*
X197710Y146506D01*
Y143258D01*
X197800Y142807D01*
Y141127D01*
X197417Y141050D01*
X196896Y140702D01*
X196548Y140181D01*
X196426Y139567D01*
Y137992D01*
X196548Y137378D01*
X196896Y136857D01*
X197012Y136779D01*
Y134607D01*
X196264Y133858D01*
X195076D01*
X194882Y133897D01*
X194688Y133858D01*
X192123Y133858D01*
X191929Y133897D01*
X191735Y133858D01*
X189106D01*
Y141732D01*
X189021Y142159D01*
X188780Y142520D01*
X187992Y143308D01*
Y152460D01*
X188749Y153217D01*
X190230D01*
Y152707D01*
X190333Y152188D01*
X190627Y151749D01*
X191066Y151455D01*
X191585Y151352D01*
X192667D01*
X193186Y151455D01*
X193625Y151749D01*
X193919Y152188D01*
X194022Y152707D01*
Y155955D01*
X193919Y156473D01*
X193625Y156913D01*
X193186Y157206D01*
X192667Y157309D01*
X191585D01*
X191066Y157206D01*
X190627Y156913D01*
X190333Y156473D01*
X190230Y155955D01*
Y155445D01*
X188287D01*
X187992Y155687D01*
Y167323D01*
X184126D01*
X184067Y167368D01*
X183397Y167646D01*
X182677Y167740D01*
X181958Y167646D01*
X181287Y167368D01*
X181229Y167323D01*
X180353D01*
Y170079D01*
X180201Y170847D01*
X179766Y171498D01*
X179114Y171933D01*
X178347Y172086D01*
X177165D01*
Y184055D01*
X190945D01*
Y168307D01*
D02*
G37*
G36*
X49213Y165354D02*
X49213Y147638D01*
D01*
X49213Y137795D01*
X49439Y137569D01*
X49455Y137488D01*
X49629Y137228D01*
X49629Y137228D01*
X51181Y135676D01*
Y130906D01*
X38058D01*
Y134622D01*
X38132Y134992D01*
X38143Y135010D01*
X38159Y135087D01*
X38189Y135160D01*
Y135240D01*
X38204Y135317D01*
Y137795D01*
X38204Y137795D01*
X38143Y138102D01*
X37969Y138363D01*
X37969Y138363D01*
X31079Y145253D01*
X31079Y145253D01*
X30819Y145427D01*
X30738Y145443D01*
X29528Y146653D01*
X7874Y146653D01*
Y157480D01*
X18004D01*
X18282Y157065D01*
X18181Y156822D01*
X18087Y156102D01*
X18181Y155383D01*
X18459Y154712D01*
X18901Y154137D01*
X19476Y153695D01*
X20147Y153417D01*
X20866Y153323D01*
X21586Y153417D01*
X22256Y153695D01*
X22832Y154137D01*
X23273Y154712D01*
X23551Y155383D01*
X23646Y156102D01*
X23551Y156822D01*
X23450Y157065D01*
X23728Y157480D01*
X29528D01*
X36417Y150591D01*
X37402D01*
Y153543D01*
X25591Y165354D01*
X25591Y175197D01*
X39370D01*
X49213Y165354D01*
D02*
G37*
G36*
X98425Y170276D02*
Y166339D01*
X96457Y164370D01*
Y154528D01*
X97441Y153543D01*
Y151575D01*
X91535D01*
X87598Y147638D01*
X84646D01*
X79724Y152559D01*
Y153543D01*
X83661D01*
Y158465D01*
X86614Y161417D01*
Y170276D01*
X98425Y170276D01*
D02*
G37*
G36*
X102362Y140748D02*
X101378Y139764D01*
X90551D01*
X89567Y140748D01*
Y147638D01*
X91535Y149606D01*
X92520Y150591D01*
X98425D01*
Y153543D01*
X102362D01*
Y140748D01*
D02*
G37*
G36*
X149182Y150031D02*
Y148819D01*
X149304Y148204D01*
X149652Y147684D01*
X150173Y147336D01*
X150787Y147213D01*
X152362D01*
X152977Y147336D01*
X153429Y147638D01*
X154528D01*
Y139764D01*
X152559Y137795D01*
X145669D01*
X141732Y141732D01*
X141732Y150004D01*
X143303Y151575D01*
X147638D01*
X149182Y150031D01*
D02*
G37*
G36*
X258071Y140748D02*
X267717Y131102D01*
X267717Y123031D01*
X260956Y116271D01*
X256890D01*
X256464Y116187D01*
X256102Y115945D01*
X254330Y114173D01*
X247207Y114173D01*
X246845Y114536D01*
Y115348D01*
X250637Y119141D01*
X256973D01*
X256987Y119119D01*
X258101Y118006D01*
X258622Y117658D01*
X259236Y117535D01*
X259851Y117658D01*
X260371Y118006D01*
X261485Y119119D01*
X261833Y119640D01*
X261955Y120255D01*
X261833Y120869D01*
X261485Y121390D01*
X260371Y122503D01*
X260350Y122518D01*
Y127003D01*
X262521Y129174D01*
X262763Y129536D01*
X262797Y129709D01*
X262987Y129899D01*
X263213Y130238D01*
X263292Y130637D01*
X263213Y131036D01*
X262987Y131375D01*
X261650Y132711D01*
X261312Y132938D01*
X260912Y133017D01*
X260513Y132938D01*
X260174Y132711D01*
X257446Y129983D01*
X257220Y129645D01*
X257140Y129245D01*
X257220Y128846D01*
X257446Y128507D01*
X258183Y127770D01*
X258122Y127464D01*
Y122518D01*
X258101Y122503D01*
X256987Y121390D01*
X256973Y121369D01*
X250176D01*
X249750Y121284D01*
X249388Y121042D01*
X248249Y119903D01*
X247787Y120094D01*
Y130554D01*
X247808Y130569D01*
X248922Y131682D01*
X248936Y131704D01*
X254119D01*
X254228Y131725D01*
X254885Y131068D01*
X255224Y130842D01*
X255623Y130763D01*
X256022Y130842D01*
X256361Y131068D01*
X259089Y133797D01*
X259315Y134135D01*
X259395Y134534D01*
X259315Y134934D01*
X259089Y135272D01*
X257753Y136609D01*
X257414Y136835D01*
X257015Y136914D01*
X256616Y136835D01*
X256277Y136609D01*
X253600Y133932D01*
X248936D01*
X248922Y133953D01*
X247808Y135066D01*
X247288Y135415D01*
X246673Y135537D01*
X246059Y135415D01*
X245538Y135066D01*
X244424Y133953D01*
X244076Y133432D01*
X243954Y132818D01*
X244076Y132203D01*
X244424Y131682D01*
X245538Y130569D01*
X245559Y130554D01*
Y119846D01*
X243770Y118057D01*
X243225Y118219D01*
X242828Y118813D01*
X242145Y119270D01*
X242102Y119278D01*
X241482Y119899D01*
X241580Y120046D01*
X241665Y120472D01*
Y133397D01*
X249016Y140748D01*
X258071Y140748D01*
D02*
G37*
G36*
X133858Y114173D02*
X119201D01*
X116142Y117232D01*
Y135827D01*
X133858D01*
Y114173D01*
D02*
G37*
G36*
X102362Y129921D02*
X108268Y124016D01*
X108268Y116142D01*
X106299Y114173D01*
X94488D01*
X88583Y120079D01*
Y137795D01*
X102362Y137795D01*
Y129921D01*
D02*
G37*
G36*
X37402Y102362D02*
X46260D01*
X48228Y100394D01*
X48228Y91535D01*
X48455Y91309D01*
X48471Y91228D01*
X48645Y90968D01*
X48645Y90968D01*
X51181Y88432D01*
Y83662D01*
X38058D01*
Y87378D01*
X38132Y87748D01*
X38143Y87766D01*
X38159Y87843D01*
X38189Y87916D01*
Y87995D01*
X38204Y88073D01*
Y90551D01*
X38204Y90551D01*
X38143Y90858D01*
X37969Y91119D01*
X37969Y91119D01*
X31079Y98009D01*
X31079Y98009D01*
X30819Y98183D01*
X30738Y98199D01*
X29528Y99410D01*
X7874Y99409D01*
Y110236D01*
X18004D01*
X18282Y109820D01*
X18181Y109578D01*
X18087Y108858D01*
X18181Y108139D01*
X18459Y107468D01*
X18901Y106893D01*
X19476Y106451D01*
X20147Y106173D01*
X20866Y106079D01*
X21586Y106173D01*
X22256Y106451D01*
X22832Y106893D01*
X23273Y107468D01*
X23551Y108139D01*
X23646Y108858D01*
X23551Y109578D01*
X23450Y109820D01*
X23728Y110236D01*
X29528D01*
X37402Y102362D01*
D02*
G37*
G36*
X37402Y137795D02*
Y135317D01*
X37367Y135266D01*
X37255Y134701D01*
Y116890D01*
X37367Y116324D01*
X37402Y116273D01*
Y115157D01*
X52165Y115157D01*
X52165Y128937D01*
X80709Y128937D01*
Y115625D01*
X80475Y115578D01*
X80068Y115306D01*
X79796Y114899D01*
X79780Y114820D01*
X76771Y111811D01*
X76530Y111450D01*
X76445Y111024D01*
Y106805D01*
X75085Y105445D01*
X74432D01*
X73819Y106058D01*
X73819Y114173D01*
X60039D01*
Y106299D01*
X58071Y104331D01*
X37402Y104331D01*
X27559Y114173D01*
Y129921D01*
X23622Y133858D01*
X23410Y134176D01*
X23551Y134517D01*
X23646Y135236D01*
X23551Y135956D01*
X23273Y136626D01*
X22832Y137202D01*
X22256Y137644D01*
X21586Y137921D01*
X20866Y138016D01*
X20147Y137921D01*
X19476Y137644D01*
X18901Y137202D01*
X18459Y136626D01*
X18181Y135956D01*
X18087Y135236D01*
X18181Y134517D01*
X18282Y134274D01*
X18004Y133858D01*
X7874Y133858D01*
X7874Y144685D01*
X30512Y144685D01*
X37402Y137795D01*
D02*
G37*
G36*
X263353Y107239D02*
X263779Y107154D01*
X269353D01*
Y94488D01*
X261525Y94488D01*
X260827Y94627D01*
X260128Y94488D01*
X253937Y94488D01*
X251378Y97047D01*
X248191D01*
X248117Y97446D01*
X248462Y97835D01*
X255149Y97835D01*
Y97638D01*
X255271Y97023D01*
X255619Y96502D01*
X256140Y96154D01*
X256754Y96032D01*
X258329D01*
X258944Y96154D01*
X259465Y96502D01*
X259813Y97023D01*
X259935Y97638D01*
Y97835D01*
X261811D01*
X261811Y106299D01*
X262795Y107283D01*
X263286D01*
X263353Y107239D01*
D02*
G37*
G36*
X163386Y88014D02*
X162886Y87641D01*
X162402Y87737D01*
X161595Y87577D01*
X160911Y87120D01*
X160455Y86436D01*
X160294Y85630D01*
X160455Y84824D01*
X160911Y84140D01*
X161595Y83683D01*
X162272Y83548D01*
Y79556D01*
X161772Y79347D01*
X161240Y79703D01*
X160433Y79863D01*
X159627Y79703D01*
X158943Y79246D01*
X158692Y78870D01*
X158465D01*
X158038Y78785D01*
X157677Y78544D01*
X154724Y75591D01*
X154483Y75229D01*
X154398Y74803D01*
Y63454D01*
X142125Y51181D01*
X135827D01*
X132095Y54913D01*
Y61484D01*
X140051D01*
X140478Y61569D01*
X140839Y61811D01*
X143792Y64763D01*
X144033Y65125D01*
X144118Y65551D01*
Y66929D01*
X149606D01*
Y67684D01*
X149992D01*
X150645Y67814D01*
X151198Y68183D01*
X151568Y68737D01*
X151698Y69390D01*
Y71161D01*
X151568Y71814D01*
X151198Y72368D01*
X150645Y72737D01*
X149992Y72867D01*
X149606D01*
Y84827D01*
X154527Y84827D01*
X154835Y84888D01*
X155095Y85062D01*
X155269Y85323D01*
X155330Y85630D01*
Y92338D01*
X157480Y94488D01*
X163386D01*
Y88014D01*
D02*
G37*
G36*
X154527Y132874D02*
X154527Y85630D01*
X145231Y85630D01*
X145231Y112750D01*
X137795Y120185D01*
X137795Y135827D01*
X151575Y135827D01*
X154527Y132874D01*
D02*
G37*
G36*
X61024Y98425D02*
X78050D01*
X78194Y98050D01*
X78220Y97925D01*
X77777Y97263D01*
X77617Y96457D01*
X77777Y95650D01*
X78234Y94967D01*
X78918Y94510D01*
X79724Y94349D01*
X80209Y94446D01*
X80709Y94073D01*
Y82677D01*
X52165Y82677D01*
Y88583D01*
X49213Y91535D01*
Y102362D01*
X57087D01*
X61024Y98425D01*
D02*
G37*
G36*
X240059Y79414D02*
X240362Y77398D01*
X239088Y77417D01*
X239449Y79422D01*
X240059Y79414D01*
D02*
G37*
G36*
X242734Y77435D02*
X241462Y77379D01*
X241705Y79403D01*
X242315Y79429D01*
X242734Y77435D01*
D02*
G37*
G36*
X125591Y86614D02*
X126378Y85827D01*
Y84459D01*
X126363Y84381D01*
Y83257D01*
X126378Y83179D01*
Y81703D01*
X126363Y81625D01*
Y81346D01*
X125197Y79921D01*
X125128Y75409D01*
X123228D01*
Y79921D01*
X121260Y81890D01*
Y85827D01*
X122047Y86614D01*
X125591Y86614D01*
D02*
G37*
G36*
X139228Y74910D02*
X133728Y74910D01*
X133728Y81102D01*
X139228Y81102D01*
X139228Y74910D01*
D02*
G37*
G36*
X115157Y138779D02*
X112205Y135827D01*
Y131890D01*
X114173Y129921D01*
Y117126D01*
X118110Y113189D01*
Y112992D01*
X123319Y112992D01*
X123319Y89854D01*
X120366Y86902D01*
Y85222D01*
X120361Y85197D01*
X120366Y85172D01*
X120366Y82466D01*
X120361Y82441D01*
X120366Y82416D01*
Y81299D01*
X121350Y80315D01*
Y74410D01*
X117413Y74409D01*
X113386Y78437D01*
Y92216D01*
Y108071D01*
X110236Y111221D01*
Y124016D01*
X108268Y125984D01*
Y135827D01*
X103347Y140748D01*
Y149606D01*
X115157D01*
Y138779D01*
D02*
G37*
G36*
X144095Y112592D02*
X144095Y92913D01*
X132874Y81693D01*
X132874Y72810D01*
X132520Y72456D01*
X128655D01*
X127969Y72593D01*
X127277Y72456D01*
X126691Y72064D01*
X126549Y71850D01*
X125648D01*
X125506Y72064D01*
X124920Y72456D01*
X124228Y72593D01*
X123537Y72456D01*
X122951Y72064D01*
X122808Y71850D01*
X121908D01*
X121765Y72064D01*
X121179Y72456D01*
X120488Y72593D01*
X119797Y72456D01*
X119211Y72064D01*
X119068Y71850D01*
X118032D01*
X117126Y70866D01*
Y65945D01*
X111221D01*
Y70866D01*
X113189Y72835D01*
X115157D01*
X116102Y73779D01*
X116939D01*
X117106Y73668D01*
X117413Y73607D01*
X121350Y73607D01*
X121658Y73668D01*
X121825Y73779D01*
X127165D01*
Y81625D01*
X127171Y81634D01*
X127332Y82441D01*
X127171Y83247D01*
X127165Y83257D01*
Y84381D01*
X127171Y84390D01*
X127332Y85197D01*
X127171Y86003D01*
X127165Y86012D01*
Y87402D01*
X124728Y89838D01*
X124728Y112992D01*
X143695D01*
X144095Y112592D01*
D02*
G37*
G36*
X108268Y72835D02*
X92520D01*
Y102362D01*
X108268D01*
Y72835D01*
D02*
G37*
G36*
X136228Y68910D02*
X135228D01*
X132854Y66535D01*
X127165Y66535D01*
X127165Y70866D01*
X127953Y71653D01*
X136228D01*
X136228Y68910D01*
D02*
G37*
G36*
X37402Y55118D02*
X46260D01*
X48228Y53150D01*
X48228Y44291D01*
X48455Y44065D01*
X48471Y43984D01*
X48645Y43724D01*
X48645Y43724D01*
X51181Y41188D01*
Y36417D01*
X38058D01*
Y40134D01*
X38132Y40504D01*
X38143Y40522D01*
X38159Y40599D01*
X38189Y40672D01*
Y40751D01*
X38204Y40829D01*
Y43307D01*
X38204Y43307D01*
X38143Y43614D01*
X37969Y43875D01*
X37969Y43875D01*
X31079Y50765D01*
X31079Y50765D01*
X30819Y50939D01*
X30738Y50955D01*
X29528Y52165D01*
X7874Y52165D01*
Y62992D01*
X18004D01*
X18282Y62576D01*
X18181Y62334D01*
X18087Y61614D01*
X18181Y60895D01*
X18459Y60224D01*
X18901Y59649D01*
X19476Y59207D01*
X20147Y58929D01*
X20866Y58834D01*
X21586Y58929D01*
X22256Y59207D01*
X22832Y59649D01*
X23273Y60224D01*
X23551Y60895D01*
X23646Y61614D01*
X23551Y62334D01*
X23450Y62576D01*
X23728Y62992D01*
X29528D01*
X37402Y55118D01*
D02*
G37*
G36*
X37402Y90551D02*
Y88073D01*
X37367Y88022D01*
X37255Y87457D01*
Y69646D01*
X37367Y69080D01*
X37402Y69029D01*
Y67913D01*
X52165Y67913D01*
X52165Y81693D01*
X80709Y81693D01*
X80709Y65552D01*
X78937Y63780D01*
X78695Y63418D01*
X78610Y62992D01*
Y59517D01*
X77294Y58201D01*
X74673D01*
X73819Y59055D01*
X73819Y66929D01*
X60039D01*
Y59055D01*
X58071Y57087D01*
X37402Y57087D01*
X27559Y66929D01*
Y82677D01*
X23622Y86614D01*
X23410Y86932D01*
X23551Y87273D01*
X23646Y87992D01*
X23551Y88712D01*
X23273Y89382D01*
X22832Y89958D01*
X22256Y90399D01*
X21586Y90677D01*
X20866Y90772D01*
X20147Y90677D01*
X19476Y90399D01*
X18901Y89958D01*
X18459Y89382D01*
X18181Y88712D01*
X18087Y87992D01*
X18181Y87273D01*
X18282Y87030D01*
X18004Y86614D01*
X7874Y86614D01*
X7874Y97441D01*
X30512Y97441D01*
X37402Y90551D01*
D02*
G37*
G36*
X291732Y56299D02*
X292093Y56058D01*
X292520Y55973D01*
X300720D01*
X302429Y54263D01*
Y46131D01*
X301681Y45382D01*
X301181Y45590D01*
Y50197D01*
Y53347D01*
X294291D01*
Y51419D01*
X294253Y50934D01*
X293872Y50859D01*
X289370D01*
Y58008D01*
X289832Y58199D01*
X291732Y56299D01*
D02*
G37*
G36*
X313386Y31102D02*
X289370D01*
Y45008D01*
X293872D01*
X294253Y44932D01*
X294291Y44447D01*
Y42520D01*
X301181D01*
Y42981D01*
X301969D01*
X302395Y43065D01*
X302756Y43307D01*
X304331Y44882D01*
X304572Y45243D01*
X304657Y45669D01*
Y54724D01*
X304572Y55151D01*
X304331Y55512D01*
X301969Y57874D01*
X301607Y58116D01*
X301181Y58201D01*
X292981D01*
X289370Y61812D01*
Y66535D01*
X313386D01*
Y31102D01*
D02*
G37*
G36*
X61024Y51181D02*
X78050D01*
X78194Y50806D01*
X78220Y50681D01*
X77777Y50019D01*
X77617Y49213D01*
X77777Y48406D01*
X78234Y47722D01*
X78918Y47266D01*
X79724Y47105D01*
X80209Y47201D01*
X80709Y46829D01*
Y35433D01*
X52165Y35433D01*
Y41339D01*
X49213Y44291D01*
Y55118D01*
X57087D01*
X61024Y51181D01*
D02*
G37*
G36*
X133858Y34762D02*
X133358Y34427D01*
X133003Y34575D01*
X132283Y34670D01*
X131564Y34575D01*
X130894Y34297D01*
X130318Y33855D01*
X129876Y33280D01*
X129598Y32609D01*
X129504Y31890D01*
X129598Y31170D01*
X129876Y30500D01*
X130318Y29924D01*
X130894Y29482D01*
X131564Y29205D01*
X132283Y29110D01*
X133003Y29205D01*
X133358Y29352D01*
X133858Y29018D01*
Y10645D01*
X132095D01*
X132075Y10641D01*
X132055Y10644D01*
X131075Y10596D01*
X131018Y10582D01*
X130958D01*
X129035Y10199D01*
X128962Y10169D01*
X128885Y10154D01*
X127074Y9403D01*
X127008Y9359D01*
X126935Y9329D01*
X125305Y8240D01*
X125263Y8198D01*
X125212Y8167D01*
X124888Y7874D01*
X120079D01*
Y31496D01*
X125984D01*
Y39370D01*
X133858D01*
Y34762D01*
D02*
G37*
G36*
X119487Y39962D02*
X119296Y39500D01*
X118110D01*
X117684Y39415D01*
X117323Y39173D01*
X117081Y38812D01*
X116996Y38386D01*
X117081Y37960D01*
X117323Y37598D01*
X117684Y37357D01*
X118110Y37272D01*
X120079D01*
Y32674D01*
X120053Y32480D01*
X116142D01*
Y39370D01*
X113189Y42323D01*
X112402D01*
Y45276D01*
X114173D01*
X119487Y39962D01*
D02*
G37*
G36*
X113189Y48228D02*
X111221Y46260D01*
Y46153D01*
X110944Y45739D01*
X110840Y45217D01*
Y42972D01*
X110944Y42450D01*
X111221Y42036D01*
Y32480D01*
X107283D01*
Y42036D01*
X107560Y42450D01*
X107664Y42972D01*
Y45217D01*
X107560Y45739D01*
X107283Y46153D01*
Y46260D01*
X105315Y48228D01*
Y55118D01*
X108268D01*
X111221Y58071D01*
Y60039D01*
X113189D01*
Y48228D01*
D02*
G37*
G36*
X106496Y42323D02*
X105315D01*
X102362Y39370D01*
Y32480D01*
X98425D01*
Y39370D01*
X104331Y45276D01*
X106496D01*
Y42323D01*
D02*
G37*
G36*
X197999Y39272D02*
X198129Y38619D01*
X198498Y38065D01*
X198819Y37851D01*
Y27559D01*
X192913Y21654D01*
Y7874D01*
X190073D01*
X189749Y8167D01*
X189698Y8198D01*
X189656Y8240D01*
X188026Y9329D01*
X187953Y9359D01*
X187887Y9403D01*
X186076Y10154D01*
X185998Y10169D01*
X185925Y10199D01*
X184002Y10582D01*
X183943D01*
X183885Y10596D01*
X182905Y10644D01*
X182885Y10641D01*
X182866Y10645D01*
X181102D01*
X181102Y27559D01*
X182656Y29113D01*
X182677Y29110D01*
X183397Y29205D01*
X184067Y29482D01*
X184643Y29924D01*
X185084Y30500D01*
X185362Y31170D01*
X185457Y31890D01*
X185454Y31911D01*
X188976Y35433D01*
Y36484D01*
X190945D01*
X191664Y36579D01*
X192335Y36856D01*
X192910Y37298D01*
X193352Y37874D01*
X193630Y38544D01*
X193725Y39264D01*
X193818Y39370D01*
X197999D01*
Y39272D01*
D02*
G37*
G36*
X211614Y36417D02*
Y28543D01*
X203740D01*
Y35433D01*
X200787Y38386D01*
Y42323D01*
X205709D01*
X211614Y36417D01*
D02*
G37*
G36*
X37402Y43307D02*
Y40829D01*
X37367Y40778D01*
X37255Y40213D01*
Y22402D01*
X37367Y21836D01*
X37402Y21785D01*
Y20669D01*
X52165Y20669D01*
X52165Y34449D01*
X80709Y34449D01*
X80709Y19292D01*
X78975Y17558D01*
X78733Y17197D01*
X78649Y16770D01*
Y13200D01*
X76405Y10956D01*
X74673D01*
X73819Y11811D01*
X73819Y19685D01*
X60039D01*
Y11811D01*
X58071Y9843D01*
X35433Y9843D01*
X27559Y17717D01*
Y35433D01*
X23622Y39370D01*
X23410Y39688D01*
X23551Y40029D01*
X23646Y40748D01*
X23551Y41467D01*
X23273Y42138D01*
X22832Y42714D01*
X22256Y43155D01*
X21586Y43433D01*
X20866Y43528D01*
X20147Y43433D01*
X19476Y43155D01*
X18901Y42714D01*
X18459Y42138D01*
X18181Y41467D01*
X18087Y40748D01*
X18181Y40029D01*
X18282Y39786D01*
X18004Y39370D01*
X7874Y39370D01*
X7874Y50197D01*
X30512Y50197D01*
X37402Y43307D01*
D02*
G37*
%LPC*%
G36*
X203740Y167462D02*
X202934Y167301D01*
X202250Y166844D01*
X201793Y166161D01*
X201633Y165354D01*
X201793Y164548D01*
X202250Y163864D01*
X202502Y163696D01*
X202596Y163032D01*
X202454Y162819D01*
X202331Y162205D01*
Y160630D01*
X202454Y160015D01*
X202567Y159846D01*
X200030Y157309D01*
X199065D01*
X198547Y157206D01*
X198107Y156913D01*
X197813Y156473D01*
X197710Y155955D01*
Y152707D01*
X197813Y152188D01*
X198107Y151749D01*
X198547Y151455D01*
X199065Y151352D01*
X200148D01*
X200666Y151455D01*
X201106Y151749D01*
X201399Y152188D01*
X201502Y152707D01*
Y153672D01*
X206002Y158171D01*
X206393Y158757D01*
X206523Y159412D01*
X206647Y159495D01*
X206995Y160015D01*
X207118Y160630D01*
Y162205D01*
X206995Y162819D01*
X206647Y163340D01*
X206531Y163418D01*
Y164370D01*
X206393Y165061D01*
X206002Y165647D01*
X205736Y165912D01*
X205687Y166161D01*
X205230Y166844D01*
X204547Y167301D01*
X203740Y167462D01*
D02*
G37*
G36*
X192667Y147861D02*
X191585D01*
X191066Y147757D01*
X190627Y147464D01*
X190333Y147024D01*
X190230Y146506D01*
Y143258D01*
X190333Y142739D01*
X190627Y142300D01*
X191066Y142006D01*
X191585Y141903D01*
X192667D01*
X193186Y142006D01*
X193625Y142300D01*
X193919Y142739D01*
X194022Y143258D01*
Y146506D01*
X193919Y147024D01*
X193625Y147464D01*
X193186Y147757D01*
X192667Y147861D01*
D02*
G37*
%LPD*%
D11*
X243762Y81496D02*
Y84350D01*
Y81496D02*
X245731Y79528D01*
X161417Y69980D02*
Y71850D01*
Y69980D02*
X162500Y68898D01*
X178100Y65945D02*
X181053Y62992D01*
X170276Y65945D02*
X178100D01*
X181053Y62992D02*
X184055D01*
X178051D02*
X181053D01*
X177215Y59153D02*
X181053Y62992D01*
X175197Y59153D02*
X177215D01*
X181988Y131890D02*
X185039D01*
X160433Y124016D02*
Y131890D01*
Y137795D02*
Y140748D01*
Y137795D02*
X166437D01*
X169390Y134843D01*
X174213D01*
X166437Y137795D02*
Y138779D01*
X169291Y141634D01*
X245731Y76772D02*
Y79528D01*
X237834Y112523D02*
Y122320D01*
X237857Y122343D01*
X237834Y112523D02*
X237857Y112500D01*
X254589Y101378D02*
X257542Y104331D01*
X248979Y101378D02*
X254589D01*
X256557Y99410D02*
X257542Y98425D01*
X248979Y99410D02*
X256557D01*
X245731Y82579D02*
X247916Y80394D01*
X249097D01*
X251636Y77854D01*
X231496Y131496D02*
X231951Y131041D01*
Y122343D02*
Y131041D01*
X235888Y112500D02*
Y118405D01*
X231951Y122343D02*
X235888Y118405D01*
X251636Y76772D02*
Y77854D01*
X245731Y82579D02*
Y84350D01*
X211282Y97441D02*
X213250Y99410D01*
X220829D01*
X211282Y103347D02*
X213250Y101378D01*
X220829D01*
D114*
X294253Y49213D02*
G03*
X294179Y49138I0J-74D01*
G01*
X265988Y56846D02*
G03*
X257213Y60481I-8775J-8775D01*
G01*
X270767Y52067D02*
G03*
X277839Y49138I7071J7071D01*
G01*
X242126Y70481D02*
G03*
X252126Y60481I10000J0D01*
G01*
X269063Y50363D02*
G03*
X277839Y46728I8775J8775D01*
G01*
X264284Y55142D02*
G03*
X257213Y58071I-7071J-7071D01*
G01*
X294179Y46728D02*
G03*
X294253Y46654I74J0D01*
G01*
X239716Y70481D02*
G03*
X252126Y58071I12410J0D01*
G01*
X242126Y70481D02*
Y76772D01*
X265988Y56846D02*
X270767Y52067D01*
X294253Y49213D02*
X297736D01*
X277839Y49138D02*
X294179D01*
X252126Y60481D02*
X257213D01*
X277839Y46728D02*
X294179D01*
X264284Y55142D02*
X269063Y50363D01*
X294253Y46654D02*
X297736D01*
X252126Y58071D02*
X257213D01*
X239716Y70481D02*
Y76772D01*
D115*
X241794Y77574D02*
G03*
X242126Y76772I1134J0D01*
G01*
X239716D02*
G03*
X239825Y77036I-264J264D01*
G01*
X243110Y140748D02*
X243996Y139862D01*
X245905Y187165D02*
Y187598D01*
Y187165D02*
X250000Y183071D01*
X241794Y84350D02*
X242126Y76772D01*
X223425Y51181D02*
X250000D01*
X239716Y76772D02*
X239825Y84350D01*
X237857Y72502D02*
Y84350D01*
X185827Y151870D02*
X188287Y154331D01*
X192126D01*
X79762Y16770D02*
X82976Y19984D01*
X79762Y12739D02*
Y16770D01*
X76866Y9843D02*
X79762Y12739D01*
X79228Y8268D02*
X82284Y11323D01*
X68504Y8268D02*
X79228D01*
X65354Y11417D02*
X68504Y8268D01*
X83465Y6693D02*
X85630Y8858D01*
X66142Y6693D02*
X83465D01*
X62205Y10630D02*
X66142Y6693D01*
X241794Y112500D02*
Y117655D01*
X116142Y47244D02*
X125197D01*
X196457Y118110D02*
X196850Y117717D01*
X195866Y98622D02*
Y101378D01*
X259236Y127464D02*
X261734Y129962D01*
X211614Y84842D02*
X218307Y91535D01*
X245905Y17559D02*
X247047Y18701D01*
X263644Y89567D02*
X274117D01*
X219488Y55118D02*
Y67520D01*
X257087Y89567D02*
X257874Y88779D01*
Y82677D02*
Y88779D01*
X89173Y102756D02*
Y107976D01*
X92323Y54331D02*
X92520Y54134D01*
X92323Y7087D02*
X92520Y6890D01*
X254119Y132818D02*
X256499Y135197D01*
X82677Y143701D02*
X83563Y144587D01*
X85479Y57087D02*
X85630D01*
X83661Y63976D02*
X85630D01*
X83661Y66929D02*
X85630D01*
X82677Y104528D02*
Y107976D01*
X82579Y104232D02*
X82841Y104495D01*
X81693Y103347D02*
X82579Y104232D01*
X80417Y111126D02*
X83661D01*
X81008Y114472D02*
X83464D01*
X84252Y85039D02*
X84646Y84646D01*
X166437Y124016D02*
Y131890D01*
X168307Y99213D02*
X173819D01*
X179134Y143474D02*
X180043D01*
X173228Y59153D02*
X175197D01*
X169291Y141634D02*
X171260D01*
X207480Y102756D02*
Y103113D01*
X201772Y133858D02*
X203740Y135827D01*
X245731Y73130D02*
X245731Y73130D01*
X250000Y67913D02*
X250984D01*
X254921Y71850D01*
Y77756D01*
X196457Y118110D02*
X196850Y118504D01*
X195276Y116929D02*
X196457Y118110D01*
X155512Y74803D02*
X158465Y77756D01*
X155512Y62992D02*
Y74803D01*
X137795Y45276D02*
X155512Y62992D01*
X161417D02*
X162500D01*
X158465Y65945D02*
X161417Y62992D01*
X158465Y65945D02*
Y72835D01*
X160433Y74803D01*
X161417D01*
X163386Y76772D01*
Y84646D01*
X187992Y60872D02*
Y72835D01*
X171260Y52165D02*
X179285D01*
X187992Y60872D01*
X241142Y179134D02*
X275472D01*
X285906Y168701D01*
X235906Y181772D02*
Y187598D01*
X233268Y179134D02*
X235906Y181772D01*
X203740Y135827D02*
Y143701D01*
X213583Y153543D01*
X206693Y140748D02*
Y142717D01*
X225394Y161417D01*
X206693Y136811D02*
X207677D01*
X228346Y143701D02*
X233268Y148622D01*
X235236D01*
X222441Y140748D02*
Y142717D01*
X231299Y151575D01*
X269685D01*
X273622Y147638D01*
X219488Y143701D02*
X229331Y153543D01*
X219488Y136811D02*
Y143701D01*
X229331Y153543D02*
X258858D01*
X216535Y143701D02*
X228346Y155512D01*
X216535Y140748D02*
Y143701D01*
X228346Y155512D02*
X250984D01*
X213583Y143701D02*
X227362Y157480D01*
X213583Y136811D02*
Y143701D01*
X227362Y157480D02*
X242126D01*
X210630Y143701D02*
X226378Y159449D01*
X210630Y140748D02*
Y143701D01*
X226378Y159449D02*
X233622D01*
X225394Y161417D02*
X228346D01*
X242126Y143701D02*
X260827D01*
X234252Y135827D02*
X242126Y143701D01*
X226378Y135827D02*
X234252D01*
X223425Y132874D02*
X226378Y135827D01*
X209646Y132874D02*
X223425D01*
X260827Y143701D02*
X268701Y135827D01*
X240551Y136417D02*
X243996Y139862D01*
X240551Y120472D02*
Y136417D01*
X243110Y140748D02*
X244094D01*
X162250Y145669D02*
X167323D01*
X156496Y122047D02*
Y139915D01*
X162250Y145669D01*
X213583Y153543D02*
Y155512D01*
X207185Y133366D02*
Y136319D01*
X200787Y126969D02*
X207185Y133366D01*
X206693Y136811D02*
X207185Y136319D01*
X190945Y126969D02*
X200787D01*
X192913Y125000D02*
X201772D01*
X191929Y124016D02*
X192913Y125000D01*
X187992Y124016D02*
X191929D01*
X201772Y125000D02*
X209646Y132874D01*
X202756Y123031D02*
X210630Y130905D01*
X193898Y123031D02*
X202756D01*
X190945Y120079D02*
X193898Y123031D01*
X210630Y130905D02*
X225394D01*
X226378Y131890D01*
X189961Y120079D02*
X190945D01*
X211614Y128937D02*
X224410D01*
X203816Y121139D02*
X211614Y128937D01*
X197910Y121139D02*
X203816D01*
X194957Y121139D02*
X197910D01*
X191929Y118110D02*
X194957Y121139D01*
X191929Y115157D02*
Y118110D01*
X196850Y117717D02*
Y118504D01*
X196850Y117717D02*
X196850Y117717D01*
X190551Y113779D02*
X191929Y115157D01*
X188583Y113779D02*
X190551D01*
X195276D02*
Y116929D01*
X223425Y126969D02*
X226378Y124016D01*
X212598Y126969D02*
X223425D01*
X199803Y114173D02*
X212598Y126969D01*
X199803Y108268D02*
Y114173D01*
X224410Y128937D02*
X228346Y125000D01*
X213583D02*
X222441D01*
X201772Y113189D02*
X213583Y125000D01*
X201772Y107283D02*
Y113189D01*
X214597Y123061D02*
X221775D01*
X203740Y112205D02*
X214597Y123061D01*
X203740Y106299D02*
Y112205D01*
X222441Y125000D02*
X224410Y123031D01*
X221775Y123061D02*
X223061Y121775D01*
X219488Y113189D02*
X220829Y111848D01*
Y109252D02*
Y111848D01*
X275197Y9252D02*
X275905D01*
X270669Y13780D02*
X275197Y9252D01*
X265354D02*
X265905D01*
X260827Y13780D02*
X265354Y9252D01*
X245905D02*
Y17559D01*
X235906Y14449D02*
X240158Y18701D01*
X246801D02*
X247047D01*
X257874Y43307D02*
X264764D01*
X250000Y51181D02*
X257874Y43307D01*
X270669Y37402D02*
X278543D01*
X264764Y43307D02*
X270669Y37402D01*
X285906Y28150D02*
Y30039D01*
X278543Y37402D02*
X285906Y30039D01*
X219488Y55118D02*
X223425Y51181D01*
X263701Y40354D02*
X275905Y28150D01*
X256890Y40354D02*
X263701D01*
X249016Y48228D02*
X256890Y40354D01*
X222441Y48228D02*
X249016D01*
X217520Y53150D02*
X222441Y48228D01*
X217520Y53150D02*
Y62992D01*
X215551Y64961D02*
X217520Y62992D01*
X255906Y9252D02*
Y17717D01*
X254921Y18701D02*
X255906Y17717D01*
X248031Y45276D02*
X255906Y37402D01*
X221457Y45276D02*
X248031D01*
X214567Y52165D02*
X221457Y45276D01*
X247047Y42323D02*
X255906Y33465D01*
X220472Y42323D02*
X247047D01*
X209646Y53150D02*
X220472Y42323D01*
X241142Y39370D02*
X245905Y34606D01*
X219488Y39370D02*
X241142D01*
X205708Y53150D02*
X219488Y39370D01*
X235906Y28150D02*
Y33779D01*
X233268Y36417D02*
X235906Y33779D01*
X218504Y36417D02*
X233268D01*
X201772Y53150D02*
X218504Y36417D01*
X261811Y37402D02*
X265905Y33307D01*
X255906Y37402D02*
X261811D01*
X212266Y66597D02*
Y67520D01*
X210630Y64961D02*
X212266Y66597D01*
X214567Y52165D02*
Y57087D01*
X255906Y28150D02*
Y33465D01*
X235906Y9252D02*
Y14449D01*
X265905Y28150D02*
Y33307D01*
X245905Y28150D02*
Y34606D01*
X275905Y168701D02*
Y173898D01*
X273622Y176181D02*
X275905Y173898D01*
X233268Y176181D02*
X273622D01*
X231299Y174213D02*
X233268Y176181D01*
X231299Y164370D02*
Y174213D01*
X228346Y161417D02*
X231299Y164370D01*
X258858Y153543D02*
X265905Y160591D01*
Y168701D01*
X250984Y155512D02*
X255906Y160433D01*
Y168701D01*
X242126Y157480D02*
X245905Y161260D01*
Y168701D01*
X233622Y159449D02*
X235906Y161732D01*
Y168701D01*
X200787Y79724D02*
X213976D01*
X198819Y77756D02*
X200787Y79724D01*
X197835Y77756D02*
X198819D01*
Y101378D02*
X203740Y106299D01*
X198061Y103573D02*
X201772Y107283D01*
X198819Y88583D02*
Y101378D01*
X193382Y103573D02*
X198061D01*
X196850Y105315D02*
X199803Y108268D01*
X192913Y105315D02*
X196850D01*
X188583Y100984D02*
X192913Y105315D01*
X195276Y99213D02*
X195866Y98622D01*
X192172Y102362D02*
X193382Y103573D01*
X206861Y81525D02*
X215719D01*
X197835Y81693D02*
X198819Y82677D01*
X205709D01*
X183071Y84646D02*
X206693D01*
X182087Y83661D02*
X183071Y84646D01*
X206693D02*
X207904Y83435D01*
X205709Y82677D02*
X206861Y81525D01*
X176181Y77756D02*
X180118Y73819D01*
X175197Y77756D02*
X176181D01*
X173228Y75787D02*
X175197Y77756D01*
X180118Y69882D02*
Y73819D01*
X179134Y68898D02*
X180118Y69882D01*
X178051Y68898D02*
X179134D01*
Y81693D02*
X187992Y72835D01*
X165107Y124204D02*
X166150D01*
X166388Y123967D01*
X177165Y115157D02*
Y120230D01*
X179134Y122198D01*
Y128051D01*
X171260Y120079D02*
X175197Y124016D01*
X171260Y118943D02*
Y120079D01*
X169443Y117126D02*
X171260Y118943D01*
X175197Y124016D02*
Y128051D01*
X173228Y125000D02*
Y128051D01*
X169291Y121063D02*
X173228Y125000D01*
X168349Y121063D02*
X169291D01*
X177165Y123031D02*
Y128051D01*
X173819Y119685D02*
X177165Y123031D01*
X173819Y116929D02*
Y119685D01*
X168307Y117126D02*
X169443D01*
X183071Y137795D02*
X185039Y135827D01*
X181988Y137795D02*
X183071D01*
X177165Y143701D02*
X179134Y145669D01*
X177165Y141634D02*
Y143701D01*
X171260Y149606D02*
X178301D01*
X181329Y146578D01*
Y144760D02*
Y146578D01*
X180043Y143474D02*
X181329Y144760D01*
X179134Y141634D02*
Y143474D01*
X177165Y152559D02*
X187992Y141732D01*
Y127953D02*
Y141732D01*
X175118Y83583D02*
X175276D01*
X173228Y81693D02*
X175118Y83583D01*
X177165Y89418D02*
Y91535D01*
X175787Y92913D02*
X177165Y91535D01*
Y89418D02*
X179134Y87449D01*
Y81693D02*
Y87449D01*
X170276Y81693D02*
X173228D01*
X169065Y80482D02*
X170276Y81693D01*
X169065Y72963D02*
Y80482D01*
Y72963D02*
X169291Y72736D01*
X162402Y85630D02*
X163386Y84646D01*
X168307Y98425D02*
Y99213D01*
X160433Y54134D02*
Y55118D01*
X147638Y45276D02*
X161516Y59153D01*
X147638Y34252D02*
Y45276D01*
X161516Y59153D02*
X165354D01*
X167323Y57926D02*
Y59153D01*
X161880Y56565D02*
X165962D01*
X167323Y57926D01*
X160433Y55118D02*
X161880Y56565D01*
X169291Y54134D02*
Y59153D01*
X171260Y56102D02*
X172244Y55118D01*
X169291Y54134D02*
X171260Y52165D01*
X158465Y77756D02*
X160433D01*
X167323Y72736D02*
Y81483D01*
X170873Y85033D01*
X171260Y72736D02*
Y78740D01*
X170873Y85033D02*
X172244D01*
X175197Y77756D02*
Y79766D01*
X195276Y110630D02*
Y113779D01*
Y96063D02*
Y99213D01*
Y92913D02*
Y96063D01*
X207904Y83435D02*
X214537D01*
X216535Y85433D01*
X211614Y84842D02*
Y85630D01*
X213976Y79724D02*
X215354Y78347D01*
X166437Y124016D02*
X169291Y126870D01*
Y128051D01*
X166437Y124016D02*
X169291D01*
X171260Y125984D01*
X181102Y121063D02*
X187992Y127953D01*
X167323Y153543D02*
X171260Y149606D01*
X167323Y150591D02*
X173228Y144685D01*
X160433Y150591D02*
X167323D01*
X173228Y141634D02*
Y144685D01*
X167913Y110630D02*
X173819D01*
X156496Y122047D02*
X167913Y110630D01*
X175197Y141634D02*
Y146653D01*
X171260Y125984D02*
Y128051D01*
X177165Y152559D02*
Y162598D01*
X167323Y153543D02*
Y162598D01*
X157480Y153543D02*
X160433Y150591D01*
X157480Y153543D02*
Y162598D01*
X185039Y121063D02*
X187992Y124016D01*
X185039Y120079D02*
Y121063D01*
Y104331D02*
Y110236D01*
X184646Y110630D02*
X185039Y110236D01*
X180512Y110630D02*
X184646D01*
X185039Y110236D02*
X185433Y110630D01*
X188583D01*
X266732Y115157D02*
X268701D01*
X264538Y112963D02*
X266732Y115157D01*
X256664Y112963D02*
X264538D01*
X282480Y134843D02*
Y148622D01*
X262795Y115157D02*
X282480Y134843D01*
X256890Y115157D02*
X262795D01*
X175197Y72736D02*
Y77756D01*
X173228Y72736D02*
Y75787D01*
X164370Y52165D02*
Y54134D01*
X157480Y45276D02*
X164370Y52165D01*
X157480Y34252D02*
Y45276D01*
X137795Y34252D02*
Y45276D01*
X171260Y56102D02*
Y59153D01*
X173819Y92913D02*
X175787D01*
X165354Y72736D02*
Y92520D01*
X168898Y96063D01*
X173819D01*
X108268Y62008D02*
X114173D01*
X106299Y60039D02*
X108268Y62008D01*
X106299Y58268D02*
Y60039D01*
X126969Y58071D02*
X128937Y56102D01*
X118110Y58071D02*
X126969D01*
X114173Y62008D02*
X118110Y58071D01*
X128937Y45276D02*
Y56102D01*
X122047Y38386D02*
X128937Y45276D01*
X118110Y38386D02*
X122047D01*
X173819Y113779D02*
X175787D01*
X177165Y115157D01*
X180512Y116929D02*
X188583D01*
Y118701D01*
X189961Y120079D01*
X180512Y113779D02*
X188583D01*
Y99213D02*
Y100984D01*
X180512Y99213D02*
X188583D01*
X180512Y96063D02*
X188583D01*
X192172Y99109D02*
Y102362D01*
X189126Y96063D02*
X192172Y99109D01*
X188583Y96063D02*
X189126D01*
X190354Y92913D02*
X191929Y91339D01*
Y88583D02*
Y91339D01*
Y88583D02*
X193898Y86614D01*
X196850D01*
X198819Y88583D01*
X188583Y92913D02*
X190354D01*
X180512D02*
X188583D01*
X224410Y121653D02*
Y123031D01*
Y121653D02*
X229921Y116142D01*
X228014Y112500D02*
Y114899D01*
X223061Y119852D02*
X228014Y114899D01*
X223061Y119852D02*
Y121775D01*
X226378Y121653D02*
Y124016D01*
Y121653D02*
X231951Y116080D01*
X228346Y121653D02*
Y125000D01*
Y121653D02*
X233920Y116080D01*
X231951Y112500D02*
Y116080D01*
X236053Y74635D02*
Y77727D01*
X235888Y77891D02*
X236053Y77727D01*
X235888Y77891D02*
Y84350D01*
X232067Y70650D02*
X236053Y74635D01*
X239143Y119064D02*
X240551Y120472D01*
X239143Y116413D02*
Y119064D01*
Y116413D02*
X239825Y115731D01*
Y112500D02*
Y115731D01*
X241338Y117323D02*
X241461D01*
X241794Y117655D01*
X243762Y116474D02*
X246673Y119385D01*
X243762Y112500D02*
Y116474D01*
X246673Y119385D02*
Y132818D01*
X275197Y72047D02*
X277165Y74016D01*
X281496D01*
Y64567D02*
X285039D01*
X292520Y57087D01*
X301181D01*
X303543Y54724D01*
Y45669D02*
Y54724D01*
X301969Y44094D02*
X303543Y45669D01*
X297736Y44094D02*
X301969D01*
X246673Y132818D02*
X254119D01*
X259236Y120255D02*
Y127464D01*
X303150Y115157D02*
X305118Y113189D01*
X305377Y108425D02*
Y112931D01*
X279528Y115157D02*
X303150D01*
X297244Y103425D02*
Y110236D01*
Y93504D02*
Y103425D01*
X305377D01*
X295276Y112205D02*
X297244Y110236D01*
X291339Y78740D02*
Y83414D01*
X280022Y83661D02*
X303150D01*
X305118Y113189D02*
X305377Y112931D01*
X274606Y94488D02*
Y98228D01*
X88583Y73819D02*
Y98425D01*
X85630Y101378D02*
X88583Y98425D01*
X85630Y101378D02*
Y109252D01*
X98425Y49213D02*
X102165D01*
X95472Y52165D02*
X98425Y49213D01*
X95472Y52165D02*
Y62992D01*
X99409Y51181D02*
X102165D01*
X97441Y53150D02*
X99409Y51181D01*
X97441Y53150D02*
Y67913D01*
X95472Y69882D02*
X97441Y67913D01*
X92520Y69882D02*
X95472D01*
X88583Y73819D02*
X92520Y69882D01*
X85630Y109252D02*
X87205Y110827D01*
X88976D01*
X94583Y63882D02*
X95472Y62992D01*
X92323Y63882D02*
X94583D01*
X96457Y44291D02*
X99410Y47244D01*
X102165D01*
X96457Y18701D02*
Y44291D01*
X94394Y16638D02*
X96457Y18701D01*
X92323Y16638D02*
X94394D01*
X273622Y153543D02*
X274016Y153937D01*
X278740D01*
X273622Y147638D02*
X278740D01*
X280315Y150787D02*
X282480Y148622D01*
X278740Y150787D02*
X280315D01*
X301181Y137795D02*
X304134D01*
X301181Y147638D02*
X304134D01*
X301181Y157480D02*
X304134D01*
X301181Y167323D02*
X304134D01*
X295276Y137795D02*
X295276D01*
X288583Y144488D02*
X295276Y137795D01*
X285433Y144488D02*
X288583D01*
X285433Y147638D02*
X295276D01*
X288583Y150787D02*
X295276Y157480D01*
X285433Y150787D02*
X288583D01*
X285433Y153937D02*
X287795D01*
X291339Y157480D01*
Y165354D01*
X293307Y167323D01*
X295276D01*
X274606Y143701D02*
X275394Y144488D01*
X278740D01*
X252953Y79724D02*
X254921Y77756D01*
X252953Y79724D02*
Y87598D01*
X83563Y144587D02*
X84252Y143898D01*
X80709Y143701D02*
X82677D01*
X75546Y104331D02*
X77559Y106343D01*
X70866Y104331D02*
X75546D01*
X68504Y106693D02*
X70866Y104331D01*
X78976Y104567D02*
Y109685D01*
X76772Y102362D02*
X78976Y104567D01*
X68898Y102362D02*
X76772D01*
X65354Y105905D02*
X68898Y102362D01*
X83661Y104331D02*
X83661Y104331D01*
X83071Y104724D02*
X83661Y104331D01*
X83661D01*
X82841Y104495D02*
X83661Y104331D01*
X82677Y104528D02*
X82841Y104495D01*
X83071Y104724D01*
X66929Y100394D02*
X78740D01*
X81693Y103347D01*
X62205Y105118D02*
X66929Y100394D01*
X80709Y96653D02*
X84252D01*
X80709D02*
X80905Y96457D01*
X79724D02*
X80905D01*
X67913Y53150D02*
X81542D01*
X62205Y58858D02*
X67913Y53150D01*
X62205Y58858D02*
Y62937D01*
X70866Y57087D02*
X77756D01*
X68504Y59449D02*
X70866Y57087D01*
X68504Y59449D02*
Y62937D01*
X68719Y55354D02*
X78976D01*
X65354Y58719D02*
X68719Y55354D01*
X65354Y58719D02*
Y62937D01*
X81542Y53150D02*
X85479Y57087D01*
X78976Y55354D02*
X81693Y58071D01*
X80512Y49409D02*
X84252D01*
X80512D02*
X80709Y49213D01*
X79724D02*
X80709D01*
X102362Y155512D02*
X108268D01*
X102067Y155807D02*
X102362Y155512D01*
X99016Y155807D02*
X102067D01*
X82284Y15354D02*
X83567Y16638D01*
X82284Y11323D02*
Y15354D01*
X89370Y101575D02*
X90354D01*
X78976Y109685D02*
X80417Y111126D01*
X77559Y111024D02*
X81008Y114472D01*
X77559Y106343D02*
Y111024D01*
X275365Y110995D02*
X279528Y115157D01*
X256664Y110995D02*
X275365D01*
X263779Y108268D02*
X274606D01*
X262569Y109478D02*
X263779Y108268D01*
X257116Y109478D02*
X262569D01*
X274606Y108268D02*
X276575D01*
X274606Y104528D02*
Y108268D01*
X280512Y112205D02*
X295276D01*
X276575Y108268D02*
X280512Y112205D01*
X305377Y85888D02*
Y88425D01*
X303150Y83661D02*
X305377Y85888D01*
X274117Y89567D02*
X280022Y83661D01*
X209646Y53150D02*
Y55118D01*
X205708Y53150D02*
Y55118D01*
X283465Y108268D02*
X283622Y108425D01*
X250984Y89567D02*
X252953Y87598D01*
X248979Y83698D02*
X250000Y82677D01*
X70866Y9843D02*
X76866D01*
X68504Y12205D02*
X70866Y9843D01*
X215551Y111614D02*
X216752Y110414D01*
X211811Y108268D02*
X216732Y103347D01*
X210630Y108268D02*
X211811D01*
X212598Y110630D02*
X217913Y105315D01*
X212598Y110630D02*
Y115157D01*
X219451Y117126D02*
X224077Y112500D01*
X218504Y117126D02*
X219451D01*
X250984Y103347D02*
X257116Y109478D01*
X250984Y91535D02*
X254173Y88346D01*
Y81457D02*
Y88346D01*
Y81457D02*
X257874Y77756D01*
X232116Y78239D02*
X232283Y78407D01*
X232116Y78225D02*
Y78239D01*
X230830Y76939D02*
X232116Y78225D01*
X230816Y76939D02*
X230830D01*
X232283Y78407D02*
Y80709D01*
X229528Y75651D02*
X230816Y76939D01*
X229528Y73622D02*
Y75651D01*
X209646Y91535D02*
X209872Y91762D01*
X212628D01*
X216339Y95472D01*
X212598Y89567D02*
X213583D01*
X217520Y93504D01*
X220829Y82050D02*
Y87598D01*
X220472Y81693D02*
X220829Y82050D01*
X218959Y76968D02*
Y78285D01*
X215719Y81525D02*
X218959Y78285D01*
Y76968D02*
X219156Y76772D01*
X222441D01*
X212266Y73819D02*
Y76968D01*
Y70669D02*
Y73819D01*
Y67520D02*
Y70669D01*
X250984Y109252D02*
X256890Y115157D01*
X250984Y107283D02*
X256664Y112963D01*
X250984Y105315D02*
X256664Y110995D01*
X248979Y109252D02*
X250984D01*
X248979Y107283D02*
X250984D01*
X253937Y92520D02*
X260827D01*
X250984Y95472D02*
X253937Y92520D01*
X248979Y95472D02*
X250984D01*
X254921Y89567D02*
X257087D01*
X250984Y93504D02*
X254921Y89567D01*
X248979Y93504D02*
X250984D01*
X248979Y91535D02*
X250984D01*
X248979Y89567D02*
X250984D01*
X257874Y77756D02*
X267717D01*
X248979Y83698D02*
Y87598D01*
X245731Y115810D02*
X250176Y120255D01*
X245731Y112500D02*
Y115810D01*
X248979Y105315D02*
X250984D01*
X201772Y53150D02*
Y55118D01*
X220866Y118504D02*
Y120866D01*
Y118504D02*
X223622Y115748D01*
X216752Y109233D02*
Y110414D01*
X207246Y103347D02*
X207480Y103113D01*
X217520Y93504D02*
X220829D01*
X216339Y95472D02*
X220829D01*
X215808Y97441D02*
X220829D01*
X212462Y94095D02*
X215808Y97441D01*
X206299Y94095D02*
X212462D01*
X205512Y93307D02*
X206299Y94095D01*
X215354Y75296D02*
Y78347D01*
Y75296D02*
X216832Y73819D01*
X218959D01*
X218307Y91535D02*
X220829D01*
X216535Y85433D02*
Y87402D01*
X218701Y89567D01*
X220829D01*
X215551Y64961D02*
Y69525D01*
X250176Y120255D02*
X259236D01*
X243701Y112562D02*
X243762Y112500D01*
X233920D02*
Y116080D01*
X229921Y112992D02*
Y116142D01*
X223622Y115748D02*
X224410D01*
X226046Y114112D01*
Y112500D02*
Y114112D01*
X216752Y109233D02*
X218701Y107283D01*
X220829D01*
X217913Y105315D02*
X220829D01*
X216732Y103347D02*
X220829D01*
X231951Y81041D02*
X232283Y80709D01*
X231951Y81041D02*
Y84350D01*
X225590Y73622D02*
X227559Y75591D01*
Y80709D01*
X228014Y81164D01*
Y84350D01*
X222638Y73819D02*
X226046Y77227D01*
X218959Y73819D02*
X222638D01*
X233858Y75984D02*
X233858D01*
X233920Y76046D01*
Y84350D01*
X218978Y70650D02*
X232067D01*
X229921Y79134D02*
X229983Y79195D01*
Y84350D01*
X116929Y51181D02*
X122441D01*
X125591Y54331D01*
X116929Y49213D02*
X124409D01*
X125590Y50394D01*
X125197Y47244D02*
X125591Y46850D01*
X83661Y104331D02*
X83661Y104331D01*
X81693Y58071D02*
Y62008D01*
X85630Y58071D02*
X85630Y58071D01*
X85630Y58071D02*
Y60732D01*
X81693Y62008D02*
X83661Y63976D01*
X79724Y59055D02*
Y62992D01*
X77756Y57087D02*
X79724Y59055D01*
Y62992D02*
X83661Y66929D01*
X62205Y10630D02*
Y15693D01*
X78740Y78740D02*
X84252D01*
Y85039D02*
Y90354D01*
X62205Y105118D02*
Y110181D01*
X65354Y105905D02*
Y110181D01*
X83464Y114472D02*
X83661Y114276D01*
X68504Y106693D02*
Y110181D01*
X80315Y125984D02*
X84252D01*
Y131890D02*
Y137598D01*
X92323Y54331D02*
Y57583D01*
Y60732D01*
X92126Y54134D02*
X92520D01*
X80315Y31496D02*
X84252D01*
Y37402D02*
Y43110D01*
X92126Y6890D02*
X92520D01*
X92323Y7087D02*
Y10339D01*
X248979Y103347D02*
X250984D01*
X82976Y19984D02*
X85433D01*
X92323Y10339D02*
Y13488D01*
X143004Y65551D02*
Y70276D01*
X140051Y62598D02*
X143004Y65551D01*
X122335Y62598D02*
X140051D01*
X120488Y64445D02*
X122335Y62598D01*
X120488Y64445D02*
Y68818D01*
X143004Y70276D02*
X148909D01*
X140051Y89173D02*
X143004Y86221D01*
Y76575D02*
Y86221D01*
X83567Y16638D02*
X85630D01*
X65354Y11417D02*
Y15693D01*
X85630Y8858D02*
Y10339D01*
X68504Y12205D02*
Y15693D01*
X218959Y70669D02*
X218978Y70650D01*
X226046Y77227D02*
Y84350D01*
X232874Y67520D02*
X237857Y72502D01*
X219488Y67520D02*
X232874D01*
X85433Y19984D02*
X85630Y19787D01*
Y10339D02*
Y13488D01*
X218959Y67520D02*
X219488D01*
X215551Y69525D02*
X216695Y70669D01*
X224077Y78408D02*
Y84350D01*
X222441Y76772D02*
X224077Y78408D01*
X237857Y122343D02*
X237857Y122343D01*
X216695Y70669D02*
X218959D01*
D116*
X234904Y98425D02*
D03*
D117*
X248979Y109252D02*
D03*
Y107283D02*
D03*
Y105315D02*
D03*
Y103347D02*
D03*
Y101378D02*
D03*
Y99410D02*
D03*
Y97441D02*
D03*
Y95472D02*
D03*
Y93504D02*
D03*
Y91535D02*
D03*
Y89567D02*
D03*
Y87598D02*
D03*
X220829D02*
D03*
Y89567D02*
D03*
Y91535D02*
D03*
Y93504D02*
D03*
Y95472D02*
D03*
Y97441D02*
D03*
Y99410D02*
D03*
Y101378D02*
D03*
Y103347D02*
D03*
Y105315D02*
D03*
Y107283D02*
D03*
Y109252D02*
D03*
D118*
X245731Y84350D02*
D03*
X243762D02*
D03*
X241794D02*
D03*
X239825D02*
D03*
X237857D02*
D03*
X235888D02*
D03*
X233920D02*
D03*
X231951D02*
D03*
X229983D02*
D03*
X228014D02*
D03*
X226046D02*
D03*
X224077D02*
D03*
Y112500D02*
D03*
X226046D02*
D03*
X228014D02*
D03*
X229983D02*
D03*
X231951D02*
D03*
X233920D02*
D03*
X235888D02*
D03*
X237857D02*
D03*
X239825D02*
D03*
X241794D02*
D03*
X243762D02*
D03*
X245731D02*
D03*
D119*
X109252Y51181D02*
D03*
D120*
X112205Y44094D02*
D03*
X106299D02*
D03*
Y58268D02*
D03*
X112205D02*
D03*
X177165Y141634D02*
D03*
X175197D02*
D03*
X173228D02*
D03*
X171260D02*
D03*
X169291D02*
D03*
Y128051D02*
D03*
X171260D02*
D03*
X173228D02*
D03*
X175197D02*
D03*
X177165D02*
D03*
X179134D02*
D03*
Y141634D02*
D03*
X167323Y59153D02*
D03*
X169291D02*
D03*
X171260D02*
D03*
X173228D02*
D03*
X175197D02*
D03*
Y72736D02*
D03*
X173228D02*
D03*
X171260D02*
D03*
X169291D02*
D03*
X167323D02*
D03*
X165354D02*
D03*
Y59153D02*
D03*
D121*
X102165Y47244D02*
D03*
Y49213D02*
D03*
Y51181D02*
D03*
Y53150D02*
D03*
Y55118D02*
D03*
X116339D02*
D03*
Y53150D02*
D03*
Y51181D02*
D03*
Y49213D02*
D03*
Y47244D02*
D03*
X181988Y131890D02*
D03*
Y137795D02*
D03*
X166437D02*
D03*
Y131890D02*
D03*
X162500Y68898D02*
D03*
Y62992D02*
D03*
X178051D02*
D03*
Y68898D02*
D03*
D122*
X148909Y76575D02*
D03*
Y70276D02*
D03*
X143004Y76575D02*
D03*
Y70276D02*
D03*
X200787Y46457D02*
D03*
Y40157D02*
D03*
X84252Y49409D02*
D03*
Y43110D02*
D03*
Y90354D02*
D03*
Y96653D02*
D03*
Y143898D02*
D03*
Y137598D02*
D03*
X274606Y98228D02*
D03*
Y104528D02*
D03*
D123*
X257677Y88583D02*
D03*
X263976D02*
D03*
X231496Y131496D02*
D03*
X237795D02*
D03*
X114567Y155512D02*
D03*
X108268D02*
D03*
X144882Y145669D02*
D03*
X138583D02*
D03*
D124*
X263447Y98425D02*
D03*
X257542D02*
D03*
X231951Y122343D02*
D03*
X237857D02*
D03*
X251636Y76772D02*
D03*
X245731D02*
D03*
X263447Y104331D02*
D03*
X257542D02*
D03*
X205709Y31496D02*
D03*
X199803D02*
D03*
X106299Y38386D02*
D03*
X100394D02*
D03*
X118110D02*
D03*
X112205D02*
D03*
X192913Y138779D02*
D03*
X198819D02*
D03*
X257874Y82677D02*
D03*
X263779D02*
D03*
X198819Y161417D02*
D03*
X204724D02*
D03*
D125*
X114279Y76772D02*
D03*
Y70866D02*
D03*
X136114Y76378D02*
D03*
Y70472D02*
D03*
X211282Y97441D02*
D03*
Y103347D02*
D03*
X269291Y72244D02*
D03*
Y66339D02*
D03*
X184055Y68898D02*
D03*
Y62992D02*
D03*
X160433Y137795D02*
D03*
Y131890D02*
D03*
X151575Y143701D02*
D03*
Y149606D02*
D03*
D126*
X246673Y132818D02*
D03*
X250849Y128642D02*
D03*
X255060Y124430D02*
D03*
X259236Y120255D02*
D03*
D127*
X130028Y92520D02*
D03*
X118004D02*
D03*
Y106299D02*
D03*
X130028D02*
D03*
X138673Y92520D02*
D03*
X150697D02*
D03*
Y106299D02*
D03*
X138673D02*
D03*
X41232Y48228D02*
D03*
X53256D02*
D03*
Y95473D02*
D03*
X41232D02*
D03*
Y142717D02*
D03*
X53256D02*
D03*
D128*
X190945Y39264D02*
D03*
Y51287D02*
D03*
X127953Y157587D02*
D03*
Y145563D02*
D03*
D129*
X125098Y126969D02*
D03*
X146555D02*
D03*
D130*
X281496Y74016D02*
D03*
Y64567D02*
D03*
X159449Y103150D02*
D03*
Y93701D02*
D03*
D131*
X110295Y133858D02*
D03*
X94429D02*
D03*
X62933Y155512D02*
D03*
X78799D02*
D03*
D132*
X290022Y88425D02*
D03*
Y93425D02*
D03*
Y98425D02*
D03*
Y103425D02*
D03*
Y108425D02*
D03*
X305377Y88425D02*
D03*
Y93425D02*
D03*
Y108425D02*
D03*
Y103425D02*
D03*
Y98425D02*
D03*
D133*
X297736Y46654D02*
D03*
Y49213D02*
D03*
Y54331D02*
D03*
Y51772D02*
D03*
Y44094D02*
D03*
D134*
X189764Y173228D02*
D03*
X125197D02*
D03*
X189764Y23622D02*
D03*
X125197D02*
D03*
X93307Y183858D02*
D03*
X48425D02*
D03*
D135*
X137795Y162598D02*
D03*
X147638D02*
D03*
X157480D02*
D03*
X167323D02*
D03*
X177165D02*
D03*
X137795Y34252D02*
D03*
X147638D02*
D03*
X157480D02*
D03*
X167323D02*
D03*
X177165D02*
D03*
X61024Y173228D02*
D03*
X70866D02*
D03*
X80709D02*
D03*
D136*
X225905Y168701D02*
D03*
X235906D02*
D03*
X245905D02*
D03*
X255906D02*
D03*
X265905D02*
D03*
X275905D02*
D03*
X285906D02*
D03*
Y187598D02*
D03*
X275905D02*
D03*
X265905D02*
D03*
X255906D02*
D03*
X245905D02*
D03*
X235906D02*
D03*
X225905D02*
D03*
Y9252D02*
D03*
X235906D02*
D03*
X245905D02*
D03*
X255906D02*
D03*
X265905D02*
D03*
X275905D02*
D03*
X285906D02*
D03*
Y28150D02*
D03*
X275905D02*
D03*
X265905D02*
D03*
X255906D02*
D03*
X245905D02*
D03*
X235906D02*
D03*
X225905D02*
D03*
D137*
X174213Y134843D02*
D03*
X170276Y65945D02*
D03*
D138*
X173819Y116929D02*
D03*
Y113779D02*
D03*
Y110630D02*
D03*
Y107480D02*
D03*
X180512D02*
D03*
Y110630D02*
D03*
Y113779D02*
D03*
Y116929D02*
D03*
X188583D02*
D03*
Y113779D02*
D03*
Y110630D02*
D03*
Y107480D02*
D03*
X195276D02*
D03*
Y110630D02*
D03*
Y113779D02*
D03*
Y116929D02*
D03*
X173819Y99213D02*
D03*
Y96063D02*
D03*
Y92913D02*
D03*
Y89764D02*
D03*
X180512D02*
D03*
Y92913D02*
D03*
Y96063D02*
D03*
Y99213D02*
D03*
X188583D02*
D03*
Y96063D02*
D03*
Y92913D02*
D03*
Y89764D02*
D03*
X195276D02*
D03*
Y92913D02*
D03*
Y96063D02*
D03*
Y99213D02*
D03*
X85630Y10339D02*
D03*
Y13488D02*
D03*
Y16638D02*
D03*
Y19787D02*
D03*
X92323D02*
D03*
Y16638D02*
D03*
Y13488D02*
D03*
Y10339D02*
D03*
X218959Y67520D02*
D03*
Y70669D02*
D03*
Y73819D02*
D03*
Y76968D02*
D03*
X212266D02*
D03*
Y73819D02*
D03*
Y70669D02*
D03*
Y67520D02*
D03*
X85630Y57583D02*
D03*
Y60732D02*
D03*
Y63882D02*
D03*
Y67032D02*
D03*
X92323D02*
D03*
Y63882D02*
D03*
Y60732D02*
D03*
Y57583D02*
D03*
X88976Y104528D02*
D03*
Y107677D02*
D03*
Y110827D02*
D03*
Y113976D02*
D03*
X82284D02*
D03*
Y110827D02*
D03*
Y107677D02*
D03*
Y104528D02*
D03*
X285433Y153937D02*
D03*
Y150787D02*
D03*
Y147638D02*
D03*
Y144488D02*
D03*
X278740D02*
D03*
Y147638D02*
D03*
Y150787D02*
D03*
Y153937D02*
D03*
D139*
X199606Y154331D02*
D03*
X195866D02*
D03*
X192126D02*
D03*
Y144882D02*
D03*
X199606D02*
D03*
D140*
X275197Y66535D02*
D03*
Y72047D02*
D03*
X84252Y131890D02*
D03*
Y125984D02*
D03*
Y84646D02*
D03*
Y78740D02*
D03*
Y37402D02*
D03*
Y31496D02*
D03*
D141*
X308268Y54921D02*
D03*
Y43504D02*
D03*
D142*
X300394Y61811D02*
D03*
Y36614D02*
D03*
D143*
X256319Y133838D02*
D03*
X260216Y129941D02*
D03*
D144*
X127969Y78110D02*
D03*
D145*
X124228D02*
D03*
X120488D02*
D03*
X127969Y68818D02*
D03*
X124228D02*
D03*
X120488D02*
D03*
D146*
X66929Y27531D02*
D03*
Y74776D02*
D03*
Y122020D02*
D03*
D147*
X59055Y15693D02*
D03*
X62205D02*
D03*
X65354D02*
D03*
X68504D02*
D03*
X71653D02*
D03*
X74803D02*
D03*
Y39370D02*
D03*
X71653D02*
D03*
X68504D02*
D03*
X65354D02*
D03*
X62205D02*
D03*
X59055D02*
D03*
Y86614D02*
D03*
X62205D02*
D03*
X65354D02*
D03*
X68504D02*
D03*
X71653D02*
D03*
X74803D02*
D03*
Y62937D02*
D03*
X71653D02*
D03*
X68504D02*
D03*
X65354D02*
D03*
X62205D02*
D03*
X59055D02*
D03*
Y110181D02*
D03*
X62205D02*
D03*
X65354D02*
D03*
X68504D02*
D03*
X71653D02*
D03*
X74803D02*
D03*
Y133858D02*
D03*
X71653D02*
D03*
X68504D02*
D03*
X65354D02*
D03*
X62205D02*
D03*
X59055D02*
D03*
D148*
X48307Y15630D02*
D03*
X41063D02*
D03*
Y62874D02*
D03*
X48307D02*
D03*
Y110118D02*
D03*
X41063D02*
D03*
D149*
X44685Y31307D02*
D03*
Y78551D02*
D03*
Y125795D02*
D03*
D150*
X93898Y163091D02*
D03*
X96457D02*
D03*
X93898Y155807D02*
D03*
X96457D02*
D03*
D151*
X99016Y163091D02*
D03*
Y155807D02*
D03*
D152*
X95177Y159449D02*
D03*
D153*
X99083Y159843D02*
D03*
D154*
X102362Y120551D02*
D03*
Y95984D02*
D03*
D155*
X301181Y137795D02*
D03*
X295276D02*
D03*
X301181Y147638D02*
D03*
X295276D02*
D03*
X301181Y157480D02*
D03*
X295276D02*
D03*
X301181Y167323D02*
D03*
X295276D02*
D03*
D156*
X23228Y150591D02*
D03*
Y140748D02*
D03*
Y103347D02*
D03*
Y93504D02*
D03*
Y46260D02*
D03*
Y56102D02*
D03*
D157*
X12598Y128150D02*
D03*
Y163189D02*
D03*
Y80905D02*
D03*
Y115945D02*
D03*
Y68701D02*
D03*
Y33661D02*
D03*
D158*
X107587Y146063D02*
D03*
X95563D02*
D03*
D159*
X34449Y190413D02*
D03*
Y169823D02*
D03*
D160*
X194882Y131890D02*
X196850D01*
X191929D02*
X194882D01*
X159449Y101378D02*
Y103150D01*
X151575Y93504D02*
X159449Y101378D01*
X207480Y102756D02*
X210691D01*
X207480Y98032D02*
X210691D01*
X210691Y102756D02*
X211282Y103347D01*
X198819Y133858D02*
Y138779D01*
X196850Y131890D02*
X198819Y133858D01*
X251636Y73130D02*
Y76772D01*
X117126Y151575D02*
Y152953D01*
X114567Y155512D02*
X117126Y152953D01*
X133752Y157587D02*
X136598Y160433D01*
X136811D01*
X137795Y161417D01*
X127953Y157587D02*
X133752D01*
X137795Y161417D02*
Y162598D01*
X138583Y145669D02*
Y149409D01*
X147638Y158465D01*
Y162598D01*
X127953Y145563D02*
X128059Y145669D01*
X138583D01*
X153543Y143701D02*
X154528Y144685D01*
X151575Y143701D02*
X153543D01*
X147638Y139764D02*
X151575D01*
Y143701D01*
X184055Y60039D02*
Y62992D01*
Y68898D02*
Y71850D01*
X198819Y138779D02*
X199606Y139567D01*
Y144882D01*
Y154331D02*
X204724Y159449D01*
Y161417D01*
X203740Y165354D02*
X204724Y164370D01*
Y161417D02*
Y164370D01*
X221457Y27559D02*
X222047Y28150D01*
X225905D01*
X221457Y9843D02*
X222047Y9252D01*
X225905D01*
X221457Y187008D02*
X222047Y187598D01*
X225905D01*
X221457Y168307D02*
X221850Y168701D01*
X225905D01*
X237795Y131496D02*
Y135433D01*
X264961Y66535D02*
X265158Y66339D01*
X269291D01*
X264961Y72441D02*
X265158Y72244D01*
X269291D01*
Y66339D02*
X269488Y66535D01*
X275197D01*
X74803Y159508D02*
Y163386D01*
Y159508D02*
X78799Y155512D01*
X66929Y159508D02*
Y163386D01*
X62933Y155512D02*
X66929Y159508D01*
X283622Y108425D02*
X290022D01*
X283465Y103347D02*
X283543Y103425D01*
X290022D01*
X283465Y98425D02*
X290022D01*
X283465Y88583D02*
X283622Y88425D01*
X290022D01*
X266732Y82677D02*
X267717Y83661D01*
X263779Y82677D02*
X266732D01*
X210691Y98032D02*
X211282Y97441D01*
X245731Y73130D02*
Y76772D01*
X237857Y122343D02*
Y126279D01*
D161*
X155512Y149606D02*
X156496Y148622D01*
X151575Y149606D02*
X155512D01*
X195776Y46457D02*
X200787D01*
X190945Y51287D02*
X195776Y46457D01*
D162*
X179028Y39264D02*
X190945D01*
X177165Y37402D02*
X179028Y39264D01*
X177165Y34252D02*
Y37402D01*
X173228Y47244D02*
X186902D01*
X167323Y41339D02*
X173228Y47244D01*
X167323Y34252D02*
Y41339D01*
X186902Y47244D02*
X190945Y51287D01*
D163*
X259842Y106631D02*
Y107283D01*
X257542Y104331D02*
X259842Y106631D01*
D164*
X308268Y36220D02*
D03*
Y62205D02*
D03*
D165*
X250000Y183071D02*
D03*
X185827Y151870D02*
D03*
X235039Y106299D02*
D03*
X151575Y79724D02*
D03*
X207480Y102756D02*
D03*
Y98032D02*
D03*
X201772Y133858D02*
D03*
X245731Y73130D02*
D03*
X250000Y67913D02*
D03*
X251636Y73130D02*
D03*
X117126Y151575D02*
D03*
X154528Y144685D02*
D03*
X156496Y148622D02*
D03*
X147638Y139764D02*
D03*
X151575D02*
D03*
X209646Y35433D02*
D03*
Y31496D02*
D03*
X161417Y71850D02*
D03*
X184055Y60039D02*
D03*
Y71850D02*
D03*
X241142Y179134D02*
D03*
X233268D02*
D03*
X203740Y165354D02*
D03*
X199803D02*
D03*
X206693Y140748D02*
D03*
X207677Y136811D02*
D03*
X228346Y143701D02*
D03*
X235236Y148622D02*
D03*
X222441Y140748D02*
D03*
X244094D02*
D03*
X185039Y131890D02*
D03*
X160433Y124016D02*
D03*
Y140748D02*
D03*
X167323Y145669D02*
D03*
X213583Y155512D02*
D03*
X216535Y140748D02*
D03*
X210630D02*
D03*
X213583Y136811D02*
D03*
X219488D02*
D03*
X196850Y118504D02*
D03*
X219488Y113189D02*
D03*
X221457Y27559D02*
D03*
Y9843D02*
D03*
Y187008D02*
D03*
Y168307D02*
D03*
X270669Y13780D02*
D03*
X260827D02*
D03*
X240158Y18701D02*
D03*
X246801D02*
D03*
X210630Y64961D02*
D03*
X214567Y57087D02*
D03*
X254921Y18701D02*
D03*
X197835Y77756D02*
D03*
X195866Y101378D02*
D03*
X197835Y81693D02*
D03*
X165107Y124204D02*
D03*
X168349Y121063D02*
D03*
X168307Y117126D02*
D03*
X185039Y135827D02*
D03*
X179134Y145669D02*
D03*
X175276Y83583D02*
D03*
X162402Y85630D02*
D03*
X168307Y98425D02*
D03*
X160433Y54134D02*
D03*
X172244Y55118D02*
D03*
X160433Y77756D02*
D03*
X171260Y78740D02*
D03*
X172244Y85033D02*
D03*
X175197Y79766D02*
D03*
X182087Y83661D02*
D03*
X211614Y85630D02*
D03*
X190945Y126969D02*
D03*
X175197Y146653D02*
D03*
X181102Y121063D02*
D03*
X185039Y120079D02*
D03*
Y104331D02*
D03*
X226378Y131890D02*
D03*
X237795Y135433D02*
D03*
X268701Y135827D02*
D03*
Y115157D02*
D03*
X164370Y54134D02*
D03*
X241338Y117323D02*
D03*
X264961Y66535D02*
D03*
Y72441D02*
D03*
X291339Y78740D02*
D03*
X297244Y93504D02*
D03*
X305118Y113189D02*
D03*
X274606Y94488D02*
D03*
X128728Y84909D02*
D03*
X131228D02*
D03*
Y82410D02*
D03*
X128728D02*
D03*
X131130Y73779D02*
D03*
X138189Y79921D02*
D03*
X78740Y27559D02*
D03*
X55118D02*
D03*
X78740Y74803D02*
D03*
X55118D02*
D03*
X273622Y153543D02*
D03*
X304134Y137795D02*
D03*
Y147638D02*
D03*
Y157480D02*
D03*
Y167323D02*
D03*
X274606Y143701D02*
D03*
X80709D02*
D03*
X79724Y96457D02*
D03*
Y49213D02*
D03*
X39370Y153543D02*
D03*
Y161417D02*
D03*
X43307D02*
D03*
X47244D02*
D03*
X43307Y153543D02*
D03*
X47244D02*
D03*
X39370Y157480D02*
D03*
X43307D02*
D03*
X47244D02*
D03*
X27559Y181102D02*
D03*
X31496D02*
D03*
X35433D02*
D03*
X39370D02*
D03*
X27559Y185039D02*
D03*
X31496D02*
D03*
X35433D02*
D03*
X39370D02*
D03*
X100394Y143701D02*
D03*
Y149606D02*
D03*
Y146653D02*
D03*
X115157Y162402D02*
D03*
Y166339D02*
D03*
X103347Y162402D02*
D03*
X107283D02*
D03*
X111221D02*
D03*
Y166339D02*
D03*
X107283D02*
D03*
X103347D02*
D03*
X74803Y147638D02*
D03*
X59055D02*
D03*
X62992D02*
D03*
X66929D02*
D03*
X89370Y101575D02*
D03*
X283465Y108268D02*
D03*
Y103347D02*
D03*
Y98425D02*
D03*
Y88583D02*
D03*
X250000Y82677D02*
D03*
X215551Y111614D02*
D03*
X210630Y108268D02*
D03*
X212598Y115157D02*
D03*
X218504Y117126D02*
D03*
X259842Y107283D02*
D03*
X212598Y89567D02*
D03*
X220472Y81693D02*
D03*
X260827Y92520D02*
D03*
X267717Y77756D02*
D03*
Y83661D02*
D03*
X209646Y55118D02*
D03*
X205708Y55118D02*
D03*
X220866Y120866D02*
D03*
X205512Y93307D02*
D03*
X216535Y85433D02*
D03*
X201772Y55118D02*
D03*
X209646Y91535D02*
D03*
X225590Y73622D02*
D03*
X233858Y75984D02*
D03*
X229921Y79134D02*
D03*
X125591Y54331D02*
D03*
X125590Y50394D02*
D03*
X125591Y46850D02*
D03*
X229528Y73622D02*
D03*
X78740Y78740D02*
D03*
X45866Y100394D02*
D03*
Y94488D02*
D03*
Y91535D02*
D03*
Y97441D02*
D03*
X59055Y96457D02*
D03*
Y92520D02*
D03*
Y143701D02*
D03*
Y139764D02*
D03*
X74803Y143701D02*
D03*
X66929D02*
D03*
X74803Y139764D02*
D03*
X66929D02*
D03*
X70866Y143701D02*
D03*
X62992D02*
D03*
X78740Y122047D02*
D03*
Y118110D02*
D03*
X70866Y139764D02*
D03*
X62992D02*
D03*
X55118Y122047D02*
D03*
Y125984D02*
D03*
Y118110D02*
D03*
X45866Y144685D02*
D03*
Y138779D02*
D03*
Y141732D02*
D03*
X78740Y125984D02*
D03*
X45866Y147638D02*
D03*
X74803Y92520D02*
D03*
X66929D02*
D03*
X74803Y96457D02*
D03*
X66929D02*
D03*
X70866Y92520D02*
D03*
X62992D02*
D03*
X78740Y70866D02*
D03*
X70866Y96457D02*
D03*
X62992D02*
D03*
X55118Y78740D02*
D03*
Y70866D02*
D03*
X92126Y54134D02*
D03*
X78740Y31496D02*
D03*
X92126Y6890D02*
D03*
X45866Y53150D02*
D03*
X78740Y23622D02*
D03*
X55118D02*
D03*
Y31496D02*
D03*
X45866Y44291D02*
D03*
Y47244D02*
D03*
Y50197D02*
D03*
X109252Y34449D02*
D03*
Y41339D02*
D03*
X118110Y34449D02*
D03*
X100394D02*
D03*
X59055Y49213D02*
D03*
X62992D02*
D03*
X66929D02*
D03*
X70866D02*
D03*
X74803D02*
D03*
X261024Y134646D02*
D03*
X249274Y138878D02*
D03*
X265022Y122736D02*
D03*
X243369Y123130D02*
D03*
X250455Y116437D02*
D03*
X255118Y128740D02*
D03*
X249668Y123524D02*
D03*
X237857Y126279D02*
D03*
X267384Y96752D02*
D03*
Y104626D02*
D03*
Y100689D02*
D03*
X74803Y45276D02*
D03*
X70866D02*
D03*
X66929D02*
D03*
X62992D02*
D03*
X59055D02*
D03*
X128374Y73779D02*
D03*
X125224Y85197D02*
D03*
X122468D02*
D03*
Y82441D02*
D03*
X135039Y79921D02*
D03*
X124228Y118520D02*
D03*
X120728Y115520D02*
D03*
Y118520D02*
D03*
X124228Y115520D02*
D03*
X134228Y90004D02*
D03*
Y97004D02*
D03*
Y110504D02*
D03*
Y107004D02*
D03*
X131228Y76410D02*
D03*
Y79409D02*
D03*
X125224Y82441D02*
D03*
X134228Y93504D02*
D03*
Y103504D02*
D03*
D166*
X239173Y60039D02*
D03*
X232283Y95669D02*
D03*
X237402Y100787D02*
D03*
X235039Y90551D02*
D03*
X195866Y135827D02*
D03*
X231299Y31496D02*
D03*
X260827Y30512D02*
D03*
Y168307D02*
D03*
X230315Y189961D02*
D03*
X260827D02*
D03*
X280512D02*
D03*
X252953Y147638D02*
D03*
X277559Y119095D02*
D03*
Y79724D02*
D03*
X268701Y46260D02*
D03*
X259842Y63976D02*
D03*
X236221Y65945D02*
D03*
X254921Y54134D02*
D03*
X251969Y63976D02*
D03*
X267717Y61024D02*
D03*
X274606Y54134D02*
D03*
X283465D02*
D03*
X276575Y43307D02*
D03*
X283465D02*
D03*
X261811Y52165D02*
D03*
X232283Y56102D02*
D03*
X192913Y66929D02*
D03*
X106299D02*
D03*
X173228Y181102D02*
D03*
X157480D02*
D03*
X141732D02*
D03*
X102362Y192913D02*
D03*
X55118Y153543D02*
D03*
X23622Y192913D02*
D03*
Y19685D02*
D03*
X27559Y3937D02*
D03*
X43307D02*
D03*
X59055D02*
D03*
X90551Y27559D02*
D03*
X98425Y3937D02*
D03*
X141732Y15748D02*
D03*
X157480D02*
D03*
X173228D02*
D03*
X216535Y3937D02*
D03*
X251969D02*
D03*
X271654D02*
D03*
X291339Y19685D02*
D03*
X307087Y27559D02*
D03*
X311024Y82677D02*
D03*
Y125984D02*
D03*
Y141732D02*
D03*
Y157480D02*
D03*
Y173228D02*
D03*
X205709Y39370D02*
D03*
Y35433D02*
D03*
X192913Y175197D02*
D03*
Y170276D02*
D03*
X122047D02*
D03*
X126969D02*
D03*
X187992D02*
D03*
X131890D02*
D03*
X126969Y175197D02*
D03*
X122047D02*
D03*
X131890D02*
D03*
Y180118D02*
D03*
X187992Y175197D02*
D03*
X183071Y170276D02*
D03*
Y175197D02*
D03*
Y180118D02*
D03*
X187992D02*
D03*
X121063Y160433D02*
D03*
X124016Y152559D02*
D03*
X126969Y180118D02*
D03*
X143701Y149606D02*
D03*
X146653D02*
D03*
X137795Y57087D02*
D03*
X141732D02*
D03*
Y61024D02*
D03*
X145669D02*
D03*
X149606Y64961D02*
D03*
X145669D02*
D03*
X183071Y27559D02*
D03*
Y21654D02*
D03*
Y15748D02*
D03*
X190945D02*
D03*
Y21654D02*
D03*
Y27559D02*
D03*
X124016Y21654D02*
D03*
Y27559D02*
D03*
Y15748D02*
D03*
X131890D02*
D03*
Y21654D02*
D03*
Y27559D02*
D03*
X190945Y159449D02*
D03*
X206693Y152559D02*
D03*
X190945Y135827D02*
D03*
X194882Y131890D02*
D03*
X191929D02*
D03*
X292323Y42323D02*
D03*
Y54134D02*
D03*
X295276Y34449D02*
D03*
Y38386D02*
D03*
Y60039D02*
D03*
Y63976D02*
D03*
X297244Y118110D02*
D03*
X244094Y107480D02*
D03*
X225984Y107087D02*
D03*
Y89370D02*
D03*
X244094Y89764D02*
D03*
X116142Y66929D02*
D03*
X112205D02*
D03*
X94488Y76772D02*
D03*
X100394D02*
D03*
X106299D02*
D03*
X94488Y82677D02*
D03*
Y88583D02*
D03*
X100394Y82677D02*
D03*
X106299D02*
D03*
X100394Y88583D02*
D03*
X106299D02*
D03*
X90551Y127953D02*
D03*
Y124016D02*
D03*
Y120079D02*
D03*
X94488D02*
D03*
Y124016D02*
D03*
Y127953D02*
D03*
X98425D02*
D03*
Y131890D02*
D03*
Y135827D02*
D03*
X88583Y157480D02*
D03*
Y161417D02*
D03*
X82677Y192913D02*
D03*
X59055D02*
D03*
X70866D02*
D03*
X53150Y167323D02*
D03*
X49213Y171260D02*
D03*
X3937Y153543D02*
D03*
Y137795D02*
D03*
Y106299D02*
D03*
Y90551D02*
D03*
Y43307D02*
D03*
Y59055D02*
D03*
Y51181D02*
D03*
Y98425D02*
D03*
Y145669D02*
D03*
Y27559D02*
D03*
X11811D02*
D03*
X19685D02*
D03*
X3937Y74803D02*
D03*
X11811D02*
D03*
X19685D02*
D03*
X3937Y122047D02*
D03*
X11811D02*
D03*
X19685D02*
D03*
X3937Y169291D02*
D03*
X11811D02*
D03*
X19685D02*
D03*
X70866Y147638D02*
D03*
X33465Y144685D02*
D03*
Y147638D02*
D03*
X36417D02*
D03*
Y144685D02*
D03*
X33465Y97441D02*
D03*
Y100394D02*
D03*
X36417D02*
D03*
Y97441D02*
D03*
X33465Y50197D02*
D03*
Y53150D02*
D03*
X36417D02*
D03*
Y50197D02*
D03*
M02*
